%TF.GenerationSoftware,KiCad,Pcbnew,(7.0.0)*%
%TF.CreationDate,2023-07-18T19:19:10-07:00*%
%TF.ProjectId,aquarius-plus,61717561-7269-4757-932d-706c75732e6b,rev?*%
%TF.SameCoordinates,Original*%
%TF.FileFunction,Paste,Top*%
%TF.FilePolarity,Positive*%
%FSLAX46Y46*%
G04 Gerber Fmt 4.6, Leading zero omitted, Abs format (unit mm)*
G04 Created by KiCad (PCBNEW (7.0.0)) date 2023-07-18 19:19:10*
%MOMM*%
%LPD*%
G01*
G04 APERTURE LIST*
G04 Aperture macros list*
%AMRoundRect*
0 Rectangle with rounded corners*
0 $1 Rounding radius*
0 $2 $3 $4 $5 $6 $7 $8 $9 X,Y pos of 4 corners*
0 Add a 4 corners polygon primitive as box body*
4,1,4,$2,$3,$4,$5,$6,$7,$8,$9,$2,$3,0*
0 Add four circle primitives for the rounded corners*
1,1,$1+$1,$2,$3*
1,1,$1+$1,$4,$5*
1,1,$1+$1,$6,$7*
1,1,$1+$1,$8,$9*
0 Add four rect primitives between the rounded corners*
20,1,$1+$1,$2,$3,$4,$5,0*
20,1,$1+$1,$4,$5,$6,$7,0*
20,1,$1+$1,$6,$7,$8,$9,0*
20,1,$1+$1,$8,$9,$2,$3,0*%
G04 Aperture macros list end*
%ADD10C,0.000100*%
%ADD11RoundRect,0.225000X0.250000X-0.225000X0.250000X0.225000X-0.250000X0.225000X-0.250000X-0.225000X0*%
%ADD12RoundRect,0.200000X0.275000X-0.200000X0.275000X0.200000X-0.275000X0.200000X-0.275000X-0.200000X0*%
%ADD13RoundRect,0.200000X-0.275000X0.200000X-0.275000X-0.200000X0.275000X-0.200000X0.275000X0.200000X0*%
%ADD14RoundRect,0.100000X-0.637500X-0.100000X0.637500X-0.100000X0.637500X0.100000X-0.637500X0.100000X0*%
%ADD15RoundRect,0.150000X0.875000X0.150000X-0.875000X0.150000X-0.875000X-0.150000X0.875000X-0.150000X0*%
%ADD16RoundRect,0.200000X-0.200000X-0.275000X0.200000X-0.275000X0.200000X0.275000X-0.200000X0.275000X0*%
%ADD17RoundRect,0.225000X-0.250000X0.225000X-0.250000X-0.225000X0.250000X-0.225000X0.250000X0.225000X0*%
%ADD18R,1.500000X2.000000*%
%ADD19R,3.800000X2.000000*%
%ADD20RoundRect,0.075000X-0.075000X0.662500X-0.075000X-0.662500X0.075000X-0.662500X0.075000X0.662500X0*%
%ADD21RoundRect,0.075000X-0.662500X0.075000X-0.662500X-0.075000X0.662500X-0.075000X0.662500X0.075000X0*%
%ADD22RoundRect,0.225000X0.225000X0.250000X-0.225000X0.250000X-0.225000X-0.250000X0.225000X-0.250000X0*%
%ADD23RoundRect,0.225000X-0.225000X-0.250000X0.225000X-0.250000X0.225000X0.250000X-0.225000X0.250000X0*%
%ADD24RoundRect,0.250000X0.475000X-0.250000X0.475000X0.250000X-0.475000X0.250000X-0.475000X-0.250000X0*%
%ADD25RoundRect,0.150000X-0.587500X-0.150000X0.587500X-0.150000X0.587500X0.150000X-0.587500X0.150000X0*%
%ADD26RoundRect,0.200000X0.200000X0.275000X-0.200000X0.275000X-0.200000X-0.275000X0.200000X-0.275000X0*%
%ADD27R,0.400000X1.350000*%
%ADD28R,1.500000X1.550000*%
%ADD29R,1.000000X2.000000*%
%ADD30RoundRect,0.000000X-0.500000X-1.000000X0.500000X-1.000000X0.500000X1.000000X-0.500000X1.000000X0*%
%ADD31R,2.000000X2.000000*%
%ADD32RoundRect,0.150000X-0.512500X-0.150000X0.512500X-0.150000X0.512500X0.150000X-0.512500X0.150000X0*%
%ADD33RoundRect,0.137500X0.600000X0.137500X-0.600000X0.137500X-0.600000X-0.137500X0.600000X-0.137500X0*%
%ADD34RoundRect,0.137500X0.137500X0.600000X-0.137500X0.600000X-0.137500X-0.600000X0.137500X-0.600000X0*%
%ADD35RoundRect,0.250000X1.500000X0.550000X-1.500000X0.550000X-1.500000X-0.550000X1.500000X-0.550000X0*%
%ADD36RoundRect,0.250000X0.250000X0.250000X-0.250000X0.250000X-0.250000X-0.250000X0.250000X-0.250000X0*%
%ADD37R,1.200000X1.400000*%
%ADD38RoundRect,0.250000X-0.650000X0.325000X-0.650000X-0.325000X0.650000X-0.325000X0.650000X0.325000X0*%
%ADD39RoundRect,0.225000X0.225000X0.525000X-0.225000X0.525000X-0.225000X-0.525000X0.225000X-0.525000X0*%
%ADD40RoundRect,0.225000X-0.525000X0.225000X-0.525000X-0.225000X0.525000X-0.225000X0.525000X0.225000X0*%
%ADD41RoundRect,0.225000X-0.225000X-0.525000X0.225000X-0.525000X0.225000X0.525000X-0.225000X0.525000X0*%
%ADD42RoundRect,0.225000X-0.225000X-0.225000X0.225000X-0.225000X0.225000X0.225000X-0.225000X0.225000X0*%
%ADD43RoundRect,0.150000X-0.150000X0.587500X-0.150000X-0.587500X0.150000X-0.587500X0.150000X0.587500X0*%
G04 APERTURE END LIST*
D10*
%TO.C,J1*%
X86967152Y-37229469D02*
X86967152Y-37059469D01*
X79967152Y-35689469D02*
X79967152Y-35859469D01*
G36*
X86967152Y-35884469D02*
G01*
X86954152Y-35884469D01*
X86941152Y-35885469D01*
X86928152Y-35887469D01*
X86915152Y-35889469D01*
X86902152Y-35893469D01*
X86890152Y-35896469D01*
X86877152Y-35901469D01*
X86865152Y-35906469D01*
X86854152Y-35911469D01*
X86842152Y-35917469D01*
X86831152Y-35924469D01*
X86820152Y-35932469D01*
X86810152Y-35940469D01*
X86800152Y-35948469D01*
X86790152Y-35957469D01*
X86781152Y-35967469D01*
X86773152Y-35977469D01*
X86765152Y-35987469D01*
X86757152Y-35998469D01*
X86750152Y-36009469D01*
X86744152Y-36021469D01*
X86739152Y-36032469D01*
X86734152Y-36044469D01*
X86729152Y-36057469D01*
X86726152Y-36069469D01*
X86722152Y-36082469D01*
X86720152Y-36095469D01*
X86718152Y-36108469D01*
X86717152Y-36121469D01*
X86717152Y-36134469D01*
X86717152Y-36784469D01*
X86717152Y-36797469D01*
X86718152Y-36810469D01*
X86720152Y-36823469D01*
X86722152Y-36836469D01*
X86726152Y-36849469D01*
X86729152Y-36861469D01*
X86734152Y-36874469D01*
X86739152Y-36886469D01*
X86744152Y-36897469D01*
X86750152Y-36909469D01*
X86757152Y-36920469D01*
X86765152Y-36931469D01*
X86773152Y-36941469D01*
X86781152Y-36951469D01*
X86790152Y-36961469D01*
X86800152Y-36970469D01*
X86810152Y-36978469D01*
X86820152Y-36986469D01*
X86831152Y-36994469D01*
X86842152Y-37001469D01*
X86854152Y-37007469D01*
X86865152Y-37012469D01*
X86877152Y-37017469D01*
X86890152Y-37022469D01*
X86902152Y-37025469D01*
X86915152Y-37029469D01*
X86928152Y-37031469D01*
X86941152Y-37033469D01*
X86954152Y-37034469D01*
X86967152Y-37034469D01*
X86967152Y-37234469D01*
X85767152Y-37234469D01*
X85767152Y-35684469D01*
X86967152Y-35684469D01*
X86967152Y-35884469D01*
G37*
X86967152Y-35884469D02*
X86954152Y-35884469D01*
X86941152Y-35885469D01*
X86928152Y-35887469D01*
X86915152Y-35889469D01*
X86902152Y-35893469D01*
X86890152Y-35896469D01*
X86877152Y-35901469D01*
X86865152Y-35906469D01*
X86854152Y-35911469D01*
X86842152Y-35917469D01*
X86831152Y-35924469D01*
X86820152Y-35932469D01*
X86810152Y-35940469D01*
X86800152Y-35948469D01*
X86790152Y-35957469D01*
X86781152Y-35967469D01*
X86773152Y-35977469D01*
X86765152Y-35987469D01*
X86757152Y-35998469D01*
X86750152Y-36009469D01*
X86744152Y-36021469D01*
X86739152Y-36032469D01*
X86734152Y-36044469D01*
X86729152Y-36057469D01*
X86726152Y-36069469D01*
X86722152Y-36082469D01*
X86720152Y-36095469D01*
X86718152Y-36108469D01*
X86717152Y-36121469D01*
X86717152Y-36134469D01*
X86717152Y-36784469D01*
X86717152Y-36797469D01*
X86718152Y-36810469D01*
X86720152Y-36823469D01*
X86722152Y-36836469D01*
X86726152Y-36849469D01*
X86729152Y-36861469D01*
X86734152Y-36874469D01*
X86739152Y-36886469D01*
X86744152Y-36897469D01*
X86750152Y-36909469D01*
X86757152Y-36920469D01*
X86765152Y-36931469D01*
X86773152Y-36941469D01*
X86781152Y-36951469D01*
X86790152Y-36961469D01*
X86800152Y-36970469D01*
X86810152Y-36978469D01*
X86820152Y-36986469D01*
X86831152Y-36994469D01*
X86842152Y-37001469D01*
X86854152Y-37007469D01*
X86865152Y-37012469D01*
X86877152Y-37017469D01*
X86890152Y-37022469D01*
X86902152Y-37025469D01*
X86915152Y-37029469D01*
X86928152Y-37031469D01*
X86941152Y-37033469D01*
X86954152Y-37034469D01*
X86967152Y-37034469D01*
X86967152Y-37234469D01*
X85767152Y-37234469D01*
X85767152Y-35684469D01*
X86967152Y-35684469D01*
X86967152Y-35884469D01*
G36*
X81167152Y-37234469D02*
G01*
X79967152Y-37234469D01*
X79967152Y-37034469D01*
X79980152Y-37034469D01*
X79993152Y-37033469D01*
X80006152Y-37031469D01*
X80019152Y-37029469D01*
X80032152Y-37025469D01*
X80044152Y-37022469D01*
X80057152Y-37017469D01*
X80069152Y-37012469D01*
X80080152Y-37007469D01*
X80092152Y-37001469D01*
X80103152Y-36994469D01*
X80114152Y-36986469D01*
X80124152Y-36978469D01*
X80134152Y-36970469D01*
X80144152Y-36961469D01*
X80153152Y-36951469D01*
X80161152Y-36941469D01*
X80169152Y-36931469D01*
X80177152Y-36920469D01*
X80184152Y-36909469D01*
X80190152Y-36897469D01*
X80195152Y-36886469D01*
X80200152Y-36874469D01*
X80205152Y-36861469D01*
X80208152Y-36849469D01*
X80212152Y-36836469D01*
X80214152Y-36823469D01*
X80216152Y-36810469D01*
X80217152Y-36797469D01*
X80217152Y-36784469D01*
X80217152Y-36134469D01*
X80217152Y-36121469D01*
X80216152Y-36108469D01*
X80214152Y-36095469D01*
X80212152Y-36082469D01*
X80208152Y-36069469D01*
X80205152Y-36057469D01*
X80200152Y-36044469D01*
X80195152Y-36032469D01*
X80190152Y-36021469D01*
X80184152Y-36009469D01*
X80177152Y-35998469D01*
X80169152Y-35987469D01*
X80161152Y-35977469D01*
X80153152Y-35967469D01*
X80144152Y-35957469D01*
X80134152Y-35948469D01*
X80124152Y-35940469D01*
X80114152Y-35932469D01*
X80103152Y-35924469D01*
X80092152Y-35917469D01*
X80080152Y-35911469D01*
X80069152Y-35906469D01*
X80057152Y-35901469D01*
X80044152Y-35896469D01*
X80032152Y-35893469D01*
X80019152Y-35889469D01*
X80006152Y-35887469D01*
X79993152Y-35885469D01*
X79980152Y-35884469D01*
X79967152Y-35884469D01*
X79967152Y-35684469D01*
X81167152Y-35684469D01*
X81167152Y-37234469D01*
G37*
X81167152Y-37234469D02*
X79967152Y-37234469D01*
X79967152Y-37034469D01*
X79980152Y-37034469D01*
X79993152Y-37033469D01*
X80006152Y-37031469D01*
X80019152Y-37029469D01*
X80032152Y-37025469D01*
X80044152Y-37022469D01*
X80057152Y-37017469D01*
X80069152Y-37012469D01*
X80080152Y-37007469D01*
X80092152Y-37001469D01*
X80103152Y-36994469D01*
X80114152Y-36986469D01*
X80124152Y-36978469D01*
X80134152Y-36970469D01*
X80144152Y-36961469D01*
X80153152Y-36951469D01*
X80161152Y-36941469D01*
X80169152Y-36931469D01*
X80177152Y-36920469D01*
X80184152Y-36909469D01*
X80190152Y-36897469D01*
X80195152Y-36886469D01*
X80200152Y-36874469D01*
X80205152Y-36861469D01*
X80208152Y-36849469D01*
X80212152Y-36836469D01*
X80214152Y-36823469D01*
X80216152Y-36810469D01*
X80217152Y-36797469D01*
X80217152Y-36784469D01*
X80217152Y-36134469D01*
X80217152Y-36121469D01*
X80216152Y-36108469D01*
X80214152Y-36095469D01*
X80212152Y-36082469D01*
X80208152Y-36069469D01*
X80205152Y-36057469D01*
X80200152Y-36044469D01*
X80195152Y-36032469D01*
X80190152Y-36021469D01*
X80184152Y-36009469D01*
X80177152Y-35998469D01*
X80169152Y-35987469D01*
X80161152Y-35977469D01*
X80153152Y-35967469D01*
X80144152Y-35957469D01*
X80134152Y-35948469D01*
X80124152Y-35940469D01*
X80114152Y-35932469D01*
X80103152Y-35924469D01*
X80092152Y-35917469D01*
X80080152Y-35911469D01*
X80069152Y-35906469D01*
X80057152Y-35901469D01*
X80044152Y-35896469D01*
X80032152Y-35893469D01*
X80019152Y-35889469D01*
X80006152Y-35887469D01*
X79993152Y-35885469D01*
X79980152Y-35884469D01*
X79967152Y-35884469D01*
X79967152Y-35684469D01*
X81167152Y-35684469D01*
X81167152Y-37234469D01*
G36*
X86993152Y-35685469D02*
G01*
X87019152Y-35687469D01*
X87045152Y-35690469D01*
X87071152Y-35695469D01*
X87096152Y-35701469D01*
X87122152Y-35708469D01*
X87146152Y-35717469D01*
X87170152Y-35727469D01*
X87194152Y-35738469D01*
X87217152Y-35751469D01*
X87239152Y-35765469D01*
X87261152Y-35779469D01*
X87282152Y-35795469D01*
X87302152Y-35812469D01*
X87321152Y-35830469D01*
X87339152Y-35849469D01*
X87356152Y-35869469D01*
X87372152Y-35890469D01*
X87386152Y-35912469D01*
X87400152Y-35934469D01*
X87413152Y-35957469D01*
X87424152Y-35981469D01*
X87434152Y-36005469D01*
X87443152Y-36029469D01*
X87450152Y-36055469D01*
X87456152Y-36080469D01*
X87461152Y-36106469D01*
X87464152Y-36132469D01*
X87466152Y-36158469D01*
X87467152Y-36184469D01*
X87467152Y-36734469D01*
X87466152Y-36760469D01*
X87464152Y-36786469D01*
X87461152Y-36812469D01*
X87456152Y-36838469D01*
X87450152Y-36863469D01*
X87443152Y-36889469D01*
X87434152Y-36913469D01*
X87424152Y-36937469D01*
X87413152Y-36961469D01*
X87400152Y-36984469D01*
X87386152Y-37006469D01*
X87372152Y-37028469D01*
X87356152Y-37049469D01*
X87339152Y-37069469D01*
X87321152Y-37088469D01*
X87302152Y-37106469D01*
X87282152Y-37123469D01*
X87261152Y-37139469D01*
X87239152Y-37153469D01*
X87217152Y-37167469D01*
X87194152Y-37180469D01*
X87170152Y-37191469D01*
X87146152Y-37201469D01*
X87122152Y-37210469D01*
X87096152Y-37217469D01*
X87071152Y-37223469D01*
X87045152Y-37228469D01*
X87019152Y-37231469D01*
X86993152Y-37233469D01*
X86967152Y-37234469D01*
X86967152Y-37034469D01*
X86980152Y-37034469D01*
X86993152Y-37033469D01*
X87006152Y-37031469D01*
X87019152Y-37029469D01*
X87032152Y-37025469D01*
X87044152Y-37022469D01*
X87057152Y-37017469D01*
X87069152Y-37012469D01*
X87080152Y-37007469D01*
X87092152Y-37001469D01*
X87103152Y-36994469D01*
X87114152Y-36986469D01*
X87124152Y-36978469D01*
X87134152Y-36970469D01*
X87144152Y-36961469D01*
X87153152Y-36951469D01*
X87161152Y-36941469D01*
X87169152Y-36931469D01*
X87177152Y-36920469D01*
X87184152Y-36909469D01*
X87190152Y-36897469D01*
X87195152Y-36886469D01*
X87200152Y-36874469D01*
X87205152Y-36861469D01*
X87208152Y-36849469D01*
X87212152Y-36836469D01*
X87214152Y-36823469D01*
X87216152Y-36810469D01*
X87217152Y-36797469D01*
X87217152Y-36784469D01*
X87217152Y-36134469D01*
X87217152Y-36121469D01*
X87216152Y-36108469D01*
X87214152Y-36095469D01*
X87212152Y-36082469D01*
X87208152Y-36069469D01*
X87205152Y-36057469D01*
X87200152Y-36044469D01*
X87195152Y-36032469D01*
X87190152Y-36021469D01*
X87184152Y-36009469D01*
X87177152Y-35998469D01*
X87169152Y-35987469D01*
X87161152Y-35977469D01*
X87153152Y-35967469D01*
X87144152Y-35957469D01*
X87134152Y-35948469D01*
X87124152Y-35940469D01*
X87114152Y-35932469D01*
X87103152Y-35924469D01*
X87092152Y-35917469D01*
X87080152Y-35911469D01*
X87069152Y-35906469D01*
X87057152Y-35901469D01*
X87044152Y-35896469D01*
X87032152Y-35893469D01*
X87019152Y-35889469D01*
X87006152Y-35887469D01*
X86993152Y-35885469D01*
X86980152Y-35884469D01*
X86967152Y-35884469D01*
X86967152Y-35684469D01*
X86993152Y-35685469D01*
G37*
X86993152Y-35685469D02*
X87019152Y-35687469D01*
X87045152Y-35690469D01*
X87071152Y-35695469D01*
X87096152Y-35701469D01*
X87122152Y-35708469D01*
X87146152Y-35717469D01*
X87170152Y-35727469D01*
X87194152Y-35738469D01*
X87217152Y-35751469D01*
X87239152Y-35765469D01*
X87261152Y-35779469D01*
X87282152Y-35795469D01*
X87302152Y-35812469D01*
X87321152Y-35830469D01*
X87339152Y-35849469D01*
X87356152Y-35869469D01*
X87372152Y-35890469D01*
X87386152Y-35912469D01*
X87400152Y-35934469D01*
X87413152Y-35957469D01*
X87424152Y-35981469D01*
X87434152Y-36005469D01*
X87443152Y-36029469D01*
X87450152Y-36055469D01*
X87456152Y-36080469D01*
X87461152Y-36106469D01*
X87464152Y-36132469D01*
X87466152Y-36158469D01*
X87467152Y-36184469D01*
X87467152Y-36734469D01*
X87466152Y-36760469D01*
X87464152Y-36786469D01*
X87461152Y-36812469D01*
X87456152Y-36838469D01*
X87450152Y-36863469D01*
X87443152Y-36889469D01*
X87434152Y-36913469D01*
X87424152Y-36937469D01*
X87413152Y-36961469D01*
X87400152Y-36984469D01*
X87386152Y-37006469D01*
X87372152Y-37028469D01*
X87356152Y-37049469D01*
X87339152Y-37069469D01*
X87321152Y-37088469D01*
X87302152Y-37106469D01*
X87282152Y-37123469D01*
X87261152Y-37139469D01*
X87239152Y-37153469D01*
X87217152Y-37167469D01*
X87194152Y-37180469D01*
X87170152Y-37191469D01*
X87146152Y-37201469D01*
X87122152Y-37210469D01*
X87096152Y-37217469D01*
X87071152Y-37223469D01*
X87045152Y-37228469D01*
X87019152Y-37231469D01*
X86993152Y-37233469D01*
X86967152Y-37234469D01*
X86967152Y-37034469D01*
X86980152Y-37034469D01*
X86993152Y-37033469D01*
X87006152Y-37031469D01*
X87019152Y-37029469D01*
X87032152Y-37025469D01*
X87044152Y-37022469D01*
X87057152Y-37017469D01*
X87069152Y-37012469D01*
X87080152Y-37007469D01*
X87092152Y-37001469D01*
X87103152Y-36994469D01*
X87114152Y-36986469D01*
X87124152Y-36978469D01*
X87134152Y-36970469D01*
X87144152Y-36961469D01*
X87153152Y-36951469D01*
X87161152Y-36941469D01*
X87169152Y-36931469D01*
X87177152Y-36920469D01*
X87184152Y-36909469D01*
X87190152Y-36897469D01*
X87195152Y-36886469D01*
X87200152Y-36874469D01*
X87205152Y-36861469D01*
X87208152Y-36849469D01*
X87212152Y-36836469D01*
X87214152Y-36823469D01*
X87216152Y-36810469D01*
X87217152Y-36797469D01*
X87217152Y-36784469D01*
X87217152Y-36134469D01*
X87217152Y-36121469D01*
X87216152Y-36108469D01*
X87214152Y-36095469D01*
X87212152Y-36082469D01*
X87208152Y-36069469D01*
X87205152Y-36057469D01*
X87200152Y-36044469D01*
X87195152Y-36032469D01*
X87190152Y-36021469D01*
X87184152Y-36009469D01*
X87177152Y-35998469D01*
X87169152Y-35987469D01*
X87161152Y-35977469D01*
X87153152Y-35967469D01*
X87144152Y-35957469D01*
X87134152Y-35948469D01*
X87124152Y-35940469D01*
X87114152Y-35932469D01*
X87103152Y-35924469D01*
X87092152Y-35917469D01*
X87080152Y-35911469D01*
X87069152Y-35906469D01*
X87057152Y-35901469D01*
X87044152Y-35896469D01*
X87032152Y-35893469D01*
X87019152Y-35889469D01*
X87006152Y-35887469D01*
X86993152Y-35885469D01*
X86980152Y-35884469D01*
X86967152Y-35884469D01*
X86967152Y-35684469D01*
X86993152Y-35685469D01*
G36*
X79967152Y-35884469D02*
G01*
X79954152Y-35884469D01*
X79941152Y-35885469D01*
X79928152Y-35887469D01*
X79915152Y-35889469D01*
X79902152Y-35893469D01*
X79890152Y-35896469D01*
X79877152Y-35901469D01*
X79865152Y-35906469D01*
X79854152Y-35911469D01*
X79842152Y-35917469D01*
X79831152Y-35924469D01*
X79820152Y-35932469D01*
X79810152Y-35940469D01*
X79800152Y-35948469D01*
X79790152Y-35957469D01*
X79781152Y-35967469D01*
X79773152Y-35977469D01*
X79765152Y-35987469D01*
X79757152Y-35998469D01*
X79750152Y-36009469D01*
X79744152Y-36021469D01*
X79739152Y-36032469D01*
X79734152Y-36044469D01*
X79729152Y-36057469D01*
X79726152Y-36069469D01*
X79722152Y-36082469D01*
X79720152Y-36095469D01*
X79718152Y-36108469D01*
X79717152Y-36121469D01*
X79717152Y-36134469D01*
X79717152Y-36784469D01*
X79717152Y-36797469D01*
X79718152Y-36810469D01*
X79720152Y-36823469D01*
X79722152Y-36836469D01*
X79726152Y-36849469D01*
X79729152Y-36861469D01*
X79734152Y-36874469D01*
X79739152Y-36886469D01*
X79744152Y-36897469D01*
X79750152Y-36909469D01*
X79757152Y-36920469D01*
X79765152Y-36931469D01*
X79773152Y-36941469D01*
X79781152Y-36951469D01*
X79790152Y-36961469D01*
X79800152Y-36970469D01*
X79810152Y-36978469D01*
X79820152Y-36986469D01*
X79831152Y-36994469D01*
X79842152Y-37001469D01*
X79854152Y-37007469D01*
X79865152Y-37012469D01*
X79877152Y-37017469D01*
X79890152Y-37022469D01*
X79902152Y-37025469D01*
X79915152Y-37029469D01*
X79928152Y-37031469D01*
X79941152Y-37033469D01*
X79954152Y-37034469D01*
X79967152Y-37034469D01*
X79967152Y-37234469D01*
X79941152Y-37233469D01*
X79915152Y-37231469D01*
X79889152Y-37228469D01*
X79863152Y-37223469D01*
X79838152Y-37217469D01*
X79812152Y-37210469D01*
X79788152Y-37201469D01*
X79764152Y-37191469D01*
X79740152Y-37180469D01*
X79717152Y-37167469D01*
X79695152Y-37153469D01*
X79673152Y-37139469D01*
X79652152Y-37123469D01*
X79632152Y-37106469D01*
X79613152Y-37088469D01*
X79595152Y-37069469D01*
X79578152Y-37049469D01*
X79562152Y-37028469D01*
X79548152Y-37006469D01*
X79534152Y-36984469D01*
X79521152Y-36961469D01*
X79510152Y-36937469D01*
X79500152Y-36913469D01*
X79491152Y-36889469D01*
X79484152Y-36863469D01*
X79478152Y-36838469D01*
X79473152Y-36812469D01*
X79470152Y-36786469D01*
X79468152Y-36760469D01*
X79467152Y-36734469D01*
X79467152Y-36184469D01*
X79468152Y-36158469D01*
X79470152Y-36132469D01*
X79473152Y-36106469D01*
X79478152Y-36080469D01*
X79484152Y-36055469D01*
X79491152Y-36029469D01*
X79500152Y-36005469D01*
X79510152Y-35981469D01*
X79521152Y-35957469D01*
X79534152Y-35934469D01*
X79548152Y-35912469D01*
X79562152Y-35890469D01*
X79578152Y-35869469D01*
X79595152Y-35849469D01*
X79613152Y-35830469D01*
X79632152Y-35812469D01*
X79652152Y-35795469D01*
X79673152Y-35779469D01*
X79695152Y-35765469D01*
X79717152Y-35751469D01*
X79740152Y-35738469D01*
X79764152Y-35727469D01*
X79788152Y-35717469D01*
X79812152Y-35708469D01*
X79838152Y-35701469D01*
X79863152Y-35695469D01*
X79889152Y-35690469D01*
X79915152Y-35687469D01*
X79941152Y-35685469D01*
X79967152Y-35684469D01*
X79967152Y-35884469D01*
G37*
X79967152Y-35884469D02*
X79954152Y-35884469D01*
X79941152Y-35885469D01*
X79928152Y-35887469D01*
X79915152Y-35889469D01*
X79902152Y-35893469D01*
X79890152Y-35896469D01*
X79877152Y-35901469D01*
X79865152Y-35906469D01*
X79854152Y-35911469D01*
X79842152Y-35917469D01*
X79831152Y-35924469D01*
X79820152Y-35932469D01*
X79810152Y-35940469D01*
X79800152Y-35948469D01*
X79790152Y-35957469D01*
X79781152Y-35967469D01*
X79773152Y-35977469D01*
X79765152Y-35987469D01*
X79757152Y-35998469D01*
X79750152Y-36009469D01*
X79744152Y-36021469D01*
X79739152Y-36032469D01*
X79734152Y-36044469D01*
X79729152Y-36057469D01*
X79726152Y-36069469D01*
X79722152Y-36082469D01*
X79720152Y-36095469D01*
X79718152Y-36108469D01*
X79717152Y-36121469D01*
X79717152Y-36134469D01*
X79717152Y-36784469D01*
X79717152Y-36797469D01*
X79718152Y-36810469D01*
X79720152Y-36823469D01*
X79722152Y-36836469D01*
X79726152Y-36849469D01*
X79729152Y-36861469D01*
X79734152Y-36874469D01*
X79739152Y-36886469D01*
X79744152Y-36897469D01*
X79750152Y-36909469D01*
X79757152Y-36920469D01*
X79765152Y-36931469D01*
X79773152Y-36941469D01*
X79781152Y-36951469D01*
X79790152Y-36961469D01*
X79800152Y-36970469D01*
X79810152Y-36978469D01*
X79820152Y-36986469D01*
X79831152Y-36994469D01*
X79842152Y-37001469D01*
X79854152Y-37007469D01*
X79865152Y-37012469D01*
X79877152Y-37017469D01*
X79890152Y-37022469D01*
X79902152Y-37025469D01*
X79915152Y-37029469D01*
X79928152Y-37031469D01*
X79941152Y-37033469D01*
X79954152Y-37034469D01*
X79967152Y-37034469D01*
X79967152Y-37234469D01*
X79941152Y-37233469D01*
X79915152Y-37231469D01*
X79889152Y-37228469D01*
X79863152Y-37223469D01*
X79838152Y-37217469D01*
X79812152Y-37210469D01*
X79788152Y-37201469D01*
X79764152Y-37191469D01*
X79740152Y-37180469D01*
X79717152Y-37167469D01*
X79695152Y-37153469D01*
X79673152Y-37139469D01*
X79652152Y-37123469D01*
X79632152Y-37106469D01*
X79613152Y-37088469D01*
X79595152Y-37069469D01*
X79578152Y-37049469D01*
X79562152Y-37028469D01*
X79548152Y-37006469D01*
X79534152Y-36984469D01*
X79521152Y-36961469D01*
X79510152Y-36937469D01*
X79500152Y-36913469D01*
X79491152Y-36889469D01*
X79484152Y-36863469D01*
X79478152Y-36838469D01*
X79473152Y-36812469D01*
X79470152Y-36786469D01*
X79468152Y-36760469D01*
X79467152Y-36734469D01*
X79467152Y-36184469D01*
X79468152Y-36158469D01*
X79470152Y-36132469D01*
X79473152Y-36106469D01*
X79478152Y-36080469D01*
X79484152Y-36055469D01*
X79491152Y-36029469D01*
X79500152Y-36005469D01*
X79510152Y-35981469D01*
X79521152Y-35957469D01*
X79534152Y-35934469D01*
X79548152Y-35912469D01*
X79562152Y-35890469D01*
X79578152Y-35869469D01*
X79595152Y-35849469D01*
X79613152Y-35830469D01*
X79632152Y-35812469D01*
X79652152Y-35795469D01*
X79673152Y-35779469D01*
X79695152Y-35765469D01*
X79717152Y-35751469D01*
X79740152Y-35738469D01*
X79764152Y-35727469D01*
X79788152Y-35717469D01*
X79812152Y-35708469D01*
X79838152Y-35701469D01*
X79863152Y-35695469D01*
X79889152Y-35690469D01*
X79915152Y-35687469D01*
X79941152Y-35685469D01*
X79967152Y-35684469D01*
X79967152Y-35884469D01*
%TD*%
D11*
%TO.C,C21*%
X140997000Y-79981200D03*
X140997000Y-78431200D03*
%TD*%
D12*
%TO.C,R66*%
X204645000Y-132080000D03*
X204645000Y-130430000D03*
%TD*%
D13*
%TO.C,R24*%
X182497500Y-64238100D03*
X182497500Y-65888100D03*
%TD*%
D12*
%TO.C,R49*%
X75200000Y-119175000D03*
X75200000Y-117525000D03*
%TD*%
D14*
%TO.C,U5*%
X89194200Y-79361700D03*
X89194200Y-80011700D03*
X89194200Y-80661700D03*
X89194200Y-81311700D03*
X89194200Y-81961700D03*
X89194200Y-82611700D03*
X89194200Y-83261700D03*
X89194200Y-83911700D03*
X94919200Y-83911700D03*
X94919200Y-83261700D03*
X94919200Y-82611700D03*
X94919200Y-81961700D03*
X94919200Y-81311700D03*
X94919200Y-80661700D03*
X94919200Y-80011700D03*
X94919200Y-79361700D03*
%TD*%
D15*
%TO.C,U13*%
X192972700Y-110490000D03*
X192972700Y-109220000D03*
X192972700Y-107950000D03*
X192972700Y-106680000D03*
X192972700Y-105410000D03*
X192972700Y-104140000D03*
X192972700Y-102870000D03*
X192972700Y-101600000D03*
X192972700Y-100330000D03*
X192972700Y-99060000D03*
X192972700Y-97790000D03*
X192972700Y-96520000D03*
X192972700Y-95250000D03*
X192972700Y-93980000D03*
X192972700Y-92710000D03*
X192972700Y-91440000D03*
X179872700Y-91440000D03*
X179872700Y-92710000D03*
X179872700Y-93980000D03*
X179872700Y-95250000D03*
X179872700Y-96520000D03*
X179872700Y-97790000D03*
X179872700Y-99060000D03*
X179872700Y-100330000D03*
X179872700Y-101600000D03*
X179872700Y-102870000D03*
X179872700Y-104140000D03*
X179872700Y-105410000D03*
X179872700Y-106680000D03*
X179872700Y-107950000D03*
X179872700Y-109220000D03*
X179872700Y-110490000D03*
%TD*%
D13*
%TO.C,R47*%
X103611700Y-119273200D03*
X103611700Y-120923200D03*
%TD*%
D12*
%TO.C,R53*%
X165100000Y-132080000D03*
X165100000Y-130430000D03*
%TD*%
D16*
%TO.C,R20*%
X150609500Y-60120100D03*
X152259500Y-60120100D03*
%TD*%
%TO.C,R13*%
X157494300Y-57282000D03*
X159144300Y-57282000D03*
%TD*%
D17*
%TO.C,C46*%
X136350000Y-106562500D03*
X136350000Y-108112500D03*
%TD*%
D12*
%TO.C,R64*%
X201875000Y-132080000D03*
X201875000Y-130430000D03*
%TD*%
%TO.C,R54*%
X166490000Y-132080000D03*
X166490000Y-130430000D03*
%TD*%
D11*
%TO.C,C4*%
X129699400Y-53898800D03*
X129699400Y-52348800D03*
%TD*%
D18*
%TO.C,U3*%
X114393326Y-74549999D03*
X116693326Y-74549999D03*
D19*
X116693326Y-68249999D03*
D18*
X118993326Y-74549999D03*
%TD*%
D17*
%TO.C,C52*%
X134850000Y-106562500D03*
X134850000Y-108112500D03*
%TD*%
D13*
%TO.C,R46*%
X102150300Y-119272500D03*
X102150300Y-120922500D03*
%TD*%
D20*
%TO.C,U6*%
X143970000Y-82550000D03*
X143470000Y-82550000D03*
X142970000Y-82550000D03*
X142470000Y-82550000D03*
X141970000Y-82550000D03*
X141470000Y-82550000D03*
X140970000Y-82550000D03*
X140470000Y-82550000D03*
X139970000Y-82550000D03*
X139470000Y-82550000D03*
X138970000Y-82550000D03*
X138470000Y-82550000D03*
X137970000Y-82550000D03*
X137470000Y-82550000D03*
X136970000Y-82550000D03*
X136470000Y-82550000D03*
X135970000Y-82550000D03*
X135470000Y-82550000D03*
X134970000Y-82550000D03*
X134470000Y-82550000D03*
X133970000Y-82550000D03*
X133470000Y-82550000D03*
X132970000Y-82550000D03*
X132470000Y-82550000D03*
X131970000Y-82550000D03*
X131470000Y-82550000D03*
X130970000Y-82550000D03*
X130470000Y-82550000D03*
X129970000Y-82550000D03*
X129470000Y-82550000D03*
X128970000Y-82550000D03*
X128470000Y-82550000D03*
X127970000Y-82550000D03*
X127470000Y-82550000D03*
X126970000Y-82550000D03*
X126470000Y-82550000D03*
D21*
X124557500Y-84462500D03*
X124557500Y-84962500D03*
X124557500Y-85462500D03*
X124557500Y-85962500D03*
X124557500Y-86462500D03*
X124557500Y-86962500D03*
X124557500Y-87462500D03*
X124557500Y-87962500D03*
X124557500Y-88462500D03*
X124557500Y-88962500D03*
X124557500Y-89462500D03*
X124557500Y-89962500D03*
X124557500Y-90462500D03*
X124557500Y-90962500D03*
X124557500Y-91462500D03*
X124557500Y-91962500D03*
X124557500Y-92462500D03*
X124557500Y-92962500D03*
X124557500Y-93462500D03*
X124557500Y-93962500D03*
X124557500Y-94462500D03*
X124557500Y-94962500D03*
X124557500Y-95462500D03*
X124557500Y-95962500D03*
X124557500Y-96462500D03*
X124557500Y-96962500D03*
X124557500Y-97462500D03*
X124557500Y-97962500D03*
X124557500Y-98462500D03*
X124557500Y-98962500D03*
X124557500Y-99462500D03*
X124557500Y-99962500D03*
X124557500Y-100462500D03*
X124557500Y-100962500D03*
X124557500Y-101462500D03*
X124557500Y-101962500D03*
D20*
X126470000Y-103875000D03*
X126970000Y-103875000D03*
X127470000Y-103875000D03*
X127970000Y-103875000D03*
X128470000Y-103875000D03*
X128970000Y-103875000D03*
X129470000Y-103875000D03*
X129970000Y-103875000D03*
X130470000Y-103875000D03*
X130970000Y-103875000D03*
X131470000Y-103875000D03*
X131970000Y-103875000D03*
X132470000Y-103875000D03*
X132970000Y-103875000D03*
X133470000Y-103875000D03*
X133970000Y-103875000D03*
X134470000Y-103875000D03*
X134970000Y-103875000D03*
X135470000Y-103875000D03*
X135970000Y-103875000D03*
X136470000Y-103875000D03*
X136970000Y-103875000D03*
X137470000Y-103875000D03*
X137970000Y-103875000D03*
X138470000Y-103875000D03*
X138970000Y-103875000D03*
X139470000Y-103875000D03*
X139970000Y-103875000D03*
X140470000Y-103875000D03*
X140970000Y-103875000D03*
X141470000Y-103875000D03*
X141970000Y-103875000D03*
X142470000Y-103875000D03*
X142970000Y-103875000D03*
X143470000Y-103875000D03*
X143970000Y-103875000D03*
D21*
X145882500Y-101962500D03*
X145882500Y-101462500D03*
X145882500Y-100962500D03*
X145882500Y-100462500D03*
X145882500Y-99962500D03*
X145882500Y-99462500D03*
X145882500Y-98962500D03*
X145882500Y-98462500D03*
X145882500Y-97962500D03*
X145882500Y-97462500D03*
X145882500Y-96962500D03*
X145882500Y-96462500D03*
X145882500Y-95962500D03*
X145882500Y-95462500D03*
X145882500Y-94962500D03*
X145882500Y-94462500D03*
X145882500Y-93962500D03*
X145882500Y-93462500D03*
X145882500Y-92962500D03*
X145882500Y-92462500D03*
X145882500Y-91962500D03*
X145882500Y-91462500D03*
X145882500Y-90962500D03*
X145882500Y-90462500D03*
X145882500Y-89962500D03*
X145882500Y-89462500D03*
X145882500Y-88962500D03*
X145882500Y-88462500D03*
X145882500Y-87962500D03*
X145882500Y-87462500D03*
X145882500Y-86962500D03*
X145882500Y-86462500D03*
X145882500Y-85962500D03*
X145882500Y-85462500D03*
X145882500Y-84962500D03*
X145882500Y-84462500D03*
%TD*%
D16*
%TO.C,R15*%
X143738600Y-58716700D03*
X145388600Y-58716700D03*
%TD*%
D13*
%TO.C,R25*%
X184000000Y-64238100D03*
X184000000Y-65888100D03*
%TD*%
D12*
%TO.C,R59*%
X194950000Y-132080000D03*
X194950000Y-130430000D03*
%TD*%
D22*
%TO.C,C47*%
X114100000Y-112925600D03*
X112550000Y-112925600D03*
%TD*%
D17*
%TO.C,C35*%
X133350000Y-106575000D03*
X133350000Y-108125000D03*
%TD*%
D23*
%TO.C,C55*%
X179296800Y-112226000D03*
X180846800Y-112226000D03*
%TD*%
D11*
%TO.C,C20*%
X125000000Y-79983800D03*
X125000000Y-78433800D03*
%TD*%
D24*
%TO.C,C3*%
X126449400Y-54073800D03*
X126449400Y-52173800D03*
%TD*%
D13*
%TO.C,R23*%
X181000000Y-64238100D03*
X181000000Y-65888100D03*
%TD*%
D16*
%TO.C,R22*%
X81675000Y-61200000D03*
X83325000Y-61200000D03*
%TD*%
D25*
%TO.C,Q2*%
X92300000Y-67200000D03*
X92300000Y-69100000D03*
X94175000Y-68150000D03*
%TD*%
D11*
%TO.C,C19*%
X136470000Y-79987500D03*
X136470000Y-78437500D03*
%TD*%
D12*
%TO.C,R4*%
X123945700Y-53957300D03*
X123945700Y-52307300D03*
%TD*%
D26*
%TO.C,R1*%
X83375000Y-48202700D03*
X81725000Y-48202700D03*
%TD*%
D16*
%TO.C,R18*%
X81675000Y-59690000D03*
X83325000Y-59690000D03*
%TD*%
D11*
%TO.C,C56*%
X94954900Y-120871400D03*
X94954900Y-119321400D03*
%TD*%
D22*
%TO.C,C48*%
X117625000Y-112925600D03*
X116075000Y-112925600D03*
%TD*%
D12*
%TO.C,R58*%
X172030000Y-132080000D03*
X172030000Y-130430000D03*
%TD*%
D22*
%TO.C,C45*%
X165685000Y-104941400D03*
X164135000Y-104941400D03*
%TD*%
D12*
%TO.C,R57*%
X170645000Y-132080000D03*
X170645000Y-130430000D03*
%TD*%
D16*
%TO.C,R33*%
X81675000Y-69100000D03*
X83325000Y-69100000D03*
%TD*%
D22*
%TO.C,C25*%
X86829400Y-79510100D03*
X85279400Y-79510100D03*
%TD*%
%TO.C,C26*%
X86825600Y-80962600D03*
X85275600Y-80962600D03*
%TD*%
D16*
%TO.C,R14*%
X164581300Y-57279100D03*
X166231300Y-57279100D03*
%TD*%
%TO.C,R39*%
X116025000Y-114425600D03*
X117675000Y-114425600D03*
%TD*%
%TO.C,R9*%
X157494300Y-55864900D03*
X159144300Y-55864900D03*
%TD*%
D22*
%TO.C,C41*%
X165685000Y-94131400D03*
X164135000Y-94131400D03*
%TD*%
D13*
%TO.C,R44*%
X98282900Y-119254000D03*
X98282900Y-120904000D03*
%TD*%
D22*
%TO.C,C30*%
X121995000Y-86962500D03*
X120445000Y-86962500D03*
%TD*%
D13*
%TO.C,R3*%
X120949400Y-52298800D03*
X120949400Y-53948800D03*
%TD*%
D11*
%TO.C,C15*%
X128550000Y-79987500D03*
X128550000Y-78437500D03*
%TD*%
D16*
%TO.C,R11*%
X143738600Y-57298300D03*
X145388600Y-57298300D03*
%TD*%
D23*
%TO.C,C40*%
X148445000Y-94100002D03*
X149995000Y-94100002D03*
%TD*%
D16*
%TO.C,R34*%
X87725000Y-73650000D03*
X89375000Y-73650000D03*
%TD*%
D27*
%TO.C,J1*%
X84767151Y-39159468D03*
X84117151Y-39159468D03*
X83467151Y-39159468D03*
X82817151Y-39159468D03*
X82167151Y-39159468D03*
D28*
X84467151Y-36459468D03*
X82467151Y-36459468D03*
%TD*%
D12*
%TO.C,R40*%
X85835800Y-120921600D03*
X85835800Y-119271600D03*
%TD*%
D13*
%TO.C,R27*%
X187000000Y-64225000D03*
X187000000Y-65875000D03*
%TD*%
D18*
%TO.C,U11*%
X112777499Y-110925599D03*
X115077499Y-110925599D03*
D19*
X115077499Y-104625599D03*
D18*
X117377499Y-110925599D03*
%TD*%
D22*
%TO.C,C33*%
X121983000Y-88476400D03*
X120433000Y-88476400D03*
%TD*%
D16*
%TO.C,R16*%
X150608400Y-58697000D03*
X152258400Y-58697000D03*
%TD*%
D22*
%TO.C,C29*%
X165685000Y-83351400D03*
X164135000Y-83351400D03*
%TD*%
D26*
%TO.C,R31*%
X83325000Y-67600000D03*
X81675000Y-67600000D03*
%TD*%
D23*
%TO.C,C42*%
X148450000Y-95600000D03*
X150000000Y-95600000D03*
%TD*%
D25*
%TO.C,Q1*%
X88012500Y-67200000D03*
X88012500Y-69100000D03*
X89887500Y-68150000D03*
%TD*%
D16*
%TO.C,R17*%
X157490500Y-58693000D03*
X159140500Y-58693000D03*
%TD*%
D17*
%TO.C,C49*%
X127970000Y-106437500D03*
X127970000Y-107987500D03*
%TD*%
D16*
%TO.C,R21*%
X157494300Y-60128100D03*
X159144300Y-60128100D03*
%TD*%
D12*
%TO.C,R51*%
X162335000Y-132080000D03*
X162335000Y-130430000D03*
%TD*%
D16*
%TO.C,R36*%
X114181627Y-78049300D03*
X115831627Y-78049300D03*
%TD*%
D17*
%TO.C,C57*%
X76659700Y-117575400D03*
X76659700Y-119125400D03*
%TD*%
D12*
%TO.C,R60*%
X196335000Y-132080000D03*
X196335000Y-130430000D03*
%TD*%
%TO.C,R68*%
X79650000Y-124275000D03*
X79650000Y-122625000D03*
%TD*%
D16*
%TO.C,R32*%
X81675000Y-66100000D03*
X83325000Y-66100000D03*
%TD*%
D13*
%TO.C,R69*%
X78000000Y-143225000D03*
X78000000Y-144875000D03*
%TD*%
D29*
%TO.C,J9*%
X102459999Y-123069999D03*
X99959999Y-123069999D03*
X96649999Y-123069999D03*
X94939999Y-123069999D03*
X92439999Y-123069999D03*
X89939999Y-123069999D03*
X87519999Y-123069999D03*
X85819999Y-123069999D03*
X104959999Y-123069999D03*
D30*
X98280000Y-123070000D03*
D29*
X82539999Y-123069999D03*
D31*
X110534999Y-144119999D03*
X81464999Y-145319999D03*
%TD*%
D32*
%TO.C,U2*%
X161035274Y-64686262D03*
X161035274Y-65636262D03*
X161035274Y-66586262D03*
X163310274Y-66586262D03*
X163310274Y-64686262D03*
%TD*%
D12*
%TO.C,R56*%
X169260000Y-132080000D03*
X169260000Y-130430000D03*
%TD*%
D13*
%TO.C,R43*%
X92411000Y-119257600D03*
X92411000Y-120907600D03*
%TD*%
D23*
%TO.C,C24*%
X194621300Y-76871400D03*
X196171300Y-76871400D03*
%TD*%
D13*
%TO.C,R26*%
X185500000Y-64238100D03*
X185500000Y-65888100D03*
%TD*%
D33*
%TO.C,U7*%
X191770000Y-80848100D03*
X191770000Y-80048100D03*
X191770000Y-79248100D03*
X191770000Y-78448100D03*
X191770000Y-77648100D03*
X191770000Y-76848100D03*
X191770000Y-76048100D03*
X191770000Y-75248100D03*
X191770000Y-74448100D03*
X191770000Y-73648100D03*
X191770000Y-72848100D03*
D34*
X190107500Y-71185600D03*
X189307500Y-71185600D03*
X188507500Y-71185600D03*
X187707500Y-71185600D03*
X186907500Y-71185600D03*
X186107500Y-71185600D03*
X185307500Y-71185600D03*
X184507500Y-71185600D03*
X183707500Y-71185600D03*
X182907500Y-71185600D03*
X182107500Y-71185600D03*
D33*
X180445000Y-72848100D03*
X180445000Y-73648100D03*
X180445000Y-74448100D03*
X180445000Y-75248100D03*
X180445000Y-76048100D03*
X180445000Y-76848100D03*
X180445000Y-77648100D03*
X180445000Y-78448100D03*
X180445000Y-79248100D03*
X180445000Y-80048100D03*
X180445000Y-80848100D03*
D34*
X182107500Y-82510600D03*
X182907500Y-82510600D03*
X183707500Y-82510600D03*
X184507500Y-82510600D03*
X185307500Y-82510600D03*
X186107500Y-82510600D03*
X186907500Y-82510600D03*
X187707500Y-82510600D03*
X188507500Y-82510600D03*
X189307500Y-82510600D03*
X190107500Y-82510600D03*
%TD*%
D16*
%TO.C,R35*%
X93575000Y-63950000D03*
X95225000Y-63950000D03*
%TD*%
D14*
%TO.C,U4*%
X159684100Y-72980000D03*
X159684100Y-73630000D03*
X159684100Y-74280000D03*
X159684100Y-74930000D03*
X159684100Y-75580000D03*
X159684100Y-76230000D03*
X159684100Y-76880000D03*
X159684100Y-77530000D03*
X159684100Y-78180000D03*
X159684100Y-78830000D03*
X165409100Y-78830000D03*
X165409100Y-78180000D03*
X165409100Y-77530000D03*
X165409100Y-76880000D03*
X165409100Y-76230000D03*
X165409100Y-75580000D03*
X165409100Y-74930000D03*
X165409100Y-74280000D03*
X165409100Y-73630000D03*
X165409100Y-72980000D03*
%TD*%
D23*
%TO.C,C37*%
X148445000Y-91012500D03*
X149995000Y-91012500D03*
%TD*%
%TO.C,C39*%
X148445000Y-92512500D03*
X149995000Y-92512500D03*
%TD*%
D12*
%TO.C,R65*%
X203260000Y-132080000D03*
X203260000Y-130430000D03*
%TD*%
%TO.C,R6*%
X131206600Y-53943400D03*
X131206600Y-52293400D03*
%TD*%
D14*
%TO.C,U9*%
X159697500Y-95456400D03*
X159697500Y-96106400D03*
X159697500Y-96756400D03*
X159697500Y-97406400D03*
X159697500Y-98056400D03*
X159697500Y-98706400D03*
X159697500Y-99356400D03*
X159697500Y-100006400D03*
X159697500Y-100656400D03*
X159697500Y-101306400D03*
X165422500Y-101306400D03*
X165422500Y-100656400D03*
X165422500Y-100006400D03*
X165422500Y-99356400D03*
X165422500Y-98706400D03*
X165422500Y-98056400D03*
X165422500Y-97406400D03*
X165422500Y-96756400D03*
X165422500Y-96106400D03*
X165422500Y-95456400D03*
%TD*%
D12*
%TO.C,R62*%
X199105000Y-132080000D03*
X199105000Y-130430000D03*
%TD*%
%TO.C,R61*%
X197720000Y-132080000D03*
X197720000Y-130430000D03*
%TD*%
D13*
%TO.C,R45*%
X99981100Y-119267600D03*
X99981100Y-120917600D03*
%TD*%
D11*
%TO.C,C14*%
X126470000Y-79987500D03*
X126470000Y-78437500D03*
%TD*%
D22*
%TO.C,C43*%
X121995000Y-97462500D03*
X120445000Y-97462500D03*
%TD*%
D17*
%TO.C,C51*%
X131850000Y-106562500D03*
X131850000Y-108112500D03*
%TD*%
D14*
%TO.C,U8*%
X159697500Y-84676400D03*
X159697500Y-85326400D03*
X159697500Y-85976400D03*
X159697500Y-86626400D03*
X159697500Y-87276400D03*
X159697500Y-87926400D03*
X159697500Y-88576400D03*
X159697500Y-89226400D03*
X159697500Y-89876400D03*
X159697500Y-90526400D03*
X165422500Y-90526400D03*
X165422500Y-89876400D03*
X165422500Y-89226400D03*
X165422500Y-88576400D03*
X165422500Y-87926400D03*
X165422500Y-87276400D03*
X165422500Y-86626400D03*
X165422500Y-85976400D03*
X165422500Y-85326400D03*
X165422500Y-84676400D03*
%TD*%
D16*
%TO.C,R12*%
X150609500Y-57273900D03*
X152259500Y-57273900D03*
%TD*%
%TO.C,R19*%
X143738600Y-60135000D03*
X145388600Y-60135000D03*
%TD*%
D22*
%TO.C,C27*%
X86825600Y-82421800D03*
X85275600Y-82421800D03*
%TD*%
D13*
%TO.C,R5*%
X128199400Y-52298800D03*
X128199400Y-53948800D03*
%TD*%
D23*
%TO.C,C6*%
X81725000Y-62700000D03*
X83275000Y-62700000D03*
%TD*%
D26*
%TO.C,R2*%
X83375000Y-49702700D03*
X81725000Y-49702700D03*
%TD*%
D22*
%TO.C,C36*%
X121995000Y-91462500D03*
X120445000Y-91462500D03*
%TD*%
%TO.C,C10*%
X165671600Y-71655000D03*
X164121600Y-71655000D03*
%TD*%
D35*
%TO.C,C7*%
X109380000Y-55880000D03*
X103980000Y-55880000D03*
%TD*%
D22*
%TO.C,C23*%
X95202000Y-78139900D03*
X93652000Y-78139900D03*
%TD*%
D11*
%TO.C,C2*%
X122449400Y-53898800D03*
X122449400Y-52348800D03*
%TD*%
D36*
%TO.C,D2*%
X90700000Y-64000000D03*
X88200000Y-64000000D03*
%TD*%
D37*
%TO.C,X1*%
X113499999Y-91749999D03*
X113499999Y-94149999D03*
X115399999Y-94149999D03*
X115399999Y-91749999D03*
%TD*%
D23*
%TO.C,C31*%
X148446200Y-88090600D03*
X149996200Y-88090600D03*
%TD*%
D17*
%TO.C,C53*%
X142950000Y-106443000D03*
X142950000Y-107993000D03*
%TD*%
D11*
%TO.C,C16*%
X130050000Y-79987500D03*
X130050000Y-78437500D03*
%TD*%
D22*
%TO.C,C38*%
X121995100Y-92991200D03*
X120445100Y-92991200D03*
%TD*%
%TO.C,C11*%
X89325000Y-72150000D03*
X87775000Y-72150000D03*
%TD*%
D14*
%TO.C,U12*%
X159697500Y-106266400D03*
X159697500Y-106916400D03*
X159697500Y-107566400D03*
X159697500Y-108216400D03*
X159697500Y-108866400D03*
X159697500Y-109516400D03*
X159697500Y-110166400D03*
X159697500Y-110816400D03*
X159697500Y-111466400D03*
X159697500Y-112116400D03*
X165422500Y-112116400D03*
X165422500Y-111466400D03*
X165422500Y-110816400D03*
X165422500Y-110166400D03*
X165422500Y-109516400D03*
X165422500Y-108866400D03*
X165422500Y-108216400D03*
X165422500Y-107566400D03*
X165422500Y-106916400D03*
X165422500Y-106266400D03*
%TD*%
D38*
%TO.C,C58*%
X73250000Y-117125000D03*
X73250000Y-120075000D03*
%TD*%
D22*
%TO.C,C28*%
X86829400Y-83887900D03*
X85279400Y-83887900D03*
%TD*%
D17*
%TO.C,C9*%
X165003774Y-64645562D03*
X165003774Y-66195562D03*
%TD*%
D13*
%TO.C,R42*%
X89130700Y-119266700D03*
X89130700Y-120916700D03*
%TD*%
D22*
%TO.C,C32*%
X115325000Y-89820000D03*
X113775000Y-89820000D03*
%TD*%
%TO.C,C13*%
X119081627Y-76549300D03*
X117531627Y-76549300D03*
%TD*%
D12*
%TO.C,R50*%
X160950000Y-132080000D03*
X160950000Y-130430000D03*
%TD*%
D17*
%TO.C,C50*%
X129426100Y-106435300D03*
X129426100Y-107985300D03*
%TD*%
D12*
%TO.C,R30*%
X95950000Y-68125000D03*
X95950000Y-66475000D03*
%TD*%
D16*
%TO.C,R37*%
X117481627Y-78049300D03*
X119131627Y-78049300D03*
%TD*%
%TO.C,R7*%
X143738600Y-55880000D03*
X145388600Y-55880000D03*
%TD*%
%TO.C,R10*%
X164579500Y-55866000D03*
X166229500Y-55866000D03*
%TD*%
D39*
%TO.C,U10*%
X72490000Y-114750000D03*
X73760000Y-114750000D03*
X75030000Y-114750000D03*
X76300000Y-114750000D03*
X77570000Y-114750000D03*
X78840000Y-114750000D03*
X80110000Y-114750000D03*
X81380000Y-114750000D03*
X82650000Y-114750000D03*
X83920000Y-114750000D03*
X85190000Y-114750000D03*
X86460000Y-114750000D03*
X87730000Y-114750000D03*
X89000000Y-114750000D03*
D40*
X90250000Y-112985000D03*
X90250000Y-111715000D03*
X90250000Y-110445000D03*
X90250000Y-109175000D03*
X90250000Y-107905000D03*
X90250000Y-106635000D03*
X90250000Y-105365000D03*
X90250000Y-104095000D03*
X90250000Y-102825000D03*
X90250000Y-101555000D03*
X90250000Y-100285000D03*
X90250000Y-99015000D03*
D41*
X89000000Y-97250000D03*
X87730000Y-97250000D03*
X86460000Y-97250000D03*
X85190000Y-97250000D03*
X83920000Y-97250000D03*
X82650000Y-97250000D03*
X81380000Y-97250000D03*
X80110000Y-97250000D03*
X78840000Y-97250000D03*
X77570000Y-97250000D03*
X76300000Y-97250000D03*
X75030000Y-97250000D03*
X73760000Y-97250000D03*
X72490000Y-97250000D03*
D42*
X78810000Y-108900000D03*
X80210000Y-108900000D03*
X81610000Y-108900000D03*
X78810000Y-107500000D03*
X80210000Y-107500000D03*
X81610000Y-107500000D03*
X78810000Y-106100000D03*
X80210000Y-106100000D03*
X81610000Y-106100000D03*
%TD*%
D12*
%TO.C,R55*%
X167875000Y-132080000D03*
X167875000Y-130430000D03*
%TD*%
D22*
%TO.C,C12*%
X115781627Y-76549300D03*
X114231627Y-76549300D03*
%TD*%
D17*
%TO.C,C54*%
X141470000Y-106437500D03*
X141470000Y-107987500D03*
%TD*%
D11*
%TO.C,C22*%
X142470000Y-79987500D03*
X142470000Y-78437500D03*
%TD*%
D43*
%TO.C,Q3*%
X79600000Y-126012500D03*
X77700000Y-126012500D03*
X78650000Y-127887500D03*
%TD*%
D13*
%TO.C,R28*%
X188500000Y-64238100D03*
X188500000Y-65888100D03*
%TD*%
D12*
%TO.C,R52*%
X163720000Y-132080000D03*
X163720000Y-130430000D03*
%TD*%
D17*
%TO.C,C8*%
X164950000Y-68125000D03*
X164950000Y-69675000D03*
%TD*%
D24*
%TO.C,C1*%
X119199400Y-54073800D03*
X119199400Y-52173800D03*
%TD*%
D12*
%TO.C,R48*%
X105068300Y-120922500D03*
X105068300Y-119272500D03*
%TD*%
D23*
%TO.C,C44*%
X148448800Y-97058300D03*
X149998800Y-97058300D03*
%TD*%
D12*
%TO.C,R67*%
X206030000Y-132080000D03*
X206030000Y-130430000D03*
%TD*%
D22*
%TO.C,C34*%
X121979100Y-89983200D03*
X120429100Y-89983200D03*
%TD*%
D12*
%TO.C,R63*%
X200490000Y-132080000D03*
X200490000Y-130430000D03*
%TD*%
D13*
%TO.C,R41*%
X87505300Y-119269100D03*
X87505300Y-120919100D03*
%TD*%
D26*
%TO.C,R29*%
X89375000Y-70650000D03*
X87725000Y-70650000D03*
%TD*%
D35*
%TO.C,C5*%
X209500000Y-52850000D03*
X204100000Y-52850000D03*
%TD*%
D16*
%TO.C,R8*%
X150609500Y-55862900D03*
X152259500Y-55862900D03*
%TD*%
D32*
%TO.C,U1*%
X161025000Y-68150000D03*
X161025000Y-69100000D03*
X161025000Y-70050000D03*
X163300000Y-70050000D03*
X163300000Y-68150000D03*
%TD*%
D11*
%TO.C,C17*%
X133470000Y-79987500D03*
X133470000Y-78437500D03*
%TD*%
D16*
%TO.C,R38*%
X92025000Y-109150000D03*
X93675000Y-109150000D03*
%TD*%
D11*
%TO.C,C18*%
X134970000Y-79987500D03*
X134970000Y-78437500D03*
%TD*%
D36*
%TO.C,D1*%
X84250000Y-64400000D03*
X81750000Y-64400000D03*
%TD*%
M02*
