%TF.GenerationSoftware,KiCad,Pcbnew,(7.0.0)*%
%TF.CreationDate,2023-07-07T07:01:04-07:00*%
%TF.ProjectId,aquarius-plus,61717561-7269-4757-932d-706c75732e6b,rev?*%
%TF.SameCoordinates,Original*%
%TF.FileFunction,Soldermask,Top*%
%TF.FilePolarity,Negative*%
%FSLAX46Y46*%
G04 Gerber Fmt 4.6, Leading zero omitted, Abs format (unit mm)*
G04 Created by KiCad (PCBNEW (7.0.0)) date 2023-07-07 07:01:04*
%MOMM*%
%LPD*%
G01*
G04 APERTURE LIST*
G04 Aperture macros list*
%AMRoundRect*
0 Rectangle with rounded corners*
0 $1 Rounding radius*
0 $2 $3 $4 $5 $6 $7 $8 $9 X,Y pos of 4 corners*
0 Add a 4 corners polygon primitive as box body*
4,1,4,$2,$3,$4,$5,$6,$7,$8,$9,$2,$3,0*
0 Add four circle primitives for the rounded corners*
1,1,$1+$1,$2,$3*
1,1,$1+$1,$4,$5*
1,1,$1+$1,$6,$7*
1,1,$1+$1,$8,$9*
0 Add four rect primitives between the rounded corners*
20,1,$1+$1,$2,$3,$4,$5,0*
20,1,$1+$1,$4,$5,$6,$7,0*
20,1,$1+$1,$6,$7,$8,$9,0*
20,1,$1+$1,$8,$9,$2,$3,0*%
%AMFreePoly0*
4,1,205,1.200354,0.780354,1.200500,0.780000,1.200500,-0.775000,1.200354,-0.775354,1.200000,-0.775500,0.002000,-0.775500,0.001646,-0.775354,0.001500,-0.775000,0.001500,-0.774762,0.000000,-0.775000,-0.001500,-0.774762,-0.001500,-0.775000,-0.001503,-0.775009,-0.001500,-0.775020,-0.001580,-0.775194,-0.001646,-0.775354,-0.001655,-0.775357,-0.001660,-0.775368,-0.001839,-0.775433,-0.002000,-0.775500,
-0.002009,-0.775496,-0.002020,-0.775500,-0.027020,-0.774500,-0.027028,-0.774495,-0.027038,-0.774499,-0.053038,-0.772499,-0.053047,-0.772494,-0.053057,-0.772497,-0.079057,-0.769497,-0.079075,-0.769486,-0.079095,-0.769491,-0.105094,-0.764491,-0.105104,-0.764484,-0.105117,-0.764486,-0.130117,-0.758486,-0.130124,-0.758480,-0.130134,-0.758482,-0.155135,-0.751481,-0.155148,-0.751470,-0.155169,-0.751471,
-0.180169,-0.742470,-0.180177,-0.742462,-0.180192,-0.742462,-0.204192,-0.732462,-0.204198,-0.732455,-0.204208,-0.732455,-0.228208,-0.721455,-0.228223,-0.721437,-0.228246,-0.721435,-0.251246,-0.708435,-0.251248,-0.708431,-0.251254,-0.708431,-0.273254,-0.695430,-0.273267,-0.695412,-0.273291,-0.695407,-0.294291,-0.680407,-0.294295,-0.680400,-0.294303,-0.680398,-0.315303,-0.664398,-0.315310,-0.664385,
-0.315324,-0.664381,-0.335324,-0.647381,-0.335330,-0.647368,-0.335344,-0.647363,-0.354344,-0.629363,-0.354349,-0.629349,-0.354363,-0.629344,-0.372363,-0.610344,-0.372368,-0.610330,-0.372381,-0.610324,-0.389381,-0.590324,-0.389385,-0.590310,-0.389398,-0.590303,-0.405398,-0.569303,-0.405400,-0.569295,-0.405407,-0.569291,-0.420407,-0.548291,-0.420412,-0.548267,-0.420430,-0.548254,-0.433430,-0.526254,
-0.433430,-0.526249,-0.433435,-0.526246,-0.446435,-0.503246,-0.446437,-0.503224,-0.446454,-0.503209,-0.457455,-0.479208,-0.457455,-0.479198,-0.457462,-0.479192,-0.467462,-0.455192,-0.467462,-0.455178,-0.467470,-0.455170,-0.476470,-0.430169,-0.476469,-0.430150,-0.476481,-0.430135,-0.483481,-0.405135,-0.483479,-0.405125,-0.483486,-0.405117,-0.489486,-0.380117,-0.489484,-0.380104,-0.489491,-0.380094,
-0.494491,-0.354094,-0.494487,-0.354075,-0.494497,-0.354058,-0.497497,-0.328057,-0.497494,-0.328048,-0.497499,-0.328039,-0.499499,-0.302038,-0.499495,-0.302028,-0.499500,-0.302019,-0.500500,-0.275019,-0.500496,-0.275008,-0.500500,-0.275000,-0.500500,0.275000,-0.500496,0.275008,-0.500500,0.275019,-0.499500,0.301019,-0.499495,0.301028,-0.499499,0.301038,-0.497499,0.327039,-0.497494,0.327048,
-0.497497,0.327057,-0.494497,0.353058,-0.494487,0.353075,-0.494491,0.353094,-0.489491,0.379094,-0.489484,0.379104,-0.489486,0.379117,-0.483486,0.404117,-0.483482,0.404122,-0.483483,0.404130,-0.476483,0.430130,-0.476467,0.430150,-0.476468,0.430176,-0.467468,0.454176,-0.467462,0.454182,-0.467462,0.454192,-0.457462,0.478192,-0.457455,0.478198,-0.457455,0.478208,-0.446454,0.502209,
-0.446437,0.502224,-0.446435,0.502246,-0.433435,0.525246,-0.433424,0.525254,-0.433422,0.525268,-0.405422,0.569269,-0.405403,0.569281,-0.405398,0.569303,-0.389398,0.590303,-0.389385,0.590310,-0.389381,0.590324,-0.372381,0.610324,-0.372368,0.610330,-0.372363,0.610344,-0.354363,0.629344,-0.354349,0.629349,-0.354344,0.629363,-0.335344,0.647363,-0.335330,0.647368,-0.335324,0.647381,
-0.315324,0.664381,-0.315310,0.664385,-0.315303,0.664398,-0.294303,0.680398,-0.294280,0.680403,-0.294268,0.680422,-0.250268,0.708422,-0.250254,0.708424,-0.250246,0.708435,-0.227246,0.721435,-0.227223,0.721437,-0.227208,0.721455,-0.203208,0.732455,-0.203198,0.732455,-0.203192,0.732462,-0.179192,0.742462,-0.179182,0.742462,-0.179176,0.742468,-0.155176,0.751468,-0.155150,0.751467,
-0.155130,0.751483,-0.129130,0.758483,-0.129122,0.758482,-0.129117,0.758486,-0.104117,0.764486,-0.104104,0.764484,-0.104094,0.764491,-0.078095,0.769491,-0.078075,0.769486,-0.078057,0.769497,-0.052057,0.772497,-0.052047,0.772494,-0.052038,0.772499,-0.026038,0.774499,-0.026028,0.774495,-0.026019,0.774500,-0.000019,0.775500,-0.000008,0.775496,0.000000,0.775500,1.194500,0.775500,
1.194500,0.780000,1.194646,0.780354,1.195000,0.780500,1.200000,0.780500,1.200354,0.780354,1.200354,0.780354,$1*%
%AMFreePoly1*
4,1,205,-0.001646,0.775354,-0.001500,0.775000,-0.001500,0.774762,0.000000,0.775000,0.001500,0.774762,0.001500,0.775000,0.001503,0.775009,0.001500,0.775020,0.001580,0.775194,0.001646,0.775354,0.001655,0.775357,0.001660,0.775368,0.001839,0.775433,0.002000,0.775500,0.002009,0.775496,0.002020,0.775500,0.027020,0.774500,0.027028,0.774495,0.027038,0.774499,0.053039,0.772499,
0.053048,0.772494,0.053057,0.772497,0.079058,0.769497,0.079075,0.769487,0.079094,0.769491,0.105094,0.764491,0.105104,0.764484,0.105117,0.764486,0.130117,0.758486,0.130125,0.758479,0.130135,0.758481,0.155135,0.751481,0.155150,0.751469,0.155169,0.751470,0.180170,0.742470,0.180178,0.742462,0.180192,0.742462,0.204192,0.732462,0.204198,0.732455,0.204208,0.732455,
0.228209,0.721454,0.228224,0.721437,0.228246,0.721435,0.251246,0.708435,0.251249,0.708430,0.251254,0.708430,0.273254,0.695430,0.273267,0.695412,0.273291,0.695407,0.294291,0.680407,0.294295,0.680400,0.294303,0.680398,0.315303,0.664398,0.315310,0.664385,0.315324,0.664381,0.335324,0.647381,0.335330,0.647368,0.335344,0.647363,0.354344,0.629363,0.354349,0.629349,
0.354363,0.629344,0.372363,0.610344,0.372368,0.610330,0.372381,0.610324,0.389381,0.590324,0.389385,0.590310,0.389398,0.590303,0.405398,0.569303,0.405400,0.569295,0.405407,0.569291,0.420407,0.548291,0.420412,0.548267,0.420430,0.548254,0.433431,0.526254,0.433431,0.526248,0.433435,0.526246,0.446435,0.503246,0.446437,0.503223,0.446455,0.503208,0.457455,0.479208,
0.457455,0.479198,0.457462,0.479192,0.467462,0.455192,0.467462,0.455177,0.467470,0.455169,0.476471,0.430169,0.476470,0.430148,0.476481,0.430135,0.483482,0.405134,0.483480,0.405124,0.483486,0.405117,0.489486,0.380117,0.489484,0.380104,0.489491,0.380094,0.494491,0.354095,0.494486,0.354075,0.494497,0.354057,0.497497,0.328057,0.497494,0.328047,0.497499,0.328038,
0.499499,0.302038,0.499495,0.302028,0.499500,0.302019,0.500500,0.275018,0.500496,0.275008,0.500500,0.275000,0.500500,-0.275000,0.500496,-0.275008,0.500500,-0.275019,0.499500,-0.301019,0.499495,-0.301028,0.499499,-0.301038,0.497499,-0.327038,0.497494,-0.327047,0.497497,-0.327057,0.494497,-0.353057,0.494486,-0.353075,0.494491,-0.353095,0.489491,-0.379094,0.489484,-0.379104,
0.489486,-0.379117,0.483486,-0.404117,0.483482,-0.404122,0.483483,-0.404130,0.476483,-0.430130,0.476467,-0.430150,0.476468,-0.430176,0.467468,-0.454176,0.467462,-0.454182,0.467462,-0.454192,0.457462,-0.478192,0.457455,-0.478198,0.457455,-0.478208,0.446455,-0.502208,0.446437,-0.502223,0.446435,-0.502246,0.433435,-0.525246,0.433424,-0.525254,0.433422,-0.525268,0.405422,-0.569268,
0.405403,-0.569280,0.405398,-0.569303,0.389398,-0.590303,0.389385,-0.590310,0.389381,-0.590324,0.372381,-0.610324,0.372368,-0.610330,0.372363,-0.610344,0.354363,-0.629344,0.354349,-0.629349,0.354344,-0.629363,0.335344,-0.647363,0.335330,-0.647368,0.335324,-0.647381,0.315324,-0.664381,0.315310,-0.664385,0.315303,-0.664398,0.294303,-0.680398,0.294281,-0.680403,0.294269,-0.680422,
0.250268,-0.708422,0.250254,-0.708424,0.250246,-0.708435,0.227246,-0.721435,0.227224,-0.721437,0.227209,-0.721454,0.203208,-0.732455,0.203198,-0.732455,0.203192,-0.732462,0.179192,-0.742462,0.179182,-0.742462,0.179176,-0.742468,0.155176,-0.751468,0.155150,-0.751467,0.155130,-0.751483,0.129130,-0.758483,0.129122,-0.758482,0.129117,-0.758486,0.104117,-0.764486,0.104104,-0.764484,
0.104094,-0.764491,0.078094,-0.769491,0.078075,-0.769487,0.078058,-0.769497,0.052057,-0.772497,0.052048,-0.772494,0.052039,-0.772499,0.026038,-0.774499,0.026028,-0.774495,0.026019,-0.774500,0.000019,-0.775500,0.000008,-0.775496,0.000000,-0.775500,-1.194500,-0.775500,-1.194500,-0.780000,-1.194646,-0.780354,-1.195000,-0.780500,-1.200000,-0.780500,-1.200354,-0.780354,-1.200500,-0.780000,
-1.200500,0.775000,-1.200354,0.775354,-1.200000,0.775500,-0.002000,0.775500,-0.001646,0.775354,-0.001646,0.775354,$1*%
G04 Aperture macros list end*
%ADD10C,0.000100*%
%ADD11RoundRect,0.225000X0.250000X-0.225000X0.250000X0.225000X-0.250000X0.225000X-0.250000X-0.225000X0*%
%ADD12RoundRect,0.200000X0.275000X-0.200000X0.275000X0.200000X-0.275000X0.200000X-0.275000X-0.200000X0*%
%ADD13C,1.800000*%
%ADD14RoundRect,0.200000X-0.275000X0.200000X-0.275000X-0.200000X0.275000X-0.200000X0.275000X0.200000X0*%
%ADD15RoundRect,0.100000X-0.637500X-0.100000X0.637500X-0.100000X0.637500X0.100000X-0.637500X0.100000X0*%
%ADD16RoundRect,0.150000X0.875000X0.150000X-0.875000X0.150000X-0.875000X-0.150000X0.875000X-0.150000X0*%
%ADD17R,1.700000X1.700000*%
%ADD18O,1.700000X1.700000*%
%ADD19RoundRect,0.200000X-0.200000X-0.275000X0.200000X-0.275000X0.200000X0.275000X-0.200000X0.275000X0*%
%ADD20RoundRect,0.225000X-0.250000X0.225000X-0.250000X-0.225000X0.250000X-0.225000X0.250000X0.225000X0*%
%ADD21C,4.000000*%
%ADD22R,1.600000X1.600000*%
%ADD23C,1.600000*%
%ADD24R,1.500000X2.000000*%
%ADD25R,3.800000X2.000000*%
%ADD26RoundRect,0.075000X-0.075000X0.662500X-0.075000X-0.662500X0.075000X-0.662500X0.075000X0.662500X0*%
%ADD27RoundRect,0.075000X-0.662500X0.075000X-0.662500X-0.075000X0.662500X-0.075000X0.662500X0.075000X0*%
%ADD28C,3.200000*%
%ADD29RoundRect,0.225000X0.225000X0.250000X-0.225000X0.250000X-0.225000X-0.250000X0.225000X-0.250000X0*%
%ADD30RoundRect,0.225000X-0.225000X-0.250000X0.225000X-0.250000X0.225000X0.250000X-0.225000X0.250000X0*%
%ADD31RoundRect,0.250000X0.475000X-0.250000X0.475000X0.250000X-0.475000X0.250000X-0.475000X-0.250000X0*%
%ADD32RoundRect,0.150000X-0.587500X-0.150000X0.587500X-0.150000X0.587500X0.150000X-0.587500X0.150000X0*%
%ADD33RoundRect,0.200000X0.200000X0.275000X-0.200000X0.275000X-0.200000X-0.275000X0.200000X-0.275000X0*%
%ADD34C,1.200000*%
%ADD35RoundRect,0.500000X0.500000X-1.000000X0.500000X1.000000X-0.500000X1.000000X-0.500000X-1.000000X0*%
%ADD36C,2.000000*%
%ADD37C,1.700000*%
%ADD38R,0.400000X1.350000*%
%ADD39FreePoly0,180.000000*%
%ADD40O,1.300000X0.650000*%
%ADD41R,1.500000X1.550000*%
%ADD42FreePoly1,180.000000*%
%ADD43C,1.500000*%
%ADD44R,1.000000X2.000000*%
%ADD45RoundRect,0.000000X-0.500000X-1.000000X0.500000X-1.000000X0.500000X1.000000X-0.500000X1.000000X0*%
%ADD46R,2.000000X2.000000*%
%ADD47RoundRect,0.150000X-0.512500X-0.150000X0.512500X-0.150000X0.512500X0.150000X-0.512500X0.150000X0*%
%ADD48RoundRect,0.137500X0.600000X0.137500X-0.600000X0.137500X-0.600000X-0.137500X0.600000X-0.137500X0*%
%ADD49RoundRect,0.137500X0.137500X0.600000X-0.137500X0.600000X-0.137500X-0.600000X0.137500X-0.600000X0*%
%ADD50R,1.600000X1.500000*%
%ADD51C,3.000000*%
%ADD52R,1.800000X1.800000*%
%ADD53RoundRect,0.250000X1.500000X0.550000X-1.500000X0.550000X-1.500000X-0.550000X1.500000X-0.550000X0*%
%ADD54RoundRect,0.250000X0.250000X0.250000X-0.250000X0.250000X-0.250000X-0.250000X0.250000X-0.250000X0*%
%ADD55R,1.200000X1.400000*%
%ADD56RoundRect,0.250000X-0.650000X0.325000X-0.650000X-0.325000X0.650000X-0.325000X0.650000X0.325000X0*%
%ADD57RoundRect,0.500000X-1.000000X-0.500000X1.000000X-0.500000X1.000000X0.500000X-1.000000X0.500000X0*%
%ADD58RoundRect,0.225000X0.225000X0.525000X-0.225000X0.525000X-0.225000X-0.525000X0.225000X-0.525000X0*%
%ADD59RoundRect,0.225000X-0.525000X0.225000X-0.525000X-0.225000X0.525000X-0.225000X0.525000X0.225000X0*%
%ADD60RoundRect,0.225000X-0.225000X-0.525000X0.225000X-0.525000X0.225000X0.525000X-0.225000X0.525000X0*%
%ADD61RoundRect,0.225000X-0.225000X-0.225000X0.225000X-0.225000X0.225000X0.225000X-0.225000X0.225000X0*%
%ADD62RoundRect,0.150000X-0.150000X0.587500X-0.150000X-0.587500X0.150000X-0.587500X0.150000X0.587500X0*%
G04 APERTURE END LIST*
%TO.C,J1*%
G36*
X87093152Y-35585469D02*
G01*
X87119152Y-35587469D01*
X87145152Y-35590469D01*
X87171152Y-35595469D01*
X87196152Y-35601469D01*
X87222152Y-35608469D01*
X87246152Y-35617469D01*
X87270152Y-35627469D01*
X87294152Y-35638469D01*
X87317152Y-35651469D01*
X87339152Y-35665469D01*
X87361152Y-35679469D01*
X87382152Y-35695469D01*
X87402152Y-35712469D01*
X87421152Y-35730469D01*
X87439152Y-35749469D01*
X87456152Y-35769469D01*
X87472152Y-35790469D01*
X87486152Y-35812469D01*
X87500152Y-35834469D01*
X87513152Y-35857469D01*
X87524152Y-35881469D01*
X87534152Y-35905469D01*
X87543152Y-35929469D01*
X87550152Y-35955469D01*
X87556152Y-35980469D01*
X87561152Y-36006469D01*
X87564152Y-36032469D01*
X87566152Y-36058469D01*
X87567152Y-36084469D01*
X87567152Y-36834469D01*
X87566152Y-36860469D01*
X87564152Y-36886469D01*
X87561152Y-36912469D01*
X87556152Y-36938469D01*
X87550152Y-36963469D01*
X87543152Y-36989469D01*
X87534152Y-37013469D01*
X87524152Y-37037469D01*
X87513152Y-37061469D01*
X87500152Y-37084469D01*
X87486152Y-37106469D01*
X87472152Y-37128469D01*
X87456152Y-37149469D01*
X87439152Y-37169469D01*
X87421152Y-37188469D01*
X87402152Y-37206469D01*
X87382152Y-37223469D01*
X87361152Y-37239469D01*
X87339152Y-37253469D01*
X87317152Y-37267469D01*
X87294152Y-37280469D01*
X87270152Y-37291469D01*
X87246152Y-37301469D01*
X87222152Y-37310469D01*
X87196152Y-37317469D01*
X87171152Y-37323469D01*
X87145152Y-37328469D01*
X87119152Y-37331469D01*
X87093152Y-37333469D01*
X87067152Y-37334469D01*
X85667152Y-37334469D01*
X85667152Y-35584469D01*
X87067152Y-35584469D01*
X87093152Y-35585469D01*
G37*
D10*
X87093152Y-35585469D02*
X87119152Y-35587469D01*
X87145152Y-35590469D01*
X87171152Y-35595469D01*
X87196152Y-35601469D01*
X87222152Y-35608469D01*
X87246152Y-35617469D01*
X87270152Y-35627469D01*
X87294152Y-35638469D01*
X87317152Y-35651469D01*
X87339152Y-35665469D01*
X87361152Y-35679469D01*
X87382152Y-35695469D01*
X87402152Y-35712469D01*
X87421152Y-35730469D01*
X87439152Y-35749469D01*
X87456152Y-35769469D01*
X87472152Y-35790469D01*
X87486152Y-35812469D01*
X87500152Y-35834469D01*
X87513152Y-35857469D01*
X87524152Y-35881469D01*
X87534152Y-35905469D01*
X87543152Y-35929469D01*
X87550152Y-35955469D01*
X87556152Y-35980469D01*
X87561152Y-36006469D01*
X87564152Y-36032469D01*
X87566152Y-36058469D01*
X87567152Y-36084469D01*
X87567152Y-36834469D01*
X87566152Y-36860469D01*
X87564152Y-36886469D01*
X87561152Y-36912469D01*
X87556152Y-36938469D01*
X87550152Y-36963469D01*
X87543152Y-36989469D01*
X87534152Y-37013469D01*
X87524152Y-37037469D01*
X87513152Y-37061469D01*
X87500152Y-37084469D01*
X87486152Y-37106469D01*
X87472152Y-37128469D01*
X87456152Y-37149469D01*
X87439152Y-37169469D01*
X87421152Y-37188469D01*
X87402152Y-37206469D01*
X87382152Y-37223469D01*
X87361152Y-37239469D01*
X87339152Y-37253469D01*
X87317152Y-37267469D01*
X87294152Y-37280469D01*
X87270152Y-37291469D01*
X87246152Y-37301469D01*
X87222152Y-37310469D01*
X87196152Y-37317469D01*
X87171152Y-37323469D01*
X87145152Y-37328469D01*
X87119152Y-37331469D01*
X87093152Y-37333469D01*
X87067152Y-37334469D01*
X85667152Y-37334469D01*
X85667152Y-35584469D01*
X87067152Y-35584469D01*
X87093152Y-35585469D01*
G36*
X81267152Y-37334469D02*
G01*
X79867152Y-37334469D01*
X79841152Y-37333469D01*
X79815152Y-37331469D01*
X79789152Y-37328469D01*
X79763152Y-37323469D01*
X79738152Y-37317469D01*
X79712152Y-37310469D01*
X79688152Y-37301469D01*
X79664152Y-37291469D01*
X79640152Y-37280469D01*
X79617152Y-37267469D01*
X79595152Y-37253469D01*
X79573152Y-37239469D01*
X79552152Y-37223469D01*
X79532152Y-37206469D01*
X79513152Y-37188469D01*
X79495152Y-37169469D01*
X79478152Y-37149469D01*
X79462152Y-37128469D01*
X79448152Y-37106469D01*
X79434152Y-37084469D01*
X79421152Y-37061469D01*
X79410152Y-37037469D01*
X79400152Y-37013469D01*
X79391152Y-36989469D01*
X79384152Y-36963469D01*
X79378152Y-36938469D01*
X79373152Y-36912469D01*
X79370152Y-36886469D01*
X79368152Y-36860469D01*
X79367152Y-36834469D01*
X79367152Y-36084469D01*
X79368152Y-36058469D01*
X79370152Y-36032469D01*
X79373152Y-36006469D01*
X79378152Y-35980469D01*
X79384152Y-35955469D01*
X79391152Y-35929469D01*
X79400152Y-35905469D01*
X79410152Y-35881469D01*
X79421152Y-35857469D01*
X79434152Y-35834469D01*
X79448152Y-35812469D01*
X79462152Y-35790469D01*
X79478152Y-35769469D01*
X79495152Y-35749469D01*
X79513152Y-35730469D01*
X79532152Y-35712469D01*
X79552152Y-35695469D01*
X79573152Y-35679469D01*
X79595152Y-35665469D01*
X79617152Y-35651469D01*
X79640152Y-35638469D01*
X79664152Y-35627469D01*
X79688152Y-35617469D01*
X79712152Y-35608469D01*
X79738152Y-35601469D01*
X79763152Y-35595469D01*
X79789152Y-35590469D01*
X79815152Y-35587469D01*
X79841152Y-35585469D01*
X79867152Y-35584469D01*
X81267152Y-35584469D01*
X81267152Y-37334469D01*
G37*
X81267152Y-37334469D02*
X79867152Y-37334469D01*
X79841152Y-37333469D01*
X79815152Y-37331469D01*
X79789152Y-37328469D01*
X79763152Y-37323469D01*
X79738152Y-37317469D01*
X79712152Y-37310469D01*
X79688152Y-37301469D01*
X79664152Y-37291469D01*
X79640152Y-37280469D01*
X79617152Y-37267469D01*
X79595152Y-37253469D01*
X79573152Y-37239469D01*
X79552152Y-37223469D01*
X79532152Y-37206469D01*
X79513152Y-37188469D01*
X79495152Y-37169469D01*
X79478152Y-37149469D01*
X79462152Y-37128469D01*
X79448152Y-37106469D01*
X79434152Y-37084469D01*
X79421152Y-37061469D01*
X79410152Y-37037469D01*
X79400152Y-37013469D01*
X79391152Y-36989469D01*
X79384152Y-36963469D01*
X79378152Y-36938469D01*
X79373152Y-36912469D01*
X79370152Y-36886469D01*
X79368152Y-36860469D01*
X79367152Y-36834469D01*
X79367152Y-36084469D01*
X79368152Y-36058469D01*
X79370152Y-36032469D01*
X79373152Y-36006469D01*
X79378152Y-35980469D01*
X79384152Y-35955469D01*
X79391152Y-35929469D01*
X79400152Y-35905469D01*
X79410152Y-35881469D01*
X79421152Y-35857469D01*
X79434152Y-35834469D01*
X79448152Y-35812469D01*
X79462152Y-35790469D01*
X79478152Y-35769469D01*
X79495152Y-35749469D01*
X79513152Y-35730469D01*
X79532152Y-35712469D01*
X79552152Y-35695469D01*
X79573152Y-35679469D01*
X79595152Y-35665469D01*
X79617152Y-35651469D01*
X79640152Y-35638469D01*
X79664152Y-35627469D01*
X79688152Y-35617469D01*
X79712152Y-35608469D01*
X79738152Y-35601469D01*
X79763152Y-35595469D01*
X79789152Y-35590469D01*
X79815152Y-35587469D01*
X79841152Y-35585469D01*
X79867152Y-35584469D01*
X81267152Y-35584469D01*
X81267152Y-37334469D01*
%TD*%
D11*
%TO.C,C21*%
X140997000Y-79981200D03*
X140997000Y-78431200D03*
%TD*%
D12*
%TO.C,R66*%
X204645000Y-132080000D03*
X204645000Y-130430000D03*
%TD*%
D13*
%TO.C,J7*%
X214825000Y-65830000D03*
X212285000Y-65830000D03*
X217365000Y-65830000D03*
X214825000Y-68370000D03*
X212285000Y-68370000D03*
X217365000Y-68370000D03*
X214825000Y-70910000D03*
X212285000Y-70910000D03*
X217365000Y-70910000D03*
X214825000Y-73450000D03*
X212285000Y-73450000D03*
X217365000Y-73450000D03*
X214825000Y-75990000D03*
X212285000Y-75990000D03*
X217365000Y-75990000D03*
X214825000Y-78530000D03*
X212285000Y-78530000D03*
X217365000Y-78530000D03*
X214825000Y-81070000D03*
X212285000Y-81070000D03*
X217365000Y-81070000D03*
X214825000Y-83610000D03*
X212285000Y-83610000D03*
X217365000Y-83610000D03*
X214825000Y-86150000D03*
X212285000Y-86150000D03*
X217365000Y-86150000D03*
X214825000Y-88690000D03*
X212285000Y-88690000D03*
X217365000Y-88690000D03*
X214825000Y-91230000D03*
X212285000Y-91230000D03*
X217365000Y-91230000D03*
X214825000Y-93770000D03*
X212285000Y-93770000D03*
X217365000Y-93770000D03*
X214825000Y-96310000D03*
X212285000Y-96310000D03*
X217365000Y-96310000D03*
X214825000Y-98850000D03*
X212285000Y-98850000D03*
X217365000Y-98850000D03*
X214825000Y-101390000D03*
X212285000Y-101390000D03*
X217365000Y-101390000D03*
X214825000Y-103930000D03*
X212285000Y-103930000D03*
X217365000Y-103930000D03*
X214825000Y-106470000D03*
X212285000Y-106470000D03*
X217365000Y-106470000D03*
X214825000Y-109010000D03*
X212285000Y-109010000D03*
X217365000Y-109010000D03*
X214825000Y-111550000D03*
X212285000Y-111550000D03*
X217365000Y-111550000D03*
X214825000Y-114090000D03*
X212285000Y-114090000D03*
X217365000Y-114090000D03*
X214825000Y-116630000D03*
X212285000Y-116630000D03*
X217365000Y-116630000D03*
X214825000Y-119170000D03*
X212285000Y-119170000D03*
X217365000Y-119170000D03*
%TD*%
D14*
%TO.C,R24*%
X182497500Y-64238100D03*
X182497500Y-65888100D03*
%TD*%
D12*
%TO.C,R49*%
X75200000Y-119175000D03*
X75200000Y-117525000D03*
%TD*%
D15*
%TO.C,U5*%
X89194200Y-79361700D03*
X89194200Y-80011700D03*
X89194200Y-80661700D03*
X89194200Y-81311700D03*
X89194200Y-81961700D03*
X89194200Y-82611700D03*
X89194200Y-83261700D03*
X89194200Y-83911700D03*
X94919200Y-83911700D03*
X94919200Y-83261700D03*
X94919200Y-82611700D03*
X94919200Y-81961700D03*
X94919200Y-81311700D03*
X94919200Y-80661700D03*
X94919200Y-80011700D03*
X94919200Y-79361700D03*
%TD*%
D16*
%TO.C,U13*%
X192972700Y-110490000D03*
X192972700Y-109220000D03*
X192972700Y-107950000D03*
X192972700Y-106680000D03*
X192972700Y-105410000D03*
X192972700Y-104140000D03*
X192972700Y-102870000D03*
X192972700Y-101600000D03*
X192972700Y-100330000D03*
X192972700Y-99060000D03*
X192972700Y-97790000D03*
X192972700Y-96520000D03*
X192972700Y-95250000D03*
X192972700Y-93980000D03*
X192972700Y-92710000D03*
X192972700Y-91440000D03*
X179872700Y-91440000D03*
X179872700Y-92710000D03*
X179872700Y-93980000D03*
X179872700Y-95250000D03*
X179872700Y-96520000D03*
X179872700Y-97790000D03*
X179872700Y-99060000D03*
X179872700Y-100330000D03*
X179872700Y-101600000D03*
X179872700Y-102870000D03*
X179872700Y-104140000D03*
X179872700Y-105410000D03*
X179872700Y-106680000D03*
X179872700Y-107950000D03*
X179872700Y-109220000D03*
X179872700Y-110490000D03*
%TD*%
D17*
%TO.C,JP3*%
X84804199Y-91006999D03*
D18*
X87344199Y-91006999D03*
%TD*%
D14*
%TO.C,R47*%
X103611700Y-119273200D03*
X103611700Y-120923200D03*
%TD*%
D12*
%TO.C,R53*%
X165100000Y-132080000D03*
X165100000Y-130430000D03*
%TD*%
D19*
%TO.C,R20*%
X150609500Y-60120100D03*
X152259500Y-60120100D03*
%TD*%
%TO.C,R13*%
X157494300Y-57282000D03*
X159144300Y-57282000D03*
%TD*%
D20*
%TO.C,C46*%
X136350000Y-106562500D03*
X136350000Y-108112500D03*
%TD*%
D21*
%TO.C,J11*%
X187990000Y-138489700D03*
X212990000Y-138489700D03*
D22*
X194949999Y-137069699D03*
D23*
X197720000Y-137069700D03*
X200490000Y-137069700D03*
X203260000Y-137069700D03*
X206030000Y-137069700D03*
X196335000Y-139909700D03*
X199105000Y-139909700D03*
X201875000Y-139909700D03*
X204645000Y-139909700D03*
%TD*%
D12*
%TO.C,R64*%
X201875000Y-132080000D03*
X201875000Y-130430000D03*
%TD*%
%TO.C,R54*%
X166490000Y-132080000D03*
X166490000Y-130430000D03*
%TD*%
D11*
%TO.C,C4*%
X129699400Y-53898800D03*
X129699400Y-52348800D03*
%TD*%
D24*
%TO.C,U3*%
X114393326Y-74549999D03*
X116693326Y-74549999D03*
D25*
X116693326Y-68249999D03*
D24*
X118993326Y-74549999D03*
%TD*%
D20*
%TO.C,C52*%
X134850000Y-106562500D03*
X134850000Y-108112500D03*
%TD*%
D14*
%TO.C,R46*%
X102150300Y-119272500D03*
X102150300Y-120922500D03*
%TD*%
D26*
%TO.C,U6*%
X143970000Y-82550000D03*
X143470000Y-82550000D03*
X142970000Y-82550000D03*
X142470000Y-82550000D03*
X141970000Y-82550000D03*
X141470000Y-82550000D03*
X140970000Y-82550000D03*
X140470000Y-82550000D03*
X139970000Y-82550000D03*
X139470000Y-82550000D03*
X138970000Y-82550000D03*
X138470000Y-82550000D03*
X137970000Y-82550000D03*
X137470000Y-82550000D03*
X136970000Y-82550000D03*
X136470000Y-82550000D03*
X135970000Y-82550000D03*
X135470000Y-82550000D03*
X134970000Y-82550000D03*
X134470000Y-82550000D03*
X133970000Y-82550000D03*
X133470000Y-82550000D03*
X132970000Y-82550000D03*
X132470000Y-82550000D03*
X131970000Y-82550000D03*
X131470000Y-82550000D03*
X130970000Y-82550000D03*
X130470000Y-82550000D03*
X129970000Y-82550000D03*
X129470000Y-82550000D03*
X128970000Y-82550000D03*
X128470000Y-82550000D03*
X127970000Y-82550000D03*
X127470000Y-82550000D03*
X126970000Y-82550000D03*
X126470000Y-82550000D03*
D27*
X124557500Y-84462500D03*
X124557500Y-84962500D03*
X124557500Y-85462500D03*
X124557500Y-85962500D03*
X124557500Y-86462500D03*
X124557500Y-86962500D03*
X124557500Y-87462500D03*
X124557500Y-87962500D03*
X124557500Y-88462500D03*
X124557500Y-88962500D03*
X124557500Y-89462500D03*
X124557500Y-89962500D03*
X124557500Y-90462500D03*
X124557500Y-90962500D03*
X124557500Y-91462500D03*
X124557500Y-91962500D03*
X124557500Y-92462500D03*
X124557500Y-92962500D03*
X124557500Y-93462500D03*
X124557500Y-93962500D03*
X124557500Y-94462500D03*
X124557500Y-94962500D03*
X124557500Y-95462500D03*
X124557500Y-95962500D03*
X124557500Y-96462500D03*
X124557500Y-96962500D03*
X124557500Y-97462500D03*
X124557500Y-97962500D03*
X124557500Y-98462500D03*
X124557500Y-98962500D03*
X124557500Y-99462500D03*
X124557500Y-99962500D03*
X124557500Y-100462500D03*
X124557500Y-100962500D03*
X124557500Y-101462500D03*
X124557500Y-101962500D03*
D26*
X126470000Y-103875000D03*
X126970000Y-103875000D03*
X127470000Y-103875000D03*
X127970000Y-103875000D03*
X128470000Y-103875000D03*
X128970000Y-103875000D03*
X129470000Y-103875000D03*
X129970000Y-103875000D03*
X130470000Y-103875000D03*
X130970000Y-103875000D03*
X131470000Y-103875000D03*
X131970000Y-103875000D03*
X132470000Y-103875000D03*
X132970000Y-103875000D03*
X133470000Y-103875000D03*
X133970000Y-103875000D03*
X134470000Y-103875000D03*
X134970000Y-103875000D03*
X135470000Y-103875000D03*
X135970000Y-103875000D03*
X136470000Y-103875000D03*
X136970000Y-103875000D03*
X137470000Y-103875000D03*
X137970000Y-103875000D03*
X138470000Y-103875000D03*
X138970000Y-103875000D03*
X139470000Y-103875000D03*
X139970000Y-103875000D03*
X140470000Y-103875000D03*
X140970000Y-103875000D03*
X141470000Y-103875000D03*
X141970000Y-103875000D03*
X142470000Y-103875000D03*
X142970000Y-103875000D03*
X143470000Y-103875000D03*
X143970000Y-103875000D03*
D27*
X145882500Y-101962500D03*
X145882500Y-101462500D03*
X145882500Y-100962500D03*
X145882500Y-100462500D03*
X145882500Y-99962500D03*
X145882500Y-99462500D03*
X145882500Y-98962500D03*
X145882500Y-98462500D03*
X145882500Y-97962500D03*
X145882500Y-97462500D03*
X145882500Y-96962500D03*
X145882500Y-96462500D03*
X145882500Y-95962500D03*
X145882500Y-95462500D03*
X145882500Y-94962500D03*
X145882500Y-94462500D03*
X145882500Y-93962500D03*
X145882500Y-93462500D03*
X145882500Y-92962500D03*
X145882500Y-92462500D03*
X145882500Y-91962500D03*
X145882500Y-91462500D03*
X145882500Y-90962500D03*
X145882500Y-90462500D03*
X145882500Y-89962500D03*
X145882500Y-89462500D03*
X145882500Y-88962500D03*
X145882500Y-88462500D03*
X145882500Y-87962500D03*
X145882500Y-87462500D03*
X145882500Y-86962500D03*
X145882500Y-86462500D03*
X145882500Y-85962500D03*
X145882500Y-85462500D03*
X145882500Y-84962500D03*
X145882500Y-84462500D03*
%TD*%
D28*
%TO.C,H4*%
X221000000Y-146000000D03*
%TD*%
D19*
%TO.C,R15*%
X143738600Y-58716700D03*
X145388600Y-58716700D03*
%TD*%
D28*
%TO.C,H3*%
X69000000Y-146000000D03*
%TD*%
D14*
%TO.C,R25*%
X184000000Y-64238100D03*
X184000000Y-65888100D03*
%TD*%
D17*
%TO.C,JP1*%
X92349199Y-57250999D03*
D18*
X92349199Y-54710999D03*
%TD*%
D12*
%TO.C,R59*%
X194950000Y-132080000D03*
X194950000Y-130430000D03*
%TD*%
D29*
%TO.C,C47*%
X114100000Y-112925600D03*
X112550000Y-112925600D03*
%TD*%
D20*
%TO.C,C35*%
X133350000Y-106575000D03*
X133350000Y-108125000D03*
%TD*%
D30*
%TO.C,C55*%
X179296800Y-112226000D03*
X180846800Y-112226000D03*
%TD*%
D11*
%TO.C,C20*%
X125000000Y-79983800D03*
X125000000Y-78433800D03*
%TD*%
D31*
%TO.C,C3*%
X126449400Y-54073800D03*
X126449400Y-52173800D03*
%TD*%
D14*
%TO.C,R23*%
X181000000Y-64238100D03*
X181000000Y-65888100D03*
%TD*%
D19*
%TO.C,R22*%
X81675000Y-61200000D03*
X83325000Y-61200000D03*
%TD*%
D32*
%TO.C,Q2*%
X92300000Y-67200000D03*
X92300000Y-69100000D03*
X94175000Y-68150000D03*
%TD*%
D11*
%TO.C,C19*%
X136470000Y-79987500D03*
X136470000Y-78437500D03*
%TD*%
D12*
%TO.C,R4*%
X123945700Y-53957300D03*
X123945700Y-52307300D03*
%TD*%
D33*
%TO.C,R1*%
X83375000Y-48202700D03*
X81725000Y-48202700D03*
%TD*%
D34*
%TO.C,J6*%
X67100000Y-64000000D03*
X73100000Y-64000000D03*
D35*
X69020000Y-60000000D03*
X67020000Y-68000000D03*
X74020000Y-68000000D03*
%TD*%
D17*
%TO.C,J10*%
X137159999Y-132079999D03*
D18*
X137159999Y-134619999D03*
X134619999Y-132079999D03*
X134619999Y-134619999D03*
X132079999Y-132079999D03*
X132079999Y-134619999D03*
X129539999Y-132079999D03*
X129539999Y-134619999D03*
X126999999Y-132079999D03*
X126999999Y-134619999D03*
X124459999Y-132079999D03*
X124459999Y-134619999D03*
%TD*%
D19*
%TO.C,R18*%
X81675000Y-59690000D03*
X83325000Y-59690000D03*
%TD*%
D11*
%TO.C,C56*%
X94954900Y-120871400D03*
X94954900Y-119321400D03*
%TD*%
D29*
%TO.C,C48*%
X117625000Y-112925600D03*
X116075000Y-112925600D03*
%TD*%
D12*
%TO.C,R58*%
X172030000Y-132080000D03*
X172030000Y-130430000D03*
%TD*%
D29*
%TO.C,C45*%
X165685000Y-104941400D03*
X164135000Y-104941400D03*
%TD*%
D36*
%TO.C,FID1*%
X75000000Y-41000000D03*
%TD*%
D12*
%TO.C,R57*%
X170645000Y-132080000D03*
X170645000Y-130430000D03*
%TD*%
D19*
%TO.C,R33*%
X81675000Y-69100000D03*
X83325000Y-69100000D03*
%TD*%
D29*
%TO.C,C25*%
X86829400Y-79510100D03*
X85279400Y-79510100D03*
%TD*%
D36*
%TO.C,SW1*%
X210957500Y-46082500D03*
X210957500Y-40082500D03*
X198957500Y-46082500D03*
X198957500Y-40082500D03*
D37*
X208957500Y-44332500D03*
X204957500Y-44332500D03*
X200957500Y-44332500D03*
X208957500Y-41832500D03*
X204957500Y-41832500D03*
X200957500Y-41832500D03*
%TD*%
D29*
%TO.C,C26*%
X86825600Y-80962600D03*
X85275600Y-80962600D03*
%TD*%
D19*
%TO.C,R14*%
X164581300Y-57279100D03*
X166231300Y-57279100D03*
%TD*%
%TO.C,R39*%
X116025000Y-114425600D03*
X117675000Y-114425600D03*
%TD*%
%TO.C,R9*%
X157494300Y-55864900D03*
X159144300Y-55864900D03*
%TD*%
D29*
%TO.C,C41*%
X165685000Y-94131400D03*
X164135000Y-94131400D03*
%TD*%
D14*
%TO.C,R44*%
X98282900Y-119254000D03*
X98282900Y-120904000D03*
%TD*%
D29*
%TO.C,C30*%
X121995000Y-86962500D03*
X120445000Y-86962500D03*
%TD*%
D14*
%TO.C,R3*%
X120949400Y-52298800D03*
X120949400Y-53948800D03*
%TD*%
D11*
%TO.C,C15*%
X128550000Y-79987500D03*
X128550000Y-78437500D03*
%TD*%
D19*
%TO.C,R11*%
X143738600Y-57298300D03*
X145388600Y-57298300D03*
%TD*%
D17*
%TO.C,JP4*%
X73999999Y-90999999D03*
D18*
X76539999Y-90999999D03*
X79079999Y-90999999D03*
%TD*%
D30*
%TO.C,C40*%
X148445000Y-94100002D03*
X149995000Y-94100002D03*
%TD*%
D19*
%TO.C,R34*%
X87725000Y-73650000D03*
X89375000Y-73650000D03*
%TD*%
D38*
%TO.C,J1*%
X84767151Y-39159468D03*
X84117151Y-39159468D03*
X83467151Y-39159468D03*
X82817151Y-39159468D03*
X82167151Y-39159468D03*
D39*
X86967152Y-36459469D03*
D40*
X85967151Y-39159468D03*
D41*
X84467151Y-36459468D03*
X82467151Y-36459468D03*
D40*
X80967151Y-39159468D03*
D42*
X79967152Y-36459469D03*
%TD*%
D12*
%TO.C,R40*%
X85835800Y-120921600D03*
X85835800Y-119271600D03*
%TD*%
D14*
%TO.C,R27*%
X187000000Y-64225000D03*
X187000000Y-65875000D03*
%TD*%
D24*
%TO.C,U11*%
X112777499Y-110925599D03*
X115077499Y-110925599D03*
D25*
X115077499Y-104625599D03*
D24*
X117377499Y-110925599D03*
%TD*%
D29*
%TO.C,C33*%
X121983000Y-88476400D03*
X120433000Y-88476400D03*
%TD*%
D19*
%TO.C,R16*%
X150608400Y-58697000D03*
X152258400Y-58697000D03*
%TD*%
D29*
%TO.C,C29*%
X165685000Y-83351400D03*
X164135000Y-83351400D03*
%TD*%
D33*
%TO.C,R31*%
X83325000Y-67600000D03*
X81675000Y-67600000D03*
%TD*%
D17*
%TO.C,J13*%
X139699999Y-142499999D03*
D18*
X139699999Y-145039999D03*
X137159999Y-142499999D03*
X137159999Y-145039999D03*
X134619999Y-142499999D03*
X134619999Y-145039999D03*
X132079999Y-142499999D03*
X132079999Y-145039999D03*
X129539999Y-142499999D03*
X129539999Y-145039999D03*
X126999999Y-142499999D03*
X126999999Y-145039999D03*
X124459999Y-142499999D03*
X124459999Y-145039999D03*
%TD*%
D17*
%TO.C,JP2*%
X96589199Y-57250999D03*
D18*
X96589199Y-54710999D03*
%TD*%
D30*
%TO.C,C42*%
X148450000Y-95600000D03*
X150000000Y-95600000D03*
%TD*%
D34*
%TO.C,J8*%
X67100000Y-79000000D03*
X73100000Y-79000000D03*
D35*
X69020000Y-75000000D03*
X67020000Y-83000000D03*
X74020000Y-83000000D03*
%TD*%
D32*
%TO.C,Q1*%
X88012500Y-67200000D03*
X88012500Y-69100000D03*
X89887500Y-68150000D03*
%TD*%
D19*
%TO.C,R17*%
X157490500Y-58693000D03*
X159140500Y-58693000D03*
%TD*%
D20*
%TO.C,C49*%
X127970000Y-106437500D03*
X127970000Y-107987500D03*
%TD*%
D19*
%TO.C,R21*%
X157494300Y-60128100D03*
X159144300Y-60128100D03*
%TD*%
D12*
%TO.C,R51*%
X162335000Y-132080000D03*
X162335000Y-130430000D03*
%TD*%
D36*
%TO.C,FID3*%
X75000000Y-143000000D03*
%TD*%
D19*
%TO.C,R36*%
X114181627Y-78049300D03*
X115831627Y-78049300D03*
%TD*%
D20*
%TO.C,C57*%
X76659700Y-117575400D03*
X76659700Y-119125400D03*
%TD*%
D12*
%TO.C,R60*%
X196335000Y-132080000D03*
X196335000Y-130430000D03*
%TD*%
%TO.C,R68*%
X79650000Y-124275000D03*
X79650000Y-122625000D03*
%TD*%
D19*
%TO.C,R32*%
X81675000Y-66100000D03*
X83325000Y-66100000D03*
%TD*%
D14*
%TO.C,R69*%
X78000000Y-143225000D03*
X78000000Y-144875000D03*
%TD*%
D43*
%TO.C,J9*%
X83500000Y-147320000D03*
X107700000Y-147320000D03*
D44*
X102459999Y-123069999D03*
X99959999Y-123069999D03*
X96649999Y-123069999D03*
X94939999Y-123069999D03*
X92439999Y-123069999D03*
X89939999Y-123069999D03*
X87519999Y-123069999D03*
X85819999Y-123069999D03*
X104959999Y-123069999D03*
D45*
X98280000Y-123070000D03*
D44*
X82539999Y-123069999D03*
D46*
X110534999Y-144119999D03*
X81464999Y-145319999D03*
%TD*%
D47*
%TO.C,U2*%
X161035274Y-64686262D03*
X161035274Y-65636262D03*
X161035274Y-66586262D03*
X163310274Y-66586262D03*
X163310274Y-64686262D03*
%TD*%
D12*
%TO.C,R56*%
X169260000Y-132080000D03*
X169260000Y-130430000D03*
%TD*%
D14*
%TO.C,R43*%
X92411000Y-119257600D03*
X92411000Y-120907600D03*
%TD*%
D30*
%TO.C,C24*%
X194621300Y-76871400D03*
X196171300Y-76871400D03*
%TD*%
D14*
%TO.C,R26*%
X185500000Y-64238100D03*
X185500000Y-65888100D03*
%TD*%
D48*
%TO.C,U7*%
X191770000Y-80848100D03*
X191770000Y-80048100D03*
X191770000Y-79248100D03*
X191770000Y-78448100D03*
X191770000Y-77648100D03*
X191770000Y-76848100D03*
X191770000Y-76048100D03*
X191770000Y-75248100D03*
X191770000Y-74448100D03*
X191770000Y-73648100D03*
X191770000Y-72848100D03*
D49*
X190107500Y-71185600D03*
X189307500Y-71185600D03*
X188507500Y-71185600D03*
X187707500Y-71185600D03*
X186907500Y-71185600D03*
X186107500Y-71185600D03*
X185307500Y-71185600D03*
X184507500Y-71185600D03*
X183707500Y-71185600D03*
X182907500Y-71185600D03*
X182107500Y-71185600D03*
D48*
X180445000Y-72848100D03*
X180445000Y-73648100D03*
X180445000Y-74448100D03*
X180445000Y-75248100D03*
X180445000Y-76048100D03*
X180445000Y-76848100D03*
X180445000Y-77648100D03*
X180445000Y-78448100D03*
X180445000Y-79248100D03*
X180445000Y-80048100D03*
X180445000Y-80848100D03*
D49*
X182107500Y-82510600D03*
X182907500Y-82510600D03*
X183707500Y-82510600D03*
X184507500Y-82510600D03*
X185307500Y-82510600D03*
X186107500Y-82510600D03*
X186907500Y-82510600D03*
X187707500Y-82510600D03*
X188507500Y-82510600D03*
X189307500Y-82510600D03*
X190107500Y-82510600D03*
%TD*%
D19*
%TO.C,R35*%
X93575000Y-63950000D03*
X95225000Y-63950000D03*
%TD*%
D21*
%TO.C,J4*%
X167495000Y-46430000D03*
X142505000Y-46430000D03*
D22*
X150684999Y-48969999D03*
D23*
X152975000Y-48970000D03*
X155265000Y-48970000D03*
X157555000Y-48970000D03*
X159845000Y-48970000D03*
X149545000Y-46430000D03*
X151835000Y-46430000D03*
X154125000Y-46430000D03*
X156415000Y-46430000D03*
X158705000Y-46430000D03*
X150685000Y-43890000D03*
X152975000Y-43890000D03*
X155265000Y-43890000D03*
X157555000Y-43890000D03*
X159845000Y-43890000D03*
%TD*%
D15*
%TO.C,U4*%
X159684100Y-72980000D03*
X159684100Y-73630000D03*
X159684100Y-74280000D03*
X159684100Y-74930000D03*
X159684100Y-75580000D03*
X159684100Y-76230000D03*
X159684100Y-76880000D03*
X159684100Y-77530000D03*
X159684100Y-78180000D03*
X159684100Y-78830000D03*
X165409100Y-78830000D03*
X165409100Y-78180000D03*
X165409100Y-77530000D03*
X165409100Y-76880000D03*
X165409100Y-76230000D03*
X165409100Y-75580000D03*
X165409100Y-74930000D03*
X165409100Y-74280000D03*
X165409100Y-73630000D03*
X165409100Y-72980000D03*
%TD*%
D30*
%TO.C,C37*%
X148445000Y-91012500D03*
X149995000Y-91012500D03*
%TD*%
%TO.C,C39*%
X148445000Y-92512500D03*
X149995000Y-92512500D03*
%TD*%
D12*
%TO.C,R65*%
X203260000Y-132080000D03*
X203260000Y-130430000D03*
%TD*%
%TO.C,R6*%
X131206600Y-53943400D03*
X131206600Y-52293400D03*
%TD*%
D50*
%TO.C,J2*%
X106999999Y-45859999D03*
D23*
X104500000Y-45860000D03*
X102500000Y-45860000D03*
X100000000Y-45860000D03*
D51*
X110070000Y-43150000D03*
X96930000Y-43150000D03*
%TD*%
D28*
%TO.C,H1*%
X69000000Y-39000000D03*
%TD*%
D15*
%TO.C,U9*%
X159697500Y-95456400D03*
X159697500Y-96106400D03*
X159697500Y-96756400D03*
X159697500Y-97406400D03*
X159697500Y-98056400D03*
X159697500Y-98706400D03*
X159697500Y-99356400D03*
X159697500Y-100006400D03*
X159697500Y-100656400D03*
X159697500Y-101306400D03*
X165422500Y-101306400D03*
X165422500Y-100656400D03*
X165422500Y-100006400D03*
X165422500Y-99356400D03*
X165422500Y-98706400D03*
X165422500Y-98056400D03*
X165422500Y-97406400D03*
X165422500Y-96756400D03*
X165422500Y-96106400D03*
X165422500Y-95456400D03*
%TD*%
D12*
%TO.C,R62*%
X199105000Y-132080000D03*
X199105000Y-130430000D03*
%TD*%
%TO.C,R61*%
X197720000Y-132080000D03*
X197720000Y-130430000D03*
%TD*%
D14*
%TO.C,R45*%
X99981100Y-119267600D03*
X99981100Y-120917600D03*
%TD*%
D11*
%TO.C,C14*%
X126470000Y-79987500D03*
X126470000Y-78437500D03*
%TD*%
D29*
%TO.C,C43*%
X121995000Y-97462500D03*
X120445000Y-97462500D03*
%TD*%
D20*
%TO.C,C51*%
X131850000Y-106562500D03*
X131850000Y-108112500D03*
%TD*%
D52*
%TO.C,D3*%
X75499999Y-147174999D03*
D13*
X78040000Y-147175000D03*
%TD*%
D15*
%TO.C,U8*%
X159697500Y-84676400D03*
X159697500Y-85326400D03*
X159697500Y-85976400D03*
X159697500Y-86626400D03*
X159697500Y-87276400D03*
X159697500Y-87926400D03*
X159697500Y-88576400D03*
X159697500Y-89226400D03*
X159697500Y-89876400D03*
X159697500Y-90526400D03*
X165422500Y-90526400D03*
X165422500Y-89876400D03*
X165422500Y-89226400D03*
X165422500Y-88576400D03*
X165422500Y-87926400D03*
X165422500Y-87276400D03*
X165422500Y-86626400D03*
X165422500Y-85976400D03*
X165422500Y-85326400D03*
X165422500Y-84676400D03*
%TD*%
D19*
%TO.C,R12*%
X150609500Y-57273900D03*
X152259500Y-57273900D03*
%TD*%
%TO.C,R19*%
X143738600Y-60135000D03*
X145388600Y-60135000D03*
%TD*%
D29*
%TO.C,C27*%
X86825600Y-82421800D03*
X85275600Y-82421800D03*
%TD*%
D14*
%TO.C,R5*%
X128199400Y-52298800D03*
X128199400Y-53948800D03*
%TD*%
D30*
%TO.C,C6*%
X81725000Y-62700000D03*
X83275000Y-62700000D03*
%TD*%
D28*
%TO.C,H2*%
X221000000Y-39000000D03*
%TD*%
D33*
%TO.C,R2*%
X83375000Y-49702700D03*
X81725000Y-49702700D03*
%TD*%
D29*
%TO.C,C36*%
X121995000Y-91462500D03*
X120445000Y-91462500D03*
%TD*%
%TO.C,C10*%
X165671600Y-71655000D03*
X164121600Y-71655000D03*
%TD*%
D53*
%TO.C,C7*%
X109380000Y-55880000D03*
X103980000Y-55880000D03*
%TD*%
D29*
%TO.C,C23*%
X95202000Y-78139900D03*
X93652000Y-78139900D03*
%TD*%
D11*
%TO.C,C2*%
X122449400Y-53898800D03*
X122449400Y-52348800D03*
%TD*%
D54*
%TO.C,D2*%
X90700000Y-64000000D03*
X88200000Y-64000000D03*
%TD*%
D55*
%TO.C,X1*%
X113499999Y-91749999D03*
X113499999Y-94149999D03*
X115399999Y-94149999D03*
X115399999Y-91749999D03*
%TD*%
D30*
%TO.C,C31*%
X148446200Y-88090600D03*
X149996200Y-88090600D03*
%TD*%
D20*
%TO.C,C53*%
X142950000Y-106443000D03*
X142950000Y-107993000D03*
%TD*%
D11*
%TO.C,C16*%
X130050000Y-79987500D03*
X130050000Y-78437500D03*
%TD*%
D29*
%TO.C,C38*%
X121995100Y-92991200D03*
X120445100Y-92991200D03*
%TD*%
%TO.C,C11*%
X89325000Y-72150000D03*
X87775000Y-72150000D03*
%TD*%
D15*
%TO.C,U12*%
X159697500Y-106266400D03*
X159697500Y-106916400D03*
X159697500Y-107566400D03*
X159697500Y-108216400D03*
X159697500Y-108866400D03*
X159697500Y-109516400D03*
X159697500Y-110166400D03*
X159697500Y-110816400D03*
X159697500Y-111466400D03*
X159697500Y-112116400D03*
X165422500Y-112116400D03*
X165422500Y-111466400D03*
X165422500Y-110816400D03*
X165422500Y-110166400D03*
X165422500Y-109516400D03*
X165422500Y-108866400D03*
X165422500Y-108216400D03*
X165422500Y-107566400D03*
X165422500Y-106916400D03*
X165422500Y-106266400D03*
%TD*%
D56*
%TO.C,C58*%
X73250000Y-117125000D03*
X73250000Y-120075000D03*
%TD*%
D29*
%TO.C,C28*%
X86829400Y-83887900D03*
X85279400Y-83887900D03*
%TD*%
D20*
%TO.C,C9*%
X165003774Y-64645562D03*
X165003774Y-66195562D03*
%TD*%
D34*
%TO.C,J3*%
X125000000Y-37100000D03*
X125000000Y-43100000D03*
D57*
X129000000Y-39020000D03*
X121000000Y-37020000D03*
X121000000Y-44020000D03*
%TD*%
D14*
%TO.C,R42*%
X89130700Y-119266700D03*
X89130700Y-120916700D03*
%TD*%
D29*
%TO.C,C32*%
X115325000Y-89820000D03*
X113775000Y-89820000D03*
%TD*%
%TO.C,C13*%
X119081627Y-76549300D03*
X117531627Y-76549300D03*
%TD*%
D12*
%TO.C,R50*%
X160950000Y-132080000D03*
X160950000Y-130430000D03*
%TD*%
D20*
%TO.C,C50*%
X129426100Y-106435300D03*
X129426100Y-107985300D03*
%TD*%
D12*
%TO.C,R30*%
X95950000Y-68125000D03*
X95950000Y-66475000D03*
%TD*%
D21*
%TO.C,J12*%
X153990000Y-138489700D03*
X178990000Y-138489700D03*
D22*
X160949999Y-137069699D03*
D23*
X163720000Y-137069700D03*
X166490000Y-137069700D03*
X169260000Y-137069700D03*
X172030000Y-137069700D03*
X162335000Y-139909700D03*
X165105000Y-139909700D03*
X167875000Y-139909700D03*
X170645000Y-139909700D03*
%TD*%
D19*
%TO.C,R37*%
X117481627Y-78049300D03*
X119131627Y-78049300D03*
%TD*%
%TO.C,R7*%
X143738600Y-55880000D03*
X145388600Y-55880000D03*
%TD*%
%TO.C,R10*%
X164579500Y-55866000D03*
X166229500Y-55866000D03*
%TD*%
D58*
%TO.C,U10*%
X72490000Y-114750000D03*
X73760000Y-114750000D03*
X75030000Y-114750000D03*
X76300000Y-114750000D03*
X77570000Y-114750000D03*
X78840000Y-114750000D03*
X80110000Y-114750000D03*
X81380000Y-114750000D03*
X82650000Y-114750000D03*
X83920000Y-114750000D03*
X85190000Y-114750000D03*
X86460000Y-114750000D03*
X87730000Y-114750000D03*
X89000000Y-114750000D03*
D59*
X90250000Y-112985000D03*
X90250000Y-111715000D03*
X90250000Y-110445000D03*
X90250000Y-109175000D03*
X90250000Y-107905000D03*
X90250000Y-106635000D03*
X90250000Y-105365000D03*
X90250000Y-104095000D03*
X90250000Y-102825000D03*
X90250000Y-101555000D03*
X90250000Y-100285000D03*
X90250000Y-99015000D03*
D60*
X89000000Y-97250000D03*
X87730000Y-97250000D03*
X86460000Y-97250000D03*
X85190000Y-97250000D03*
X83920000Y-97250000D03*
X82650000Y-97250000D03*
X81380000Y-97250000D03*
X80110000Y-97250000D03*
X78840000Y-97250000D03*
X77570000Y-97250000D03*
X76300000Y-97250000D03*
X75030000Y-97250000D03*
X73760000Y-97250000D03*
X72490000Y-97250000D03*
D61*
X78810000Y-108900000D03*
X80210000Y-108900000D03*
X81610000Y-108900000D03*
X78810000Y-107500000D03*
X80210000Y-107500000D03*
X81610000Y-107500000D03*
X78810000Y-106100000D03*
X80210000Y-106100000D03*
X81610000Y-106100000D03*
%TD*%
D12*
%TO.C,R55*%
X167875000Y-132080000D03*
X167875000Y-130430000D03*
%TD*%
D29*
%TO.C,C12*%
X115781627Y-76549300D03*
X114231627Y-76549300D03*
%TD*%
D20*
%TO.C,C54*%
X141470000Y-106437500D03*
X141470000Y-107987500D03*
%TD*%
D11*
%TO.C,C22*%
X142470000Y-79987500D03*
X142470000Y-78437500D03*
%TD*%
D62*
%TO.C,Q3*%
X79600000Y-126012500D03*
X77700000Y-126012500D03*
X78650000Y-127887500D03*
%TD*%
D14*
%TO.C,R28*%
X188500000Y-64238100D03*
X188500000Y-65888100D03*
%TD*%
D12*
%TO.C,R52*%
X163720000Y-132080000D03*
X163720000Y-130430000D03*
%TD*%
D20*
%TO.C,C8*%
X164950000Y-68125000D03*
X164950000Y-69675000D03*
%TD*%
D34*
%TO.C,J5*%
X67100000Y-49000000D03*
X73100000Y-49000000D03*
D35*
X69020000Y-45000000D03*
X67020000Y-53000000D03*
X74020000Y-53000000D03*
%TD*%
D31*
%TO.C,C1*%
X119199400Y-54073800D03*
X119199400Y-52173800D03*
%TD*%
D12*
%TO.C,R48*%
X105068300Y-120922500D03*
X105068300Y-119272500D03*
%TD*%
D30*
%TO.C,C44*%
X148448800Y-97058300D03*
X149998800Y-97058300D03*
%TD*%
D12*
%TO.C,R67*%
X206030000Y-132080000D03*
X206030000Y-130430000D03*
%TD*%
D29*
%TO.C,C34*%
X121979100Y-89983200D03*
X120429100Y-89983200D03*
%TD*%
D12*
%TO.C,R63*%
X200490000Y-132080000D03*
X200490000Y-130430000D03*
%TD*%
D14*
%TO.C,R41*%
X87505300Y-119269100D03*
X87505300Y-120919100D03*
%TD*%
D33*
%TO.C,R29*%
X89375000Y-70650000D03*
X87725000Y-70650000D03*
%TD*%
D53*
%TO.C,C5*%
X209500000Y-52850000D03*
X204100000Y-52850000D03*
%TD*%
D19*
%TO.C,R8*%
X150609500Y-55862900D03*
X152259500Y-55862900D03*
%TD*%
D36*
%TO.C,FID2*%
X215000000Y-41000000D03*
%TD*%
D47*
%TO.C,U1*%
X161025000Y-68150000D03*
X161025000Y-69100000D03*
X161025000Y-70050000D03*
X163300000Y-70050000D03*
X163300000Y-68150000D03*
%TD*%
D11*
%TO.C,C17*%
X133470000Y-79987500D03*
X133470000Y-78437500D03*
%TD*%
D19*
%TO.C,R38*%
X92025000Y-109150000D03*
X93675000Y-109150000D03*
%TD*%
D11*
%TO.C,C18*%
X134970000Y-79987500D03*
X134970000Y-78437500D03*
%TD*%
D54*
%TO.C,D1*%
X84250000Y-64400000D03*
X81750000Y-64400000D03*
%TD*%
M02*
