%TF.GenerationSoftware,KiCad,Pcbnew,(7.0.0)*%
%TF.CreationDate,2023-08-07T16:44:30-07:00*%
%TF.ProjectId,aquarius-plus,61717561-7269-4757-932d-706c75732e6b,rev?*%
%TF.SameCoordinates,Original*%
%TF.FileFunction,Paste,Top*%
%TF.FilePolarity,Positive*%
%FSLAX46Y46*%
G04 Gerber Fmt 4.6, Leading zero omitted, Abs format (unit mm)*
G04 Created by KiCad (PCBNEW (7.0.0)) date 2023-08-07 16:44:30*
%MOMM*%
%LPD*%
G01*
G04 APERTURE LIST*
G04 Aperture macros list*
%AMRoundRect*
0 Rectangle with rounded corners*
0 $1 Rounding radius*
0 $2 $3 $4 $5 $6 $7 $8 $9 X,Y pos of 4 corners*
0 Add a 4 corners polygon primitive as box body*
4,1,4,$2,$3,$4,$5,$6,$7,$8,$9,$2,$3,0*
0 Add four circle primitives for the rounded corners*
1,1,$1+$1,$2,$3*
1,1,$1+$1,$4,$5*
1,1,$1+$1,$6,$7*
1,1,$1+$1,$8,$9*
0 Add four rect primitives between the rounded corners*
20,1,$1+$1,$2,$3,$4,$5,0*
20,1,$1+$1,$4,$5,$6,$7,0*
20,1,$1+$1,$6,$7,$8,$9,0*
20,1,$1+$1,$8,$9,$2,$3,0*%
G04 Aperture macros list end*
%ADD10C,0.000100*%
%ADD11RoundRect,0.225000X0.250000X-0.225000X0.250000X0.225000X-0.250000X0.225000X-0.250000X-0.225000X0*%
%ADD12RoundRect,0.200000X-0.275000X0.200000X-0.275000X-0.200000X0.275000X-0.200000X0.275000X0.200000X0*%
%ADD13RoundRect,0.200000X0.275000X-0.200000X0.275000X0.200000X-0.275000X0.200000X-0.275000X-0.200000X0*%
%ADD14RoundRect,0.150000X0.875000X0.150000X-0.875000X0.150000X-0.875000X-0.150000X0.875000X-0.150000X0*%
%ADD15RoundRect,0.200000X-0.200000X-0.275000X0.200000X-0.275000X0.200000X0.275000X-0.200000X0.275000X0*%
%ADD16RoundRect,0.225000X-0.250000X0.225000X-0.250000X-0.225000X0.250000X-0.225000X0.250000X0.225000X0*%
%ADD17R,1.500000X2.000000*%
%ADD18R,3.800000X2.000000*%
%ADD19RoundRect,0.075000X-0.075000X0.662500X-0.075000X-0.662500X0.075000X-0.662500X0.075000X0.662500X0*%
%ADD20RoundRect,0.075000X-0.662500X0.075000X-0.662500X-0.075000X0.662500X-0.075000X0.662500X0.075000X0*%
%ADD21RoundRect,0.225000X0.225000X0.250000X-0.225000X0.250000X-0.225000X-0.250000X0.225000X-0.250000X0*%
%ADD22RoundRect,0.225000X-0.225000X-0.250000X0.225000X-0.250000X0.225000X0.250000X-0.225000X0.250000X0*%
%ADD23RoundRect,0.250000X0.475000X-0.250000X0.475000X0.250000X-0.475000X0.250000X-0.475000X-0.250000X0*%
%ADD24R,0.400000X1.350000*%
%ADD25R,1.500000X1.550000*%
%ADD26R,1.000000X2.000000*%
%ADD27RoundRect,0.000000X-0.500000X-1.000000X0.500000X-1.000000X0.500000X1.000000X-0.500000X1.000000X0*%
%ADD28R,2.000000X2.000000*%
%ADD29RoundRect,0.137500X0.600000X0.137500X-0.600000X0.137500X-0.600000X-0.137500X0.600000X-0.137500X0*%
%ADD30RoundRect,0.137500X0.137500X0.600000X-0.137500X0.600000X-0.137500X-0.600000X0.137500X-0.600000X0*%
%ADD31RoundRect,0.100000X-0.637500X-0.100000X0.637500X-0.100000X0.637500X0.100000X-0.637500X0.100000X0*%
%ADD32RoundRect,0.250000X1.500000X0.550000X-1.500000X0.550000X-1.500000X-0.550000X1.500000X-0.550000X0*%
%ADD33R,1.200000X1.400000*%
%ADD34RoundRect,0.250000X-0.650000X0.325000X-0.650000X-0.325000X0.650000X-0.325000X0.650000X0.325000X0*%
%ADD35RoundRect,0.225000X0.225000X0.525000X-0.225000X0.525000X-0.225000X-0.525000X0.225000X-0.525000X0*%
%ADD36RoundRect,0.225000X-0.525000X0.225000X-0.525000X-0.225000X0.525000X-0.225000X0.525000X0.225000X0*%
%ADD37RoundRect,0.225000X-0.225000X-0.525000X0.225000X-0.525000X0.225000X0.525000X-0.225000X0.525000X0*%
%ADD38RoundRect,0.225000X-0.225000X-0.225000X0.225000X-0.225000X0.225000X0.225000X-0.225000X0.225000X0*%
%ADD39RoundRect,0.150000X-0.150000X0.587500X-0.150000X-0.587500X0.150000X-0.587500X0.150000X0.587500X0*%
%ADD40RoundRect,0.250000X-1.500000X-0.550000X1.500000X-0.550000X1.500000X0.550000X-1.500000X0.550000X0*%
%ADD41RoundRect,0.150000X-0.512500X-0.150000X0.512500X-0.150000X0.512500X0.150000X-0.512500X0.150000X0*%
G04 APERTURE END LIST*
D10*
%TO.C,J1*%
X80967152Y-45229469D02*
X80967152Y-45059469D01*
X73967152Y-43689469D02*
X73967152Y-43859469D01*
G36*
X80967152Y-43884469D02*
G01*
X80954152Y-43884469D01*
X80941152Y-43885469D01*
X80928152Y-43887469D01*
X80915152Y-43889469D01*
X80902152Y-43893469D01*
X80890152Y-43896469D01*
X80877152Y-43901469D01*
X80865152Y-43906469D01*
X80854152Y-43911469D01*
X80842152Y-43917469D01*
X80831152Y-43924469D01*
X80820152Y-43932469D01*
X80810152Y-43940469D01*
X80800152Y-43948469D01*
X80790152Y-43957469D01*
X80781152Y-43967469D01*
X80773152Y-43977469D01*
X80765152Y-43987469D01*
X80757152Y-43998469D01*
X80750152Y-44009469D01*
X80744152Y-44021469D01*
X80739152Y-44032469D01*
X80734152Y-44044469D01*
X80729152Y-44057469D01*
X80726152Y-44069469D01*
X80722152Y-44082469D01*
X80720152Y-44095469D01*
X80718152Y-44108469D01*
X80717152Y-44121469D01*
X80717152Y-44134469D01*
X80717152Y-44784469D01*
X80717152Y-44797469D01*
X80718152Y-44810469D01*
X80720152Y-44823469D01*
X80722152Y-44836469D01*
X80726152Y-44849469D01*
X80729152Y-44861469D01*
X80734152Y-44874469D01*
X80739152Y-44886469D01*
X80744152Y-44897469D01*
X80750152Y-44909469D01*
X80757152Y-44920469D01*
X80765152Y-44931469D01*
X80773152Y-44941469D01*
X80781152Y-44951469D01*
X80790152Y-44961469D01*
X80800152Y-44970469D01*
X80810152Y-44978469D01*
X80820152Y-44986469D01*
X80831152Y-44994469D01*
X80842152Y-45001469D01*
X80854152Y-45007469D01*
X80865152Y-45012469D01*
X80877152Y-45017469D01*
X80890152Y-45022469D01*
X80902152Y-45025469D01*
X80915152Y-45029469D01*
X80928152Y-45031469D01*
X80941152Y-45033469D01*
X80954152Y-45034469D01*
X80967152Y-45034469D01*
X80967152Y-45234469D01*
X79767152Y-45234469D01*
X79767152Y-43684469D01*
X80967152Y-43684469D01*
X80967152Y-43884469D01*
G37*
X80967152Y-43884469D02*
X80954152Y-43884469D01*
X80941152Y-43885469D01*
X80928152Y-43887469D01*
X80915152Y-43889469D01*
X80902152Y-43893469D01*
X80890152Y-43896469D01*
X80877152Y-43901469D01*
X80865152Y-43906469D01*
X80854152Y-43911469D01*
X80842152Y-43917469D01*
X80831152Y-43924469D01*
X80820152Y-43932469D01*
X80810152Y-43940469D01*
X80800152Y-43948469D01*
X80790152Y-43957469D01*
X80781152Y-43967469D01*
X80773152Y-43977469D01*
X80765152Y-43987469D01*
X80757152Y-43998469D01*
X80750152Y-44009469D01*
X80744152Y-44021469D01*
X80739152Y-44032469D01*
X80734152Y-44044469D01*
X80729152Y-44057469D01*
X80726152Y-44069469D01*
X80722152Y-44082469D01*
X80720152Y-44095469D01*
X80718152Y-44108469D01*
X80717152Y-44121469D01*
X80717152Y-44134469D01*
X80717152Y-44784469D01*
X80717152Y-44797469D01*
X80718152Y-44810469D01*
X80720152Y-44823469D01*
X80722152Y-44836469D01*
X80726152Y-44849469D01*
X80729152Y-44861469D01*
X80734152Y-44874469D01*
X80739152Y-44886469D01*
X80744152Y-44897469D01*
X80750152Y-44909469D01*
X80757152Y-44920469D01*
X80765152Y-44931469D01*
X80773152Y-44941469D01*
X80781152Y-44951469D01*
X80790152Y-44961469D01*
X80800152Y-44970469D01*
X80810152Y-44978469D01*
X80820152Y-44986469D01*
X80831152Y-44994469D01*
X80842152Y-45001469D01*
X80854152Y-45007469D01*
X80865152Y-45012469D01*
X80877152Y-45017469D01*
X80890152Y-45022469D01*
X80902152Y-45025469D01*
X80915152Y-45029469D01*
X80928152Y-45031469D01*
X80941152Y-45033469D01*
X80954152Y-45034469D01*
X80967152Y-45034469D01*
X80967152Y-45234469D01*
X79767152Y-45234469D01*
X79767152Y-43684469D01*
X80967152Y-43684469D01*
X80967152Y-43884469D01*
G36*
X75167152Y-45234469D02*
G01*
X73967152Y-45234469D01*
X73967152Y-45034469D01*
X73980152Y-45034469D01*
X73993152Y-45033469D01*
X74006152Y-45031469D01*
X74019152Y-45029469D01*
X74032152Y-45025469D01*
X74044152Y-45022469D01*
X74057152Y-45017469D01*
X74069152Y-45012469D01*
X74080152Y-45007469D01*
X74092152Y-45001469D01*
X74103152Y-44994469D01*
X74114152Y-44986469D01*
X74124152Y-44978469D01*
X74134152Y-44970469D01*
X74144152Y-44961469D01*
X74153152Y-44951469D01*
X74161152Y-44941469D01*
X74169152Y-44931469D01*
X74177152Y-44920469D01*
X74184152Y-44909469D01*
X74190152Y-44897469D01*
X74195152Y-44886469D01*
X74200152Y-44874469D01*
X74205152Y-44861469D01*
X74208152Y-44849469D01*
X74212152Y-44836469D01*
X74214152Y-44823469D01*
X74216152Y-44810469D01*
X74217152Y-44797469D01*
X74217152Y-44784469D01*
X74217152Y-44134469D01*
X74217152Y-44121469D01*
X74216152Y-44108469D01*
X74214152Y-44095469D01*
X74212152Y-44082469D01*
X74208152Y-44069469D01*
X74205152Y-44057469D01*
X74200152Y-44044469D01*
X74195152Y-44032469D01*
X74190152Y-44021469D01*
X74184152Y-44009469D01*
X74177152Y-43998469D01*
X74169152Y-43987469D01*
X74161152Y-43977469D01*
X74153152Y-43967469D01*
X74144152Y-43957469D01*
X74134152Y-43948469D01*
X74124152Y-43940469D01*
X74114152Y-43932469D01*
X74103152Y-43924469D01*
X74092152Y-43917469D01*
X74080152Y-43911469D01*
X74069152Y-43906469D01*
X74057152Y-43901469D01*
X74044152Y-43896469D01*
X74032152Y-43893469D01*
X74019152Y-43889469D01*
X74006152Y-43887469D01*
X73993152Y-43885469D01*
X73980152Y-43884469D01*
X73967152Y-43884469D01*
X73967152Y-43684469D01*
X75167152Y-43684469D01*
X75167152Y-45234469D01*
G37*
X75167152Y-45234469D02*
X73967152Y-45234469D01*
X73967152Y-45034469D01*
X73980152Y-45034469D01*
X73993152Y-45033469D01*
X74006152Y-45031469D01*
X74019152Y-45029469D01*
X74032152Y-45025469D01*
X74044152Y-45022469D01*
X74057152Y-45017469D01*
X74069152Y-45012469D01*
X74080152Y-45007469D01*
X74092152Y-45001469D01*
X74103152Y-44994469D01*
X74114152Y-44986469D01*
X74124152Y-44978469D01*
X74134152Y-44970469D01*
X74144152Y-44961469D01*
X74153152Y-44951469D01*
X74161152Y-44941469D01*
X74169152Y-44931469D01*
X74177152Y-44920469D01*
X74184152Y-44909469D01*
X74190152Y-44897469D01*
X74195152Y-44886469D01*
X74200152Y-44874469D01*
X74205152Y-44861469D01*
X74208152Y-44849469D01*
X74212152Y-44836469D01*
X74214152Y-44823469D01*
X74216152Y-44810469D01*
X74217152Y-44797469D01*
X74217152Y-44784469D01*
X74217152Y-44134469D01*
X74217152Y-44121469D01*
X74216152Y-44108469D01*
X74214152Y-44095469D01*
X74212152Y-44082469D01*
X74208152Y-44069469D01*
X74205152Y-44057469D01*
X74200152Y-44044469D01*
X74195152Y-44032469D01*
X74190152Y-44021469D01*
X74184152Y-44009469D01*
X74177152Y-43998469D01*
X74169152Y-43987469D01*
X74161152Y-43977469D01*
X74153152Y-43967469D01*
X74144152Y-43957469D01*
X74134152Y-43948469D01*
X74124152Y-43940469D01*
X74114152Y-43932469D01*
X74103152Y-43924469D01*
X74092152Y-43917469D01*
X74080152Y-43911469D01*
X74069152Y-43906469D01*
X74057152Y-43901469D01*
X74044152Y-43896469D01*
X74032152Y-43893469D01*
X74019152Y-43889469D01*
X74006152Y-43887469D01*
X73993152Y-43885469D01*
X73980152Y-43884469D01*
X73967152Y-43884469D01*
X73967152Y-43684469D01*
X75167152Y-43684469D01*
X75167152Y-45234469D01*
G36*
X80993152Y-43685469D02*
G01*
X81019152Y-43687469D01*
X81045152Y-43690469D01*
X81071152Y-43695469D01*
X81096152Y-43701469D01*
X81122152Y-43708469D01*
X81146152Y-43717469D01*
X81170152Y-43727469D01*
X81194152Y-43738469D01*
X81217152Y-43751469D01*
X81239152Y-43765469D01*
X81261152Y-43779469D01*
X81282152Y-43795469D01*
X81302152Y-43812469D01*
X81321152Y-43830469D01*
X81339152Y-43849469D01*
X81356152Y-43869469D01*
X81372152Y-43890469D01*
X81386152Y-43912469D01*
X81400152Y-43934469D01*
X81413152Y-43957469D01*
X81424152Y-43981469D01*
X81434152Y-44005469D01*
X81443152Y-44029469D01*
X81450152Y-44055469D01*
X81456152Y-44080469D01*
X81461152Y-44106469D01*
X81464152Y-44132469D01*
X81466152Y-44158469D01*
X81467152Y-44184469D01*
X81467152Y-44734469D01*
X81466152Y-44760469D01*
X81464152Y-44786469D01*
X81461152Y-44812469D01*
X81456152Y-44838469D01*
X81450152Y-44863469D01*
X81443152Y-44889469D01*
X81434152Y-44913469D01*
X81424152Y-44937469D01*
X81413152Y-44961469D01*
X81400152Y-44984469D01*
X81386152Y-45006469D01*
X81372152Y-45028469D01*
X81356152Y-45049469D01*
X81339152Y-45069469D01*
X81321152Y-45088469D01*
X81302152Y-45106469D01*
X81282152Y-45123469D01*
X81261152Y-45139469D01*
X81239152Y-45153469D01*
X81217152Y-45167469D01*
X81194152Y-45180469D01*
X81170152Y-45191469D01*
X81146152Y-45201469D01*
X81122152Y-45210469D01*
X81096152Y-45217469D01*
X81071152Y-45223469D01*
X81045152Y-45228469D01*
X81019152Y-45231469D01*
X80993152Y-45233469D01*
X80967152Y-45234469D01*
X80967152Y-45034469D01*
X80980152Y-45034469D01*
X80993152Y-45033469D01*
X81006152Y-45031469D01*
X81019152Y-45029469D01*
X81032152Y-45025469D01*
X81044152Y-45022469D01*
X81057152Y-45017469D01*
X81069152Y-45012469D01*
X81080152Y-45007469D01*
X81092152Y-45001469D01*
X81103152Y-44994469D01*
X81114152Y-44986469D01*
X81124152Y-44978469D01*
X81134152Y-44970469D01*
X81144152Y-44961469D01*
X81153152Y-44951469D01*
X81161152Y-44941469D01*
X81169152Y-44931469D01*
X81177152Y-44920469D01*
X81184152Y-44909469D01*
X81190152Y-44897469D01*
X81195152Y-44886469D01*
X81200152Y-44874469D01*
X81205152Y-44861469D01*
X81208152Y-44849469D01*
X81212152Y-44836469D01*
X81214152Y-44823469D01*
X81216152Y-44810469D01*
X81217152Y-44797469D01*
X81217152Y-44784469D01*
X81217152Y-44134469D01*
X81217152Y-44121469D01*
X81216152Y-44108469D01*
X81214152Y-44095469D01*
X81212152Y-44082469D01*
X81208152Y-44069469D01*
X81205152Y-44057469D01*
X81200152Y-44044469D01*
X81195152Y-44032469D01*
X81190152Y-44021469D01*
X81184152Y-44009469D01*
X81177152Y-43998469D01*
X81169152Y-43987469D01*
X81161152Y-43977469D01*
X81153152Y-43967469D01*
X81144152Y-43957469D01*
X81134152Y-43948469D01*
X81124152Y-43940469D01*
X81114152Y-43932469D01*
X81103152Y-43924469D01*
X81092152Y-43917469D01*
X81080152Y-43911469D01*
X81069152Y-43906469D01*
X81057152Y-43901469D01*
X81044152Y-43896469D01*
X81032152Y-43893469D01*
X81019152Y-43889469D01*
X81006152Y-43887469D01*
X80993152Y-43885469D01*
X80980152Y-43884469D01*
X80967152Y-43884469D01*
X80967152Y-43684469D01*
X80993152Y-43685469D01*
G37*
X80993152Y-43685469D02*
X81019152Y-43687469D01*
X81045152Y-43690469D01*
X81071152Y-43695469D01*
X81096152Y-43701469D01*
X81122152Y-43708469D01*
X81146152Y-43717469D01*
X81170152Y-43727469D01*
X81194152Y-43738469D01*
X81217152Y-43751469D01*
X81239152Y-43765469D01*
X81261152Y-43779469D01*
X81282152Y-43795469D01*
X81302152Y-43812469D01*
X81321152Y-43830469D01*
X81339152Y-43849469D01*
X81356152Y-43869469D01*
X81372152Y-43890469D01*
X81386152Y-43912469D01*
X81400152Y-43934469D01*
X81413152Y-43957469D01*
X81424152Y-43981469D01*
X81434152Y-44005469D01*
X81443152Y-44029469D01*
X81450152Y-44055469D01*
X81456152Y-44080469D01*
X81461152Y-44106469D01*
X81464152Y-44132469D01*
X81466152Y-44158469D01*
X81467152Y-44184469D01*
X81467152Y-44734469D01*
X81466152Y-44760469D01*
X81464152Y-44786469D01*
X81461152Y-44812469D01*
X81456152Y-44838469D01*
X81450152Y-44863469D01*
X81443152Y-44889469D01*
X81434152Y-44913469D01*
X81424152Y-44937469D01*
X81413152Y-44961469D01*
X81400152Y-44984469D01*
X81386152Y-45006469D01*
X81372152Y-45028469D01*
X81356152Y-45049469D01*
X81339152Y-45069469D01*
X81321152Y-45088469D01*
X81302152Y-45106469D01*
X81282152Y-45123469D01*
X81261152Y-45139469D01*
X81239152Y-45153469D01*
X81217152Y-45167469D01*
X81194152Y-45180469D01*
X81170152Y-45191469D01*
X81146152Y-45201469D01*
X81122152Y-45210469D01*
X81096152Y-45217469D01*
X81071152Y-45223469D01*
X81045152Y-45228469D01*
X81019152Y-45231469D01*
X80993152Y-45233469D01*
X80967152Y-45234469D01*
X80967152Y-45034469D01*
X80980152Y-45034469D01*
X80993152Y-45033469D01*
X81006152Y-45031469D01*
X81019152Y-45029469D01*
X81032152Y-45025469D01*
X81044152Y-45022469D01*
X81057152Y-45017469D01*
X81069152Y-45012469D01*
X81080152Y-45007469D01*
X81092152Y-45001469D01*
X81103152Y-44994469D01*
X81114152Y-44986469D01*
X81124152Y-44978469D01*
X81134152Y-44970469D01*
X81144152Y-44961469D01*
X81153152Y-44951469D01*
X81161152Y-44941469D01*
X81169152Y-44931469D01*
X81177152Y-44920469D01*
X81184152Y-44909469D01*
X81190152Y-44897469D01*
X81195152Y-44886469D01*
X81200152Y-44874469D01*
X81205152Y-44861469D01*
X81208152Y-44849469D01*
X81212152Y-44836469D01*
X81214152Y-44823469D01*
X81216152Y-44810469D01*
X81217152Y-44797469D01*
X81217152Y-44784469D01*
X81217152Y-44134469D01*
X81217152Y-44121469D01*
X81216152Y-44108469D01*
X81214152Y-44095469D01*
X81212152Y-44082469D01*
X81208152Y-44069469D01*
X81205152Y-44057469D01*
X81200152Y-44044469D01*
X81195152Y-44032469D01*
X81190152Y-44021469D01*
X81184152Y-44009469D01*
X81177152Y-43998469D01*
X81169152Y-43987469D01*
X81161152Y-43977469D01*
X81153152Y-43967469D01*
X81144152Y-43957469D01*
X81134152Y-43948469D01*
X81124152Y-43940469D01*
X81114152Y-43932469D01*
X81103152Y-43924469D01*
X81092152Y-43917469D01*
X81080152Y-43911469D01*
X81069152Y-43906469D01*
X81057152Y-43901469D01*
X81044152Y-43896469D01*
X81032152Y-43893469D01*
X81019152Y-43889469D01*
X81006152Y-43887469D01*
X80993152Y-43885469D01*
X80980152Y-43884469D01*
X80967152Y-43884469D01*
X80967152Y-43684469D01*
X80993152Y-43685469D01*
G36*
X73967152Y-43884469D02*
G01*
X73954152Y-43884469D01*
X73941152Y-43885469D01*
X73928152Y-43887469D01*
X73915152Y-43889469D01*
X73902152Y-43893469D01*
X73890152Y-43896469D01*
X73877152Y-43901469D01*
X73865152Y-43906469D01*
X73854152Y-43911469D01*
X73842152Y-43917469D01*
X73831152Y-43924469D01*
X73820152Y-43932469D01*
X73810152Y-43940469D01*
X73800152Y-43948469D01*
X73790152Y-43957469D01*
X73781152Y-43967469D01*
X73773152Y-43977469D01*
X73765152Y-43987469D01*
X73757152Y-43998469D01*
X73750152Y-44009469D01*
X73744152Y-44021469D01*
X73739152Y-44032469D01*
X73734152Y-44044469D01*
X73729152Y-44057469D01*
X73726152Y-44069469D01*
X73722152Y-44082469D01*
X73720152Y-44095469D01*
X73718152Y-44108469D01*
X73717152Y-44121469D01*
X73717152Y-44134469D01*
X73717152Y-44784469D01*
X73717152Y-44797469D01*
X73718152Y-44810469D01*
X73720152Y-44823469D01*
X73722152Y-44836469D01*
X73726152Y-44849469D01*
X73729152Y-44861469D01*
X73734152Y-44874469D01*
X73739152Y-44886469D01*
X73744152Y-44897469D01*
X73750152Y-44909469D01*
X73757152Y-44920469D01*
X73765152Y-44931469D01*
X73773152Y-44941469D01*
X73781152Y-44951469D01*
X73790152Y-44961469D01*
X73800152Y-44970469D01*
X73810152Y-44978469D01*
X73820152Y-44986469D01*
X73831152Y-44994469D01*
X73842152Y-45001469D01*
X73854152Y-45007469D01*
X73865152Y-45012469D01*
X73877152Y-45017469D01*
X73890152Y-45022469D01*
X73902152Y-45025469D01*
X73915152Y-45029469D01*
X73928152Y-45031469D01*
X73941152Y-45033469D01*
X73954152Y-45034469D01*
X73967152Y-45034469D01*
X73967152Y-45234469D01*
X73941152Y-45233469D01*
X73915152Y-45231469D01*
X73889152Y-45228469D01*
X73863152Y-45223469D01*
X73838152Y-45217469D01*
X73812152Y-45210469D01*
X73788152Y-45201469D01*
X73764152Y-45191469D01*
X73740152Y-45180469D01*
X73717152Y-45167469D01*
X73695152Y-45153469D01*
X73673152Y-45139469D01*
X73652152Y-45123469D01*
X73632152Y-45106469D01*
X73613152Y-45088469D01*
X73595152Y-45069469D01*
X73578152Y-45049469D01*
X73562152Y-45028469D01*
X73548152Y-45006469D01*
X73534152Y-44984469D01*
X73521152Y-44961469D01*
X73510152Y-44937469D01*
X73500152Y-44913469D01*
X73491152Y-44889469D01*
X73484152Y-44863469D01*
X73478152Y-44838469D01*
X73473152Y-44812469D01*
X73470152Y-44786469D01*
X73468152Y-44760469D01*
X73467152Y-44734469D01*
X73467152Y-44184469D01*
X73468152Y-44158469D01*
X73470152Y-44132469D01*
X73473152Y-44106469D01*
X73478152Y-44080469D01*
X73484152Y-44055469D01*
X73491152Y-44029469D01*
X73500152Y-44005469D01*
X73510152Y-43981469D01*
X73521152Y-43957469D01*
X73534152Y-43934469D01*
X73548152Y-43912469D01*
X73562152Y-43890469D01*
X73578152Y-43869469D01*
X73595152Y-43849469D01*
X73613152Y-43830469D01*
X73632152Y-43812469D01*
X73652152Y-43795469D01*
X73673152Y-43779469D01*
X73695152Y-43765469D01*
X73717152Y-43751469D01*
X73740152Y-43738469D01*
X73764152Y-43727469D01*
X73788152Y-43717469D01*
X73812152Y-43708469D01*
X73838152Y-43701469D01*
X73863152Y-43695469D01*
X73889152Y-43690469D01*
X73915152Y-43687469D01*
X73941152Y-43685469D01*
X73967152Y-43684469D01*
X73967152Y-43884469D01*
G37*
X73967152Y-43884469D02*
X73954152Y-43884469D01*
X73941152Y-43885469D01*
X73928152Y-43887469D01*
X73915152Y-43889469D01*
X73902152Y-43893469D01*
X73890152Y-43896469D01*
X73877152Y-43901469D01*
X73865152Y-43906469D01*
X73854152Y-43911469D01*
X73842152Y-43917469D01*
X73831152Y-43924469D01*
X73820152Y-43932469D01*
X73810152Y-43940469D01*
X73800152Y-43948469D01*
X73790152Y-43957469D01*
X73781152Y-43967469D01*
X73773152Y-43977469D01*
X73765152Y-43987469D01*
X73757152Y-43998469D01*
X73750152Y-44009469D01*
X73744152Y-44021469D01*
X73739152Y-44032469D01*
X73734152Y-44044469D01*
X73729152Y-44057469D01*
X73726152Y-44069469D01*
X73722152Y-44082469D01*
X73720152Y-44095469D01*
X73718152Y-44108469D01*
X73717152Y-44121469D01*
X73717152Y-44134469D01*
X73717152Y-44784469D01*
X73717152Y-44797469D01*
X73718152Y-44810469D01*
X73720152Y-44823469D01*
X73722152Y-44836469D01*
X73726152Y-44849469D01*
X73729152Y-44861469D01*
X73734152Y-44874469D01*
X73739152Y-44886469D01*
X73744152Y-44897469D01*
X73750152Y-44909469D01*
X73757152Y-44920469D01*
X73765152Y-44931469D01*
X73773152Y-44941469D01*
X73781152Y-44951469D01*
X73790152Y-44961469D01*
X73800152Y-44970469D01*
X73810152Y-44978469D01*
X73820152Y-44986469D01*
X73831152Y-44994469D01*
X73842152Y-45001469D01*
X73854152Y-45007469D01*
X73865152Y-45012469D01*
X73877152Y-45017469D01*
X73890152Y-45022469D01*
X73902152Y-45025469D01*
X73915152Y-45029469D01*
X73928152Y-45031469D01*
X73941152Y-45033469D01*
X73954152Y-45034469D01*
X73967152Y-45034469D01*
X73967152Y-45234469D01*
X73941152Y-45233469D01*
X73915152Y-45231469D01*
X73889152Y-45228469D01*
X73863152Y-45223469D01*
X73838152Y-45217469D01*
X73812152Y-45210469D01*
X73788152Y-45201469D01*
X73764152Y-45191469D01*
X73740152Y-45180469D01*
X73717152Y-45167469D01*
X73695152Y-45153469D01*
X73673152Y-45139469D01*
X73652152Y-45123469D01*
X73632152Y-45106469D01*
X73613152Y-45088469D01*
X73595152Y-45069469D01*
X73578152Y-45049469D01*
X73562152Y-45028469D01*
X73548152Y-45006469D01*
X73534152Y-44984469D01*
X73521152Y-44961469D01*
X73510152Y-44937469D01*
X73500152Y-44913469D01*
X73491152Y-44889469D01*
X73484152Y-44863469D01*
X73478152Y-44838469D01*
X73473152Y-44812469D01*
X73470152Y-44786469D01*
X73468152Y-44760469D01*
X73467152Y-44734469D01*
X73467152Y-44184469D01*
X73468152Y-44158469D01*
X73470152Y-44132469D01*
X73473152Y-44106469D01*
X73478152Y-44080469D01*
X73484152Y-44055469D01*
X73491152Y-44029469D01*
X73500152Y-44005469D01*
X73510152Y-43981469D01*
X73521152Y-43957469D01*
X73534152Y-43934469D01*
X73548152Y-43912469D01*
X73562152Y-43890469D01*
X73578152Y-43869469D01*
X73595152Y-43849469D01*
X73613152Y-43830469D01*
X73632152Y-43812469D01*
X73652152Y-43795469D01*
X73673152Y-43779469D01*
X73695152Y-43765469D01*
X73717152Y-43751469D01*
X73740152Y-43738469D01*
X73764152Y-43727469D01*
X73788152Y-43717469D01*
X73812152Y-43708469D01*
X73838152Y-43701469D01*
X73863152Y-43695469D01*
X73889152Y-43690469D01*
X73915152Y-43687469D01*
X73941152Y-43685469D01*
X73967152Y-43684469D01*
X73967152Y-43884469D01*
%TD*%
D11*
%TO.C,C21*%
X140997000Y-79981200D03*
X140997000Y-78431200D03*
%TD*%
D12*
%TO.C,R24*%
X173497500Y-66238100D03*
X173497500Y-67888100D03*
%TD*%
D13*
%TO.C,R49*%
X75200000Y-94175000D03*
X75200000Y-92525000D03*
%TD*%
D14*
%TO.C,U13*%
X183972700Y-110490000D03*
X183972700Y-109220000D03*
X183972700Y-107950000D03*
X183972700Y-106680000D03*
X183972700Y-105410000D03*
X183972700Y-104140000D03*
X183972700Y-102870000D03*
X183972700Y-101600000D03*
X183972700Y-100330000D03*
X183972700Y-99060000D03*
X183972700Y-97790000D03*
X183972700Y-96520000D03*
X183972700Y-95250000D03*
X183972700Y-93980000D03*
X183972700Y-92710000D03*
X183972700Y-91440000D03*
X170872700Y-91440000D03*
X170872700Y-92710000D03*
X170872700Y-93980000D03*
X170872700Y-95250000D03*
X170872700Y-96520000D03*
X170872700Y-97790000D03*
X170872700Y-99060000D03*
X170872700Y-100330000D03*
X170872700Y-101600000D03*
X170872700Y-102870000D03*
X170872700Y-104140000D03*
X170872700Y-105410000D03*
X170872700Y-106680000D03*
X170872700Y-107950000D03*
X170872700Y-109220000D03*
X170872700Y-110490000D03*
%TD*%
D12*
%TO.C,R47*%
X103611700Y-94273200D03*
X103611700Y-95923200D03*
%TD*%
D15*
%TO.C,R20*%
X141609500Y-67120100D03*
X143259500Y-67120100D03*
%TD*%
%TO.C,R13*%
X148494300Y-64282000D03*
X150144300Y-64282000D03*
%TD*%
D16*
%TO.C,C46*%
X136350000Y-106562500D03*
X136350000Y-108112500D03*
%TD*%
D11*
%TO.C,C4*%
X123699400Y-61898800D03*
X123699400Y-60348800D03*
%TD*%
D17*
%TO.C,U3*%
X114393326Y-76700699D03*
X116693326Y-76700699D03*
D18*
X116693326Y-70400699D03*
D17*
X118993326Y-76700699D03*
%TD*%
D16*
%TO.C,C52*%
X134850000Y-106562500D03*
X134850000Y-108112500D03*
%TD*%
D12*
%TO.C,R46*%
X102150300Y-94272500D03*
X102150300Y-95922500D03*
%TD*%
D19*
%TO.C,U6*%
X143970000Y-82550000D03*
X143470000Y-82550000D03*
X142970000Y-82550000D03*
X142470000Y-82550000D03*
X141970000Y-82550000D03*
X141470000Y-82550000D03*
X140970000Y-82550000D03*
X140470000Y-82550000D03*
X139970000Y-82550000D03*
X139470000Y-82550000D03*
X138970000Y-82550000D03*
X138470000Y-82550000D03*
X137970000Y-82550000D03*
X137470000Y-82550000D03*
X136970000Y-82550000D03*
X136470000Y-82550000D03*
X135970000Y-82550000D03*
X135470000Y-82550000D03*
X134970000Y-82550000D03*
X134470000Y-82550000D03*
X133970000Y-82550000D03*
X133470000Y-82550000D03*
X132970000Y-82550000D03*
X132470000Y-82550000D03*
X131970000Y-82550000D03*
X131470000Y-82550000D03*
X130970000Y-82550000D03*
X130470000Y-82550000D03*
X129970000Y-82550000D03*
X129470000Y-82550000D03*
X128970000Y-82550000D03*
X128470000Y-82550000D03*
X127970000Y-82550000D03*
X127470000Y-82550000D03*
X126970000Y-82550000D03*
X126470000Y-82550000D03*
D20*
X124557500Y-84462500D03*
X124557500Y-84962500D03*
X124557500Y-85462500D03*
X124557500Y-85962500D03*
X124557500Y-86462500D03*
X124557500Y-86962500D03*
X124557500Y-87462500D03*
X124557500Y-87962500D03*
X124557500Y-88462500D03*
X124557500Y-88962500D03*
X124557500Y-89462500D03*
X124557500Y-89962500D03*
X124557500Y-90462500D03*
X124557500Y-90962500D03*
X124557500Y-91462500D03*
X124557500Y-91962500D03*
X124557500Y-92462500D03*
X124557500Y-92962500D03*
X124557500Y-93462500D03*
X124557500Y-93962500D03*
X124557500Y-94462500D03*
X124557500Y-94962500D03*
X124557500Y-95462500D03*
X124557500Y-95962500D03*
X124557500Y-96462500D03*
X124557500Y-96962500D03*
X124557500Y-97462500D03*
X124557500Y-97962500D03*
X124557500Y-98462500D03*
X124557500Y-98962500D03*
X124557500Y-99462500D03*
X124557500Y-99962500D03*
X124557500Y-100462500D03*
X124557500Y-100962500D03*
X124557500Y-101462500D03*
X124557500Y-101962500D03*
D19*
X126470000Y-103875000D03*
X126970000Y-103875000D03*
X127470000Y-103875000D03*
X127970000Y-103875000D03*
X128470000Y-103875000D03*
X128970000Y-103875000D03*
X129470000Y-103875000D03*
X129970000Y-103875000D03*
X130470000Y-103875000D03*
X130970000Y-103875000D03*
X131470000Y-103875000D03*
X131970000Y-103875000D03*
X132470000Y-103875000D03*
X132970000Y-103875000D03*
X133470000Y-103875000D03*
X133970000Y-103875000D03*
X134470000Y-103875000D03*
X134970000Y-103875000D03*
X135470000Y-103875000D03*
X135970000Y-103875000D03*
X136470000Y-103875000D03*
X136970000Y-103875000D03*
X137470000Y-103875000D03*
X137970000Y-103875000D03*
X138470000Y-103875000D03*
X138970000Y-103875000D03*
X139470000Y-103875000D03*
X139970000Y-103875000D03*
X140470000Y-103875000D03*
X140970000Y-103875000D03*
X141470000Y-103875000D03*
X141970000Y-103875000D03*
X142470000Y-103875000D03*
X142970000Y-103875000D03*
X143470000Y-103875000D03*
X143970000Y-103875000D03*
D20*
X145882500Y-101962500D03*
X145882500Y-101462500D03*
X145882500Y-100962500D03*
X145882500Y-100462500D03*
X145882500Y-99962500D03*
X145882500Y-99462500D03*
X145882500Y-98962500D03*
X145882500Y-98462500D03*
X145882500Y-97962500D03*
X145882500Y-97462500D03*
X145882500Y-96962500D03*
X145882500Y-96462500D03*
X145882500Y-95962500D03*
X145882500Y-95462500D03*
X145882500Y-94962500D03*
X145882500Y-94462500D03*
X145882500Y-93962500D03*
X145882500Y-93462500D03*
X145882500Y-92962500D03*
X145882500Y-92462500D03*
X145882500Y-91962500D03*
X145882500Y-91462500D03*
X145882500Y-90962500D03*
X145882500Y-90462500D03*
X145882500Y-89962500D03*
X145882500Y-89462500D03*
X145882500Y-88962500D03*
X145882500Y-88462500D03*
X145882500Y-87962500D03*
X145882500Y-87462500D03*
X145882500Y-86962500D03*
X145882500Y-86462500D03*
X145882500Y-85962500D03*
X145882500Y-85462500D03*
X145882500Y-84962500D03*
X145882500Y-84462500D03*
%TD*%
D15*
%TO.C,R15*%
X134738600Y-65716700D03*
X136388600Y-65716700D03*
%TD*%
D12*
%TO.C,R25*%
X175000000Y-66238100D03*
X175000000Y-67888100D03*
%TD*%
D21*
%TO.C,C47*%
X114100000Y-112925600D03*
X112550000Y-112925600D03*
%TD*%
D16*
%TO.C,C35*%
X133350000Y-106575000D03*
X133350000Y-108125000D03*
%TD*%
D22*
%TO.C,C55*%
X170296800Y-112226000D03*
X171846800Y-112226000D03*
%TD*%
D11*
%TO.C,C20*%
X125000000Y-79983800D03*
X125000000Y-78433800D03*
%TD*%
D23*
%TO.C,C3*%
X120449400Y-62073800D03*
X120449400Y-60173800D03*
%TD*%
D12*
%TO.C,R23*%
X172000000Y-66238100D03*
X172000000Y-67888100D03*
%TD*%
D11*
%TO.C,C19*%
X136470000Y-79987500D03*
X136470000Y-78437500D03*
%TD*%
D13*
%TO.C,R4*%
X117945700Y-61957300D03*
X117945700Y-60307300D03*
%TD*%
D11*
%TO.C,C56*%
X94954900Y-95871400D03*
X94954900Y-94321400D03*
%TD*%
D21*
%TO.C,C48*%
X117625000Y-112925600D03*
X116075000Y-112925600D03*
%TD*%
%TO.C,C45*%
X161685000Y-104941400D03*
X160135000Y-104941400D03*
%TD*%
D15*
%TO.C,R14*%
X155581300Y-64279100D03*
X157231300Y-64279100D03*
%TD*%
%TO.C,R39*%
X116025000Y-114425600D03*
X117675000Y-114425600D03*
%TD*%
%TO.C,R9*%
X148494300Y-62864900D03*
X150144300Y-62864900D03*
%TD*%
D21*
%TO.C,C41*%
X161685000Y-94131400D03*
X160135000Y-94131400D03*
%TD*%
D12*
%TO.C,R44*%
X98282900Y-94254000D03*
X98282900Y-95904000D03*
%TD*%
D21*
%TO.C,C30*%
X121995000Y-86962500D03*
X120445000Y-86962500D03*
%TD*%
D12*
%TO.C,R3*%
X114949400Y-60298800D03*
X114949400Y-61948800D03*
%TD*%
D11*
%TO.C,C15*%
X128550000Y-79987500D03*
X128550000Y-78437500D03*
%TD*%
D15*
%TO.C,R11*%
X134738600Y-64298300D03*
X136388600Y-64298300D03*
%TD*%
D22*
%TO.C,C40*%
X148445000Y-94100002D03*
X149995000Y-94100002D03*
%TD*%
D24*
%TO.C,J1*%
X78767151Y-47159468D03*
X78117151Y-47159468D03*
X77467151Y-47159468D03*
X76817151Y-47159468D03*
X76167151Y-47159468D03*
D25*
X78467151Y-44459468D03*
X76467151Y-44459468D03*
%TD*%
D13*
%TO.C,R40*%
X85835800Y-95921600D03*
X85835800Y-94271600D03*
%TD*%
D12*
%TO.C,R27*%
X178000000Y-66225000D03*
X178000000Y-67875000D03*
%TD*%
D17*
%TO.C,U11*%
X112777499Y-110925599D03*
X115077499Y-110925599D03*
D18*
X115077499Y-104625599D03*
D17*
X117377499Y-110925599D03*
%TD*%
D21*
%TO.C,C33*%
X121983000Y-88476400D03*
X120433000Y-88476400D03*
%TD*%
D15*
%TO.C,R16*%
X141608400Y-65697000D03*
X143258400Y-65697000D03*
%TD*%
D21*
%TO.C,C29*%
X161685000Y-83351400D03*
X160135000Y-83351400D03*
%TD*%
D22*
%TO.C,C42*%
X148450000Y-95600000D03*
X150000000Y-95600000D03*
%TD*%
D15*
%TO.C,R17*%
X148490500Y-65693000D03*
X150140500Y-65693000D03*
%TD*%
D16*
%TO.C,C49*%
X127970000Y-106437500D03*
X127970000Y-107987500D03*
%TD*%
D15*
%TO.C,R21*%
X148494300Y-67128100D03*
X150144300Y-67128100D03*
%TD*%
%TO.C,R36*%
X114181627Y-80200000D03*
X115831627Y-80200000D03*
%TD*%
D16*
%TO.C,C57*%
X76659700Y-92575400D03*
X76659700Y-94125400D03*
%TD*%
D13*
%TO.C,R68*%
X79650000Y-99275000D03*
X79650000Y-97625000D03*
%TD*%
D12*
%TO.C,R69*%
X78000000Y-118225000D03*
X78000000Y-119875000D03*
%TD*%
D26*
%TO.C,J9*%
X102459999Y-98069999D03*
X99959999Y-98069999D03*
X96649999Y-98069999D03*
X94939999Y-98069999D03*
X92439999Y-98069999D03*
X89939999Y-98069999D03*
X87519999Y-98069999D03*
X85819999Y-98069999D03*
X104959999Y-98069999D03*
D27*
X98280000Y-98070000D03*
D26*
X82539999Y-98069999D03*
D28*
X110534999Y-119119999D03*
X81464999Y-120319999D03*
%TD*%
D12*
%TO.C,R43*%
X92411000Y-94257600D03*
X92411000Y-95907600D03*
%TD*%
D11*
%TO.C,C24*%
X184982873Y-76850000D03*
X184982873Y-75300000D03*
%TD*%
D12*
%TO.C,R26*%
X176500000Y-66238100D03*
X176500000Y-67888100D03*
%TD*%
D29*
%TO.C,U7*%
X182770000Y-80848100D03*
X182770000Y-80048100D03*
X182770000Y-79248100D03*
X182770000Y-78448100D03*
X182770000Y-77648100D03*
X182770000Y-76848100D03*
X182770000Y-76048100D03*
X182770000Y-75248100D03*
X182770000Y-74448100D03*
X182770000Y-73648100D03*
X182770000Y-72848100D03*
D30*
X181107500Y-71185600D03*
X180307500Y-71185600D03*
X179507500Y-71185600D03*
X178707500Y-71185600D03*
X177907500Y-71185600D03*
X177107500Y-71185600D03*
X176307500Y-71185600D03*
X175507500Y-71185600D03*
X174707500Y-71185600D03*
X173907500Y-71185600D03*
X173107500Y-71185600D03*
D29*
X171445000Y-72848100D03*
X171445000Y-73648100D03*
X171445000Y-74448100D03*
X171445000Y-75248100D03*
X171445000Y-76048100D03*
X171445000Y-76848100D03*
X171445000Y-77648100D03*
X171445000Y-78448100D03*
X171445000Y-79248100D03*
X171445000Y-80048100D03*
X171445000Y-80848100D03*
D30*
X173107500Y-82510600D03*
X173907500Y-82510600D03*
X174707500Y-82510600D03*
X175507500Y-82510600D03*
X176307500Y-82510600D03*
X177107500Y-82510600D03*
X177907500Y-82510600D03*
X178707500Y-82510600D03*
X179507500Y-82510600D03*
X180307500Y-82510600D03*
X181107500Y-82510600D03*
%TD*%
D31*
%TO.C,U4*%
X155684100Y-72980000D03*
X155684100Y-73630000D03*
X155684100Y-74280000D03*
X155684100Y-74930000D03*
X155684100Y-75580000D03*
X155684100Y-76230000D03*
X155684100Y-76880000D03*
X155684100Y-77530000D03*
X155684100Y-78180000D03*
X155684100Y-78830000D03*
X161409100Y-78830000D03*
X161409100Y-78180000D03*
X161409100Y-77530000D03*
X161409100Y-76880000D03*
X161409100Y-76230000D03*
X161409100Y-75580000D03*
X161409100Y-74930000D03*
X161409100Y-74280000D03*
X161409100Y-73630000D03*
X161409100Y-72980000D03*
%TD*%
D22*
%TO.C,C37*%
X148445000Y-91012500D03*
X149995000Y-91012500D03*
%TD*%
%TO.C,C39*%
X148445000Y-92512500D03*
X149995000Y-92512500D03*
%TD*%
D13*
%TO.C,R6*%
X125206600Y-61943400D03*
X125206600Y-60293400D03*
%TD*%
D31*
%TO.C,U9*%
X155697500Y-95456400D03*
X155697500Y-96106400D03*
X155697500Y-96756400D03*
X155697500Y-97406400D03*
X155697500Y-98056400D03*
X155697500Y-98706400D03*
X155697500Y-99356400D03*
X155697500Y-100006400D03*
X155697500Y-100656400D03*
X155697500Y-101306400D03*
X161422500Y-101306400D03*
X161422500Y-100656400D03*
X161422500Y-100006400D03*
X161422500Y-99356400D03*
X161422500Y-98706400D03*
X161422500Y-98056400D03*
X161422500Y-97406400D03*
X161422500Y-96756400D03*
X161422500Y-96106400D03*
X161422500Y-95456400D03*
%TD*%
D12*
%TO.C,R45*%
X99981100Y-94267600D03*
X99981100Y-95917600D03*
%TD*%
D11*
%TO.C,C14*%
X126470000Y-79987500D03*
X126470000Y-78437500D03*
%TD*%
D21*
%TO.C,C43*%
X121995000Y-97462500D03*
X120445000Y-97462500D03*
%TD*%
D16*
%TO.C,C51*%
X131850000Y-106562500D03*
X131850000Y-108112500D03*
%TD*%
D31*
%TO.C,U8*%
X155697500Y-84676400D03*
X155697500Y-85326400D03*
X155697500Y-85976400D03*
X155697500Y-86626400D03*
X155697500Y-87276400D03*
X155697500Y-87926400D03*
X155697500Y-88576400D03*
X155697500Y-89226400D03*
X155697500Y-89876400D03*
X155697500Y-90526400D03*
X161422500Y-90526400D03*
X161422500Y-89876400D03*
X161422500Y-89226400D03*
X161422500Y-88576400D03*
X161422500Y-87926400D03*
X161422500Y-87276400D03*
X161422500Y-86626400D03*
X161422500Y-85976400D03*
X161422500Y-85326400D03*
X161422500Y-84676400D03*
%TD*%
D15*
%TO.C,R12*%
X141609500Y-64273900D03*
X143259500Y-64273900D03*
%TD*%
%TO.C,R19*%
X134738600Y-67135000D03*
X136388600Y-67135000D03*
%TD*%
D12*
%TO.C,R5*%
X122199400Y-60298800D03*
X122199400Y-61948800D03*
%TD*%
D21*
%TO.C,C36*%
X121995000Y-91462500D03*
X120445000Y-91462500D03*
%TD*%
%TO.C,C10*%
X161671600Y-71655000D03*
X160121600Y-71655000D03*
%TD*%
D32*
%TO.C,C7*%
X103380000Y-61880000D03*
X97980000Y-61880000D03*
%TD*%
D11*
%TO.C,C2*%
X116449400Y-61898800D03*
X116449400Y-60348800D03*
%TD*%
D33*
%TO.C,X1*%
X113499999Y-91749999D03*
X113499999Y-94149999D03*
X115399999Y-94149999D03*
X115399999Y-91749999D03*
%TD*%
D22*
%TO.C,C31*%
X148446200Y-88090600D03*
X149996200Y-88090600D03*
%TD*%
D16*
%TO.C,C53*%
X142950000Y-106443000D03*
X142950000Y-107993000D03*
%TD*%
D11*
%TO.C,C16*%
X130050000Y-79987500D03*
X130050000Y-78437500D03*
%TD*%
D21*
%TO.C,C38*%
X121995100Y-92991200D03*
X120445100Y-92991200D03*
%TD*%
D31*
%TO.C,U12*%
X155697500Y-106266400D03*
X155697500Y-106916400D03*
X155697500Y-107566400D03*
X155697500Y-108216400D03*
X155697500Y-108866400D03*
X155697500Y-109516400D03*
X155697500Y-110166400D03*
X155697500Y-110816400D03*
X155697500Y-111466400D03*
X155697500Y-112116400D03*
X161422500Y-112116400D03*
X161422500Y-111466400D03*
X161422500Y-110816400D03*
X161422500Y-110166400D03*
X161422500Y-109516400D03*
X161422500Y-108866400D03*
X161422500Y-108216400D03*
X161422500Y-107566400D03*
X161422500Y-106916400D03*
X161422500Y-106266400D03*
%TD*%
D34*
%TO.C,C58*%
X73250000Y-92125000D03*
X73250000Y-95075000D03*
%TD*%
D12*
%TO.C,R42*%
X89130700Y-94266700D03*
X89130700Y-95916700D03*
%TD*%
D21*
%TO.C,C32*%
X115325000Y-89820000D03*
X113775000Y-89820000D03*
%TD*%
%TO.C,C13*%
X119081627Y-78700000D03*
X117531627Y-78700000D03*
%TD*%
D16*
%TO.C,C50*%
X129426100Y-106435300D03*
X129426100Y-107985300D03*
%TD*%
D15*
%TO.C,R37*%
X117481627Y-80200000D03*
X119131627Y-80200000D03*
%TD*%
%TO.C,R7*%
X134738600Y-62880000D03*
X136388600Y-62880000D03*
%TD*%
%TO.C,R10*%
X155579500Y-62866000D03*
X157229500Y-62866000D03*
%TD*%
D35*
%TO.C,U10*%
X72490000Y-89750000D03*
X73760000Y-89750000D03*
X75030000Y-89750000D03*
X76300000Y-89750000D03*
X77570000Y-89750000D03*
X78840000Y-89750000D03*
X80110000Y-89750000D03*
X81380000Y-89750000D03*
X82650000Y-89750000D03*
X83920000Y-89750000D03*
X85190000Y-89750000D03*
X86460000Y-89750000D03*
X87730000Y-89750000D03*
X89000000Y-89750000D03*
D36*
X90250000Y-87985000D03*
X90250000Y-86715000D03*
X90250000Y-85445000D03*
X90250000Y-84175000D03*
X90250000Y-82905000D03*
X90250000Y-81635000D03*
X90250000Y-80365000D03*
X90250000Y-79095000D03*
X90250000Y-77825000D03*
X90250000Y-76555000D03*
X90250000Y-75285000D03*
X90250000Y-74015000D03*
D37*
X89000000Y-72250000D03*
X87730000Y-72250000D03*
X86460000Y-72250000D03*
X85190000Y-72250000D03*
X83920000Y-72250000D03*
X82650000Y-72250000D03*
X81380000Y-72250000D03*
X80110000Y-72250000D03*
X78840000Y-72250000D03*
X77570000Y-72250000D03*
X76300000Y-72250000D03*
X75030000Y-72250000D03*
X73760000Y-72250000D03*
X72490000Y-72250000D03*
D38*
X78810000Y-83900000D03*
X80210000Y-83900000D03*
X81610000Y-83900000D03*
X78810000Y-82500000D03*
X80210000Y-82500000D03*
X81610000Y-82500000D03*
X78810000Y-81100000D03*
X80210000Y-81100000D03*
X81610000Y-81100000D03*
%TD*%
D21*
%TO.C,C12*%
X115781627Y-78700000D03*
X114231627Y-78700000D03*
%TD*%
D16*
%TO.C,C54*%
X141470000Y-106437500D03*
X141470000Y-107987500D03*
%TD*%
D11*
%TO.C,C22*%
X142470000Y-79987500D03*
X142470000Y-78437500D03*
%TD*%
D39*
%TO.C,Q3*%
X79600000Y-101012500D03*
X77700000Y-101012500D03*
X78650000Y-102887500D03*
%TD*%
D12*
%TO.C,R28*%
X179500000Y-66238100D03*
X179500000Y-67888100D03*
%TD*%
D16*
%TO.C,C8*%
X160950000Y-68125000D03*
X160950000Y-69675000D03*
%TD*%
D23*
%TO.C,C1*%
X113199400Y-62073800D03*
X113199400Y-60173800D03*
%TD*%
D13*
%TO.C,R48*%
X105068300Y-95922500D03*
X105068300Y-94272500D03*
%TD*%
D22*
%TO.C,C44*%
X148448800Y-97058300D03*
X149998800Y-97058300D03*
%TD*%
D21*
%TO.C,C34*%
X121979100Y-89983200D03*
X120429100Y-89983200D03*
%TD*%
D12*
%TO.C,R41*%
X87505300Y-94269100D03*
X87505300Y-95919100D03*
%TD*%
D40*
%TO.C,C5*%
X184250000Y-59600000D03*
X189650000Y-59600000D03*
%TD*%
D15*
%TO.C,R8*%
X141609500Y-62862900D03*
X143259500Y-62862900D03*
%TD*%
D41*
%TO.C,U1*%
X157025000Y-68150000D03*
X157025000Y-69100000D03*
X157025000Y-70050000D03*
X159300000Y-70050000D03*
X159300000Y-68150000D03*
%TD*%
D11*
%TO.C,C17*%
X133470000Y-79987500D03*
X133470000Y-78437500D03*
%TD*%
D15*
%TO.C,R38*%
X92025000Y-84150000D03*
X93675000Y-84150000D03*
%TD*%
D11*
%TO.C,C18*%
X134970000Y-79987500D03*
X134970000Y-78437500D03*
%TD*%
M02*
