M48
; DRILL file {KiCad (7.0.0)} date Mon Aug  7 16:44:22 2023
; FORMAT={-:-/ absolute / inch / decimal}
; #@! TF.CreationDate,2023-08-07T16:44:22-07:00
; #@! TF.GenerationSoftware,Kicad,Pcbnew,(7.0.0)
; #@! TF.FileFunction,Plated,1,2,PTH
FMAT,2
INCH
; #@! TA.AperFunction,Plated,PTH,ViaDrill
T1C0.0118
; #@! TA.AperFunction,Plated,PTH,ComponentDrill
T2C0.0197
; #@! TA.AperFunction,Plated,PTH,ComponentDrill
T3C0.0217
; #@! TA.AperFunction,Plated,PTH,ComponentDrill
T4C0.0236
; #@! TA.AperFunction,Plated,PTH,ComponentDrill
T5C0.0354
; #@! TA.AperFunction,Plated,PTH,ComponentDrill
T6C0.0374
; #@! TA.AperFunction,Plated,PTH,ComponentDrill
T7C0.0394
; #@! TA.AperFunction,Plated,PTH,ComponentDrill
T8C0.0472
; #@! TA.AperFunction,Plated,PTH,ComponentDrill
T9C0.0906
; #@! TA.AperFunction,Plated,PTH,ComponentDrill
T10C0.1260
%
G90
G05
T1
X2.6476Y-2.2618
X2.7559Y-4.1732
X2.8059Y-4.5732
X2.8538Y-3.5707
X2.8543Y-2.8075
X2.8543Y-1.9862
X2.8837Y-3.7799
X2.9Y-3.0157
X2.9Y-3.3657
X2.9986Y-1.8967
X3.0039Y-2.8011
X3.0181Y-3.737
X3.0315Y-3.8071
X3.0531Y-2.8012
X3.0591Y-4.0197
X3.1024Y-1.813
X3.1024Y-3.7697
X3.1358Y-3.8071
X3.1531Y-4.736
X3.1555Y-3.6535
X3.1673Y-3.7126
X3.187Y-3.8524
X3.2283Y-2.5059
X3.2657Y-3.7874
X3.3661Y-2.2185
X3.3683Y-1.9173
X3.4232Y-3.4764
X3.4547Y-3.4852
X3.4626Y-2.8996
X3.5Y-4.0657
X3.5414Y-3.8069
X3.7067Y-3.4626
X3.7138Y-1.915
X3.7373Y-3.6828
X3.7683Y-2.438
X3.7905Y-3.7465
X3.8051Y-3.8091
X3.8701Y-3.9291
X3.9638Y-1.915
X4.0Y-4.3157
X4.0846Y-3.3858
X4.0846Y-3.6142
X4.1634Y-3.5629
X4.1693Y-2.4362
X4.2138Y-2.315
X4.2402Y-4.0
X4.2539Y-3.7913
X4.3406Y-3.3819
X4.3445Y-2.5315
X4.3818Y-1.9616
X4.3937Y-3.565
X4.3937Y-3.7913
X4.3937Y-3.937
X4.4131Y-4.6893
X4.4154Y-3.3583
X4.4154Y-3.4055
X4.4331Y-3.7067
X4.439Y-4.311
X4.4449Y-3.5354
X4.4547Y-4.8799
X4.4619Y-3.0197
X4.4672Y-3.0987
X4.4679Y-3.1571
X4.4941Y-3.9192
X4.5249Y-2.345
X4.5383Y-4.4469
X4.5413Y-3.2618
X4.5768Y-3.5374
X4.5847Y-2.3457
X4.5925Y-3.9272
X4.5963Y-3.0994
X4.6299Y-3.4744
X4.6299Y-3.5433
X4.6299Y-3.9783
X4.6319Y-3.5098
X4.6437Y-2.4744
X4.6476Y-4.622
X4.6555Y-4.002
X4.6614Y-3.2441
X4.6634Y-3.4291
X4.6772Y-3.4626
X4.7077Y-3.4193
X4.7083Y-3.4862
X4.7087Y-3.5512
X4.71Y-3.6004
X4.7104Y-3.6614
X4.7106Y-3.8366
X4.7205Y-3.9724
X4.7387Y-3.9985
X4.7481Y-4.2352
X4.7717Y-4.2106
X4.7736Y-3.9508
X4.7756Y-4.5118
X4.7776Y-4.0256
X4.7894Y-2.7126
X4.7913Y-3.0
X4.7965Y-4.2336
X4.8112Y-2.3451
X4.8201Y-4.2106
X4.8414Y-3.4237
X4.8425Y-4.0394
X4.8437Y-4.2336
X4.8465Y-3.5807
X4.8465Y-3.6142
X4.8465Y-3.6555
X4.8465Y-3.9488
X4.8484Y-3.5013
X4.8484Y-3.5335
X4.8495Y-3.4541
X4.8543Y-3.7913
X4.8583Y-3.7579
X4.8681Y-4.2106
X4.87Y-2.3455
X4.876Y-4.4469
X4.8917Y-4.2343
X4.9055Y-4.4252
X4.9153Y-4.2106
X4.9213Y-3.0571
X4.9294Y-2.4759
X4.9389Y-4.2345
X4.9449Y-4.4724
X4.9481Y-3.8962
X4.9484Y-3.6633
X4.95Y-3.5576
X4.9512Y-3.8617
X4.9528Y-3.4823
X4.9574Y-3.8064
X4.9587Y-3.75
X4.9626Y-4.2106
X4.9705Y-4.4961
X4.9753Y-4.0447
X4.9783Y-3.1909
X4.9791Y-3.0573
X4.9803Y-3.6752
X4.9937Y-3.2962
X4.9961Y-3.5787
X5.0Y-3.7776
X5.0157Y-3.6969
X5.0177Y-2.3799
X5.0276Y-3.3031
X5.0374Y-4.1516
X5.0382Y-4.2812
X5.0393Y-3.8801
X5.0571Y-3.0576
X5.0579Y-4.0409
X5.061Y-4.4488
X5.0669Y-3.7343
X5.0768Y-3.1909
X5.0846Y-4.4252
X5.0866Y-4.4724
X5.0914Y-4.2853
X5.0965Y-3.2992
X5.1Y-3.5
X5.1043Y-2.9921
X5.1102Y-3.1949
X5.1142Y-4.4961
X5.122Y-3.0546
X5.1279Y-2.9681
X5.1516Y-4.8327
X5.1594Y-2.687
X5.163Y-2.5219
X5.1638Y-1.9442
X5.1909Y-4.2874
X5.1995Y-3.3035
X5.2Y-3.85
X5.2079Y-4.1516
X5.2185Y-3.6437
X5.2205Y-3.502
X5.2386Y-2.7425
X5.2441Y-3.3012
X5.25Y-4.2874
X5.255Y-3.0563
X5.2677Y-3.189
X5.2835Y-3.0217
X5.3091Y-4.2874
X5.3138Y-3.0574
X5.3335Y-4.0374
X5.3346Y-4.1535
X5.3471Y-3.0223
X5.3504Y-3.187
X5.3607Y-2.8044
X5.3622Y-3.3071
X5.3681Y-4.2874
X5.3731Y-3.0584
X5.3758Y-3.6724
X5.3962Y-3.3065
X5.3994Y-2.9983
X5.4Y-3.5
X5.4311Y-3.2992
X5.4331Y-4.0394
X5.4469Y-2.6043
X5.5Y-3.85
X5.5Y-4.7579
X5.5084Y-3.3016
X5.5106Y-4.0413
X5.5336Y-4.143
X5.5354Y-3.1969
X5.5512Y-3.0551
X5.5571Y-4.0332
X5.5591Y-3.3031
X5.5693Y-4.1453
X5.5697Y-4.2832
X5.5807Y-3.0276
X5.5866Y-3.1969
X5.5906Y-2.3819
X5.6043Y-3.002
X5.6094Y-3.0569
X5.6181Y-3.189
X5.628Y-4.2815
X5.6287Y-3.2953
X5.6496Y-4.4882
X5.6516Y-2.8563
X5.6693Y-4.0453
X5.687Y-4.1791
X5.6886Y-3.7417
X5.689Y-3.061
X5.689Y-3.6673
X5.689Y-3.7028
X5.6944Y-3.8461
X5.6944Y-3.811
X5.6947Y-3.482
X5.6958Y-3.6009
X5.6969Y-3.935
X5.7067Y-3.0906
X5.7214Y-4.2195
X5.7244Y-4.187
X5.7598Y-2.8681
X5.7638Y-3.2067
X5.7874Y-2.4409
X5.7874Y-2.7559
X5.8007Y-3.7047
X5.811Y-3.6004
X5.8135Y-3.4764
X5.8212Y-4.0051
X5.8465Y-1.815
X5.876Y-3.8917
X5.8858Y-4.8819
X5.9075Y-3.8996
X5.9252Y-2.7953
X5.9332Y-3.7047
X5.9345Y-3.5846
X5.936Y-3.6422
X5.9372Y-3.4666
X5.938Y-3.7677
X5.9387Y-3.8196
X5.9685Y-3.7262
X5.9784Y-3.7925
X5.981Y-3.7611
X6.0236Y-2.4016
X6.065Y-2.6339
X6.0854Y-3.1026
X6.0863Y-3.9884
X6.087Y-3.5644
X6.1398Y-2.1063
X6.1417Y-2.6841
X6.1419Y-2.7579
X6.1772Y-2.8091
X6.1889Y-4.4027
X6.2714Y-2.8218
X6.3031Y-4.0945
X6.3033Y-3.25
X6.3033Y-3.6721
X6.3071Y-4.3878
X6.3701Y-2.7421
X6.3978Y-3.3597
X6.3987Y-3.784
X6.3996Y-2.8996
X6.4045Y-4.2103
X6.4075Y-3.9629
X6.4252Y-4.3878
X6.4311Y-3.9884
X6.4429Y-3.8346
X6.4764Y-2.4409
X6.4803Y-3.8327
X6.4819Y-3.5129
X6.4842Y-4.3366
X6.489Y-3.4361
X6.5Y-4.2323
X6.5217Y-3.9114
X6.5256Y-4.3425
X6.5315Y-1.8425
X6.5453Y-3.0276
X6.5492Y-4.2244
X6.5571Y-3.9114
X6.5689Y-3.0768
X6.5826Y-3.8504
X6.5894Y-3.7705
X6.5945Y-3.811
X6.5945Y-4.5472
X6.5964Y-2.9764
X6.622Y-4.1969
X6.6244Y-3.736
X6.6307Y-2.9929
X6.6358Y-2.7283
X6.6437Y-2.9331
X6.6456Y-4.1594
X6.6551Y-4.0137
X6.6616Y-4.0445
X6.6661Y-3.6507
X6.6669Y-3.7
X6.6693Y-4.1074
X6.6713Y-4.624
X6.6713Y-3.75
X6.6713Y-4.4213
X6.6732Y-4.2244
X6.6932Y-2.9
X6.7086Y-2.9631
X6.7236Y-3.3461
X6.7343Y-2.7402
X6.7604Y-2.8133
X6.7811Y-3.8748
X6.7913Y-3.439
X6.7913Y-3.3071
X6.7943Y-3.4076
X6.7986Y-2.849
X6.8Y-4.4183
X6.8012Y-3.0748
X6.8129Y-3.374
X6.815Y-4.1772
X6.8307Y-4.0991
X6.8307Y-4.9016
X6.8419Y-2.8514
X6.8543Y-3.9961
X6.8602Y-3.85
X6.8602Y-4.125
X6.876Y-3.9488
X6.8855Y-2.9477
X6.8898Y-3.1319
X6.8917Y-3.1752
X6.8976Y-3.1004
X6.9055Y-2.7402
X6.9094Y-2.8484
X6.9232Y-3.813
X6.9232Y-3.6004
X6.9449Y-3.057
X6.945Y-2.9241
X6.9469Y-3.6496
X6.9488Y-2.3425
X6.9596Y-2.8601
X6.9646Y-3.8996
X6.972Y-3.3347
X6.9738Y-3.9821
X6.9823Y-2.9803
X6.9868Y-2.8759
X6.9882Y-4.5079
X6.9924Y-3.1617
X6.9928Y-3.1279
X6.9961Y-4.0453
X7.0039Y-2.7539
X7.0042Y-3.2972
X7.0295Y-4.2008
X7.0374Y-3.311
X7.0531Y-3.6496
X7.0531Y-4.075
X7.0571Y-3.0807
X7.0571Y-3.6049
X7.0709Y-2.9902
X7.1049Y-3.1043
X7.1083Y-2.9311
X7.1142Y-3.7992
X7.1201Y-3.75
X7.1299Y-2.7598
X7.1378Y-2.9626
X7.1457Y-2.8996
X7.1476Y-3.7756
X7.1713Y-4.2244
X7.1791Y-3.7008
X7.2441Y-3.1831
X7.2441Y-3.3858
X7.2486Y-2.8593
X7.2815Y-2.9331
X7.2835Y-2.6969
X7.2997Y-3.6004
X7.3425Y-4.0748
X7.4606Y-4.5669
X7.4803Y-3.4843
X7.5Y-2.7756
X7.5474Y-2.3454
T5
X2.9724Y-4.81
X3.0724Y-4.81
X6.829Y-1.9619
X6.829Y-2.0603
X6.9865Y-1.9619
X6.9865Y-2.0603
X7.144Y-1.9619
X7.144Y-2.0603
T6
X3.7008Y-2.1205
X3.7992Y-2.1205
X3.878Y-2.1205
X3.9764Y-2.1205
T7
X2.9134Y-2.5984
X2.9793Y-2.1254
X2.9793Y-2.2254
X3.0134Y-2.5984
X3.1134Y-2.5984
X3.1462Y-2.1254
X3.1462Y-2.2254
X3.3387Y-2.5987
X3.4387Y-2.5987
X4.0339Y-2.7071
X4.0339Y-2.8071
X4.0339Y-2.9071
X4.0339Y-3.0071
X4.0339Y-3.1071
X4.0339Y-3.2071
X4.0339Y-3.3071
X4.1339Y-2.7071
X4.1339Y-2.8071
X4.1339Y-2.9071
X4.1339Y-3.0071
X4.1339Y-3.1071
X4.1339Y-3.2071
X4.1339Y-3.3071
X4.9Y-4.5701
X4.9Y-4.6701
X5.0Y-4.5701
X5.0Y-4.6701
X5.1Y-4.5701
X5.1Y-4.6701
X5.2Y-4.5701
X5.2Y-4.6701
X5.3Y-4.5701
X5.3Y-4.6701
X5.4Y-4.5701
X5.4Y-4.6701
X5.6514Y-2.1429
X5.6963Y-2.0429
X5.6963Y-2.2429
X5.7415Y-2.1429
X5.7864Y-2.0429
X5.7864Y-2.2429
X5.8317Y-2.1429
X5.8766Y-2.0429
X5.8766Y-2.2429
X5.9219Y-2.1429
X5.9667Y-2.0429
X5.9667Y-2.2429
X6.012Y-2.1429
X6.0569Y-2.0429
X6.0569Y-2.2429
T8
X6.7503Y-1.893
X6.7503Y-2.1292
X7.2227Y-1.893
X7.2227Y-2.1292
T9
X3.5799Y-2.0138
X4.0972Y-2.0138
T10
X5.3742Y-2.1429
X6.3581Y-2.1429
T2
G00X2.9121Y-1.7632
M15
G01X2.9121Y-1.7376
M16
G05
G00X3.1877Y-1.7632
M15
G01X3.1877Y-1.7376
M16
G05
T3
G00X2.9574Y-1.8567
M15
G01X2.9456Y-1.8567
M16
G05
G00X3.1542Y-1.8567
M15
G01X3.1424Y-1.8567
M16
G05
T4
G00X4.5906Y-1.7638
M15
G01X4.5906Y-1.7874
M16
G05
G00X4.5906Y-2.0394
M15
G01X4.5906Y-2.063
M16
G05
G00X4.7795Y-1.8425
M15
G01X4.7795Y-1.8661
M16
G05
T0
M30
