M48
; DRILL file {KiCad (7.0.0)} date Tue Jul 18 19:19:00 2023
; FORMAT={-:-/ absolute / inch / decimal}
; #@! TF.CreationDate,2023-07-18T19:19:00-07:00
; #@! TF.GenerationSoftware,Kicad,Pcbnew,(7.0.0)
; #@! TF.FileFunction,Plated,1,2,PTH
FMAT,2
INCH
; #@! TA.AperFunction,Plated,PTH,ViaDrill
T1C0.0118
; #@! TA.AperFunction,Plated,PTH,ComponentDrill
T2C0.0197
; #@! TA.AperFunction,Plated,PTH,ComponentDrill
T3C0.0217
; #@! TA.AperFunction,Plated,PTH,ComponentDrill
T4C0.0236
; #@! TA.AperFunction,Plated,PTH,ComponentDrill
T5C0.0354
; #@! TA.AperFunction,Plated,PTH,ComponentDrill
T6C0.0374
; #@! TA.AperFunction,Plated,PTH,ComponentDrill
T7C0.0394
; #@! TA.AperFunction,Plated,PTH,ComponentDrill
T8C0.0472
; #@! TA.AperFunction,Plated,PTH,ComponentDrill
T9C0.0906
; #@! TA.AperFunction,Plated,PTH,ComponentDrill
T10C0.1260
%
G90
G05
T1
X2.694Y-3.2677
X2.6941Y-2.6772
X2.6962Y-2.0928
X2.7Y-5.1
X2.75Y-5.5
X2.8Y-2.5
X2.8538Y-4.5549
X2.8541Y-3.0464
X2.8543Y-3.7917
X2.858Y-1.9988
X2.8837Y-4.7642
X2.9Y-4.0
X2.9Y-4.35
X2.95Y-3.4
X2.9588Y-1.5125
X3.0039Y-3.7854
X3.0181Y-4.7212
X3.0315Y-4.7913
X3.0531Y-3.7854
X3.0591Y-5.0039
X3.1024Y-4.7539
X3.1358Y-4.7913
X3.1531Y-5.7203
X3.1555Y-4.6378
X3.1673Y-4.6969
X3.187Y-2.6024
X3.187Y-4.8366
X3.1873Y-2.721
X3.1884Y-2.5348
X3.2348Y-1.5818
X3.297Y-2.2128
X3.309Y-1.9567
X3.3209Y-3.187
X3.3209Y-3.2441
X3.3228Y-3.303
X3.3386Y-1.498
X3.3425Y-4.6949
X3.4232Y-4.4606
X3.439Y-2.5197
X3.45Y-5.4
X3.4547Y-4.4695
X3.4626Y-3.8839
X3.4665Y-3.124
X3.5Y-5.05
X3.5414Y-4.7912
X3.563Y-3.252
X3.596Y-3.4608
X3.6043Y-4.4482
X3.6045Y-1.6024
X3.6496Y-3.0768
X3.6575Y-3.8543
X3.6594Y-3.9232
X3.685Y-4.5394
X3.687Y-2.9528
X3.689Y-3.1752
X3.7373Y-4.667
X3.7776Y-2.5807
X3.7776Y-2.7323
X3.7835Y-4.5157
X3.7894Y-3.872
X3.7905Y-4.7307
X3.7913Y-3.9055
X3.8Y-5.65
X3.8051Y-4.7933
X3.8248Y-3.8386
X3.8248Y-3.872
X3.8445Y-4.1732
X3.8583Y-3.8051
X3.8583Y-3.8386
X3.8701Y-4.126
X3.8917Y-3.8051
X3.8937Y-3.7736
X3.8937Y-4.1004
X3.9173Y-4.0748
X3.9272Y-3.7717
X3.9291Y-3.7402
X3.9409Y-4.0512
X3.95Y-1.6
X3.95Y-5.8
X3.9626Y-4.0273
X3.9843Y-2.9213
X3.9872Y-4.005
X4.0Y-5.3
X4.0Y-5.55
X4.0045Y-2.2018
X4.0098Y-2.0256
X4.0118Y-3.9803
X4.0138Y-3.0846
X4.0138Y-3.2264
X4.0354Y-3.9567
X4.0374Y-3.063
X4.0374Y-3.25
X4.0433Y-3.5
X4.0433Y-4.5157
X4.061Y-3.9331
X4.0846Y-3.9094
X4.185Y-3.0551
X4.2Y-1.6
X4.2185Y-4.1535
X4.2343Y-3.7559
X4.2402Y-4.9843
X4.3524Y-4.3071
X4.3816Y-2.4403
X4.3937Y-3.565
X4.3937Y-3.7913
X4.3937Y-3.937
X4.4055Y-2.2
X4.4131Y-5.6736
X4.4154Y-3.4055
X4.4331Y-3.7067
X4.437Y-3.3189
X4.439Y-4.311
X4.4449Y-3.5354
X4.45Y-2.0
X4.4619Y-2.935
X4.4626Y-4.6004
X4.4672Y-3.014
X4.4679Y-3.0724
X4.4764Y-3.378
X4.4934Y-3.3267
X4.4941Y-3.9192
X4.4961Y-3.2264
X4.507Y-5.6689
X4.5315Y-3.2264
X4.5315Y-3.3268
X4.5383Y-4.4469
X4.5669Y-4.565
X4.5768Y-3.5374
X4.5787Y-3.3504
X4.5925Y-3.9272
X4.5963Y-3.0147
X4.6181Y-1.6467
X4.6299Y-3.4744
X4.6299Y-3.5433
X4.6299Y-3.9783
X4.6319Y-3.5098
X4.6535Y-5.1476
X4.6555Y-4.002
X4.6634Y-3.4291
X4.6772Y-3.4626
X4.7077Y-3.4193
X4.7083Y-3.4862
X4.7087Y-3.5512
X4.71Y-3.6004
X4.7104Y-3.6614
X4.7106Y-3.8366
X4.7205Y-3.9724
X4.7362Y-3.1491
X4.7362Y-3.2461
X4.7387Y-3.9985
X4.7481Y-4.2352
X4.7611Y-2.03
X4.764Y-1.5106
X4.7717Y-4.2106
X4.7736Y-3.9508
X4.7756Y-4.1142
X4.7756Y-5.1024
X4.7776Y-4.0256
X4.7913Y-2.9154
X4.7965Y-4.2336
X4.8201Y-4.2106
X4.8209Y-2.0307
X4.8307Y-3.3012
X4.8414Y-3.4237
X4.8425Y-4.0394
X4.8437Y-4.2336
X4.846Y-3.9151
X4.8465Y-3.5807
X4.8465Y-3.6142
X4.8465Y-3.6555
X4.8465Y-3.9488
X4.8484Y-3.5013
X4.8484Y-3.5335
X4.8495Y-3.4541
X4.8543Y-3.7913
X4.8583Y-3.7579
X4.8681Y-4.2106
X4.876Y-5.0768
X4.8799Y-2.1594
X4.8917Y-4.2343
X4.9055Y-5.0551
X4.9153Y-4.2106
X4.9213Y-3.0571
X4.9389Y-4.2345
X4.9449Y-5.1024
X4.9481Y-3.8962
X4.9484Y-3.6633
X4.95Y-3.5576
X4.9512Y-3.8617
X4.9528Y-3.4823
X4.9574Y-3.8064
X4.9587Y-3.75
X4.9626Y-4.2106
X4.9665Y-3.3858
X4.9705Y-2.6811
X4.9705Y-5.126
X4.9753Y-4.0447
X4.9783Y-3.1909
X4.9791Y-3.0573
X4.9803Y-3.6752
X4.9937Y-3.2962
X4.9961Y-3.5787
X5.0Y-3.7776
X5.0157Y-3.6969
X5.0177Y-4.3858
X5.0276Y-3.3031
X5.0374Y-4.1516
X5.0382Y-4.2812
X5.0393Y-3.8801
X5.0413Y-4.3504
X5.0433Y-4.626
X5.0474Y-2.0302
X5.0571Y-3.0576
X5.0579Y-4.0409
X5.061Y-5.0787
X5.0669Y-3.7343
X5.0708Y-4.1417
X5.0768Y-3.1909
X5.0846Y-5.0551
X5.0866Y-5.1024
X5.0914Y-4.2853
X5.0965Y-3.2992
X5.1Y-3.5
X5.1019Y-4.1461
X5.1043Y-2.9921
X5.1043Y-4.3406
X5.1062Y-2.0305
X5.1102Y-3.1949
X5.1142Y-5.126
X5.1202Y-4.0415
X5.122Y-3.0546
X5.126Y-4.9528
X5.1279Y-2.9681
X5.1516Y-4.0394
X5.1594Y-4.3996
X5.1656Y-2.1609
X5.189Y-4.0374
X5.1909Y-4.2874
X5.1995Y-3.3035
X5.2Y-3.85
X5.2066Y-4.4092
X5.2079Y-4.1516
X5.2185Y-3.6437
X5.2205Y-3.502
X5.2362Y-2.7441
X5.2441Y-3.3012
X5.25Y-4.0276
X5.25Y-4.2874
X5.2539Y-2.065
X5.255Y-3.0563
X5.2677Y-3.189
X5.2835Y-3.0217
X5.2835Y-4.0236
X5.3091Y-4.2874
X5.3138Y-3.0574
X5.3335Y-4.0374
X5.3346Y-4.1535
X5.3445Y-3.0197
X5.3504Y-3.187
X5.3607Y-2.8044
X5.3622Y-3.3071
X5.3681Y-4.2874
X5.3731Y-3.0584
X5.3758Y-3.6724
X5.3962Y-3.3065
X5.3992Y-2.2069
X5.4Y-1.6292
X5.4Y-3.5
X5.4016Y-3.0
X5.4311Y-3.2992
X5.4331Y-4.0394
X5.4488Y-4.3976
X5.4741Y-4.4242
X5.5Y-3.85
X5.5084Y-3.3016
X5.5106Y-4.0413
X5.5336Y-4.143
X5.5354Y-3.1969
X5.5512Y-3.0551
X5.5571Y-4.0332
X5.5571Y-4.6319
X5.5591Y-2.8366
X5.5591Y-3.3031
X5.5693Y-4.1453
X5.5697Y-4.2832
X5.5807Y-3.0276
X5.5866Y-3.1969
X5.5925Y-2.4665
X5.6043Y-3.002
X5.6094Y-3.0569
X5.6181Y-3.189
X5.628Y-4.2815
X5.6287Y-3.2953
X5.6693Y-4.0453
X5.687Y-4.1791
X5.6886Y-3.7417
X5.689Y-3.061
X5.689Y-3.6673
X5.689Y-3.7028
X5.6944Y-3.8461
X5.6944Y-3.811
X5.6947Y-3.482
X5.6958Y-3.6009
X5.6969Y-3.935
X5.7067Y-3.0906
X5.7303Y-2.8445
X5.7303Y-3.1811
X5.7559Y-5.1673
X5.7598Y-2.8681
X5.7638Y-3.2067
X5.7913Y-4.2913
X5.8Y-5.55
X5.8007Y-3.7047
X5.811Y-3.6004
X5.8135Y-3.4764
X5.8212Y-4.0051
X5.876Y-3.8917
X5.9035Y-2.4902
X5.9075Y-3.8996
X5.9332Y-3.7047
X5.9355Y-3.5833
X5.936Y-3.6422
X5.9372Y-3.4666
X5.938Y-3.7677
X5.9387Y-3.8196
X5.9742Y-3.7205
X5.9776Y-4.3964
X5.9823Y-3.7913
X5.9882Y-3.7539
X6.065Y-2.5551
X6.0827Y-4.6299
X6.1319Y-2.6358
X6.1417Y-4.9114
X6.1772Y-2.8091
X6.2194Y-5.797
X6.2429Y-3.1026
X6.2438Y-3.9884
X6.2445Y-3.5644
X6.2992Y-2.6841
X6.2994Y-2.7579
X6.3025Y-2.5467
X6.3026Y-2.6215
X6.3464Y-4.4027
X6.4289Y-2.8218
X6.4331Y-4.2854
X6.4608Y-3.25
X6.4608Y-3.6721
X6.462Y-4.0969
X6.4632Y-4.3671
X6.4921Y-2.3839
X6.5276Y-2.7421
X6.5295Y-2.6053
X6.5553Y-3.3597
X6.5562Y-3.784
X6.5571Y-2.8996
X6.562Y-4.2103
X6.5689Y-2.5291
X6.5689Y-2.6831
X6.5694Y-4.3884
X6.5748Y-3.9629
X6.6181Y-3.4361
X6.62Y-4.3372
X6.6201Y-3.8346
X6.626Y-3.9902
X6.687Y-4.6142
X6.7283Y-3.9764
X6.7441Y-4.2349
X6.7491Y-3.8339
X6.7657Y-3.5059
X6.7681Y-3.0268
X6.8051Y-4.2244
X6.8122Y-4.3134
X6.815Y-3.8878
X6.8189Y-2.0669
X6.8327Y-3.4094
X6.8346Y-3.0768
X6.8543Y-4.626
X6.8622Y-3.9252
X6.8878Y-3.752
X6.8957Y-3.8346
X6.9Y-5.1
X6.9Y-5.8
X6.9055Y-2.9764
X6.9409Y-3.7677
X6.9449Y-4.1772
X6.9449Y-4.2244
X6.9488Y-3.811
X6.9665Y-2.9744
X6.9688Y-3.6344
X6.9861Y-3.3958
X6.9868Y-3.5166
X6.9874Y-3.4851
X6.9882Y-4.1594
X6.9902Y-2.7283
X6.9964Y-3.7384
X6.998Y-2.9331
X7.0094Y-4.0137
X7.0098Y-3.4311
X7.0157Y-4.3012
X7.016Y-4.0445
X7.0197Y-3.65
X7.0212Y-3.7
X7.0215Y-4.1074
X7.0217Y-3.5728
X7.0256Y-4.4213
X7.0335Y-3.3819
X7.0475Y-2.9
X7.0531Y-3.5531
X7.0591Y-4.6575
X7.0622Y-2.963
X7.0886Y-2.7402
X7.0886Y-3.2461
X7.1122Y-3.3838
X7.1122Y-3.4173
X7.1142Y-3.4773
X7.1147Y-2.8133
X7.126Y-2.6908
X7.128Y-3.4469
X7.1461Y-3.2065
X7.1544Y-4.4183
X7.1555Y-3.0748
X7.1584Y-2.8549
X7.1617Y-3.8482
X7.1693Y-2.6535
X7.1693Y-4.1791
X7.1732Y-3.1713
X7.185Y-4.0991
X7.1929Y-3.5315
X7.1962Y-2.8514
X7.2Y-4.95
X7.2Y-5.25
X7.2007Y-2.7146
X7.2087Y-3.645
X7.2087Y-3.9961
X7.2132Y-1.8776
X7.2146Y-4.125
X7.2235Y-3.4153
X7.2244Y-3.3268
X7.2303Y-3.9488
X7.2323Y-2.2185
X7.2323Y-3.0807
X7.2382Y-3.1752
X7.2382Y-3.876
X7.2391Y-3.5032
X7.2399Y-2.9477
X7.2441Y-3.1319
X7.252Y-3.4547
X7.2598Y-2.7402
X7.2638Y-2.8484
X7.2677Y-3.813
X7.2736Y-3.3327
X7.2874Y-3.5059
X7.2874Y-3.6929
X7.2937Y-3.0098
X7.2953Y-4.063
X7.2992Y-3.057
X7.2993Y-2.9241
X7.3139Y-2.8601
X7.3189Y-3.8996
X7.3263Y-3.3347
X7.3282Y-3.9821
X7.3287Y-3.5453
X7.3366Y-2.9803
X7.3411Y-2.8759
X7.3465Y-3.1614
X7.3471Y-3.1271
X7.3504Y-4.0453
X7.3504Y-4.1516
X7.3582Y-3.6157
X7.3583Y-2.7539
X7.3586Y-3.2972
X7.3646Y-2.8542
X7.3661Y-4.2008
X7.3661Y-4.3236
X7.3738Y-3.7242
X7.3898Y-4.4626
X7.3917Y-3.311
X7.4134Y-2.7534
X7.4272Y-4.5157
X7.4508Y-4.4783
X7.4531Y-2.8517
X7.4685Y-2.6693
X7.4685Y-3.7992
X7.4789Y-3.0271
X7.4843Y-2.7598
X7.4854Y-3.0885
X7.4921Y-3.975
X7.4921Y-4.2736
X7.4921Y-4.4055
X7.5Y-5.1
X7.5039Y-4.5354
X7.5138Y-4.4626
X7.5256Y-4.2244
X7.5335Y-3.7008
X7.55Y-5.8
X7.5512Y-4.5
X7.5612Y-2.8101
X7.5984Y-3.1831
X7.5984Y-3.3307
X7.6029Y-2.8593
X7.6219Y-2.9361
X7.6352Y-2.9073
X7.6398Y-3.2047
X7.6523Y-3.1174
X7.654Y-3.6004
X7.6752Y-4.075
X7.6752Y-3.6496
X7.6822Y-2.8612
X7.7072Y-3.6149
X7.7233Y-3.0586
X7.7273Y-3.8239
X7.7294Y-2.273
X7.7317Y-2.9872
X7.7362Y-3.8661
X7.7382Y-3.3406
X7.752Y-3.5709
X7.7607Y-3.0029
X7.7717Y-3.7283
X7.7717Y-3.7751
X7.7913Y-3.1831
X7.8071Y-4.1929
X7.8504Y-3.563
X7.8642Y-4.0906
X7.874Y-3.7421
X7.8744Y-3.6917
X7.878Y-2.4587
X7.878Y-2.4902
X7.8996Y-4.0413
X7.9055Y-3.2736
X7.9133Y-3.502
X7.935Y-2.5291
X7.935Y-2.9941
X7.9488Y-3.3091
X7.9546Y-2.0818
X7.9862Y-2.4882
X8.0023Y-3.6326
X8.0236Y-3.2992
X8.0236Y-3.4567
X8.0295Y-2.4567
X8.05Y-4.75
X8.0571Y-3.7953
X8.0669Y-2.9606
X8.0748Y-3.7106
X8.0787Y-3.9587
X8.0886Y-3.5748
X8.0886Y-4.1378
X8.0886Y-4.3819
X8.0925Y-3.4783
X8.1004Y-4.2598
X8.1043Y-2.7657
X8.1043Y-2.8169
X8.1083Y-2.8681
X8.1299Y-3.1969
X8.1299Y-4.4843
X8.2047Y-3.6358
X8.2047Y-3.8681
X8.2205Y-3.4917
X8.2208Y-3.9189
X8.2362Y-2.5157
X8.2362Y-3.0917
X8.2441Y-3.9429
X8.2461Y-3.3939
X8.25Y-5.8
X8.374Y-1.9567
X8.4357Y-1.4975
X8.45Y-5.2
X8.4585Y-4.8977
X8.48Y-2.3717
X8.7033Y-4.7654
X8.7187Y-1.8133
X8.7245Y-2.8069
X8.747Y-3.3109
X8.7476Y-4.0374
X8.9749Y-4.3995
X8.9999Y-2.5219
X9.0153Y-3.0765
X9.0172Y-3.7082
T5
X2.9724Y-5.7943
X3.0724Y-5.7943
X7.9117Y-1.6469
X7.9117Y-1.7454
X8.0692Y-1.6469
X8.0692Y-1.7454
X8.2267Y-1.6469
X8.2267Y-1.7454
T6
X3.937Y-1.8055
X4.0354Y-1.8055
X4.1142Y-1.8055
X4.2126Y-1.8055
T7
X2.9134Y-3.5827
X3.0134Y-3.5827
X3.1134Y-3.5827
X3.3387Y-3.583
X3.4387Y-3.583
X3.6358Y-2.154
X3.6358Y-2.254
X3.8027Y-2.154
X3.8027Y-2.254
X4.9Y-5.2
X4.9Y-5.3
X4.9Y-5.6102
X4.9Y-5.7102
X5.0Y-5.2
X5.0Y-5.3
X5.0Y-5.6102
X5.0Y-5.7102
X5.1Y-5.2
X5.1Y-5.3
X5.1Y-5.6102
X5.1Y-5.7102
X5.2Y-5.2
X5.2Y-5.3
X5.2Y-5.6102
X5.2Y-5.7102
X5.3Y-5.2
X5.3Y-5.3
X5.3Y-5.6102
X5.3Y-5.7102
X5.4Y-5.2
X5.4Y-5.3
X5.4Y-5.6102
X5.4Y-5.7102
X5.5Y-5.6102
X5.5Y-5.7102
X5.8876Y-1.828
X5.9325Y-1.728
X5.9325Y-1.928
X5.9778Y-1.828
X6.0226Y-1.728
X6.0226Y-1.928
X6.0679Y-1.828
X6.1128Y-1.728
X6.1128Y-1.928
X6.1581Y-1.828
X6.203Y-1.728
X6.203Y-1.928
X6.2482Y-1.828
X6.2931Y-1.728
X6.2931Y-1.928
X6.3366Y-5.3964
X6.3911Y-5.5083
X6.4457Y-5.3964
X6.5002Y-5.5083
X6.5547Y-5.3964
X6.6093Y-5.5083
X6.6638Y-5.3964
X6.7183Y-5.5083
X6.7728Y-5.3964
X7.6752Y-5.3964
X7.7297Y-5.5083
X7.7843Y-5.3964
X7.8388Y-5.5083
X7.8933Y-5.3964
X7.9478Y-5.5083
X8.0024Y-5.3964
X8.0569Y-5.5083
X8.1114Y-5.3964
X8.3577Y-2.5917
X8.3577Y-2.6917
X8.3577Y-2.7917
X8.3577Y-2.8917
X8.3577Y-2.9917
X8.3577Y-3.0917
X8.3577Y-3.1917
X8.3577Y-3.2917
X8.3577Y-3.3917
X8.3577Y-3.4917
X8.3577Y-3.5917
X8.3577Y-3.6917
X8.3577Y-3.7917
X8.3577Y-3.8917
X8.3577Y-3.9917
X8.3577Y-4.0917
X8.3577Y-4.1917
X8.3577Y-4.2917
X8.3577Y-4.3917
X8.3577Y-4.4917
X8.3577Y-4.5917
X8.3577Y-4.6917
X8.4577Y-2.5917
X8.4577Y-2.6917
X8.4577Y-2.7917
X8.4577Y-2.8917
X8.4577Y-2.9917
X8.4577Y-3.0917
X8.4577Y-3.1917
X8.4577Y-3.2917
X8.4577Y-3.3917
X8.4577Y-3.4917
X8.4577Y-3.5917
X8.4577Y-3.6917
X8.4577Y-3.7917
X8.4577Y-3.8917
X8.4577Y-3.9917
X8.4577Y-4.0917
X8.4577Y-4.1917
X8.4577Y-4.2917
X8.4577Y-4.3917
X8.4577Y-4.4917
X8.4577Y-4.5917
X8.4577Y-4.6917
X8.5577Y-2.5917
X8.5577Y-2.6917
X8.5577Y-2.7917
X8.5577Y-2.8917
X8.5577Y-2.9917
X8.5577Y-3.0917
X8.5577Y-3.1917
X8.5577Y-3.2917
X8.5577Y-3.3917
X8.5577Y-3.4917
X8.5577Y-3.5917
X8.5577Y-3.6917
X8.5577Y-3.7917
X8.5577Y-3.8917
X8.5577Y-3.9917
X8.5577Y-4.0917
X8.5577Y-4.1917
X8.5577Y-4.2917
X8.5577Y-4.3917
X8.5577Y-4.4917
X8.5577Y-4.5917
X8.5577Y-4.6917
T8
X7.833Y-1.5781
X7.833Y-1.8143
X8.3054Y-1.5781
X8.3054Y-1.8143
T9
X3.8161Y-1.6988
X4.3335Y-1.6988
T10
X5.6104Y-1.828
X6.0626Y-5.4524
X6.5943Y-1.828
X7.0469Y-5.4524
X7.4012Y-5.4524
X8.3854Y-5.4524
T2
G00X3.1483Y-1.4482
M15
G01X3.1483Y-1.4226
M16
G05
G00X3.4239Y-1.4482
M15
G01X3.4239Y-1.4226
M16
G05
T3
G00X3.1936Y-1.5417
M15
G01X3.1818Y-1.5417
M16
G05
G00X3.3904Y-1.5417
M15
G01X3.3786Y-1.5417
M16
G05
T4
G00X2.6299Y-2.0236
M15
G01X2.6535Y-2.0236
M16
G05
G00X2.6299Y-2.6142
M15
G01X2.6535Y-2.6142
M16
G05
G00X2.6299Y-3.2047
M15
G01X2.6535Y-3.2047
M16
G05
G00X2.7087Y-1.8346
M15
G01X2.7323Y-1.8346
M16
G05
G00X2.7087Y-2.4252
M15
G01X2.7323Y-2.4252
M16
G05
G00X2.7087Y-3.0157
M15
G01X2.7323Y-3.0157
M16
G05
G00X2.9055Y-2.0236
M15
G01X2.9291Y-2.0236
M16
G05
G00X2.9055Y-2.6142
M15
G01X2.9291Y-2.6142
M16
G05
G00X2.9055Y-3.2047
M15
G01X2.9291Y-3.2047
M16
G05
G00X4.8268Y-1.4488
M15
G01X4.8268Y-1.4724
M16
G05
G00X4.8268Y-1.7244
M15
G01X4.8268Y-1.748
M16
G05
G00X5.0157Y-1.5276
M15
G01X5.0157Y-1.5512
M16
G05
T0
M30
