M48
; DRILL file {KiCad (6.0.4-0)} date 2022 May 01, Sunday 14:37:00
; FORMAT={-:-/ absolute / metric / decimal}
; #@! TF.CreationDate,2022-05-01T14:37:00+02:00
; #@! TF.GenerationSoftware,Kicad,Pcbnew,(6.0.4-0)
; #@! TF.FileFunction,Plated,1,2,PTH
FMAT,2
METRIC
; #@! TA.AperFunction,Plated,PTH,ViaDrill
T1C0.300
; #@! TA.AperFunction,Plated,PTH,ComponentDrill
T2C0.500
; #@! TA.AperFunction,Plated,PTH,ComponentDrill
T3C0.900
; #@! TA.AperFunction,Plated,PTH,ComponentDrill
T4C0.950
; #@! TA.AperFunction,Plated,PTH,ComponentDrill
T5C1.000
; #@! TA.AperFunction,Plated,PTH,ComponentDrill
T6C1.200
; #@! TA.AperFunction,Plated,PTH,ComponentDrill
T7C2.300
; #@! TA.AperFunction,Plated,PTH,ComponentDrill
T8C3.200
%
G90
G05
T1
X67.5Y-130.0
X67.5Y-140.0
X69.0Y-52.7
X69.0Y-67.7
X69.0Y-82.7
X72.5Y-96.15
X72.5Y-115.85
X72.5Y-135.0
X73.25Y-120.9
X75.0Y-37.5
X76.65Y-119.8
X78.0Y-123.5
X78.0Y-135.1
X81.1Y-126.35
X81.1Y-147.8
X81.8Y-80.75
X81.9Y-73.95
X82.2Y-40.25
X82.5Y-50.0
X82.6Y-83.1
X82.95Y-70.25
X83.3Y-87.0
X83.9Y-67.0
X83.95Y-68.5
X83.95Y-72.0
X84.0Y-56.0
X84.55Y-120.25
X85.25Y-40.3
X87.5Y-60.0
X87.5Y-142.5
X87.55Y-68.5
X88.9Y-81.8
X90.4Y-123.45
X91.5Y-116.35
X92.5Y-55.0
X92.8Y-112.65
X92.9Y-109.3
X94.6Y-86.3
X95.0Y-73.3
X95.0Y-82.55
X95.0Y-105.0
X95.124Y-110.174
X95.3Y-119.45
X95.8Y-78.8
X96.1Y-109.5
X96.95Y-108.65
X97.5Y-115.0
X97.55Y-107.5
X97.7Y-79.7
X97.85Y-123.45
X97.95Y-95.7
X98.0Y-94.4
X98.1Y-71.95
X98.4Y-99.0
X98.4Y-99.8
X98.4Y-100.6
X98.4Y-101.4
X98.4Y-102.199
X99.35Y-111.2
X100.0Y-60.0
X100.0Y-110.5
X100.3Y-67.4
X100.55Y-109.75
X101.15Y-109.05
X101.35Y-86.3
X101.5Y-64.0
X101.65Y-79.7
X101.901Y-95.199
X101.95Y-94.4
X102.0Y-99.0
X102.0Y-99.8
X102.0Y-100.599
X102.0Y-101.399
X102.0Y-102.198
X102.25Y-91.15
X102.25Y-92.65
X102.5Y-85.0
X102.5Y-87.5
X102.5Y-105.0
X102.5Y-142.5
X103.35Y-126.2
X103.4Y-67.4
X105.0Y-40.0
X105.0Y-64.0
X105.0Y-75.0
X105.55Y-91.15
X106.25Y-94.775
X106.25Y-108.15
X106.275Y-99.85
X106.5Y-102.0
X106.5Y-104.5
X107.3Y-79.7
X107.5Y-85.0
X107.5Y-87.5
X107.65Y-109.55
X107.75Y-114.35
X107.75Y-121.8
X108.7Y-126.3
X109.5Y-117.0
X109.55Y-108.15
X109.55Y-109.6
X109.6Y-73.35
X110.0Y-58.8
X110.9Y-147.8
X111.1Y-116.0
X111.35Y-92.2
X111.5Y-102.0
X111.5Y-104.5
X112.5Y-67.5
X113.0Y-94.0
X114.5Y-105.5
X115.0Y-125.2
X115.3Y-117.35
X115.364Y-111.914
X115.95Y-107.25
X116.378Y-108.904
X116.45Y-109.7
X116.675Y-102.95
X116.75Y-107.3
X117.35Y-91.4
X117.45Y-84.25
X117.45Y-99.75
X117.475Y-93.0
X118.3Y-37.7
X118.5Y-101.925
X118.75Y-51.2
X119.1Y-78.0
X119.2Y-90.675
X119.2Y-93.801
X119.35Y-102.5
X119.5Y-134.2
X119.75Y-100.55
X119.775Y-83.4
X120.0Y-57.5
X120.25Y-51.2
X120.35Y-117.35
X121.3Y-39.0
X121.6Y-81.55
X122.0Y-61.5
X122.85Y-73.35
X122.9Y-106.6
X122.95Y-104.95
X123.0Y-107.8
X123.145Y-109.45
X123.15Y-76.45
X123.15Y-80.35
X123.45Y-87.25
X123.45Y-90.75
X123.45Y-93.75
X123.45Y-97.25
X123.5Y-37.5
X123.75Y-92.2
X123.78Y-108.851
X123.78Y-110.05
X124.0Y-134.2
X124.3Y-99.3
X124.65Y-76.45
X124.75Y-101.049
X125.0Y-42.5
X125.0Y-125.0
X125.025Y-75.25
X125.2Y-98.3
X126.0Y-51.2
X126.075Y-96.85
X126.2Y-92.2
X126.5Y-103.9
X126.575Y-100.075
X126.65Y-76.45
X126.65Y-79.6
X126.75Y-82.4
X126.75Y-107.3
X127.5Y-51.2
X127.878Y-100.229
X127.9Y-97.95
X127.95Y-86.95
X128.05Y-92.2
X128.05Y-94.45
X128.15Y-107.3
X128.25Y-82.4
X128.25Y-103.9
X128.65Y-76.45
X128.87Y-100.084
X128.887Y-79.662
X128.9Y-84.55
X129.1Y-100.85
X129.1Y-82.85
X129.648Y-99.899
X129.85Y-107.3
X130.0Y-98.15
X130.15Y-76.45
X130.25Y-86.6
X130.6Y-73.0
X130.877Y-99.899
X130.9Y-101.025
X130.95Y-82.65
X131.0Y-148.5
X131.2Y-84.6
X131.25Y-107.3
X131.35Y-97.55
X131.5Y-100.4
X131.509Y-83.276
X131.7Y-76.45
X131.7Y-93.65
X131.9Y-110.05
X132.0Y-52.0
X132.1Y-86.85
X132.1Y-101.25
X132.1Y-103.925
X132.15Y-82.65
X132.5Y-70.55
X132.5Y-78.775
X132.6Y-80.049
X132.625Y-107.3
X132.75Y-96.4
X132.75Y-99.975
X132.925Y-89.95
X133.25Y-125.25
X133.3Y-76.45
X133.399Y-103.829
X133.425Y-75.075
X133.5Y-109.149
X133.8Y-100.8
X134.1Y-107.3
X134.25Y-101.475
X134.3Y-110.25
X134.724Y-100.026
X134.75Y-76.45
X135.05Y-86.251
X135.377Y-107.35
X135.5Y-75.6
X135.588Y-100.043
X135.637Y-109.698
X135.85Y-85.701
X135.876Y-83.674
X136.0Y-112.95
X136.25Y-76.45
X136.45Y-110.5
X136.575Y-83.0
X137.0Y-75.5
X137.13Y-84.68
X137.375Y-107.35
X137.55Y-97.6
X137.6Y-94.9
X137.725Y-100.325
X137.75Y-76.45
X137.75Y-80.1
X137.75Y-134.2
X137.9Y-70.55
X137.9Y-90.15
X137.975Y-108.8
X138.1Y-101.35
X138.366Y-104.034
X138.5Y-75.5
X138.5Y-79.45
X138.616Y-84.999
X138.7Y-68.25
X138.75Y-107.3
X139.0Y-82.55
X139.25Y-76.45
X139.35Y-84.598
X139.35Y-109.501
X139.624Y-100.949
X139.8Y-52.05
X140.0Y-40.0
X140.1Y-84.199
X140.15Y-79.9
X140.25Y-107.3
X140.75Y-76.45
X141.0Y-83.799
X141.2Y-112.7
X141.25Y-103.9
X141.25Y-108.749
X141.275Y-100.375
X141.85Y-83.4
X142.2Y-87.4
X142.25Y-76.4
X142.25Y-134.2
X142.45Y-95.75
X142.55Y-90.25
X142.55Y-93.25
X142.55Y-96.75
X143.4Y-81.801
X144.0Y-112.95
X144.15Y-81.252
X144.55Y-101.75
X144.8Y-53.05
X144.95Y-80.85
X145.15Y-70.3
X145.5Y-107.5
X145.8Y-80.45
X146.25Y-100.55
X146.25Y-102.55
X146.55Y-80.051
X147.35Y-79.651
X147.5Y-127.5
X148.158Y-79.252
X148.55Y-84.25
X148.55Y-91.45
X148.55Y-92.95
X148.55Y-99.75
X148.704Y-78.254
X149.0Y-148.5
X149.25Y-112.75
X149.5Y-103.5
X150.85Y-64.35
X151.45Y-108.25
X152.2Y-97.4
X152.45Y-95.85
X152.5Y-40.0
X152.537Y-115.525
X152.55Y-68.6
X152.55Y-105.55
X152.6Y-86.6
X153.65Y-78.2
X153.8Y-119.2
X153.8Y-122.3
X154.65Y-60.4
X155.0Y-58.0
X155.2Y-63.0
X155.3Y-124.1
X155.5Y-102.5
X155.55Y-60.45
X155.653Y-62.25
X155.8Y-58.0
X155.8Y-97.0
X155.8Y-107.0
X156.35Y-60.4
X156.5Y-94.9
X156.5Y-112.0
X156.601Y-58.0
X156.8Y-131.75
X157.15Y-60.4
X157.2Y-97.0
X157.2Y-107.0
X157.4Y-58.0
X157.95Y-99.05
X158.0Y-60.4
X158.225Y-91.675
X158.5Y-57.15
X158.75Y-58.0
X158.85Y-60.4
X159.8Y-131.75
X160.0Y-57.6
X160.35Y-97.0
X160.425Y-89.075
X160.45Y-62.05
X160.45Y-71.05
X160.45Y-80.075
X160.487Y-115.525
X160.5Y-105.55
X160.5Y-109.725
X160.7Y-57.048
X161.25Y-99.65
X161.375Y-87.75
X161.4Y-78.75
X161.45Y-62.3
X161.45Y-65.85
X161.45Y-69.7
X161.65Y-124.1
X162.0Y-95.5
X162.05Y-111.65
X162.425Y-91.675
X162.8Y-131.75
X163.75Y-61.55
X163.75Y-70.5
X163.75Y-79.55
X163.875Y-66.625
X164.0Y-109.0
X164.025Y-53.2
X164.2Y-121.9
X164.2Y-124.1
X164.25Y-110.9
X164.4Y-117.1
X164.65Y-105.524
X164.775Y-59.325
X165.0Y-40.0
X165.025Y-67.275
X165.274Y-98.574
X165.8Y-131.75
X165.874Y-106.276
X165.9Y-99.3
X165.95Y-67.45
X166.5Y-93.5
X166.55Y-74.95
X166.7Y-91.7
X166.85Y-73.7
X167.194Y-77.528
X167.2Y-95.65
X167.226Y-60.324
X167.25Y-97.5
X167.619Y-76.281
X167.65Y-59.5
X167.864Y-77.092
X168.45Y-58.9
X168.5Y-69.5
X168.5Y-101.0
X168.8Y-125.05
X168.8Y-131.75
X169.35Y-74.15
X169.65Y-119.8
X169.7Y-118.6
X170.0Y-96.5
X170.2Y-82.725
X170.25Y-75.05
X170.3Y-80.65
X170.325Y-125.875
X170.435Y-81.926
X170.55Y-113.35
X170.769Y-86.827
X170.847Y-86.032
X170.897Y-83.469
X170.9Y-90.15
X170.9Y-85.2
X171.0Y-55.05
X171.0Y-78.984
X171.051Y-87.8
X171.059Y-80.183
X171.207Y-81.393
X171.35Y-111.05
X171.6Y-83.849
X171.726Y-124.074
X171.8Y-131.75
X171.869Y-79.848
X172.35Y-72.25
X172.5Y-58.35
X172.9Y-79.55
X172.957Y-72.847
X173.3Y-90.15
X173.35Y-91.2
X173.557Y-71.92
X174.176Y-72.847
X174.548Y-75.25
X174.776Y-72.25
X174.8Y-131.75
X174.95Y-69.55
X174.999Y-85.45
X175.1Y-71.2
X175.213Y-57.337
X175.25Y-74.845
X175.375Y-102.225
X175.399Y-86.2
X175.45Y-61.4
X175.45Y-72.8
X175.474Y-73.624
X175.55Y-108.35
X175.6Y-53.2
X175.799Y-87.0
X176.0Y-67.45
X176.0Y-71.15
X176.125Y-100.125
X176.198Y-87.8
X176.2Y-76.45
X176.398Y-91.2
X176.398Y-73.598
X176.65Y-65.2
X176.75Y-51.95
X176.75Y-54.0
X176.75Y-56.0
X176.75Y-75.85
X176.797Y-90.4
X176.85Y-77.65
X177.0Y-74.799
X177.151Y-71.149
X177.197Y-89.619
X177.3Y-64.6
X177.5Y-40.0
X177.5Y-47.5
X177.5Y-75.547
X177.5Y-122.5
X177.775Y-104.875
X177.8Y-131.75
X177.997Y-90.199
X178.081Y-52.284
X178.1Y-55.599
X178.4Y-58.5
X178.4Y-61.2
X178.424Y-65.474
X178.596Y-89.6
X178.605Y-77.8
X178.995Y-91.813
X179.2Y-58.5
X179.2Y-61.2
X179.2Y-64.999
X179.2Y-71.65
X179.395Y-86.2
X179.6Y-112.7
X179.799Y-84.35
X179.8Y-66.95
X180.154Y-74.194
X180.2Y-87.15
X180.203Y-71.7
X180.4Y-64.6
X180.678Y-85.2
X180.8Y-54.3
X180.8Y-56.05
X180.8Y-58.8
X180.8Y-66.9
X180.802Y-69.997
X181.001Y-88.049
X181.064Y-81.728
X181.2Y-63.9
X181.602Y-69.997
X181.852Y-81.863
X182.0Y-62.651
X182.199Y-80.407
X182.299Y-81.2
X182.4Y-55.55
X182.4Y-59.2
X182.4Y-70.05
X182.5Y-130.0
X182.8Y-60.6
X182.9Y-63.25
X182.95Y-80.132
X183.2Y-56.0
X183.2Y-65.0
X183.2Y-70.1
X183.405Y-78.1
X183.5Y-148.5
X183.55Y-52.45
X183.55Y-54.299
X183.55Y-66.75
X183.849Y-64.488
X183.85Y-58.95
X184.0Y-70.1
X184.177Y-78.307
X184.3Y-118.6
X184.35Y-119.8
X184.8Y-72.4
X184.85Y-78.8
X184.948Y-79.6
X185.496Y-88.75
X185.75Y-79.2
X186.4Y-55.0
X186.6Y-79.45
X186.75Y-88.5
X186.756Y-53.769
X186.808Y-91.8
X186.9Y-72.3
X186.9Y-119.95
X187.1Y-55.85
X187.224Y-78.774
X187.35Y-131.75
X187.7Y-58.55
X187.8Y-122.3
X187.95Y-94.5
X187.974Y-88.874
X188.35Y-59.149
X188.4Y-79.049
X188.479Y-83.821
X188.605Y-82.903
X188.65Y-70.85
X188.7Y-69.9
X188.75Y-76.0
X188.8Y-122.675
X188.896Y-82.046
X188.9Y-98.65
X189.0Y-54.74
X189.05Y-67.0
X189.2Y-79.9
X189.249Y-87.549
X189.55Y-65.65
X189.6Y-76.05
X189.6Y-86.0
X189.641Y-86.807
X189.75Y-82.05
X189.798Y-59.802
X189.8Y-81.25
X189.951Y-80.35
X190.0Y-40.0
X190.0Y-47.5
X190.05Y-63.0
X190.25Y-84.35
X190.4Y-76.1
X190.4Y-123.8
X190.5Y-64.65
X190.805Y-131.74
X190.9Y-61.05
X190.9Y-63.449
X191.4Y-90.65
X192.076Y-88.626
X192.099Y-64.3
X192.1Y-89.45
X192.15Y-65.65
X192.15Y-77.05
X192.65Y-62.3
X192.85Y-122.425
X193.1Y-101.45
X193.457Y-70.113
X193.6Y-70.9
X193.65Y-118.4
X193.75Y-117.0
X193.8Y-67.0
X193.805Y-131.74
X194.05Y-64.0
X194.65Y-112.25
X194.9Y-105.2
X195.0Y-52.5
X195.0Y-90.0
X195.0Y-95.0
X195.5Y-68.5
X195.6Y-66.3
X195.65Y-124.1
X195.7Y-83.55
X196.0Y-38.0
X196.146Y-110.746
X196.805Y-131.74
X197.3Y-123.6
X197.8Y-111.3
X197.85Y-74.5
X198.0Y-114.5
X198.2Y-121.85
X198.2Y-124.1
X198.475Y-59.575
X198.5Y-109.1
X198.75Y-92.5
X199.7Y-125.95
X199.805Y-131.74
X201.0Y-121.0
X201.894Y-93.844
X202.805Y-131.74
X203.05Y-110.3
X204.5Y-68.5
X204.9Y-91.35
X205.4Y-66.85
X205.45Y-89.95
X205.805Y-131.74
X206.0Y-58.3
X206.3Y-93.85
X206.5Y-121.0
X207.1Y-92.5
X207.5Y-83.3
X207.65Y-91.3
X208.0Y-98.1
X208.15Y-118.7
X208.475Y-78.401
X208.5Y-74.6
X208.805Y-131.74
X208.95Y-117.05
X209.15Y-89.95
X209.925Y-78.801
X210.15Y-114.5
X210.55Y-91.85
X210.775Y-79.2
X210.85Y-110.15
X211.805Y-131.74
X213.2Y-53.85
X214.5Y-38.0
X215.0Y-148.0
X216.6Y-126.7
X219.3Y-96.15
X219.5Y-120.5
X219.749Y-92.601
X219.75Y-97.95
X220.5Y-141.0
X220.55Y-97.15
X220.956Y-89.744
X221.0Y-46.5
X221.0Y-100.5
X221.024Y-92.276
X221.15Y-96.55
X221.15Y-121.7
X221.7Y-92.85
X221.749Y-94.05
X221.749Y-95.835
X221.75Y-65.25
X222.25Y-73.45
X222.45Y-90.25
T3
X75.5Y-147.175
X78.04Y-147.175
X200.957Y-41.832
X200.957Y-44.332
X204.957Y-41.832
X204.957Y-44.332
X208.957Y-41.832
X208.957Y-44.332
T4
X100.0Y-45.86
X102.5Y-45.86
X104.5Y-45.86
X107.0Y-45.86
X118.3Y-139.14
X120.8Y-139.14
X122.8Y-139.14
X125.3Y-139.14
X136.5Y-139.14
X139.0Y-139.14
X141.0Y-139.14
X143.5Y-139.14
T5
X74.0Y-91.0
X76.54Y-91.0
X79.08Y-91.0
X86.0Y-89.46
X86.0Y-92.0
X88.225Y-42.5
X88.225Y-46.15
X88.54Y-89.46
X88.54Y-92.0
X90.765Y-42.5
X90.765Y-46.15
X91.08Y-89.46
X91.08Y-92.0
X93.62Y-89.46
X93.62Y-92.0
X93.7Y-97.25
X96.16Y-89.46
X96.16Y-92.0
X96.24Y-97.25
X121.84Y-112.0
X121.84Y-114.54
X124.38Y-112.0
X124.38Y-114.54
X126.92Y-112.0
X126.92Y-114.54
X129.46Y-112.0
X129.46Y-114.54
X132.0Y-112.0
X132.0Y-114.54
X149.545Y-46.43
X150.685Y-43.89
X150.685Y-48.97
X151.835Y-46.43
X152.975Y-43.89
X152.975Y-48.97
X154.125Y-46.43
X155.265Y-43.89
X155.265Y-48.97
X156.415Y-46.43
X157.555Y-43.89
X157.555Y-48.97
X158.705Y-46.43
X159.845Y-43.89
X159.845Y-48.97
X160.95Y-137.07
X162.335Y-139.91
X163.72Y-137.07
X165.105Y-139.91
X166.49Y-137.07
X167.875Y-139.91
X169.26Y-137.07
X170.645Y-139.91
X172.03Y-137.07
X194.95Y-137.07
X196.335Y-139.91
X197.72Y-137.07
X199.105Y-139.91
X200.49Y-137.07
X201.875Y-139.91
X203.26Y-137.07
X204.645Y-139.91
X206.03Y-137.07
X212.285Y-65.83
X212.285Y-68.37
X212.285Y-70.91
X212.285Y-73.45
X212.285Y-75.99
X212.285Y-78.53
X212.285Y-81.07
X212.285Y-83.61
X212.285Y-86.15
X212.285Y-88.69
X212.285Y-91.23
X212.285Y-93.77
X212.285Y-96.31
X212.285Y-98.85
X212.285Y-101.39
X212.285Y-103.93
X212.285Y-106.47
X212.285Y-109.01
X212.285Y-111.55
X212.285Y-114.09
X212.285Y-116.63
X212.285Y-119.17
X214.825Y-65.83
X214.825Y-68.37
X214.825Y-70.91
X214.825Y-73.45
X214.825Y-75.99
X214.825Y-78.53
X214.825Y-81.07
X214.825Y-83.61
X214.825Y-86.15
X214.825Y-88.69
X214.825Y-91.23
X214.825Y-93.77
X214.825Y-96.31
X214.825Y-98.85
X214.825Y-101.39
X214.825Y-103.93
X214.825Y-106.47
X214.825Y-109.01
X214.825Y-111.55
X214.825Y-114.09
X214.825Y-116.63
X214.825Y-119.17
X217.365Y-65.83
X217.365Y-68.37
X217.365Y-70.91
X217.365Y-73.45
X217.365Y-75.99
X217.365Y-78.53
X217.365Y-81.07
X217.365Y-83.61
X217.365Y-86.15
X217.365Y-88.69
X217.365Y-91.23
X217.365Y-93.77
X217.365Y-96.31
X217.365Y-98.85
X217.365Y-101.39
X217.365Y-103.93
X217.365Y-106.47
X217.365Y-109.01
X217.365Y-111.55
X217.365Y-114.09
X217.365Y-116.63
X217.365Y-119.17
T6
X198.957Y-40.082
X198.957Y-46.082
X210.957Y-40.082
X210.957Y-46.082
T7
X96.93Y-43.15
X110.07Y-43.15
X115.23Y-141.85
X128.37Y-141.85
X133.43Y-141.85
X146.57Y-141.85
T8
X142.505Y-46.43
X153.99Y-138.49
X167.495Y-46.43
X178.99Y-138.49
X187.99Y-138.49
X212.99Y-138.49
T2
G00X80.2Y-36.8
M15
G01X80.2Y-36.1
M16
G05
G00X86.8Y-36.8
M15
G01X86.8Y-36.1
M16
G05
T0
M30
