%TF.GenerationSoftware,KiCad,Pcbnew,(7.0.0)*%
%TF.CreationDate,2023-07-07T07:01:04-07:00*%
%TF.ProjectId,aquarius-plus,61717561-7269-4757-932d-706c75732e6b,rev?*%
%TF.SameCoordinates,Original*%
%TF.FileFunction,Soldermask,Bot*%
%TF.FilePolarity,Negative*%
%FSLAX46Y46*%
G04 Gerber Fmt 4.6, Leading zero omitted, Abs format (unit mm)*
G04 Created by KiCad (PCBNEW (7.0.0)) date 2023-07-07 07:01:04*
%MOMM*%
%LPD*%
G01*
G04 APERTURE LIST*
G04 Aperture macros list*
%AMFreePoly0*
4,1,205,1.200354,0.780354,1.200500,0.780000,1.200500,-0.775000,1.200354,-0.775354,1.200000,-0.775500,0.002000,-0.775500,0.001646,-0.775354,0.001500,-0.775000,0.001500,-0.774762,0.000000,-0.775000,-0.001500,-0.774762,-0.001500,-0.775000,-0.001503,-0.775009,-0.001500,-0.775020,-0.001580,-0.775194,-0.001646,-0.775354,-0.001655,-0.775357,-0.001660,-0.775368,-0.001839,-0.775433,-0.002000,-0.775500,
-0.002009,-0.775496,-0.002020,-0.775500,-0.027020,-0.774500,-0.027028,-0.774495,-0.027038,-0.774499,-0.053038,-0.772499,-0.053047,-0.772494,-0.053057,-0.772497,-0.079057,-0.769497,-0.079075,-0.769486,-0.079095,-0.769491,-0.105094,-0.764491,-0.105104,-0.764484,-0.105117,-0.764486,-0.130117,-0.758486,-0.130124,-0.758480,-0.130134,-0.758482,-0.155135,-0.751481,-0.155148,-0.751470,-0.155169,-0.751471,
-0.180169,-0.742470,-0.180177,-0.742462,-0.180192,-0.742462,-0.204192,-0.732462,-0.204198,-0.732455,-0.204208,-0.732455,-0.228208,-0.721455,-0.228223,-0.721437,-0.228246,-0.721435,-0.251246,-0.708435,-0.251248,-0.708431,-0.251254,-0.708431,-0.273254,-0.695430,-0.273267,-0.695412,-0.273291,-0.695407,-0.294291,-0.680407,-0.294295,-0.680400,-0.294303,-0.680398,-0.315303,-0.664398,-0.315310,-0.664385,
-0.315324,-0.664381,-0.335324,-0.647381,-0.335330,-0.647368,-0.335344,-0.647363,-0.354344,-0.629363,-0.354349,-0.629349,-0.354363,-0.629344,-0.372363,-0.610344,-0.372368,-0.610330,-0.372381,-0.610324,-0.389381,-0.590324,-0.389385,-0.590310,-0.389398,-0.590303,-0.405398,-0.569303,-0.405400,-0.569295,-0.405407,-0.569291,-0.420407,-0.548291,-0.420412,-0.548267,-0.420430,-0.548254,-0.433430,-0.526254,
-0.433430,-0.526249,-0.433435,-0.526246,-0.446435,-0.503246,-0.446437,-0.503224,-0.446454,-0.503209,-0.457455,-0.479208,-0.457455,-0.479198,-0.457462,-0.479192,-0.467462,-0.455192,-0.467462,-0.455178,-0.467470,-0.455170,-0.476470,-0.430169,-0.476469,-0.430150,-0.476481,-0.430135,-0.483481,-0.405135,-0.483479,-0.405125,-0.483486,-0.405117,-0.489486,-0.380117,-0.489484,-0.380104,-0.489491,-0.380094,
-0.494491,-0.354094,-0.494487,-0.354075,-0.494497,-0.354058,-0.497497,-0.328057,-0.497494,-0.328048,-0.497499,-0.328039,-0.499499,-0.302038,-0.499495,-0.302028,-0.499500,-0.302019,-0.500500,-0.275019,-0.500496,-0.275008,-0.500500,-0.275000,-0.500500,0.275000,-0.500496,0.275008,-0.500500,0.275019,-0.499500,0.301019,-0.499495,0.301028,-0.499499,0.301038,-0.497499,0.327039,-0.497494,0.327048,
-0.497497,0.327057,-0.494497,0.353058,-0.494487,0.353075,-0.494491,0.353094,-0.489491,0.379094,-0.489484,0.379104,-0.489486,0.379117,-0.483486,0.404117,-0.483482,0.404122,-0.483483,0.404130,-0.476483,0.430130,-0.476467,0.430150,-0.476468,0.430176,-0.467468,0.454176,-0.467462,0.454182,-0.467462,0.454192,-0.457462,0.478192,-0.457455,0.478198,-0.457455,0.478208,-0.446454,0.502209,
-0.446437,0.502224,-0.446435,0.502246,-0.433435,0.525246,-0.433424,0.525254,-0.433422,0.525268,-0.405422,0.569269,-0.405403,0.569281,-0.405398,0.569303,-0.389398,0.590303,-0.389385,0.590310,-0.389381,0.590324,-0.372381,0.610324,-0.372368,0.610330,-0.372363,0.610344,-0.354363,0.629344,-0.354349,0.629349,-0.354344,0.629363,-0.335344,0.647363,-0.335330,0.647368,-0.335324,0.647381,
-0.315324,0.664381,-0.315310,0.664385,-0.315303,0.664398,-0.294303,0.680398,-0.294280,0.680403,-0.294268,0.680422,-0.250268,0.708422,-0.250254,0.708424,-0.250246,0.708435,-0.227246,0.721435,-0.227223,0.721437,-0.227208,0.721455,-0.203208,0.732455,-0.203198,0.732455,-0.203192,0.732462,-0.179192,0.742462,-0.179182,0.742462,-0.179176,0.742468,-0.155176,0.751468,-0.155150,0.751467,
-0.155130,0.751483,-0.129130,0.758483,-0.129122,0.758482,-0.129117,0.758486,-0.104117,0.764486,-0.104104,0.764484,-0.104094,0.764491,-0.078095,0.769491,-0.078075,0.769486,-0.078057,0.769497,-0.052057,0.772497,-0.052047,0.772494,-0.052038,0.772499,-0.026038,0.774499,-0.026028,0.774495,-0.026019,0.774500,-0.000019,0.775500,-0.000008,0.775496,0.000000,0.775500,1.194500,0.775500,
1.194500,0.780000,1.194646,0.780354,1.195000,0.780500,1.200000,0.780500,1.200354,0.780354,1.200354,0.780354,$1*%
%AMFreePoly1*
4,1,205,-0.001646,0.775354,-0.001500,0.775000,-0.001500,0.774762,0.000000,0.775000,0.001500,0.774762,0.001500,0.775000,0.001503,0.775009,0.001500,0.775020,0.001580,0.775194,0.001646,0.775354,0.001655,0.775357,0.001660,0.775368,0.001839,0.775433,0.002000,0.775500,0.002009,0.775496,0.002020,0.775500,0.027020,0.774500,0.027028,0.774495,0.027038,0.774499,0.053039,0.772499,
0.053048,0.772494,0.053057,0.772497,0.079058,0.769497,0.079075,0.769487,0.079094,0.769491,0.105094,0.764491,0.105104,0.764484,0.105117,0.764486,0.130117,0.758486,0.130125,0.758479,0.130135,0.758481,0.155135,0.751481,0.155150,0.751469,0.155169,0.751470,0.180170,0.742470,0.180178,0.742462,0.180192,0.742462,0.204192,0.732462,0.204198,0.732455,0.204208,0.732455,
0.228209,0.721454,0.228224,0.721437,0.228246,0.721435,0.251246,0.708435,0.251249,0.708430,0.251254,0.708430,0.273254,0.695430,0.273267,0.695412,0.273291,0.695407,0.294291,0.680407,0.294295,0.680400,0.294303,0.680398,0.315303,0.664398,0.315310,0.664385,0.315324,0.664381,0.335324,0.647381,0.335330,0.647368,0.335344,0.647363,0.354344,0.629363,0.354349,0.629349,
0.354363,0.629344,0.372363,0.610344,0.372368,0.610330,0.372381,0.610324,0.389381,0.590324,0.389385,0.590310,0.389398,0.590303,0.405398,0.569303,0.405400,0.569295,0.405407,0.569291,0.420407,0.548291,0.420412,0.548267,0.420430,0.548254,0.433431,0.526254,0.433431,0.526248,0.433435,0.526246,0.446435,0.503246,0.446437,0.503223,0.446455,0.503208,0.457455,0.479208,
0.457455,0.479198,0.457462,0.479192,0.467462,0.455192,0.467462,0.455177,0.467470,0.455169,0.476471,0.430169,0.476470,0.430148,0.476481,0.430135,0.483482,0.405134,0.483480,0.405124,0.483486,0.405117,0.489486,0.380117,0.489484,0.380104,0.489491,0.380094,0.494491,0.354095,0.494486,0.354075,0.494497,0.354057,0.497497,0.328057,0.497494,0.328047,0.497499,0.328038,
0.499499,0.302038,0.499495,0.302028,0.499500,0.302019,0.500500,0.275018,0.500496,0.275008,0.500500,0.275000,0.500500,-0.275000,0.500496,-0.275008,0.500500,-0.275019,0.499500,-0.301019,0.499495,-0.301028,0.499499,-0.301038,0.497499,-0.327038,0.497494,-0.327047,0.497497,-0.327057,0.494497,-0.353057,0.494486,-0.353075,0.494491,-0.353095,0.489491,-0.379094,0.489484,-0.379104,
0.489486,-0.379117,0.483486,-0.404117,0.483482,-0.404122,0.483483,-0.404130,0.476483,-0.430130,0.476467,-0.430150,0.476468,-0.430176,0.467468,-0.454176,0.467462,-0.454182,0.467462,-0.454192,0.457462,-0.478192,0.457455,-0.478198,0.457455,-0.478208,0.446455,-0.502208,0.446437,-0.502223,0.446435,-0.502246,0.433435,-0.525246,0.433424,-0.525254,0.433422,-0.525268,0.405422,-0.569268,
0.405403,-0.569280,0.405398,-0.569303,0.389398,-0.590303,0.389385,-0.590310,0.389381,-0.590324,0.372381,-0.610324,0.372368,-0.610330,0.372363,-0.610344,0.354363,-0.629344,0.354349,-0.629349,0.354344,-0.629363,0.335344,-0.647363,0.335330,-0.647368,0.335324,-0.647381,0.315324,-0.664381,0.315310,-0.664385,0.315303,-0.664398,0.294303,-0.680398,0.294281,-0.680403,0.294269,-0.680422,
0.250268,-0.708422,0.250254,-0.708424,0.250246,-0.708435,0.227246,-0.721435,0.227224,-0.721437,0.227209,-0.721454,0.203208,-0.732455,0.203198,-0.732455,0.203192,-0.732462,0.179192,-0.742462,0.179182,-0.742462,0.179176,-0.742468,0.155176,-0.751468,0.155150,-0.751467,0.155130,-0.751483,0.129130,-0.758483,0.129122,-0.758482,0.129117,-0.758486,0.104117,-0.764486,0.104104,-0.764484,
0.104094,-0.764491,0.078094,-0.769491,0.078075,-0.769487,0.078058,-0.769497,0.052057,-0.772497,0.052048,-0.772494,0.052039,-0.772499,0.026038,-0.774499,0.026028,-0.774495,0.026019,-0.774500,0.000019,-0.775500,0.000008,-0.775496,0.000000,-0.775500,-1.194500,-0.775500,-1.194500,-0.780000,-1.194646,-0.780354,-1.195000,-0.780500,-1.200000,-0.780500,-1.200354,-0.780354,-1.200500,-0.780000,
-1.200500,0.775000,-1.200354,0.775354,-1.200000,0.775500,-0.002000,0.775500,-0.001646,0.775354,-0.001646,0.775354,$1*%
G04 Aperture macros list end*
%ADD10C,1.800000*%
%ADD11R,1.700000X1.700000*%
%ADD12O,1.700000X1.700000*%
%ADD13C,4.000000*%
%ADD14R,1.600000X1.600000*%
%ADD15C,1.600000*%
%ADD16C,3.200000*%
%ADD17C,1.200000*%
%ADD18C,2.000000*%
%ADD19C,1.700000*%
%ADD20FreePoly0,180.000000*%
%ADD21O,1.300000X0.650000*%
%ADD22FreePoly1,180.000000*%
%ADD23C,1.500000*%
%ADD24R,1.600000X1.500000*%
%ADD25C,3.000000*%
%ADD26R,1.800000X1.800000*%
G04 APERTURE END LIST*
D10*
%TO.C,J7*%
X214825000Y-65830000D03*
X212285000Y-65830000D03*
X217365000Y-65830000D03*
X214825000Y-68370000D03*
X212285000Y-68370000D03*
X217365000Y-68370000D03*
X214825000Y-70910000D03*
X212285000Y-70910000D03*
X217365000Y-70910000D03*
X214825000Y-73450000D03*
X212285000Y-73450000D03*
X217365000Y-73450000D03*
X214825000Y-75990000D03*
X212285000Y-75990000D03*
X217365000Y-75990000D03*
X214825000Y-78530000D03*
X212285000Y-78530000D03*
X217365000Y-78530000D03*
X214825000Y-81070000D03*
X212285000Y-81070000D03*
X217365000Y-81070000D03*
X214825000Y-83610000D03*
X212285000Y-83610000D03*
X217365000Y-83610000D03*
X214825000Y-86150000D03*
X212285000Y-86150000D03*
X217365000Y-86150000D03*
X214825000Y-88690000D03*
X212285000Y-88690000D03*
X217365000Y-88690000D03*
X214825000Y-91230000D03*
X212285000Y-91230000D03*
X217365000Y-91230000D03*
X214825000Y-93770000D03*
X212285000Y-93770000D03*
X217365000Y-93770000D03*
X214825000Y-96310000D03*
X212285000Y-96310000D03*
X217365000Y-96310000D03*
X214825000Y-98850000D03*
X212285000Y-98850000D03*
X217365000Y-98850000D03*
X214825000Y-101390000D03*
X212285000Y-101390000D03*
X217365000Y-101390000D03*
X214825000Y-103930000D03*
X212285000Y-103930000D03*
X217365000Y-103930000D03*
X214825000Y-106470000D03*
X212285000Y-106470000D03*
X217365000Y-106470000D03*
X214825000Y-109010000D03*
X212285000Y-109010000D03*
X217365000Y-109010000D03*
X214825000Y-111550000D03*
X212285000Y-111550000D03*
X217365000Y-111550000D03*
X214825000Y-114090000D03*
X212285000Y-114090000D03*
X217365000Y-114090000D03*
X214825000Y-116630000D03*
X212285000Y-116630000D03*
X217365000Y-116630000D03*
X214825000Y-119170000D03*
X212285000Y-119170000D03*
X217365000Y-119170000D03*
%TD*%
D11*
%TO.C,JP3*%
X84804199Y-91006999D03*
D12*
X87344199Y-91006999D03*
%TD*%
D13*
%TO.C,J11*%
X187990000Y-138489700D03*
X212990000Y-138489700D03*
D14*
X194949999Y-137069699D03*
D15*
X197720000Y-137069700D03*
X200490000Y-137069700D03*
X203260000Y-137069700D03*
X206030000Y-137069700D03*
X196335000Y-139909700D03*
X199105000Y-139909700D03*
X201875000Y-139909700D03*
X204645000Y-139909700D03*
%TD*%
D16*
%TO.C,H4*%
X221000000Y-146000000D03*
%TD*%
%TO.C,H3*%
X69000000Y-146000000D03*
%TD*%
D11*
%TO.C,JP1*%
X92349199Y-57250999D03*
D12*
X92349199Y-54710999D03*
%TD*%
D17*
%TO.C,J6*%
X67100000Y-64000000D03*
X73100000Y-64000000D03*
%TD*%
D11*
%TO.C,J10*%
X137159999Y-132079999D03*
D12*
X137159999Y-134619999D03*
X134619999Y-132079999D03*
X134619999Y-134619999D03*
X132079999Y-132079999D03*
X132079999Y-134619999D03*
X129539999Y-132079999D03*
X129539999Y-134619999D03*
X126999999Y-132079999D03*
X126999999Y-134619999D03*
X124459999Y-132079999D03*
X124459999Y-134619999D03*
%TD*%
D18*
%TO.C,SW1*%
X210957500Y-46082500D03*
X210957500Y-40082500D03*
X198957500Y-46082500D03*
X198957500Y-40082500D03*
D19*
X208957500Y-44332500D03*
X204957500Y-44332500D03*
X200957500Y-44332500D03*
X208957500Y-41832500D03*
X204957500Y-41832500D03*
X200957500Y-41832500D03*
%TD*%
D11*
%TO.C,JP4*%
X73999999Y-90999999D03*
D12*
X76539999Y-90999999D03*
X79079999Y-90999999D03*
%TD*%
D20*
%TO.C,J1*%
X86967152Y-36459469D03*
D21*
X85967151Y-39159468D03*
X80967151Y-39159468D03*
D22*
X79967152Y-36459469D03*
%TD*%
D11*
%TO.C,J13*%
X139699999Y-142499999D03*
D12*
X139699999Y-145039999D03*
X137159999Y-142499999D03*
X137159999Y-145039999D03*
X134619999Y-142499999D03*
X134619999Y-145039999D03*
X132079999Y-142499999D03*
X132079999Y-145039999D03*
X129539999Y-142499999D03*
X129539999Y-145039999D03*
X126999999Y-142499999D03*
X126999999Y-145039999D03*
X124459999Y-142499999D03*
X124459999Y-145039999D03*
%TD*%
D11*
%TO.C,JP2*%
X96589199Y-57250999D03*
D12*
X96589199Y-54710999D03*
%TD*%
D17*
%TO.C,J8*%
X67100000Y-79000000D03*
X73100000Y-79000000D03*
%TD*%
D23*
%TO.C,J9*%
X83500000Y-147320000D03*
X107700000Y-147320000D03*
%TD*%
D13*
%TO.C,J4*%
X167495000Y-46430000D03*
X142505000Y-46430000D03*
D14*
X150684999Y-48969999D03*
D15*
X152975000Y-48970000D03*
X155265000Y-48970000D03*
X157555000Y-48970000D03*
X159845000Y-48970000D03*
X149545000Y-46430000D03*
X151835000Y-46430000D03*
X154125000Y-46430000D03*
X156415000Y-46430000D03*
X158705000Y-46430000D03*
X150685000Y-43890000D03*
X152975000Y-43890000D03*
X155265000Y-43890000D03*
X157555000Y-43890000D03*
X159845000Y-43890000D03*
%TD*%
D24*
%TO.C,J2*%
X106999999Y-45859999D03*
D15*
X104500000Y-45860000D03*
X102500000Y-45860000D03*
X100000000Y-45860000D03*
D25*
X110070000Y-43150000D03*
X96930000Y-43150000D03*
%TD*%
D16*
%TO.C,H1*%
X69000000Y-39000000D03*
%TD*%
D26*
%TO.C,D3*%
X75499999Y-147174999D03*
D10*
X78040000Y-147175000D03*
%TD*%
D16*
%TO.C,H2*%
X221000000Y-39000000D03*
%TD*%
D17*
%TO.C,J3*%
X125000000Y-37100000D03*
X125000000Y-43100000D03*
%TD*%
D13*
%TO.C,J12*%
X153990000Y-138489700D03*
X178990000Y-138489700D03*
D14*
X160949999Y-137069699D03*
D15*
X163720000Y-137069700D03*
X166490000Y-137069700D03*
X169260000Y-137069700D03*
X172030000Y-137069700D03*
X162335000Y-139909700D03*
X165105000Y-139909700D03*
X167875000Y-139909700D03*
X170645000Y-139909700D03*
%TD*%
D17*
%TO.C,J5*%
X67100000Y-49000000D03*
X73100000Y-49000000D03*
%TD*%
M02*
