M48
; DRILL file {KiCad (7.0.0)} date Fri Mar 17 13:53:38 2023
; FORMAT={-:-/ absolute / inch / decimal}
; #@! TF.CreationDate,2023-03-17T13:53:38-07:00
; #@! TF.GenerationSoftware,Kicad,Pcbnew,(7.0.0)
; #@! TF.FileFunction,Plated,1,2,PTH
FMAT,2
INCH
; #@! TA.AperFunction,Plated,PTH,ViaDrill
T1C0.0118
; #@! TA.AperFunction,Plated,PTH,ComponentDrill
T2C0.0197
; #@! TA.AperFunction,Plated,PTH,ComponentDrill
T3C0.0354
; #@! TA.AperFunction,Plated,PTH,ComponentDrill
T4C0.0374
; #@! TA.AperFunction,Plated,PTH,ComponentDrill
T5C0.0394
; #@! TA.AperFunction,Plated,PTH,ComponentDrill
T6C0.0472
; #@! TA.AperFunction,Plated,PTH,ComponentDrill
T7C0.0906
; #@! TA.AperFunction,Plated,PTH,ComponentDrill
T8C0.1260
%
G90
G05
T1
X2.6575Y-5.1181
X2.6575Y-5.5118
X2.7165Y-2.0748
X2.7165Y-2.6654
X2.7165Y-3.2559
X2.8543Y-3.7854
X2.8543Y-4.561
X2.8543Y-5.315
X2.8717Y-4.8051
X2.9528Y-1.4764
X3.0177Y-4.7165
X3.0709Y-4.8622
X3.0709Y-5.3189
X3.1929Y-4.9744
X3.1929Y-5.8189
X3.2153Y-3.3923
X3.2205Y-3.1791
X3.2244Y-2.9114
X3.23Y-4.8304
X3.2362Y-1.5846
X3.248Y-1.9685
X3.252Y-3.2717
X3.2657Y-2.7657
X3.28Y-4.8384
X3.3031Y-2.6378
X3.3051Y-2.6969
X3.3051Y-2.8346
X3.3071Y-2.2047
X3.338Y-4.8202
X3.3563Y-1.5866
X3.4449Y-2.3622
X3.4449Y-5.6102
X3.4469Y-2.6969
X3.4551Y-3.8809
X3.5591Y-4.8602
X3.5929Y-3.2196
X3.601Y-3.4539
X3.6024Y-4.5807
X3.6417Y-2.1654
X3.6535Y-4.435
X3.6575Y-4.3031
X3.7244Y-3.3976
X3.7402Y-2.8858
X3.7402Y-3.25
X3.7402Y-4.1339
X3.745Y-4.3375
X3.752Y-4.7028
X3.7717Y-3.1024
X3.7835Y-4.311
X3.8169Y-4.2776
X3.8386Y-4.5276
X3.8524Y-4.8602
X3.8546Y-4.248
X3.8563Y-3.7677
X3.8583Y-3.7165
X3.8622Y-2.8327
X3.874Y-3.8976
X3.874Y-3.9291
X3.874Y-3.9606
X3.874Y-3.9921
X3.8928Y-3.1887
X3.9114Y-4.378
X3.937Y-2.3622
X3.937Y-4.3504
X3.9488Y-2.6535
X3.9587Y-4.3209
X3.9823Y-4.2933
X3.9902Y-3.3976
X3.9961Y-2.5197
X4.002Y-3.1378
X4.0119Y-3.748
X4.0138Y-3.7165
X4.0157Y-3.8976
X4.0157Y-3.9291
X4.0157Y-3.9606
X4.0157Y-3.9921
X4.0256Y-3.5886
X4.0256Y-3.6476
X4.0354Y-3.3465
X4.0354Y-3.4449
X4.0354Y-4.1339
X4.0354Y-5.6102
X4.0689Y-4.9685
X4.0709Y-2.6535
X4.1339Y-1.5748
X4.1339Y-2.5197
X4.1339Y-2.9528
X4.1555Y-3.5886
X4.1831Y-3.7313
X4.1831Y-4.2579
X4.1841Y-3.9311
X4.1929Y-4.0157
X4.1929Y-4.1142
X4.2244Y-3.1378
X4.2323Y-3.3465
X4.2323Y-3.4449
X4.2382Y-4.313
X4.2421Y-4.502
X4.2421Y-4.7953
X4.2795Y-4.9724
X4.311Y-4.6063
X4.313Y-4.2579
X4.313Y-4.315
X4.3133Y-2.4037
X4.315Y-2.8878
X4.3661Y-5.8189
X4.374Y-4.5669
X4.3839Y-3.6299
X4.3898Y-4.0157
X4.3898Y-4.1142
X4.4291Y-2.6575
X4.4488Y-3.7008
X4.5079Y-4.1535
X4.5394Y-4.6201
X4.5419Y-4.4061
X4.565Y-4.2224
X4.5818Y-4.2876
X4.5844Y-5.6519
X4.5846Y-4.3189
X4.5935Y-4.0531
X4.5965Y-4.2244
X4.6201Y-3.5984
X4.624Y-3.3169
X4.624Y-3.9272
X4.625Y-3.6614
X4.6575Y-1.4843
X4.6653Y-4.1686
X4.6654Y-4.0128
X4.6752Y-2.0157
X4.689Y-3.0709
X4.691Y-3.9822
X4.6929Y-3.5699
X4.6929Y-3.693
X4.7Y-4.9
X4.7156Y-3.2835
X4.7244Y-2.2638
X4.7278Y-4.5471
X4.7343Y-2.0157
X4.7393Y-3.8927
X4.7535Y-4.3615
X4.7756Y-1.5354
X4.7874Y-3.2106
X4.7914Y-4.1732
X4.8031Y-2.4213
X4.8116Y-4.535
X4.817Y-4.5019
X4.8203Y-4.5695
X4.8366Y-2.8878
X4.8386Y-4.1969
X4.8406Y-4.1319
X4.8425Y-4.2441
X4.8482Y-4.3091
X4.8484Y-3.0098
X4.8484Y-3.1634
X4.8602Y-3.435
X4.8602Y-3.5728
X4.8602Y-3.6909
X4.8602Y-3.8287
X4.8622Y-1.4764
X4.8719Y-3.893
X4.872Y-3.6299
X4.8732Y-4.2855
X4.8732Y-4.3327
X4.879Y-4.5345
X4.8834Y-4.5033
X4.9Y-4.6201
X4.9036Y-3.9094
X4.9075Y-3.0098
X4.9114Y-3.9783
X4.9199Y-5.5067
X4.9213Y-1.6732
X4.9222Y-2.9626
X4.9291Y-3.8701
X4.9466Y-5.1829
X4.9579Y-3.887
X4.9606Y-2.0157
X4.9685Y-3.6299
X4.9803Y-4.7301
X4.9803Y-4.0906
X4.9833Y-3.94
X4.9862Y-3.0098
X4.9862Y-3.1339
X4.9889Y-4.3635
X4.9902Y-3.2441
X4.9902Y-4.2214
X5.0197Y-2.0157
X5.0271Y-3.9476
X5.0311Y-4.685
X5.0354Y-3.9904
X5.0354Y-4.0878
X5.0354Y-3.8563
X5.0374Y-3.4232
X5.0413Y-3.6299
X5.0413Y-3.7185
X5.0492Y-3.2441
X5.0492Y-4.2218
X5.0555Y-4.5906
X5.065Y-3.0098
X5.0697Y-3.9551
X5.0743Y-3.1363
X5.0748Y-3.3287
X5.0827Y-3.2618
X5.0835Y-4.5731
X5.1043Y-3.9331
X5.1083Y-4.2218
X5.1181Y-3.8642
X5.124Y-3.0098
X5.128Y-3.4094
X5.1417Y-2.874
X5.1526Y-3.9331
X5.1555Y-3.2539
X5.1575Y-5.8465
X5.1582Y-3.964
X5.1654Y-3.3307
X5.1659Y-4.0926
X5.1673Y-4.2214
X5.1713Y-3.8406
X5.1775Y-3.2786
X5.185Y-3.0098
X5.185Y-3.687
X5.1905Y-3.9833
X5.1969Y-2.0472
X5.197Y-4.0977
X5.2008Y-3.4193
X5.2028Y-3.2539
X5.2165Y-2.7776
X5.2165Y-3.1014
X5.2205Y-3.1516
X5.2264Y-3.7953
X5.2264Y-3.936
X5.2264Y-4.2218
X5.2333Y-3.5413
X5.248Y-3.0098
X5.2519Y-3.9872
X5.2519Y-4.0878
X5.253Y-2.9557
X5.2559Y-4.2972
X5.2753Y-3.9281
X5.281Y-4.685
X5.2854Y-4.0955
X5.2854Y-4.2221
X5.2874Y-4.3406
X5.3Y-3.7513
X5.3051Y-3.0098
X5.3087Y-4.7068
X5.3169Y-3.3957
X5.3196Y-3.9294
X5.3245Y-3.7161
X5.3303Y-3.7697
X5.3346Y-2.9764
X5.3402Y-4.7294
X5.3445Y-4.2222
X5.3469Y-5.1014
X5.3484Y-3.3741
X5.3494Y-3.2942
X5.3615Y-4.7526
X5.3642Y-3.0098
X5.377Y-3.2677
X5.3827Y-4.7758
X5.3937Y-2.9724
X5.3988Y-3.3339
X5.4035Y-4.2216
X5.4154Y-3.8425
X5.4223Y-3.9498
X5.4232Y-3.0098
X5.4232Y-3.1535
X5.4259Y-4.8402
X5.4291Y-2.7776
X5.4291Y-3.5492
X5.437Y-3.9902
X5.4476Y-4.096
X5.4528Y-2.9724
X5.4528Y-3.128
X5.4573Y-3.3464
X5.4601Y-4.8695
X5.4606Y-2.687
X5.4611Y-4.7906
X5.4626Y-4.2244
X5.4663Y-4.3752
X5.4724Y-3.25
X5.4823Y-3.0098
X5.4862Y-3.3306
X5.4954Y-3.7145
X5.4962Y-3.6594
X5.497Y-3.9744
X5.4995Y-5.2087
X5.5Y-3.7864
X5.5039Y-2.0492
X5.5051Y-3.7518
X5.5118Y-1.5748
X5.5128Y-4.8278
X5.5157Y-3.3149
X5.5177Y-3.1457
X5.5217Y-4.2244
X5.5413Y-3.0098
X5.5512Y-3.2992
X5.5559Y-4.3762
X5.5614Y-4.2835
X5.5741Y-5.52
X5.5765Y-4.1059
X5.5793Y-3.9459
X5.5808Y-5.1796
X5.5846Y-3.2834
X5.5902Y-3.5151
X5.5984Y-3.4409
X5.6001Y-3.7669
X5.6004Y-3.0079
X5.6039Y-3.8945
X5.6122Y-3.5531
X5.6122Y-3.8091
X5.6383Y-4.6614
X5.6457Y-3.2205
X5.6605Y-4.6374
X5.6617Y-3.9933
X5.6693Y-4.4469
X5.6752Y-3.1989
X5.6762Y-4.1779
X5.69Y-4.3028
X5.6917Y-4.3358
X5.7008Y-2.0886
X5.7013Y-4.6351
X5.7038Y-3.6688
X5.7067Y-3.1831
X5.7146Y-2.7677
X5.7402Y-3.1673
X5.7659Y-3.9193
X5.7697Y-3.1516
X5.7753Y-4.8303
X5.7813Y-4.1109
X5.7911Y-5.6435
X5.8012Y-3.1359
X5.8018Y-3.9201
X5.8099Y-4.3047
X5.8315Y-4.2754
X5.833Y-3.1202
X5.8484Y-3.3169
X5.8484Y-3.6004
X5.8484Y-3.6594
X5.8493Y-3.9582
X5.8545Y-3.0808
X5.8661Y-5.8465
X5.867Y-3.9236
X5.876Y-4.439
X5.8777Y-5.1362
X5.9252Y-4.0929
X5.939Y-2.5335
X5.9429Y-4.511
X5.9429Y-4.6324
X5.9709Y-4.28
X5.9769Y-4.3109
X6.0Y-4.3344
X6.002Y-3.7736
X6.0039Y-1.5748
X6.0054Y-4.5482
X6.0059Y-2.7008
X6.0079Y-3.4094
X6.0089Y-4.2117
X6.0098Y-4.6142
X6.0299Y-3.0779
X6.0451Y-3.9513
X6.0926Y-2.378
X6.1024Y-2.2835
X6.106Y-4.3527
X6.1102Y-2.4803
X6.1143Y-5.0593
X6.124Y-2.3799
X6.1281Y-2.4508
X6.1339Y-2.2835
X6.1339Y-4.2126
X6.1414Y-4.3674
X6.1473Y-4.4648
X6.1536Y-4.7052
X6.1777Y-4.3703
X6.187Y-2.378
X6.189Y-4.2126
X6.195Y-4.344
X6.1969Y-2.2835
X6.1981Y-4.0932
X6.2205Y-2.378
X6.2323Y-5.0594
X6.2402Y-2.25
X6.2992Y-2.2677
X6.3159Y-3.5069
X6.3169Y-2.4429
X6.3169Y-2.7972
X6.3169Y-3.1525
X6.3184Y-4.5482
X6.3189Y-4.3199
X6.3225Y-4.2823
X6.3268Y-2.246
X6.3463Y-3.8638
X6.3505Y-5.0601
X6.3533Y-3.4547
X6.3543Y-3.1004
X6.3563Y-2.4528
X6.3563Y-2.5925
X6.3563Y-2.7441
X6.3593Y-3.6348
X6.3799Y-4.3957
X6.3947Y-3.6093
X6.4055Y-3.5433
X6.4075Y-4.5256
X6.4099Y-4.6099
X6.4364Y-4.5636
X6.4469Y-2.4232
X6.4469Y-2.7756
X6.4469Y-3.1319
X6.4518Y-2.623
X6.4577Y-2.0945
X6.4602Y-4.3618
X6.4679Y-4.7107
X6.4684Y-5.0596
X6.4852Y-4.5285
X6.4872Y-2.3356
X6.4961Y-1.5748
X6.497Y-2.6486
X6.5068Y-3.8809
X6.5297Y-4.2951
X6.5304Y-4.2586
X6.5315Y-3.9094
X6.5335Y-2.6555
X6.5471Y-4.54
X6.5551Y-3.6811
X6.5571Y-2.9508
X6.563Y-3.6102
X6.5689Y-2.9016
X6.5824Y-3.0523
X6.5827Y-3.7657
X6.5837Y-2.375
X6.5846Y-3.8386
X6.585Y-4.622
X6.5864Y-5.0597
X6.5992Y-3.0032
X6.6004Y-2.3425
X6.6088Y-3.0351
X6.6285Y-4.6295
X6.6319Y-2.3189
X6.6339Y-2.7362
X6.6339Y-3.9764
X6.6594Y-3.4429
X6.6673Y-2.9193
X6.6929Y-3.7992
X6.7008Y-3.2569
X6.7028Y-2.9547
X6.7043Y-5.0598
X6.7047Y-3.1752
X6.71Y-3.2254
X6.7146Y-4.4626
X6.7232Y-3.4184
X6.7263Y-3.3871
X6.7282Y-3.2862
X6.7283Y-3.5492
X6.7283Y-3.3543
X6.7323Y-2.1673
X6.7323Y-3.1096
X6.7343Y-3.4567
X6.7346Y-3.1568
X6.7404Y-3.2045
X6.7461Y-4.372
X6.7559Y-3.3012
X6.7665Y-3.1436
X6.767Y-3.8201
X6.767Y-3.7687
X6.767Y-3.8692
X6.7674Y-3.7201
X6.7676Y-3.9195
X6.7854Y-2.8445
X6.7913Y-2.2972
X6.8071Y-3.1319
X6.8093Y-2.868
X6.8228Y-3.5492
X6.8229Y-5.0599
X6.8248Y-3.5906
X6.8329Y-2.8315
X6.8573Y-2.868
X6.872Y-2.9626
X6.8809Y-2.8445
X6.8872Y-4.3195
X6.8878Y-2.7382
X6.8897Y-3.3642
X6.8937Y-2.8031
X6.8937Y-4.3701
X6.8981Y-2.2574
X6.8996Y-2.9466
X6.9045Y-4.0246
X6.9055Y-3.3937
X6.9075Y-2.4173
X6.9075Y-2.8661
X6.9084Y-2.8986
X6.9134Y-2.0945
X6.9212Y-3.4252
X6.9291Y-2.6555
X6.9291Y-2.8012
X6.9341Y-3.9419
X6.9369Y-3.4567
X6.937Y-3.0098
X6.941Y-5.0596
X6.9448Y-3.5906
X6.9448Y-2.8976
X6.9547Y-2.5669
X6.9587Y-2.0453
X6.9587Y-2.2047
X6.9587Y-2.9862
X6.9605Y-3.5591
X6.9626Y-3.0571
X6.9685Y-2.9449
X6.9744Y-2.8011
X6.9762Y-3.5283
X6.9803Y-2.5433
X6.9882Y-1.5748
X6.9882Y-1.8701
X6.9882Y-2.9743
X6.999Y-4.1289
X7.0078Y-3.5511
X7.0111Y-2.0584
X7.0118Y-2.189
X7.0236Y-2.3031
X7.0236Y-2.4094
X7.0246Y-2.5777
X7.0313Y-3.5275
X7.0317Y-3.063
X7.0471Y-3.6147
X7.0531Y-3.2795
X7.0551Y-2.3031
X7.0551Y-2.4094
X7.0551Y-2.559
X7.0551Y-2.8209
X7.0628Y-3.3937
X7.0709Y-4.437
X7.0787Y-3.3209
X7.0787Y-2.6358
X7.0927Y-2.921
X7.0945Y-3.4311
X7.0946Y-2.8228
X7.1024Y-2.5433
X7.1133Y-3.3543
X7.1181Y-2.1378
X7.1181Y-2.2067
X7.1181Y-2.315
X7.1181Y-2.6339
X7.1182Y-2.7558
X7.126Y-3.4665
X7.1285Y-3.2176
X7.1339Y-2.5157
X7.1497Y-2.7558
X7.1595Y-3.2229
X7.1654Y-2.4666
X7.1732Y-3.1656
X7.1771Y-3.1969
X7.1811Y-2.187
X7.1811Y-2.3307
X7.1811Y-2.7579
X7.1969Y-2.3858
X7.2Y-4.8
X7.2008Y-2.4902
X7.2027Y-3.1548
X7.2126Y-2.2047
X7.2126Y-2.5591
X7.2126Y-2.7598
X7.2207Y-3.0748
X7.2221Y-5.2849
X7.2244Y-5.8465
X7.2264Y-2.065
X7.2264Y-2.1378
X7.2264Y-2.628
X7.2382Y-2.5389
X7.2382Y-2.3209
X7.2441Y-2.7598
X7.2511Y-3.083
X7.2756Y-2.8504
X7.2773Y-5.1394
X7.2776Y-3.1024
X7.2814Y-3.1339
X7.303Y-3.4941
X7.313Y-3.1181
X7.3386Y-2.1654
X7.3465Y-3.128
X7.3526Y-2.1169
X7.3546Y-3.6142
X7.3558Y-3.5082
X7.3583Y-2.8465
X7.3661Y-2.1988
X7.371Y-3.1013
X7.3898Y-2.3051
X7.4005Y-3.499
X7.4054Y-3.8195
X7.4062Y-3.7198
X7.4071Y-3.7695
X7.4154Y-2.3287
X7.4173Y-3.1122
X7.4204Y-3.3
X7.4254Y-3.2639
X7.4272Y-2.7894
X7.4291Y-2.752
X7.4311Y-2.9921
X7.4369Y-3.2302
X7.4409Y-2.1551
X7.4429Y-2.6378
X7.4488Y-3.1457
X7.4491Y-3.8959
X7.4507Y-3.4468
X7.4626Y-2.5846
X7.4646Y-2.9941
X7.4646Y-3.3858
X7.4662Y-3.4176
X7.4705Y-3.2303
X7.4724Y-2.3544
X7.4724Y-3.1988
X7.4783Y-3.7835
X7.4784Y-3.1634
X7.4803Y-1.5748
X7.4803Y-1.8701
X7.4823Y-2.4803
X7.4902Y-3.3209
X7.4961Y-2.9961
X7.5Y-2.5453
X7.5Y-4.1
X7.5157Y-2.4035
X7.5158Y-2.498
X7.5354Y-3.5689
X7.5444Y-4.889
X7.562Y-3.4892
X7.563Y-2.5315
X7.563Y-3.5217
X7.565Y-2.5846
X7.565Y-3.0335
X7.5846Y-2.4528
X7.6164Y-2.7604
X7.622Y-2.7913
X7.624Y-4.6614
X7.628Y-4.6063
X7.6299Y-2.6378
X7.6398Y-2.5197
X7.6634Y-4.4193
X7.6732Y-4.1417
X7.6772Y-2.0669
X7.6772Y-3.5433
X7.6772Y-3.7402
X7.6969Y-2.6969
X7.7008Y-2.6102
X7.7047Y-3.2894
X7.7165Y-1.4961
X7.7223Y-4.3601
X7.7874Y-4.3819
X7.7953Y-4.5079
X7.8Y-2.9733
X7.814Y-2.3455
X7.815Y-4.2953
X7.8248Y-3.6417
X7.9094Y-4.689
X7.9134Y-4.7638
X7.9486Y-3.6946
X7.9941Y-4.3425
X8.0512Y-2.6969
X8.0571Y-4.5413
X8.0669Y-3.5965
X8.0829Y-2.4067
X8.0866Y-2.6319
X8.0886Y-3.5413
X8.1203Y-3.8753
X8.122Y-3.6949
X8.1299Y-4.7638
X8.1535Y-3.6417
X8.1693Y-3.2795
X8.1752Y-3.5945
X8.1949Y-4.6732
X8.2044Y-4.1905
X8.2077Y-3.0867
X8.2087Y-2.937
X8.211Y-4.1407
X8.2227Y-4.0926
X8.2264Y-4.6083
X8.2308Y-4.0407
X8.2343Y-3.5413
X8.243Y-3.9902
X8.2549Y-3.9428
X8.2559Y-4.6417
X8.2648Y-3.1024
X8.2651Y-3.8926
X8.2736Y-4.5079
X8.2769Y-3.8407
X8.2894Y-3.6161
X8.2972Y-4.5413
X8.2982Y-3.1181
X8.3012Y-4.3366
X8.3121Y-4.9521
X8.3937Y-2.1201
X8.4449Y-1.4961
X8.4646Y-5.8268
X8.5236Y-2.4409
X8.5276Y-4.9882
X8.626Y-4.6417
X8.6339Y-3.7854
X8.6339Y-4.5413
X8.6516Y-3.6457
X8.6516Y-3.8563
X8.6811Y-5.5512
X8.6831Y-3.8248
X8.6991Y-3.5332
X8.7008Y-1.8307
X8.7017Y-3.6329
X8.7067Y-3.8012
X8.7067Y-4.7913
X8.7264Y-3.9311
X8.7283Y-3.6555
X8.7303Y-3.7028
X8.7303Y-3.773
X8.7303Y-2.5689
X8.75Y-2.8917
X8.7579Y-3.5531
X9.0551Y-2.4606
X9.0551Y-3.0512
X9.0551Y-3.6417
X9.0551Y-4.2323
X9.0551Y-4.8228
T3
X2.9724Y-5.7943
X3.0724Y-5.7943
X7.9117Y-1.6469
X7.9117Y-1.7454
X8.0692Y-1.6469
X8.0692Y-1.7454
X8.2267Y-1.6469
X8.2267Y-1.7454
T4
X3.937Y-1.8055
X4.0354Y-1.8055
X4.1142Y-1.8055
X4.2126Y-1.8055
T5
X2.9134Y-3.5827
X3.0134Y-3.5827
X3.1134Y-3.5827
X3.3Y-3.522
X3.3Y-3.622
X3.4Y-3.522
X3.4Y-3.622
X3.4734Y-1.6732
X3.4734Y-1.8169
X3.5Y-3.522
X3.5Y-3.622
X3.5734Y-1.6732
X3.5734Y-1.8169
X3.6Y-3.522
X3.6Y-3.622
X3.689Y-3.8287
X3.7Y-3.522
X3.7Y-3.622
X3.789Y-3.8287
X3.8Y-3.522
X3.8Y-3.622
X5.0Y-5.3
X5.0Y-5.4
X5.1Y-5.3
X5.1Y-5.4
X5.2Y-5.3
X5.2Y-5.4
X5.3Y-5.3
X5.3Y-5.4
X5.4Y-5.3
X5.4Y-5.4
X5.5Y-5.3
X5.5Y-5.4
X5.8876Y-1.828
X5.9325Y-1.728
X5.9325Y-1.928
X5.9778Y-1.828
X6.0226Y-1.728
X6.0226Y-1.928
X6.0679Y-1.828
X6.1128Y-1.728
X6.1128Y-1.928
X6.1581Y-1.828
X6.203Y-1.728
X6.203Y-1.928
X6.2482Y-1.828
X6.2931Y-1.728
X6.2931Y-1.928
X6.3366Y-5.3964
X6.3911Y-5.5083
X6.4457Y-5.3964
X6.5002Y-5.5083
X6.5547Y-5.3964
X6.6093Y-5.5083
X6.6638Y-5.3964
X6.7183Y-5.5083
X6.7728Y-5.3964
X7.6752Y-5.3964
X7.7297Y-5.5083
X7.7843Y-5.3964
X7.8388Y-5.5083
X7.8933Y-5.3964
X7.9478Y-5.5083
X8.0024Y-5.3964
X8.0569Y-5.5083
X8.1114Y-5.3964
X8.3577Y-2.5917
X8.3577Y-2.6917
X8.3577Y-2.7917
X8.3577Y-2.8917
X8.3577Y-2.9917
X8.3577Y-3.0917
X8.3577Y-3.1917
X8.3577Y-3.2917
X8.3577Y-3.3917
X8.3577Y-3.4917
X8.3577Y-3.5917
X8.3577Y-3.6917
X8.3577Y-3.7917
X8.3577Y-3.8917
X8.3577Y-3.9917
X8.3577Y-4.0917
X8.3577Y-4.1917
X8.3577Y-4.2917
X8.3577Y-4.3917
X8.3577Y-4.4917
X8.3577Y-4.5917
X8.3577Y-4.6917
X8.4577Y-2.5917
X8.4577Y-2.6917
X8.4577Y-2.7917
X8.4577Y-2.8917
X8.4577Y-2.9917
X8.4577Y-3.0917
X8.4577Y-3.1917
X8.4577Y-3.2917
X8.4577Y-3.3917
X8.4577Y-3.4917
X8.4577Y-3.5917
X8.4577Y-3.6917
X8.4577Y-3.7917
X8.4577Y-3.8917
X8.4577Y-3.9917
X8.4577Y-4.0917
X8.4577Y-4.1917
X8.4577Y-4.2917
X8.4577Y-4.3917
X8.4577Y-4.4917
X8.4577Y-4.5917
X8.4577Y-4.6917
X8.5577Y-2.5917
X8.5577Y-2.6917
X8.5577Y-2.7917
X8.5577Y-2.8917
X8.5577Y-2.9917
X8.5577Y-3.0917
X8.5577Y-3.1917
X8.5577Y-3.2917
X8.5577Y-3.3917
X8.5577Y-3.4917
X8.5577Y-3.5917
X8.5577Y-3.6917
X8.5577Y-3.7917
X8.5577Y-3.8917
X8.5577Y-3.9917
X8.5577Y-4.0917
X8.5577Y-4.1917
X8.5577Y-4.2917
X8.5577Y-4.3917
X8.5577Y-4.4917
X8.5577Y-4.5917
X8.5577Y-4.6917
T6
X7.833Y-1.5781
X7.833Y-1.8143
X8.3054Y-1.5781
X8.3054Y-1.8143
T7
X3.8161Y-1.6988
X4.3335Y-1.6988
T8
X5.6104Y-1.828
X6.0626Y-5.4523
X6.5943Y-1.828
X7.0469Y-5.4523
X7.4012Y-5.4523
X8.3854Y-5.4523
T2
G00X3.1575Y-1.4488
M15
G01X3.1575Y-1.4213
M16
G05
G00X3.4173Y-1.4488
M15
G01X3.4173Y-1.4213
M16
G05
T0
M30
