%TF.GenerationSoftware,KiCad,Pcbnew,(7.0.0)*%
%TF.CreationDate,2023-03-17T13:53:50-07:00*%
%TF.ProjectId,aquarius-plus,61717561-7269-4757-932d-706c75732e6b,rev?*%
%TF.SameCoordinates,Original*%
%TF.FileFunction,Soldermask,Top*%
%TF.FilePolarity,Negative*%
%FSLAX46Y46*%
G04 Gerber Fmt 4.6, Leading zero omitted, Abs format (unit mm)*
G04 Created by KiCad (PCBNEW (7.0.0)) date 2023-03-17 13:53:50*
%MOMM*%
%LPD*%
G01*
G04 APERTURE LIST*
G04 Aperture macros list*
%AMRoundRect*
0 Rectangle with rounded corners*
0 $1 Rounding radius*
0 $2 $3 $4 $5 $6 $7 $8 $9 X,Y pos of 4 corners*
0 Add a 4 corners polygon primitive as box body*
4,1,4,$2,$3,$4,$5,$6,$7,$8,$9,$2,$3,0*
0 Add four circle primitives for the rounded corners*
1,1,$1+$1,$2,$3*
1,1,$1+$1,$4,$5*
1,1,$1+$1,$6,$7*
1,1,$1+$1,$8,$9*
0 Add four rect primitives between the rounded corners*
20,1,$1+$1,$2,$3,$4,$5,0*
20,1,$1+$1,$4,$5,$6,$7,0*
20,1,$1+$1,$6,$7,$8,$9,0*
20,1,$1+$1,$8,$9,$2,$3,0*%
G04 Aperture macros list end*
%ADD10RoundRect,0.200000X0.275000X-0.200000X0.275000X0.200000X-0.275000X0.200000X-0.275000X-0.200000X0*%
%ADD11C,1.800000*%
%ADD12RoundRect,0.200000X-0.275000X0.200000X-0.275000X-0.200000X0.275000X-0.200000X0.275000X0.200000X0*%
%ADD13RoundRect,0.225000X0.250000X-0.225000X0.250000X0.225000X-0.250000X0.225000X-0.250000X-0.225000X0*%
%ADD14RoundRect,0.100000X0.637500X0.100000X-0.637500X0.100000X-0.637500X-0.100000X0.637500X-0.100000X0*%
%ADD15RoundRect,0.150000X0.875000X0.150000X-0.875000X0.150000X-0.875000X-0.150000X0.875000X-0.150000X0*%
%ADD16R,1.700000X1.700000*%
%ADD17O,1.700000X1.700000*%
%ADD18RoundRect,0.225000X-0.250000X0.225000X-0.250000X-0.225000X0.250000X-0.225000X0.250000X0.225000X0*%
%ADD19C,4.000000*%
%ADD20R,1.600000X1.600000*%
%ADD21C,1.600000*%
%ADD22R,1.500000X2.000000*%
%ADD23R,3.800000X2.000000*%
%ADD24RoundRect,0.075000X-0.662500X-0.075000X0.662500X-0.075000X0.662500X0.075000X-0.662500X0.075000X0*%
%ADD25RoundRect,0.075000X-0.075000X-0.662500X0.075000X-0.662500X0.075000X0.662500X-0.075000X0.662500X0*%
%ADD26C,3.200000*%
%ADD27RoundRect,0.225000X-0.225000X-0.250000X0.225000X-0.250000X0.225000X0.250000X-0.225000X0.250000X0*%
%ADD28RoundRect,0.225000X0.225000X0.250000X-0.225000X0.250000X-0.225000X-0.250000X0.225000X-0.250000X0*%
%ADD29RoundRect,0.250000X0.475000X-0.250000X0.475000X0.250000X-0.475000X0.250000X-0.475000X-0.250000X0*%
%ADD30RoundRect,0.200000X-0.200000X-0.275000X0.200000X-0.275000X0.200000X0.275000X-0.200000X0.275000X0*%
%ADD31RoundRect,0.150000X-0.587500X-0.150000X0.587500X-0.150000X0.587500X0.150000X-0.587500X0.150000X0*%
%ADD32RoundRect,0.150000X0.587500X0.150000X-0.587500X0.150000X-0.587500X-0.150000X0.587500X-0.150000X0*%
%ADD33RoundRect,0.200000X0.200000X0.275000X-0.200000X0.275000X-0.200000X-0.275000X0.200000X-0.275000X0*%
%ADD34C,1.700000*%
%ADD35R,2.200000X2.800000*%
%ADD36R,2.800000X2.800000*%
%ADD37C,2.000000*%
%ADD38RoundRect,0.100000X0.100000X0.575000X-0.100000X0.575000X-0.100000X-0.575000X0.100000X-0.575000X0*%
%ADD39O,0.900000X1.600000*%
%ADD40R,1.600000X1.400000*%
%ADD41R,1.900000X1.900000*%
%ADD42RoundRect,0.075000X0.712500X0.075000X-0.712500X0.075000X-0.712500X-0.075000X0.712500X-0.075000X0*%
%ADD43C,1.100000*%
%ADD44R,1.000000X1.500000*%
%ADD45R,0.700000X1.500000*%
%ADD46R,1.500000X2.800000*%
%ADD47RoundRect,0.137500X0.600000X0.137500X-0.600000X0.137500X-0.600000X-0.137500X0.600000X-0.137500X0*%
%ADD48RoundRect,0.137500X0.137500X0.600000X-0.137500X0.600000X-0.137500X-0.600000X0.137500X-0.600000X0*%
%ADD49RoundRect,0.100000X-0.637500X-0.100000X0.637500X-0.100000X0.637500X0.100000X-0.637500X0.100000X0*%
%ADD50R,1.600000X1.500000*%
%ADD51C,3.000000*%
%ADD52R,1.800000X1.800000*%
%ADD53RoundRect,0.250000X-0.550000X1.500000X-0.550000X-1.500000X0.550000X-1.500000X0.550000X1.500000X0*%
%ADD54R,1.000000X1.000000*%
%ADD55R,1.500000X1.600000*%
%ADD56RoundRect,0.150000X0.150000X-0.587500X0.150000X0.587500X-0.150000X0.587500X-0.150000X-0.587500X0*%
%ADD57RoundRect,0.250000X-0.650000X0.325000X-0.650000X-0.325000X0.650000X-0.325000X0.650000X0.325000X0*%
%ADD58R,2.800000X2.200000*%
%ADD59RoundRect,0.225000X0.225000X0.525000X-0.225000X0.525000X-0.225000X-0.525000X0.225000X-0.525000X0*%
%ADD60RoundRect,0.225000X-0.525000X0.225000X-0.525000X-0.225000X0.525000X-0.225000X0.525000X0.225000X0*%
%ADD61RoundRect,0.225000X-0.225000X-0.525000X0.225000X-0.525000X0.225000X0.525000X-0.225000X0.525000X0*%
%ADD62RoundRect,0.225000X-0.225000X-0.225000X0.225000X-0.225000X0.225000X0.225000X-0.225000X0.225000X0*%
G04 APERTURE END LIST*
D10*
%TO.C,R76*%
X207300000Y-130825000D03*
X207300000Y-129175000D03*
%TD*%
D11*
%TO.C,J10*%
X214825000Y-65830000D03*
X212285000Y-65830000D03*
X217365000Y-65830000D03*
X214825000Y-68370000D03*
X212285000Y-68370000D03*
X217365000Y-68370000D03*
X214825000Y-70910000D03*
X212285000Y-70910000D03*
X217365000Y-70910000D03*
X214825000Y-73450000D03*
X212285000Y-73450000D03*
X217365000Y-73450000D03*
X214825000Y-75990000D03*
X212285000Y-75990000D03*
X217365000Y-75990000D03*
X214825000Y-78530000D03*
X212285000Y-78530000D03*
X217365000Y-78530000D03*
X214825000Y-81070000D03*
X212285000Y-81070000D03*
X217365000Y-81070000D03*
X214825000Y-83610000D03*
X212285000Y-83610000D03*
X217365000Y-83610000D03*
X214825000Y-86150000D03*
X212285000Y-86150000D03*
X217365000Y-86150000D03*
X214825000Y-88690000D03*
X212285000Y-88690000D03*
X217365000Y-88690000D03*
X214825000Y-91230000D03*
X212285000Y-91230000D03*
X217365000Y-91230000D03*
X214825000Y-93770000D03*
X212285000Y-93770000D03*
X217365000Y-93770000D03*
X214825000Y-96310000D03*
X212285000Y-96310000D03*
X217365000Y-96310000D03*
X214825000Y-98850000D03*
X212285000Y-98850000D03*
X217365000Y-98850000D03*
X214825000Y-101390000D03*
X212285000Y-101390000D03*
X217365000Y-101390000D03*
X214825000Y-103930000D03*
X212285000Y-103930000D03*
X217365000Y-103930000D03*
X214825000Y-106470000D03*
X212285000Y-106470000D03*
X217365000Y-106470000D03*
X214825000Y-109010000D03*
X212285000Y-109010000D03*
X217365000Y-109010000D03*
X214825000Y-111550000D03*
X212285000Y-111550000D03*
X217365000Y-111550000D03*
X214825000Y-114090000D03*
X212285000Y-114090000D03*
X217365000Y-114090000D03*
X214825000Y-116630000D03*
X212285000Y-116630000D03*
X217365000Y-116630000D03*
X214825000Y-119170000D03*
X212285000Y-119170000D03*
X217365000Y-119170000D03*
%TD*%
D12*
%TO.C,R3*%
X183550000Y-49925000D03*
X183550000Y-51575000D03*
%TD*%
D13*
%TO.C,C25*%
X140750000Y-78775000D03*
X140750000Y-77225000D03*
%TD*%
D10*
%TO.C,R51*%
X75016750Y-119065071D03*
X75016750Y-117415071D03*
%TD*%
D14*
%TO.C,U5*%
X90112500Y-81775000D03*
X90112500Y-81125000D03*
X90112500Y-80475000D03*
X90112500Y-79825000D03*
X90112500Y-79175000D03*
X90112500Y-78525000D03*
X90112500Y-77875000D03*
X90112500Y-77225000D03*
X84387500Y-77225000D03*
X84387500Y-77875000D03*
X84387500Y-78525000D03*
X84387500Y-79175000D03*
X84387500Y-79825000D03*
X84387500Y-80475000D03*
X84387500Y-81125000D03*
X84387500Y-81775000D03*
%TD*%
D15*
%TO.C,U12*%
X186550000Y-113525000D03*
X186550000Y-112255000D03*
X186550000Y-110985000D03*
X186550000Y-109715000D03*
X186550000Y-108445000D03*
X186550000Y-107175000D03*
X186550000Y-105905000D03*
X186550000Y-104635000D03*
X186550000Y-103365000D03*
X186550000Y-102095000D03*
X186550000Y-100825000D03*
X186550000Y-99555000D03*
X186550000Y-98285000D03*
X186550000Y-97015000D03*
X186550000Y-95745000D03*
X186550000Y-94475000D03*
X173450000Y-94475000D03*
X173450000Y-95745000D03*
X173450000Y-97015000D03*
X173450000Y-98285000D03*
X173450000Y-99555000D03*
X173450000Y-100825000D03*
X173450000Y-102095000D03*
X173450000Y-103365000D03*
X173450000Y-104635000D03*
X173450000Y-105905000D03*
X173450000Y-107175000D03*
X173450000Y-108445000D03*
X173450000Y-109715000D03*
X173450000Y-110985000D03*
X173450000Y-112255000D03*
X173450000Y-113525000D03*
%TD*%
D16*
%TO.C,JP3*%
X93699999Y-97249999D03*
D17*
X96239999Y-97249999D03*
%TD*%
D12*
%TO.C,R60*%
X103228100Y-120175027D03*
X103228100Y-121825027D03*
%TD*%
D10*
%TO.C,R64*%
X161300000Y-130825000D03*
X161300000Y-129175000D03*
%TD*%
%TO.C,R17*%
X140750000Y-55825000D03*
X140750000Y-54175000D03*
%TD*%
%TO.C,R19*%
X143750000Y-55825000D03*
X143750000Y-54175000D03*
%TD*%
D18*
%TO.C,C47*%
X134250000Y-104975000D03*
X134250000Y-106525000D03*
%TD*%
D19*
%TO.C,J14*%
X187990000Y-138489669D03*
X212990000Y-138489669D03*
D20*
X194949999Y-137069668D03*
D21*
X197720000Y-137069669D03*
X200490000Y-137069669D03*
X203260000Y-137069669D03*
X206030000Y-137069669D03*
X196335000Y-139909669D03*
X199105000Y-139909669D03*
X201875000Y-139909669D03*
X204645000Y-139909669D03*
%TD*%
D16*
%TO.C,J11*%
X139699999Y-134619999D03*
D17*
X139699999Y-137159999D03*
X137159999Y-134619999D03*
X137159999Y-137159999D03*
X134619999Y-134619999D03*
X134619999Y-137159999D03*
X132079999Y-134619999D03*
X132079999Y-137159999D03*
X129539999Y-134619999D03*
X129539999Y-137159999D03*
X126999999Y-134619999D03*
X126999999Y-137159999D03*
%TD*%
D10*
%TO.C,R34*%
X131000000Y-69825000D03*
X131000000Y-68175000D03*
%TD*%
%TO.C,R74*%
X201300000Y-130825000D03*
X201300000Y-129175000D03*
%TD*%
D13*
%TO.C,C56*%
X171350000Y-113375000D03*
X171350000Y-111825000D03*
%TD*%
D10*
%TO.C,R65*%
X164300000Y-130825000D03*
X164300000Y-129175000D03*
%TD*%
D13*
%TO.C,C4*%
X127500000Y-53525000D03*
X127500000Y-51975000D03*
%TD*%
D22*
%TO.C,U8*%
X102699999Y-89149999D03*
X104999999Y-89149999D03*
D23*
X104999999Y-82849999D03*
D22*
X107299999Y-89149999D03*
%TD*%
D12*
%TO.C,R59*%
X101600000Y-120175000D03*
X101600000Y-121825000D03*
%TD*%
D18*
%TO.C,C50*%
X138750000Y-104975000D03*
X138750000Y-106525000D03*
%TD*%
D13*
%TO.C,C19*%
X131750000Y-78775000D03*
X131750000Y-77225000D03*
%TD*%
D24*
%TO.C,U9*%
X122337500Y-83250000D03*
X122337500Y-83750000D03*
X122337500Y-84250000D03*
X122337500Y-84750000D03*
X122337500Y-85250000D03*
X122337500Y-85750000D03*
X122337500Y-86250000D03*
X122337500Y-86750000D03*
X122337500Y-87250000D03*
X122337500Y-87750000D03*
X122337500Y-88250000D03*
X122337500Y-88750000D03*
X122337500Y-89250000D03*
X122337500Y-89750000D03*
X122337500Y-90250000D03*
X122337500Y-90750000D03*
X122337500Y-91250000D03*
X122337500Y-91750000D03*
X122337500Y-92250000D03*
X122337500Y-92750000D03*
X122337500Y-93250000D03*
X122337500Y-93750000D03*
X122337500Y-94250000D03*
X122337500Y-94750000D03*
X122337500Y-95250000D03*
X122337500Y-95750000D03*
X122337500Y-96250000D03*
X122337500Y-96750000D03*
X122337500Y-97250000D03*
X122337500Y-97750000D03*
X122337500Y-98250000D03*
X122337500Y-98750000D03*
X122337500Y-99250000D03*
X122337500Y-99750000D03*
X122337500Y-100250000D03*
X122337500Y-100750000D03*
D25*
X124250000Y-102662500D03*
X124750000Y-102662500D03*
X125250000Y-102662500D03*
X125750000Y-102662500D03*
X126250000Y-102662500D03*
X126750000Y-102662500D03*
X127250000Y-102662500D03*
X127750000Y-102662500D03*
X128250000Y-102662500D03*
X128750000Y-102662500D03*
X129250000Y-102662500D03*
X129750000Y-102662500D03*
X130250000Y-102662500D03*
X130750000Y-102662500D03*
X131250000Y-102662500D03*
X131750000Y-102662500D03*
X132250000Y-102662500D03*
X132750000Y-102662500D03*
X133250000Y-102662500D03*
X133750000Y-102662500D03*
X134250000Y-102662500D03*
X134750000Y-102662500D03*
X135250000Y-102662500D03*
X135750000Y-102662500D03*
X136250000Y-102662500D03*
X136750000Y-102662500D03*
X137250000Y-102662500D03*
X137750000Y-102662500D03*
X138250000Y-102662500D03*
X138750000Y-102662500D03*
X139250000Y-102662500D03*
X139750000Y-102662500D03*
X140250000Y-102662500D03*
X140750000Y-102662500D03*
X141250000Y-102662500D03*
X141750000Y-102662500D03*
D24*
X143662500Y-100750000D03*
X143662500Y-100250000D03*
X143662500Y-99750000D03*
X143662500Y-99250000D03*
X143662500Y-98750000D03*
X143662500Y-98250000D03*
X143662500Y-97750000D03*
X143662500Y-97250000D03*
X143662500Y-96750000D03*
X143662500Y-96250000D03*
X143662500Y-95750000D03*
X143662500Y-95250000D03*
X143662500Y-94750000D03*
X143662500Y-94250000D03*
X143662500Y-93750000D03*
X143662500Y-93250000D03*
X143662500Y-92750000D03*
X143662500Y-92250000D03*
X143662500Y-91750000D03*
X143662500Y-91250000D03*
X143662500Y-90750000D03*
X143662500Y-90250000D03*
X143662500Y-89750000D03*
X143662500Y-89250000D03*
X143662500Y-88750000D03*
X143662500Y-88250000D03*
X143662500Y-87750000D03*
X143662500Y-87250000D03*
X143662500Y-86750000D03*
X143662500Y-86250000D03*
X143662500Y-85750000D03*
X143662500Y-85250000D03*
X143662500Y-84750000D03*
X143662500Y-84250000D03*
X143662500Y-83750000D03*
X143662500Y-83250000D03*
D25*
X141750000Y-81337500D03*
X141250000Y-81337500D03*
X140750000Y-81337500D03*
X140250000Y-81337500D03*
X139750000Y-81337500D03*
X139250000Y-81337500D03*
X138750000Y-81337500D03*
X138250000Y-81337500D03*
X137750000Y-81337500D03*
X137250000Y-81337500D03*
X136750000Y-81337500D03*
X136250000Y-81337500D03*
X135750000Y-81337500D03*
X135250000Y-81337500D03*
X134750000Y-81337500D03*
X134250000Y-81337500D03*
X133750000Y-81337500D03*
X133250000Y-81337500D03*
X132750000Y-81337500D03*
X132250000Y-81337500D03*
X131750000Y-81337500D03*
X131250000Y-81337500D03*
X130750000Y-81337500D03*
X130250000Y-81337500D03*
X129750000Y-81337500D03*
X129250000Y-81337500D03*
X128750000Y-81337500D03*
X128250000Y-81337500D03*
X127750000Y-81337500D03*
X127250000Y-81337500D03*
X126750000Y-81337500D03*
X126250000Y-81337500D03*
X125750000Y-81337500D03*
X125250000Y-81337500D03*
X124750000Y-81337500D03*
X124250000Y-81337500D03*
%TD*%
D26*
%TO.C,H4*%
X221000000Y-146000000D03*
%TD*%
D10*
%TO.C,R12*%
X133250000Y-55825000D03*
X133250000Y-54175000D03*
%TD*%
%TO.C,R46*%
X123750000Y-106575000D03*
X123750000Y-104925000D03*
%TD*%
D27*
%TO.C,C37*%
X146225000Y-91450000D03*
X147775000Y-91450000D03*
%TD*%
D26*
%TO.C,H3*%
X69000000Y-146000000D03*
%TD*%
D12*
%TO.C,R1*%
X180550000Y-49925000D03*
X180550000Y-51575000D03*
%TD*%
D28*
%TO.C,C54*%
X108575000Y-108150000D03*
X107025000Y-108150000D03*
%TD*%
D10*
%TO.C,R42*%
X143750000Y-78825000D03*
X143750000Y-77175000D03*
%TD*%
D29*
%TO.C,C3*%
X124250000Y-53700000D03*
X124250000Y-51800000D03*
%TD*%
D12*
%TO.C,R5*%
X186550000Y-49925000D03*
X186550000Y-51575000D03*
%TD*%
D30*
%TO.C,R28*%
X81675000Y-65500000D03*
X83325000Y-65500000D03*
%TD*%
D31*
%TO.C,Q2*%
X97062500Y-70050000D03*
X97062500Y-71950000D03*
X98937500Y-71000000D03*
%TD*%
D18*
%TO.C,C10*%
X132500000Y-68225000D03*
X132500000Y-69775000D03*
%TD*%
D32*
%TO.C,U3*%
X136137500Y-69950000D03*
X136137500Y-68050000D03*
X134262500Y-69000000D03*
%TD*%
D10*
%TO.C,R39*%
X123150000Y-78825000D03*
X123150000Y-77175000D03*
%TD*%
D18*
%TO.C,C48*%
X135750000Y-104975000D03*
X135750000Y-106525000D03*
%TD*%
D13*
%TO.C,C18*%
X130150000Y-78775000D03*
X130150000Y-77225000D03*
%TD*%
D10*
%TO.C,R43*%
X145250000Y-78825000D03*
X145250000Y-77175000D03*
%TD*%
%TO.C,R25*%
X116750000Y-56825000D03*
X116750000Y-55175000D03*
%TD*%
D33*
%TO.C,R9*%
X83325000Y-54500000D03*
X81675000Y-54500000D03*
%TD*%
D34*
%TO.C,J6*%
X68500000Y-64000000D03*
X75500000Y-64000000D03*
D35*
X69399999Y-60299999D03*
X67399999Y-67699999D03*
D36*
X76799999Y-67699999D03*
%TD*%
D30*
%TO.C,R27*%
X81675000Y-62500000D03*
X83325000Y-62500000D03*
%TD*%
D18*
%TO.C,C11*%
X137900000Y-68225000D03*
X137900000Y-69775000D03*
%TD*%
D13*
%TO.C,C60*%
X95300000Y-121775000D03*
X95300000Y-120225000D03*
%TD*%
D28*
%TO.C,C55*%
X111875000Y-108150000D03*
X110325000Y-108150000D03*
%TD*%
D10*
%TO.C,R69*%
X176300000Y-130825000D03*
X176300000Y-129175000D03*
%TD*%
D27*
%TO.C,C26*%
X161425000Y-79550000D03*
X162975000Y-79550000D03*
%TD*%
D10*
%TO.C,R68*%
X173300000Y-130825000D03*
X173300000Y-129175000D03*
%TD*%
D30*
%TO.C,R36*%
X84675000Y-72000000D03*
X86325000Y-72000000D03*
%TD*%
D12*
%TO.C,R52*%
X84796860Y-120169533D03*
X84796860Y-121819533D03*
%TD*%
D28*
%TO.C,C53*%
X159500000Y-107000000D03*
X157950000Y-107000000D03*
%TD*%
D13*
%TO.C,C28*%
X93500000Y-81775000D03*
X93500000Y-80225000D03*
%TD*%
D10*
%TO.C,R37*%
X120150000Y-78825000D03*
X120150000Y-77175000D03*
%TD*%
D37*
%TO.C,SW1*%
X210957500Y-46082500D03*
X210957500Y-40082500D03*
X198957500Y-46082500D03*
X198957500Y-40082500D03*
D34*
X208957500Y-44332500D03*
X204957500Y-44332500D03*
X200957500Y-44332500D03*
X208957500Y-41832500D03*
X204957500Y-41832500D03*
X200957500Y-41832500D03*
%TD*%
D18*
%TO.C,C29*%
X95000000Y-80225000D03*
X95000000Y-81775000D03*
%TD*%
D10*
%TO.C,R23*%
X149750000Y-55825000D03*
X149750000Y-54175000D03*
%TD*%
D30*
%TO.C,R50*%
X110275000Y-109650000D03*
X111925000Y-109650000D03*
%TD*%
D10*
%TO.C,R18*%
X142250000Y-55825000D03*
X142250000Y-54175000D03*
%TD*%
D12*
%TO.C,R57*%
X98312279Y-120173519D03*
X98312279Y-121823519D03*
%TD*%
%TO.C,R7*%
X118750000Y-51925000D03*
X118750000Y-53575000D03*
%TD*%
D10*
%TO.C,R11*%
X131750000Y-55825000D03*
X131750000Y-54175000D03*
%TD*%
D16*
%TO.C,J8*%
X73999999Y-90999999D03*
D17*
X76539999Y-90999999D03*
X79079999Y-90999999D03*
%TD*%
D18*
%TO.C,C44*%
X129750000Y-104975000D03*
X129750000Y-106525000D03*
%TD*%
%TO.C,C49*%
X137250000Y-104975000D03*
X137250000Y-106525000D03*
%TD*%
D13*
%TO.C,C24*%
X139250000Y-78775000D03*
X139250000Y-77225000D03*
%TD*%
%TO.C,C21*%
X134750000Y-78775000D03*
X134750000Y-77225000D03*
%TD*%
D12*
%TO.C,R35*%
X93250000Y-69925000D03*
X93250000Y-71575000D03*
%TD*%
D10*
%TO.C,R53*%
X86403578Y-121820504D03*
X86403578Y-120170504D03*
%TD*%
D38*
%TO.C,J1*%
X84800000Y-39125000D03*
X84150000Y-39125000D03*
X83500000Y-39125000D03*
X82850000Y-39125000D03*
X82200000Y-39125000D03*
D39*
X86799999Y-36449999D03*
D40*
X86699999Y-38899999D03*
D41*
X84699999Y-36449999D03*
X82299999Y-36449999D03*
D40*
X80299999Y-38899999D03*
D39*
X80199999Y-36449999D03*
%TD*%
D12*
%TO.C,R4*%
X185050000Y-49925000D03*
X185050000Y-51575000D03*
%TD*%
D22*
%TO.C,U11*%
X106699999Y-106149999D03*
X108999999Y-106149999D03*
D23*
X108999999Y-99849999D03*
D22*
X111299999Y-106149999D03*
%TD*%
D10*
%TO.C,R16*%
X139250000Y-55825000D03*
X139250000Y-54175000D03*
%TD*%
D27*
%TO.C,C7*%
X161450000Y-61550000D03*
X163000000Y-61550000D03*
%TD*%
D33*
%TO.C,R29*%
X86325000Y-67000000D03*
X84675000Y-67000000D03*
%TD*%
D18*
%TO.C,C46*%
X132750000Y-104975000D03*
X132750000Y-106525000D03*
%TD*%
D28*
%TO.C,C40*%
X119775000Y-99750000D03*
X118225000Y-99750000D03*
%TD*%
D13*
%TO.C,C32*%
X189500000Y-85025000D03*
X189500000Y-83475000D03*
%TD*%
%TO.C,C22*%
X136250000Y-78775000D03*
X136250000Y-77225000D03*
%TD*%
D34*
%TO.C,J7*%
X68500000Y-79000000D03*
X75500000Y-79000000D03*
D35*
X69399999Y-75299999D03*
X67399999Y-82699999D03*
D36*
X76799999Y-82699999D03*
%TD*%
D31*
%TO.C,Q1*%
X88062500Y-70050000D03*
X88062500Y-71950000D03*
X89937500Y-71000000D03*
%TD*%
D10*
%TO.C,R20*%
X145250000Y-55825000D03*
X145250000Y-54175000D03*
%TD*%
%TO.C,R21*%
X146750000Y-55825000D03*
X146750000Y-54175000D03*
%TD*%
%TO.C,R62*%
X155300000Y-130825000D03*
X155300000Y-129175000D03*
%TD*%
D12*
%TO.C,R47*%
X125250000Y-104925000D03*
X125250000Y-106575000D03*
%TD*%
%TO.C,R48*%
X141750000Y-104925000D03*
X141750000Y-106575000D03*
%TD*%
D30*
%TO.C,R44*%
X102975000Y-92650000D03*
X104625000Y-92650000D03*
%TD*%
D18*
%TO.C,C58*%
X76650000Y-117475000D03*
X76650000Y-119025000D03*
%TD*%
D42*
%TO.C,U7*%
X186687500Y-87750000D03*
X186687500Y-87250000D03*
X186687500Y-86750000D03*
X186687500Y-86250000D03*
X186687500Y-85750000D03*
X186687500Y-85250000D03*
X186687500Y-84750000D03*
X186687500Y-84250000D03*
X186687500Y-83750000D03*
X186687500Y-83250000D03*
X186687500Y-82750000D03*
X186687500Y-82250000D03*
X186687500Y-81750000D03*
X186687500Y-81250000D03*
X186687500Y-80750000D03*
X186687500Y-80250000D03*
X173312500Y-80250000D03*
X173312500Y-80750000D03*
X173312500Y-81250000D03*
X173312500Y-81750000D03*
X173312500Y-82250000D03*
X173312500Y-82750000D03*
X173312500Y-83250000D03*
X173312500Y-83750000D03*
X173312500Y-84250000D03*
X173312500Y-84750000D03*
X173312500Y-85250000D03*
X173312500Y-85750000D03*
X173312500Y-86250000D03*
X173312500Y-86750000D03*
X173312500Y-87250000D03*
X173312500Y-87750000D03*
%TD*%
D10*
%TO.C,R70*%
X189300000Y-130825000D03*
X189300000Y-129175000D03*
%TD*%
D30*
%TO.C,R30*%
X84675000Y-68500000D03*
X86325000Y-68500000D03*
%TD*%
D12*
%TO.C,R78*%
X78000000Y-143225000D03*
X78000000Y-144875000D03*
%TD*%
D43*
%TO.C,J12*%
X84500000Y-127325000D03*
D21*
X105500000Y-127325000D03*
D44*
X102874999Y-124524999D03*
X100374999Y-124524999D03*
X97874999Y-124524999D03*
X95374999Y-124524999D03*
X92874999Y-124524999D03*
X90374999Y-124524999D03*
X87944999Y-124524999D03*
X86244999Y-124524999D03*
X105374999Y-124524999D03*
D45*
X84944999Y-124524999D03*
X83744999Y-124524999D03*
D46*
X82349999Y-126324999D03*
X82349999Y-147824999D03*
X107449999Y-126324999D03*
X109649999Y-147824999D03*
%TD*%
D10*
%TO.C,R67*%
X170300000Y-130825000D03*
X170300000Y-129175000D03*
%TD*%
D12*
%TO.C,R56*%
X91260746Y-120188594D03*
X91260746Y-121838594D03*
%TD*%
D27*
%TO.C,C8*%
X187725000Y-63000000D03*
X189275000Y-63000000D03*
%TD*%
D12*
%TO.C,R2*%
X182050000Y-49925000D03*
X182050000Y-51575000D03*
%TD*%
D47*
%TO.C,U1*%
X185662500Y-67000000D03*
X185662500Y-66200000D03*
X185662500Y-65400000D03*
X185662500Y-64600000D03*
X185662500Y-63800000D03*
X185662500Y-63000000D03*
X185662500Y-62200000D03*
X185662500Y-61400000D03*
X185662500Y-60600000D03*
X185662500Y-59800000D03*
X185662500Y-59000000D03*
D48*
X184000000Y-57337500D03*
X183200000Y-57337500D03*
X182400000Y-57337500D03*
X181600000Y-57337500D03*
X180800000Y-57337500D03*
X180000000Y-57337500D03*
X179200000Y-57337500D03*
X178400000Y-57337500D03*
X177600000Y-57337500D03*
X176800000Y-57337500D03*
X176000000Y-57337500D03*
D47*
X174337500Y-59000000D03*
X174337500Y-59800000D03*
X174337500Y-60600000D03*
X174337500Y-61400000D03*
X174337500Y-62200000D03*
X174337500Y-63000000D03*
X174337500Y-63800000D03*
X174337500Y-64600000D03*
X174337500Y-65400000D03*
X174337500Y-66200000D03*
X174337500Y-67000000D03*
D48*
X176000000Y-68662500D03*
X176800000Y-68662500D03*
X177600000Y-68662500D03*
X178400000Y-68662500D03*
X179200000Y-68662500D03*
X180000000Y-68662500D03*
X180800000Y-68662500D03*
X181600000Y-68662500D03*
X182400000Y-68662500D03*
X183200000Y-68662500D03*
X184000000Y-68662500D03*
%TD*%
D33*
%TO.C,R32*%
X95075000Y-68500000D03*
X93425000Y-68500000D03*
%TD*%
D19*
%TO.C,J2*%
X167495000Y-46430000D03*
X142505000Y-46430000D03*
D20*
X150684999Y-48969999D03*
D21*
X152975000Y-48970000D03*
X155265000Y-48970000D03*
X157555000Y-48970000D03*
X159845000Y-48970000D03*
X149545000Y-46430000D03*
X151835000Y-46430000D03*
X154125000Y-46430000D03*
X156415000Y-46430000D03*
X158705000Y-46430000D03*
X150685000Y-43890000D03*
X152975000Y-43890000D03*
X155265000Y-43890000D03*
X157555000Y-43890000D03*
X159845000Y-43890000D03*
%TD*%
D49*
%TO.C,U10*%
X153637500Y-88425000D03*
X153637500Y-89075000D03*
X153637500Y-89725000D03*
X153637500Y-90375000D03*
X153637500Y-91025000D03*
X153637500Y-91675000D03*
X153637500Y-92325000D03*
X153637500Y-92975000D03*
X153637500Y-93625000D03*
X153637500Y-94275000D03*
X153637500Y-94925000D03*
X153637500Y-95575000D03*
X159362500Y-95575000D03*
X159362500Y-94925000D03*
X159362500Y-94275000D03*
X159362500Y-93625000D03*
X159362500Y-92975000D03*
X159362500Y-92325000D03*
X159362500Y-91675000D03*
X159362500Y-91025000D03*
X159362500Y-90375000D03*
X159362500Y-89725000D03*
X159362500Y-89075000D03*
X159362500Y-88425000D03*
%TD*%
D10*
%TO.C,R75*%
X204300000Y-130825000D03*
X204300000Y-129175000D03*
%TD*%
D28*
%TO.C,C38*%
X119800000Y-93000000D03*
X118250000Y-93000000D03*
%TD*%
D10*
%TO.C,R26*%
X124000000Y-56825000D03*
X124000000Y-55175000D03*
%TD*%
D50*
%TO.C,J4*%
X106999999Y-45859999D03*
D21*
X104500000Y-45860000D03*
X102500000Y-45860000D03*
X100000000Y-45860000D03*
D51*
X110070000Y-43150000D03*
X96930000Y-43150000D03*
%TD*%
D26*
%TO.C,H1*%
X69000000Y-39000000D03*
%TD*%
D49*
%TO.C,U2*%
X153637500Y-61425000D03*
X153637500Y-62075000D03*
X153637500Y-62725000D03*
X153637500Y-63375000D03*
X153637500Y-64025000D03*
X153637500Y-64675000D03*
X153637500Y-65325000D03*
X153637500Y-65975000D03*
X153637500Y-66625000D03*
X153637500Y-67275000D03*
X153637500Y-67925000D03*
X153637500Y-68575000D03*
X159362500Y-68575000D03*
X159362500Y-67925000D03*
X159362500Y-67275000D03*
X159362500Y-66625000D03*
X159362500Y-65975000D03*
X159362500Y-65325000D03*
X159362500Y-64675000D03*
X159362500Y-64025000D03*
X159362500Y-63375000D03*
X159362500Y-62725000D03*
X159362500Y-62075000D03*
X159362500Y-61425000D03*
%TD*%
D10*
%TO.C,R72*%
X195300000Y-130825000D03*
X195300000Y-129175000D03*
%TD*%
%TO.C,R71*%
X192300000Y-130825000D03*
X192300000Y-129175000D03*
%TD*%
D12*
%TO.C,R58*%
X99956429Y-120173492D03*
X99956429Y-121823492D03*
%TD*%
D52*
%TO.C,D3*%
X75499999Y-147174999D03*
D11*
X78040000Y-147175000D03*
%TD*%
D10*
%TO.C,R15*%
X137750000Y-55825000D03*
X137750000Y-54175000D03*
%TD*%
%TO.C,R13*%
X134750000Y-55825000D03*
X134750000Y-54175000D03*
%TD*%
D13*
%TO.C,C14*%
X93500000Y-78775000D03*
X93500000Y-77225000D03*
%TD*%
D12*
%TO.C,R8*%
X126000000Y-51925000D03*
X126000000Y-53575000D03*
%TD*%
D27*
%TO.C,C9*%
X84725000Y-65500000D03*
X86275000Y-65500000D03*
%TD*%
D26*
%TO.C,H2*%
X221000000Y-39000000D03*
%TD*%
D33*
%TO.C,R24*%
X83325000Y-56000000D03*
X81675000Y-56000000D03*
%TD*%
D28*
%TO.C,C36*%
X119800000Y-91500000D03*
X118250000Y-91500000D03*
%TD*%
D27*
%TO.C,C33*%
X161425000Y-88500000D03*
X162975000Y-88500000D03*
%TD*%
D53*
%TO.C,C5*%
X109680263Y-52939692D03*
X109680263Y-58339692D03*
%TD*%
D16*
%TO.C,J9*%
X83819999Y-91999999D03*
D17*
X83819999Y-89459999D03*
X86359999Y-91999999D03*
X86359999Y-89459999D03*
X88899999Y-91999999D03*
X88899999Y-89459999D03*
X91439999Y-91999999D03*
X91439999Y-89459999D03*
X93979999Y-91999999D03*
X93979999Y-89459999D03*
X96519999Y-91999999D03*
X96519999Y-89459999D03*
%TD*%
D18*
%TO.C,C42*%
X126750000Y-104975000D03*
X126750000Y-106525000D03*
%TD*%
D13*
%TO.C,C27*%
X82600000Y-82325000D03*
X82600000Y-80775000D03*
%TD*%
D10*
%TO.C,R49*%
X143250000Y-106575000D03*
X143250000Y-104925000D03*
%TD*%
D16*
%TO.C,JP2*%
X88224999Y-46149999D03*
D17*
X90764999Y-46149999D03*
%TD*%
D13*
%TO.C,C2*%
X120250000Y-53525000D03*
X120250000Y-51975000D03*
%TD*%
D54*
%TO.C,D2*%
X94999999Y-69999999D03*
X94999999Y-72499999D03*
%TD*%
D55*
%TO.C,X1*%
X148099999Y-115269999D03*
X148099999Y-112729999D03*
X145899999Y-112729999D03*
X145899999Y-115269999D03*
%TD*%
D10*
%TO.C,R40*%
X124650000Y-78825000D03*
X124650000Y-77175000D03*
%TD*%
D56*
%TO.C,Q3*%
X80120460Y-121533326D03*
X82020460Y-121533326D03*
X81070460Y-119658326D03*
%TD*%
D13*
%TO.C,C12*%
X91750000Y-71525000D03*
X91750000Y-69975000D03*
%TD*%
D10*
%TO.C,R41*%
X142250000Y-78825000D03*
X142250000Y-77175000D03*
%TD*%
D49*
%TO.C,U6*%
X153637500Y-79425000D03*
X153637500Y-80075000D03*
X153637500Y-80725000D03*
X153637500Y-81375000D03*
X153637500Y-82025000D03*
X153637500Y-82675000D03*
X153637500Y-83325000D03*
X153637500Y-83975000D03*
X153637500Y-84625000D03*
X153637500Y-85275000D03*
X153637500Y-85925000D03*
X153637500Y-86575000D03*
X159362500Y-86575000D03*
X159362500Y-85925000D03*
X159362500Y-85275000D03*
X159362500Y-84625000D03*
X159362500Y-83975000D03*
X159362500Y-83325000D03*
X159362500Y-82675000D03*
X159362500Y-82025000D03*
X159362500Y-81375000D03*
X159362500Y-80725000D03*
X159362500Y-80075000D03*
X159362500Y-79425000D03*
%TD*%
D27*
%TO.C,C52*%
X153475000Y-107000000D03*
X155025000Y-107000000D03*
%TD*%
D57*
%TO.C,C59*%
X72940922Y-117580362D03*
X72940922Y-120530362D03*
%TD*%
D18*
%TO.C,C15*%
X95000000Y-77225000D03*
X95000000Y-78775000D03*
%TD*%
D34*
%TO.C,J3*%
X125000000Y-38500000D03*
X125000000Y-45500000D03*
D58*
X128699999Y-39399999D03*
X121299999Y-37399999D03*
D36*
X121299999Y-46799999D03*
%TD*%
D13*
%TO.C,C20*%
X133250000Y-78775000D03*
X133250000Y-77225000D03*
%TD*%
%TO.C,C17*%
X128650000Y-78775000D03*
X128650000Y-77225000D03*
%TD*%
D12*
%TO.C,R55*%
X89654818Y-120175053D03*
X89654818Y-121825053D03*
%TD*%
D13*
%TO.C,C57*%
X144000000Y-115275000D03*
X144000000Y-113725000D03*
%TD*%
D28*
%TO.C,C35*%
X107875000Y-91150000D03*
X106325000Y-91150000D03*
%TD*%
D13*
%TO.C,C23*%
X137750000Y-78775000D03*
X137750000Y-77225000D03*
%TD*%
D33*
%TO.C,R33*%
X99075000Y-68500000D03*
X97425000Y-68500000D03*
%TD*%
D19*
%TO.C,J13*%
X153990000Y-138489669D03*
X178990000Y-138489669D03*
D20*
X160949999Y-137069668D03*
D21*
X163720000Y-137069669D03*
X166490000Y-137069669D03*
X169260000Y-137069669D03*
X172030000Y-137069669D03*
X162335000Y-139909669D03*
X165105000Y-139909669D03*
X167875000Y-139909669D03*
X170645000Y-139909669D03*
%TD*%
D30*
%TO.C,R45*%
X106275000Y-92650000D03*
X107925000Y-92650000D03*
%TD*%
D10*
%TO.C,R10*%
X130250000Y-55825000D03*
X130250000Y-54175000D03*
%TD*%
D13*
%TO.C,C16*%
X126650000Y-78775000D03*
X126650000Y-77225000D03*
%TD*%
D10*
%TO.C,R22*%
X148250000Y-55825000D03*
X148250000Y-54175000D03*
%TD*%
D59*
%TO.C,U13*%
X72490000Y-114750000D03*
X73760000Y-114750000D03*
X75030000Y-114750000D03*
X76300000Y-114750000D03*
X77570000Y-114750000D03*
X78840000Y-114750000D03*
X80110000Y-114750000D03*
X81380000Y-114750000D03*
X82650000Y-114750000D03*
X83920000Y-114750000D03*
X85190000Y-114750000D03*
X86460000Y-114750000D03*
X87730000Y-114750000D03*
X89000000Y-114750000D03*
D60*
X90250000Y-112985000D03*
X90250000Y-111715000D03*
X90250000Y-110445000D03*
X90250000Y-109175000D03*
X90250000Y-107905000D03*
X90250000Y-106635000D03*
X90250000Y-105365000D03*
X90250000Y-104095000D03*
X90250000Y-102825000D03*
X90250000Y-101555000D03*
X90250000Y-100285000D03*
X90250000Y-99015000D03*
D61*
X89000000Y-97250000D03*
X87730000Y-97250000D03*
X86460000Y-97250000D03*
X85190000Y-97250000D03*
X83920000Y-97250000D03*
X82650000Y-97250000D03*
X81380000Y-97250000D03*
X80110000Y-97250000D03*
X78840000Y-97250000D03*
X77570000Y-97250000D03*
X76300000Y-97250000D03*
X75030000Y-97250000D03*
X73760000Y-97250000D03*
X72490000Y-97250000D03*
D62*
X78810000Y-108900000D03*
X80210000Y-108900000D03*
X81610000Y-108900000D03*
X78810000Y-107500000D03*
X80210000Y-107500000D03*
X81610000Y-107500000D03*
X78810000Y-106100000D03*
X80210000Y-106100000D03*
X81610000Y-106100000D03*
%TD*%
D10*
%TO.C,R66*%
X167300000Y-130825000D03*
X167300000Y-129175000D03*
%TD*%
D28*
%TO.C,C34*%
X104575000Y-91150000D03*
X103025000Y-91150000D03*
%TD*%
%TO.C,C30*%
X119775000Y-84250000D03*
X118225000Y-84250000D03*
%TD*%
D12*
%TO.C,R38*%
X121650000Y-77175000D03*
X121650000Y-78825000D03*
%TD*%
D16*
%TO.C,JP1*%
X88224999Y-42499999D03*
D17*
X90764999Y-42499999D03*
%TD*%
D27*
%TO.C,C41*%
X146210054Y-100525384D03*
X147760054Y-100525384D03*
%TD*%
D12*
%TO.C,R6*%
X174150000Y-51725000D03*
X174150000Y-53375000D03*
%TD*%
D49*
%TO.C,U14*%
X153634781Y-108406457D03*
X153634781Y-109056457D03*
X153634781Y-109706457D03*
X153634781Y-110356457D03*
X153634781Y-111006457D03*
X153634781Y-111656457D03*
X153634781Y-112306457D03*
X153634781Y-112956457D03*
X153634781Y-113606457D03*
X153634781Y-114256457D03*
X153634781Y-114906457D03*
X153634781Y-115556457D03*
X159359781Y-115556457D03*
X159359781Y-114906457D03*
X159359781Y-114256457D03*
X159359781Y-113606457D03*
X159359781Y-112956457D03*
X159359781Y-112306457D03*
X159359781Y-111656457D03*
X159359781Y-111006457D03*
X159359781Y-110356457D03*
X159359781Y-109706457D03*
X159359781Y-109056457D03*
X159359781Y-108406457D03*
%TD*%
D10*
%TO.C,R63*%
X158300000Y-130825000D03*
X158300000Y-129175000D03*
%TD*%
D18*
%TO.C,C43*%
X128250000Y-104975000D03*
X128250000Y-106525000D03*
%TD*%
D27*
%TO.C,C13*%
X161425000Y-70500000D03*
X162975000Y-70500000D03*
%TD*%
D34*
%TO.C,J5*%
X68500000Y-49000000D03*
X75500000Y-49000000D03*
D35*
X69399999Y-45299999D03*
X67399999Y-52699999D03*
D36*
X76799999Y-52699999D03*
%TD*%
D29*
%TO.C,C1*%
X117000000Y-53700000D03*
X117000000Y-51800000D03*
%TD*%
D10*
%TO.C,R61*%
X104842634Y-121825027D03*
X104842634Y-120175027D03*
%TD*%
%TO.C,R77*%
X210300000Y-130825000D03*
X210300000Y-129175000D03*
%TD*%
%TO.C,R73*%
X198300000Y-130825000D03*
X198300000Y-129175000D03*
%TD*%
D12*
%TO.C,R54*%
X88021163Y-120170504D03*
X88021163Y-121820504D03*
%TD*%
D33*
%TO.C,R31*%
X89925000Y-68500000D03*
X88275000Y-68500000D03*
%TD*%
D27*
%TO.C,C31*%
X146225000Y-84250000D03*
X147775000Y-84250000D03*
%TD*%
D53*
%TO.C,C6*%
X205694209Y-53022727D03*
X205694209Y-58422727D03*
%TD*%
D10*
%TO.C,R14*%
X136250000Y-55825000D03*
X136250000Y-54175000D03*
%TD*%
D49*
%TO.C,U4*%
X153637500Y-70425000D03*
X153637500Y-71075000D03*
X153637500Y-71725000D03*
X153637500Y-72375000D03*
X153637500Y-73025000D03*
X153637500Y-73675000D03*
X153637500Y-74325000D03*
X153637500Y-74975000D03*
X153637500Y-75625000D03*
X153637500Y-76275000D03*
X153637500Y-76925000D03*
X153637500Y-77575000D03*
X159362500Y-77575000D03*
X159362500Y-76925000D03*
X159362500Y-76275000D03*
X159362500Y-75625000D03*
X159362500Y-74975000D03*
X159362500Y-74325000D03*
X159362500Y-73675000D03*
X159362500Y-73025000D03*
X159362500Y-72375000D03*
X159362500Y-71725000D03*
X159362500Y-71075000D03*
X159362500Y-70425000D03*
%TD*%
D18*
%TO.C,C51*%
X140250000Y-104975000D03*
X140250000Y-106525000D03*
%TD*%
D27*
%TO.C,C39*%
X146225000Y-92950000D03*
X147775000Y-92950000D03*
%TD*%
D18*
%TO.C,C45*%
X131250000Y-104975000D03*
X131250000Y-106525000D03*
%TD*%
D54*
%TO.C,D1*%
X86249999Y-70249999D03*
X83749999Y-70249999D03*
%TD*%
M02*
