  0
SECTION
  2
HEADER
  9
$ANGBASE
  50
0.0
  9
$ANGDIR
  70
1
  9
$MEASUREMENT
  70
0
  0
ENDSEC
  0
SECTION
  2
TABLES
  0
TABLE
  2
LTYPE
  70
4
  0
LTYPE
  5
40F
  2
CONTINUOUS
  70
0
  3
Solid line
  72
65
  73
0
  40
0.0
  0
LTYPE
  5
410
  2
DASHDOT
 70
0
  3
Dash Dot ____ _ ____ _
 72
65
 73
4
 40
2.0
 49
1.25
 49
-0.25
 49
0.25
 49
-0.25
  0
LTYPE
  5
411
  2
DASHED
 70
0
  3
Dashed __ __ __ __ __
 72
65
 73
2
 40
0.75
 49
0.5
 49
-0.25
  0
LTYPE
  5
43B
  2
DOTTED
 70
0
  3
Dotted .  .  .  .
 72
65
 73
2
 40
0.2
 49
0.0
 49
-0.2
  0
ENDTAB
  0
TABLE
  2
STYLE
  70
4
  0
STYLE
  2
KICAD
  70
0
  40
0
  41
1
  42
1
  50
0
  71
0
  3
isocp.shx
  0
STYLE
  2
KICADB
  70
0
  40
0
  41
1
  42
1
  50
0
  71
0
  3
isocp.shx
  0
STYLE
  2
KICADI
  70
0
  40
0
  41
1
  42
1
  50
15
  71
0
  3
isocp.shx
  0
STYLE
  2
KICADBI
  70
0
  40
0
  41
1
  42
1
  50
15
  71
0
  3
isocp.shx
  0
ENDTAB
  0
TABLE
  2
LAYER
  70
1
  0
LAYER
  2
BLACK
  70
0
  62
7
  6
CONTINUOUS
  0
ENDTAB
  0
ENDSEC
  0
SECTION
  2
ENTITIES
0
LINE
8
BLACK
6
CONTINUOUS
10
2.71654
20
-5.90551
11
8.70079
21
-5.90551
0
LINE
8
BLACK
6
CONTINUOUS
10
8.66929
20
-2.41142
11
9.13386
21
-2.41142
0
ARC
8
BLACK
10
8.66929
20
-5.29528
40
0.0787402
50
-180
51
-90
0
ARC
8
BLACK
10
2.71654
20
-1.53543
40
0.15748
50
90
51
180
0
LINE
8
BLACK
6
CONTINUOUS
10
9.13386
20
-4.87205
11
8.66929
21
-4.87205
0
ARC
8
BLACK
10
2.71654
20
-5.74803
40
0.15748
50
-180
51
-90
0
ARC
8
BLACK
10
8.77953
20
-5.45276
40
0.0787402
50
-0
51
90
0
LINE
8
BLACK
6
CONTINUOUS
10
8.59055
20
-1.98819
11
8.59055
21
-2.33268
0
LINE
8
BLACK
6
CONTINUOUS
10
2.71654
20
-1.37795
11
8.70079
21
-1.37795
0
ARC
8
BLACK
10
8.77953
20
-1.83071
40
0.0787402
50
-90
51
-0
0
LINE
8
BLACK
6
CONTINUOUS
10
8.85827
20
-5.45276
11
8.85827
21
-5.74803
0
ARC
8
BLACK
10
8.70079
20
-1.53543
40
0.15748
50
-0
51
90
0
LINE
8
BLACK
6
CONTINUOUS
10
8.66929
20
-5.37402
11
8.77953
21
-5.37402
0
LINE
8
BLACK
6
CONTINUOUS
10
2.55906
20
-1.53543
11
2.55906
21
-5.74803
0
ARC
8
BLACK
10
8.66929
20
-4.95079
40
0.0787402
50
90
51
180
0
ARC
8
BLACK
10
8.70079
20
-5.74803
40
0.15748
50
-90
51
-0
0
ARC
8
BLACK
10
8.66929
20
-2.33268
40
0.0787402
50
-180
51
-90
0
ARC
8
BLACK
10
8.66929
20
-1.98819
40
0.0787402
50
90
51
180
0
LINE
8
BLACK
6
CONTINUOUS
10
8.59055
20
-4.95079
11
8.59055
21
-5.29528
0
LINE
8
BLACK
6
CONTINUOUS
10
8.85827
20
-1.53543
11
8.85827
21
-1.83071
0
LINE
8
BLACK
6
CONTINUOUS
10
9.13386
20
-2.41142
11
9.13386
21
-4.87205
0
LINE
8
BLACK
6
CONTINUOUS
10
8.77953
20
-1.90945
11
8.66929
21
-1.90945
0
LINE
8
BLACK
6
CONTINUOUS
10
3.30512
20
-4.99114
11
3.34843
21
-5.03445
0
LINE
8
BLACK
6
CONTINUOUS
10
3.34843
20
-4.99114
11
3.30512
21
-5.03445
0
CIRCLE
8
BLACK
10
4.15354
20
-5.0128
40
0.0314961
0
LINE
8
BLACK
6
CONTINUOUS
10
2.69685
20
-1.89567
11
2.69685
21
-1.9626
0
LINE
8
BLACK
6
CONTINUOUS
10
2.66339
20
-1.92913
11
2.73031
21
-1.92913
0
LINE
8
BLACK
6
CONTINUOUS
10
2.69685
20
-2.48622
11
2.69685
21
-2.55315
0
LINE
8
BLACK
6
CONTINUOUS
10
2.66339
20
-2.51969
11
2.73031
21
-2.51969
0
LINE
8
BLACK
6
CONTINUOUS
10
2.69685
20
-3.07677
11
2.69685
21
-3.1437
0
LINE
8
BLACK
6
CONTINUOUS
10
2.66339
20
-3.11024
11
2.73031
21
-3.11024
0
LINE
8
BLACK
6
CONTINUOUS
10
2.97244
20
-1.89567
11
2.97244
21
-1.9626
0
LINE
8
BLACK
6
CONTINUOUS
10
2.93898
20
-1.92913
11
3.00591
21
-1.92913
0
LINE
8
BLACK
6
CONTINUOUS
10
2.97244
20
-2.48622
11
2.97244
21
-2.55315
0
LINE
8
BLACK
6
CONTINUOUS
10
2.93898
20
-2.51969
11
3.00591
21
-2.51969
0
LINE
8
BLACK
6
CONTINUOUS
10
2.97244
20
-3.07677
11
2.97244
21
-3.1437
0
LINE
8
BLACK
6
CONTINUOUS
10
2.93898
20
-3.11024
11
3.00591
21
-3.11024
0
LINE
8
BLACK
6
CONTINUOUS
10
4.92126
20
-1.48228
11
4.92126
21
-1.54921
0
LINE
8
BLACK
6
CONTINUOUS
10
4.8878
20
-1.51575
11
4.95472
21
-1.51575
0
LINE
8
BLACK
6
CONTINUOUS
10
4.92126
20
-1.75787
11
4.92126
21
-1.8248
0
LINE
8
BLACK
6
CONTINUOUS
10
4.8878
20
-1.79134
11
4.95472
21
-1.79134
0
LINE
8
BLACK
6
CONTINUOUS
10
2.76108
20
-1.57998
11
2.76108
21
-1.49089
0
LINE
8
BLACK
6
CONTINUOUS
10
2.76108
20
-1.49089
11
2.67199
21
-1.49089
0
LINE
8
BLACK
6
CONTINUOUS
10
2.67199
20
-1.49089
11
2.67199
21
-1.57998
0
LINE
8
BLACK
6
CONTINUOUS
10
2.67199
20
-1.57998
11
2.76108
21
-1.57998
0
LINE
8
BLACK
6
CONTINUOUS
10
2.76108
20
-5.79257
11
2.76108
21
-5.70349
0
LINE
8
BLACK
6
CONTINUOUS
10
2.76108
20
-5.70349
11
2.67199
21
-5.70349
0
LINE
8
BLACK
6
CONTINUOUS
10
2.67199
20
-5.70349
11
2.67199
21
-5.79257
0
LINE
8
BLACK
6
CONTINUOUS
10
2.67199
20
-5.79257
11
2.76108
21
-5.79257
0
LINE
8
BLACK
6
CONTINUOUS
10
8.74533
20
-1.57998
11
8.74533
21
-1.49089
0
LINE
8
BLACK
6
CONTINUOUS
10
8.74533
20
-1.49089
11
8.65624
21
-1.49089
0
LINE
8
BLACK
6
CONTINUOUS
10
8.65624
20
-1.49089
11
8.65624
21
-1.57998
0
LINE
8
BLACK
6
CONTINUOUS
10
8.65624
20
-1.57998
11
8.74533
21
-1.57998
0
LINE
8
BLACK
6
CONTINUOUS
10
8.74533
20
-5.79257
11
8.74533
21
-5.70349
0
LINE
8
BLACK
6
CONTINUOUS
10
8.74533
20
-5.70349
11
8.65624
21
-5.70349
0
LINE
8
BLACK
6
CONTINUOUS
10
8.65624
20
-5.70349
11
8.65624
21
-5.79257
0
LINE
8
BLACK
6
CONTINUOUS
10
8.65624
20
-5.79257
11
8.74533
21
-5.79257
0
LINE
8
BLACK
6
CONTINUOUS
10
2.65457
20
-6.02302
11
2.65457
21
-5.94428
0
LINE
8
BLACK
6
CONTINUOUS
10
2.65457
20
-5.94428
11
2.67332
21
-5.94428
0
LINE
8
BLACK
6
CONTINUOUS
10
2.67332
20
-5.94428
11
2.68457
21
-5.94803
0
LINE
8
BLACK
6
CONTINUOUS
10
2.68457
20
-5.94803
11
2.69207
21
-5.95553
0
LINE
8
BLACK
6
CONTINUOUS
10
2.69207
20
-5.95553
11
2.69582
21
-5.96303
0
LINE
8
BLACK
6
CONTINUOUS
10
2.69582
20
-5.96303
11
2.69957
21
-5.97803
0
LINE
8
BLACK
6
CONTINUOUS
10
2.69957
20
-5.97803
11
2.69957
21
-5.98928
0
LINE
8
BLACK
6
CONTINUOUS
10
2.69957
20
-5.98928
11
2.69582
21
-6.00427
0
LINE
8
BLACK
6
CONTINUOUS
10
2.69582
20
-6.00427
11
2.69207
21
-6.01177
0
LINE
8
BLACK
6
CONTINUOUS
10
2.69207
20
-6.01177
11
2.68457
21
-6.01927
0
LINE
8
BLACK
6
CONTINUOUS
10
2.68457
20
-6.01927
11
2.67332
21
-6.02302
0
LINE
8
BLACK
6
CONTINUOUS
10
2.67332
20
-6.02302
11
2.65457
21
-6.02302
0
LINE
8
BLACK
6
CONTINUOUS
10
2.73331
20
-6.02302
11
2.73331
21
-5.97053
0
LINE
8
BLACK
6
CONTINUOUS
10
2.73331
20
-5.98553
11
2.73706
21
-5.97803
0
LINE
8
BLACK
6
CONTINUOUS
10
2.73706
20
-5.97803
11
2.74081
21
-5.97428
0
LINE
8
BLACK
6
CONTINUOUS
10
2.74081
20
-5.97428
11
2.74831
21
-5.97053
0
LINE
8
BLACK
6
CONTINUOUS
10
2.74831
20
-5.97053
11
2.75581
21
-5.97053
0
LINE
8
BLACK
6
CONTINUOUS
10
2.78206
20
-6.02302
11
2.78206
21
-5.97053
0
LINE
8
BLACK
6
CONTINUOUS
10
2.78206
20
-5.94428
11
2.77831
21
-5.94803
0
LINE
8
BLACK
6
CONTINUOUS
10
2.77831
20
-5.94803
11
2.78206
21
-5.95178
0
LINE
8
BLACK
6
CONTINUOUS
10
2.78206
20
-5.95178
11
2.78581
21
-5.94803
0
LINE
8
BLACK
6
CONTINUOUS
10
2.78581
20
-5.94803
11
2.78206
21
-5.94428
0
LINE
8
BLACK
6
CONTINUOUS
10
2.78206
20
-5.94428
11
2.78206
21
-5.95178
0
LINE
8
BLACK
6
CONTINUOUS
10
2.8308
20
-6.02302
11
2.8233
21
-6.01927
0
LINE
8
BLACK
6
CONTINUOUS
10
2.8233
20
-6.01927
11
2.81955
21
-6.01177
0
LINE
8
BLACK
6
CONTINUOUS
10
2.81955
20
-6.01177
11
2.81955
21
-5.94428
0
LINE
8
BLACK
6
CONTINUOUS
10
2.87205
20
-6.02302
11
2.86455
21
-6.01927
0
LINE
8
BLACK
6
CONTINUOUS
10
2.86455
20
-6.01927
11
2.8608
21
-6.01177
0
LINE
8
BLACK
6
CONTINUOUS
10
2.8608
20
-6.01177
11
2.8608
21
-5.94428
0
LINE
8
BLACK
6
CONTINUOUS
10
2.94929
20
-6.02302
11
2.94929
21
-5.94428
0
LINE
8
BLACK
6
CONTINUOUS
10
2.94929
20
-5.94428
11
2.97553
21
-6.00052
0
LINE
8
BLACK
6
CONTINUOUS
10
2.97553
20
-6.00052
11
3.00178
21
-5.94428
0
LINE
8
BLACK
6
CONTINUOUS
10
3.00178
20
-5.94428
11
3.00178
21
-6.02302
0
LINE
8
BLACK
6
CONTINUOUS
10
3.07302
20
-6.02302
11
3.07302
21
-5.98178
0
LINE
8
BLACK
6
CONTINUOUS
10
3.07302
20
-5.98178
11
3.06927
21
-5.97428
0
LINE
8
BLACK
6
CONTINUOUS
10
3.06927
20
-5.97428
11
3.06177
21
-5.97053
0
LINE
8
BLACK
6
CONTINUOUS
10
3.06177
20
-5.97053
11
3.04678
21
-5.97053
0
LINE
8
BLACK
6
CONTINUOUS
10
3.04678
20
-5.97053
11
3.03928
21
-5.97428
0
LINE
8
BLACK
6
CONTINUOUS
10
3.07302
20
-6.01927
11
3.06552
21
-6.02302
0
LINE
8
BLACK
6
CONTINUOUS
10
3.06552
20
-6.02302
11
3.04678
21
-6.02302
0
LINE
8
BLACK
6
CONTINUOUS
10
3.04678
20
-6.02302
11
3.03928
21
-6.01927
0
LINE
8
BLACK
6
CONTINUOUS
10
3.03928
20
-6.01927
11
3.03553
21
-6.01177
0
LINE
8
BLACK
6
CONTINUOUS
10
3.03553
20
-6.01177
11
3.03553
21
-6.00427
0
LINE
8
BLACK
6
CONTINUOUS
10
3.03553
20
-6.00427
11
3.03928
21
-5.99678
0
LINE
8
BLACK
6
CONTINUOUS
10
3.03928
20
-5.99678
11
3.04678
21
-5.99303
0
LINE
8
BLACK
6
CONTINUOUS
10
3.04678
20
-5.99303
11
3.06552
21
-5.99303
0
LINE
8
BLACK
6
CONTINUOUS
10
3.06552
20
-5.99303
11
3.07302
21
-5.98928
0
LINE
8
BLACK
6
CONTINUOUS
10
3.11052
20
-5.97053
11
3.11052
21
-6.04927
0
LINE
8
BLACK
6
CONTINUOUS
10
3.11052
20
-5.97428
11
3.11802
21
-5.97053
0
LINE
8
BLACK
6
CONTINUOUS
10
3.11802
20
-5.97053
11
3.13301
21
-5.97053
0
LINE
8
BLACK
6
CONTINUOUS
10
3.13301
20
-5.97053
11
3.14051
21
-5.97428
0
LINE
8
BLACK
6
CONTINUOUS
10
3.14051
20
-5.97428
11
3.14426
21
-5.97803
0
LINE
8
BLACK
6
CONTINUOUS
10
3.14426
20
-5.97803
11
3.14801
21
-5.98553
0
LINE
8
BLACK
6
CONTINUOUS
10
3.14801
20
-5.98553
11
3.14801
21
-6.00802
0
LINE
8
BLACK
6
CONTINUOUS
10
3.14801
20
-6.00802
11
3.14426
21
-6.01552
0
LINE
8
BLACK
6
CONTINUOUS
10
3.14426
20
-6.01552
11
3.14051
21
-6.01927
0
LINE
8
BLACK
6
CONTINUOUS
10
3.14051
20
-6.01927
11
3.13301
21
-6.02302
0
LINE
8
BLACK
6
CONTINUOUS
10
3.13301
20
-6.02302
11
3.11802
21
-6.02302
0
LINE
8
BLACK
6
CONTINUOUS
10
3.11802
20
-6.02302
11
3.11052
21
-6.01927
0
LINE
8
BLACK
6
CONTINUOUS
10
3.18176
20
-6.01552
11
3.18551
21
-6.01927
0
LINE
8
BLACK
6
CONTINUOUS
10
3.18551
20
-6.01927
11
3.18176
21
-6.02302
0
LINE
8
BLACK
6
CONTINUOUS
10
3.18176
20
-6.02302
11
3.17801
21
-6.01927
0
LINE
8
BLACK
6
CONTINUOUS
10
3.17801
20
-6.01927
11
3.18176
21
-6.01552
0
LINE
8
BLACK
6
CONTINUOUS
10
3.18176
20
-6.01552
11
3.18176
21
-6.02302
0
LINE
8
BLACK
6
CONTINUOUS
10
3.18176
20
-5.97428
11
3.18551
21
-5.97803
0
LINE
8
BLACK
6
CONTINUOUS
10
3.18551
20
-5.97803
11
3.18176
21
-5.98178
0
LINE
8
BLACK
6
CONTINUOUS
10
3.18176
20
-5.98178
11
3.17801
21
-5.97803
0
LINE
8
BLACK
6
CONTINUOUS
10
3.17801
20
-5.97803
11
3.18176
21
-5.97428
0
LINE
8
BLACK
6
CONTINUOUS
10
3.18176
20
-5.97428
11
3.18176
21
-5.98178
0
LINE
8
BLACK
6
CONTINUOUS
10
2.51378
20
-6.1378
11
2.55709
21
-6.1811
0
LINE
8
BLACK
6
CONTINUOUS
10
2.55709
20
-6.1378
11
2.51378
21
-6.1811
0
LINE
8
BLACK
6
CONTINUOUS
10
2.69582
20
-6.18838
11
2.65082
21
-6.18838
0
LINE
8
BLACK
6
CONTINUOUS
10
2.67332
20
-6.18838
11
2.67332
21
-6.10964
0
LINE
8
BLACK
6
CONTINUOUS
10
2.67332
20
-6.10964
11
2.66582
21
-6.12088
0
LINE
8
BLACK
6
CONTINUOUS
10
2.66582
20
-6.12088
11
2.65832
21
-6.12838
0
LINE
8
BLACK
6
CONTINUOUS
10
2.65832
20
-6.12838
11
2.65082
21
-6.13213
0
LINE
8
BLACK
6
CONTINUOUS
10
2.72957
20
-6.18088
11
2.73331
21
-6.18463
0
LINE
8
BLACK
6
CONTINUOUS
10
2.73331
20
-6.18463
11
2.72957
21
-6.18838
0
LINE
8
BLACK
6
CONTINUOUS
10
2.72957
20
-6.18838
11
2.72582
21
-6.18463
0
LINE
8
BLACK
6
CONTINUOUS
10
2.72582
20
-6.18463
11
2.72957
21
-6.18088
0
LINE
8
BLACK
6
CONTINUOUS
10
2.72957
20
-6.18088
11
2.72957
21
-6.18838
0
LINE
8
BLACK
6
CONTINUOUS
10
2.80831
20
-6.18838
11
2.76331
21
-6.18838
0
LINE
8
BLACK
6
CONTINUOUS
10
2.78581
20
-6.18838
11
2.78581
21
-6.10964
0
LINE
8
BLACK
6
CONTINUOUS
10
2.78581
20
-6.10964
11
2.77831
21
-6.12088
0
LINE
8
BLACK
6
CONTINUOUS
10
2.77831
20
-6.12088
11
2.77081
21
-6.12838
0
LINE
8
BLACK
6
CONTINUOUS
10
2.77081
20
-6.12838
11
2.76331
21
-6.13213
0
LINE
8
BLACK
6
CONTINUOUS
10
2.85705
20
-6.10964
11
2.86455
21
-6.10964
0
LINE
8
BLACK
6
CONTINUOUS
10
2.86455
20
-6.10964
11
2.87205
21
-6.11339
0
LINE
8
BLACK
6
CONTINUOUS
10
2.87205
20
-6.11339
11
2.8758
21
-6.11714
0
LINE
8
BLACK
6
CONTINUOUS
10
2.8758
20
-6.11714
11
2.87955
21
-6.12463
0
LINE
8
BLACK
6
CONTINUOUS
10
2.87955
20
-6.12463
11
2.8833
21
-6.13963
0
LINE
8
BLACK
6
CONTINUOUS
10
2.8833
20
-6.13963
11
2.8833
21
-6.15838
0
LINE
8
BLACK
6
CONTINUOUS
10
2.8833
20
-6.15838
11
2.87955
21
-6.17338
0
LINE
8
BLACK
6
CONTINUOUS
10
2.87955
20
-6.17338
11
2.8758
21
-6.18088
0
LINE
8
BLACK
6
CONTINUOUS
10
2.8758
20
-6.18088
11
2.87205
21
-6.18463
0
LINE
8
BLACK
6
CONTINUOUS
10
2.87205
20
-6.18463
11
2.86455
21
-6.18838
0
LINE
8
BLACK
6
CONTINUOUS
10
2.86455
20
-6.18838
11
2.85705
21
-6.18838
0
LINE
8
BLACK
6
CONTINUOUS
10
2.85705
20
-6.18838
11
2.84955
21
-6.18463
0
LINE
8
BLACK
6
CONTINUOUS
10
2.84955
20
-6.18463
11
2.8458
21
-6.18088
0
LINE
8
BLACK
6
CONTINUOUS
10
2.8458
20
-6.18088
11
2.84205
21
-6.17338
0
LINE
8
BLACK
6
CONTINUOUS
10
2.84205
20
-6.17338
11
2.8383
21
-6.15838
0
LINE
8
BLACK
6
CONTINUOUS
10
2.8383
20
-6.15838
11
2.8383
21
-6.13963
0
LINE
8
BLACK
6
CONTINUOUS
10
2.8383
20
-6.13963
11
2.84205
21
-6.12463
0
LINE
8
BLACK
6
CONTINUOUS
10
2.84205
20
-6.12463
11
2.8458
21
-6.11714
0
LINE
8
BLACK
6
CONTINUOUS
10
2.8458
20
-6.11714
11
2.84955
21
-6.11339
0
LINE
8
BLACK
6
CONTINUOUS
10
2.84955
20
-6.11339
11
2.85705
21
-6.10964
0
LINE
8
BLACK
6
CONTINUOUS
10
2.93204
20
-6.10964
11
2.93954
21
-6.10964
0
LINE
8
BLACK
6
CONTINUOUS
10
2.93954
20
-6.10964
11
2.94704
21
-6.11339
0
LINE
8
BLACK
6
CONTINUOUS
10
2.94704
20
-6.11339
11
2.95079
21
-6.11714
0
LINE
8
BLACK
6
CONTINUOUS
10
2.95079
20
-6.11714
11
2.95454
21
-6.12463
0
LINE
8
BLACK
6
CONTINUOUS
10
2.95454
20
-6.12463
11
2.95829
21
-6.13963
0
LINE
8
BLACK
6
CONTINUOUS
10
2.95829
20
-6.13963
11
2.95829
21
-6.15838
0
LINE
8
BLACK
6
CONTINUOUS
10
2.95829
20
-6.15838
11
2.95454
21
-6.17338
0
LINE
8
BLACK
6
CONTINUOUS
10
2.95454
20
-6.17338
11
2.95079
21
-6.18088
0
LINE
8
BLACK
6
CONTINUOUS
10
2.95079
20
-6.18088
11
2.94704
21
-6.18463
0
LINE
8
BLACK
6
CONTINUOUS
10
2.94704
20
-6.18463
11
2.93954
21
-6.18838
0
LINE
8
BLACK
6
CONTINUOUS
10
2.93954
20
-6.18838
11
2.93204
21
-6.18838
0
LINE
8
BLACK
6
CONTINUOUS
10
2.93204
20
-6.18838
11
2.92454
21
-6.18463
0
LINE
8
BLACK
6
CONTINUOUS
10
2.92454
20
-6.18463
11
2.92079
21
-6.18088
0
LINE
8
BLACK
6
CONTINUOUS
10
2.92079
20
-6.18088
11
2.91704
21
-6.17338
0
LINE
8
BLACK
6
CONTINUOUS
10
2.91704
20
-6.17338
11
2.91329
21
-6.15838
0
LINE
8
BLACK
6
CONTINUOUS
10
2.91329
20
-6.15838
11
2.91329
21
-6.13963
0
LINE
8
BLACK
6
CONTINUOUS
10
2.91329
20
-6.13963
11
2.91704
21
-6.12463
0
LINE
8
BLACK
6
CONTINUOUS
10
2.91704
20
-6.12463
11
2.92079
21
-6.11714
0
LINE
8
BLACK
6
CONTINUOUS
10
2.92079
20
-6.11714
11
2.92454
21
-6.11339
0
LINE
8
BLACK
6
CONTINUOUS
10
2.92454
20
-6.11339
11
2.93204
21
-6.10964
0
LINE
8
BLACK
6
CONTINUOUS
10
2.99203
20
-6.18838
11
2.99203
21
-6.13588
0
LINE
8
BLACK
6
CONTINUOUS
10
2.99203
20
-6.14338
11
2.99578
21
-6.13963
0
LINE
8
BLACK
6
CONTINUOUS
10
2.99578
20
-6.13963
11
3.00328
21
-6.13588
0
LINE
8
BLACK
6
CONTINUOUS
10
3.00328
20
-6.13588
11
3.01453
21
-6.13588
0
LINE
8
BLACK
6
CONTINUOUS
10
3.01453
20
-6.13588
11
3.02203
21
-6.13963
0
LINE
8
BLACK
6
CONTINUOUS
10
3.02203
20
-6.13963
11
3.02578
21
-6.14713
0
LINE
8
BLACK
6
CONTINUOUS
10
3.02578
20
-6.14713
11
3.02578
21
-6.18838
0
LINE
8
BLACK
6
CONTINUOUS
10
3.02578
20
-6.14713
11
3.02953
21
-6.13963
0
LINE
8
BLACK
6
CONTINUOUS
10
3.02953
20
-6.13963
11
3.03703
21
-6.13588
0
LINE
8
BLACK
6
CONTINUOUS
10
3.03703
20
-6.13588
11
3.04828
21
-6.13588
0
LINE
8
BLACK
6
CONTINUOUS
10
3.04828
20
-6.13588
11
3.05577
21
-6.13963
0
LINE
8
BLACK
6
CONTINUOUS
10
3.05577
20
-6.13963
11
3.05952
21
-6.14713
0
LINE
8
BLACK
6
CONTINUOUS
10
3.05952
20
-6.14713
11
3.05952
21
-6.18838
0
LINE
8
BLACK
6
CONTINUOUS
10
3.09702
20
-6.18838
11
3.09702
21
-6.13588
0
LINE
8
BLACK
6
CONTINUOUS
10
3.09702
20
-6.14338
11
3.10077
21
-6.13963
0
LINE
8
BLACK
6
CONTINUOUS
10
3.10077
20
-6.13963
11
3.10827
21
-6.13588
0
LINE
8
BLACK
6
CONTINUOUS
10
3.10827
20
-6.13588
11
3.11952
21
-6.13588
0
LINE
8
BLACK
6
CONTINUOUS
10
3.11952
20
-6.13588
11
3.12702
21
-6.13963
0
LINE
8
BLACK
6
CONTINUOUS
10
3.12702
20
-6.13963
11
3.13076
21
-6.14713
0
LINE
8
BLACK
6
CONTINUOUS
10
3.13076
20
-6.14713
11
3.13076
21
-6.18838
0
LINE
8
BLACK
6
CONTINUOUS
10
3.13076
20
-6.14713
11
3.13451
21
-6.13963
0
LINE
8
BLACK
6
CONTINUOUS
10
3.13451
20
-6.13963
11
3.14201
21
-6.13588
0
LINE
8
BLACK
6
CONTINUOUS
10
3.14201
20
-6.13588
11
3.15326
21
-6.13588
0
LINE
8
BLACK
6
CONTINUOUS
10
3.15326
20
-6.13588
11
3.16076
21
-6.13963
0
LINE
8
BLACK
6
CONTINUOUS
10
3.16076
20
-6.13963
11
3.16451
21
-6.14713
0
LINE
8
BLACK
6
CONTINUOUS
10
3.16451
20
-6.14713
11
3.16451
21
-6.18838
0
LINE
8
BLACK
6
CONTINUOUS
10
3.30549
20
-6.10589
11
3.238
21
-6.20712
0
LINE
8
BLACK
6
CONTINUOUS
10
3.39398
20
-6.10964
11
3.40148
21
-6.10964
0
LINE
8
BLACK
6
CONTINUOUS
10
3.40148
20
-6.10964
11
3.40898
21
-6.11339
0
LINE
8
BLACK
6
CONTINUOUS
10
3.40898
20
-6.11339
11
3.41273
21
-6.11714
0
LINE
8
BLACK
6
CONTINUOUS
10
3.41273
20
-6.11714
11
3.41648
21
-6.12463
0
LINE
8
BLACK
6
CONTINUOUS
10
3.41648
20
-6.12463
11
3.42023
21
-6.13963
0
LINE
8
BLACK
6
CONTINUOUS
10
3.42023
20
-6.13963
11
3.42023
21
-6.15838
0
LINE
8
BLACK
6
CONTINUOUS
10
3.42023
20
-6.15838
11
3.41648
21
-6.17338
0
LINE
8
BLACK
6
CONTINUOUS
10
3.41648
20
-6.17338
11
3.41273
21
-6.18088
0
LINE
8
BLACK
6
CONTINUOUS
10
3.41273
20
-6.18088
11
3.40898
21
-6.18463
0
LINE
8
BLACK
6
CONTINUOUS
10
3.40898
20
-6.18463
11
3.40148
21
-6.18838
0
LINE
8
BLACK
6
CONTINUOUS
10
3.40148
20
-6.18838
11
3.39398
21
-6.18838
0
LINE
8
BLACK
6
CONTINUOUS
10
3.39398
20
-6.18838
11
3.38648
21
-6.18463
0
LINE
8
BLACK
6
CONTINUOUS
10
3.38648
20
-6.18463
11
3.38273
21
-6.18088
0
LINE
8
BLACK
6
CONTINUOUS
10
3.38273
20
-6.18088
11
3.37898
21
-6.17338
0
LINE
8
BLACK
6
CONTINUOUS
10
3.37898
20
-6.17338
11
3.37523
21
-6.15838
0
LINE
8
BLACK
6
CONTINUOUS
10
3.37523
20
-6.15838
11
3.37523
21
-6.13963
0
LINE
8
BLACK
6
CONTINUOUS
10
3.37523
20
-6.13963
11
3.37898
21
-6.12463
0
LINE
8
BLACK
6
CONTINUOUS
10
3.37898
20
-6.12463
11
3.38273
21
-6.11714
0
LINE
8
BLACK
6
CONTINUOUS
10
3.38273
20
-6.11714
11
3.38648
21
-6.11339
0
LINE
8
BLACK
6
CONTINUOUS
10
3.38648
20
-6.11339
11
3.39398
21
-6.10964
0
LINE
8
BLACK
6
CONTINUOUS
10
3.45397
20
-6.18088
11
3.45772
21
-6.18463
0
LINE
8
BLACK
6
CONTINUOUS
10
3.45772
20
-6.18463
11
3.45397
21
-6.18838
0
LINE
8
BLACK
6
CONTINUOUS
10
3.45397
20
-6.18838
11
3.45023
21
-6.18463
0
LINE
8
BLACK
6
CONTINUOUS
10
3.45023
20
-6.18463
11
3.45397
21
-6.18088
0
LINE
8
BLACK
6
CONTINUOUS
10
3.45397
20
-6.18088
11
3.45397
21
-6.18838
0
LINE
8
BLACK
6
CONTINUOUS
10
3.50647
20
-6.10964
11
3.51397
21
-6.10964
0
LINE
8
BLACK
6
CONTINUOUS
10
3.51397
20
-6.10964
11
3.52147
21
-6.11339
0
LINE
8
BLACK
6
CONTINUOUS
10
3.52147
20
-6.11339
11
3.52522
21
-6.11714
0
LINE
8
BLACK
6
CONTINUOUS
10
3.52522
20
-6.11714
11
3.52897
21
-6.12463
0
LINE
8
BLACK
6
CONTINUOUS
10
3.52897
20
-6.12463
11
3.53271
21
-6.13963
0
LINE
8
BLACK
6
CONTINUOUS
10
3.53271
20
-6.13963
11
3.53271
21
-6.15838
0
LINE
8
BLACK
6
CONTINUOUS
10
3.53271
20
-6.15838
11
3.52897
21
-6.17338
0
LINE
8
BLACK
6
CONTINUOUS
10
3.52897
20
-6.17338
11
3.52522
21
-6.18088
0
LINE
8
BLACK
6
CONTINUOUS
10
3.52522
20
-6.18088
11
3.52147
21
-6.18463
0
LINE
8
BLACK
6
CONTINUOUS
10
3.52147
20
-6.18463
11
3.51397
21
-6.18838
0
LINE
8
BLACK
6
CONTINUOUS
10
3.51397
20
-6.18838
11
3.50647
21
-6.18838
0
LINE
8
BLACK
6
CONTINUOUS
10
3.50647
20
-6.18838
11
3.49897
21
-6.18463
0
LINE
8
BLACK
6
CONTINUOUS
10
3.49897
20
-6.18463
11
3.49522
21
-6.18088
0
LINE
8
BLACK
6
CONTINUOUS
10
3.49522
20
-6.18088
11
3.49147
21
-6.17338
0
LINE
8
BLACK
6
CONTINUOUS
10
3.49147
20
-6.17338
11
3.48772
21
-6.15838
0
LINE
8
BLACK
6
CONTINUOUS
10
3.48772
20
-6.15838
11
3.48772
21
-6.13963
0
LINE
8
BLACK
6
CONTINUOUS
10
3.48772
20
-6.13963
11
3.49147
21
-6.12463
0
LINE
8
BLACK
6
CONTINUOUS
10
3.49147
20
-6.12463
11
3.49522
21
-6.11714
0
LINE
8
BLACK
6
CONTINUOUS
10
3.49522
20
-6.11714
11
3.49897
21
-6.11339
0
LINE
8
BLACK
6
CONTINUOUS
10
3.49897
20
-6.11339
11
3.50647
21
-6.10964
0
LINE
8
BLACK
6
CONTINUOUS
10
3.60021
20
-6.13588
11
3.60021
21
-6.18838
0
LINE
8
BLACK
6
CONTINUOUS
10
3.58146
20
-6.10589
11
3.56271
21
-6.16213
0
LINE
8
BLACK
6
CONTINUOUS
10
3.56271
20
-6.16213
11
3.61145
21
-6.16213
0
LINE
8
BLACK
6
CONTINUOUS
10
3.63395
20
-6.10964
11
3.6827
21
-6.10964
0
LINE
8
BLACK
6
CONTINUOUS
10
3.6827
20
-6.10964
11
3.65645
21
-6.13963
0
LINE
8
BLACK
6
CONTINUOUS
10
3.65645
20
-6.13963
11
3.6677
21
-6.13963
0
LINE
8
BLACK
6
CONTINUOUS
10
3.6677
20
-6.13963
11
3.6752
21
-6.14338
0
LINE
8
BLACK
6
CONTINUOUS
10
3.6752
20
-6.14338
11
3.67895
21
-6.14713
0
LINE
8
BLACK
6
CONTINUOUS
10
3.67895
20
-6.14713
11
3.6827
21
-6.15463
0
LINE
8
BLACK
6
CONTINUOUS
10
3.6827
20
-6.15463
11
3.6827
21
-6.17338
0
LINE
8
BLACK
6
CONTINUOUS
10
3.6827
20
-6.17338
11
3.67895
21
-6.18088
0
LINE
8
BLACK
6
CONTINUOUS
10
3.67895
20
-6.18088
11
3.6752
21
-6.18463
0
LINE
8
BLACK
6
CONTINUOUS
10
3.6752
20
-6.18463
11
3.6677
21
-6.18838
0
LINE
8
BLACK
6
CONTINUOUS
10
3.6677
20
-6.18838
11
3.6452
21
-6.18838
0
LINE
8
BLACK
6
CONTINUOUS
10
3.6452
20
-6.18838
11
3.6377
21
-6.18463
0
LINE
8
BLACK
6
CONTINUOUS
10
3.6377
20
-6.18463
11
3.63395
21
-6.18088
0
LINE
8
BLACK
6
CONTINUOUS
10
3.70894
20
-6.10964
11
3.75769
21
-6.10964
0
LINE
8
BLACK
6
CONTINUOUS
10
3.75769
20
-6.10964
11
3.73144
21
-6.13963
0
LINE
8
BLACK
6
CONTINUOUS
10
3.73144
20
-6.13963
11
3.74269
21
-6.13963
0
LINE
8
BLACK
6
CONTINUOUS
10
3.74269
20
-6.13963
11
3.75019
21
-6.14338
0
LINE
8
BLACK
6
CONTINUOUS
10
3.75019
20
-6.14338
11
3.75394
21
-6.14713
0
LINE
8
BLACK
6
CONTINUOUS
10
3.75394
20
-6.14713
11
3.75769
21
-6.15463
0
LINE
8
BLACK
6
CONTINUOUS
10
3.75769
20
-6.15463
11
3.75769
21
-6.17338
0
LINE
8
BLACK
6
CONTINUOUS
10
3.75769
20
-6.17338
11
3.75394
21
-6.18088
0
LINE
8
BLACK
6
CONTINUOUS
10
3.75394
20
-6.18088
11
3.75019
21
-6.18463
0
LINE
8
BLACK
6
CONTINUOUS
10
3.75019
20
-6.18463
11
3.74269
21
-6.18838
0
LINE
8
BLACK
6
CONTINUOUS
10
3.74269
20
-6.18838
11
3.72019
21
-6.18838
0
LINE
8
BLACK
6
CONTINUOUS
10
3.72019
20
-6.18838
11
3.71269
21
-6.18463
0
LINE
8
BLACK
6
CONTINUOUS
10
3.71269
20
-6.18463
11
3.70894
21
-6.18088
0
LINE
8
BLACK
6
CONTINUOUS
10
3.78768
20
-6.10964
11
3.78768
21
-6.12463
0
LINE
8
BLACK
6
CONTINUOUS
10
3.81768
20
-6.10964
11
3.81768
21
-6.12463
0
LINE
8
BLACK
6
CONTINUOUS
10
3.92117
20
-6.21837
11
3.91742
21
-6.21462
0
LINE
8
BLACK
6
CONTINUOUS
10
3.91742
20
-6.21462
11
3.90992
21
-6.20337
0
LINE
8
BLACK
6
CONTINUOUS
10
3.90992
20
-6.20337
11
3.90617
21
-6.19588
0
LINE
8
BLACK
6
CONTINUOUS
10
3.90617
20
-6.19588
11
3.90242
21
-6.18463
0
LINE
8
BLACK
6
CONTINUOUS
10
3.90242
20
-6.18463
11
3.89867
21
-6.16588
0
LINE
8
BLACK
6
CONTINUOUS
10
3.89867
20
-6.16588
11
3.89867
21
-6.15088
0
LINE
8
BLACK
6
CONTINUOUS
10
3.89867
20
-6.15088
11
3.90242
21
-6.13213
0
LINE
8
BLACK
6
CONTINUOUS
10
3.90242
20
-6.13213
11
3.90617
21
-6.12088
0
LINE
8
BLACK
6
CONTINUOUS
10
3.90617
20
-6.12088
11
3.90992
21
-6.11339
0
LINE
8
BLACK
6
CONTINUOUS
10
3.90992
20
-6.11339
11
3.91742
21
-6.10214
0
LINE
8
BLACK
6
CONTINUOUS
10
3.91742
20
-6.10214
11
3.92117
21
-6.09839
0
LINE
8
BLACK
6
CONTINUOUS
10
3.99241
20
-6.18838
11
3.94741
21
-6.18838
0
LINE
8
BLACK
6
CONTINUOUS
10
3.96991
20
-6.18838
11
3.96991
21
-6.10964
0
LINE
8
BLACK
6
CONTINUOUS
10
3.96991
20
-6.10964
11
3.96241
21
-6.12088
0
LINE
8
BLACK
6
CONTINUOUS
10
3.96241
20
-6.12088
11
3.95491
21
-6.12838
0
LINE
8
BLACK
6
CONTINUOUS
10
3.95491
20
-6.12838
11
3.94741
21
-6.13213
0
LINE
8
BLACK
6
CONTINUOUS
10
4.0734
20
-6.18838
11
4.0734
21
-6.10964
0
LINE
8
BLACK
6
CONTINUOUS
10
4.10714
20
-6.18838
11
4.10714
21
-6.14713
0
LINE
8
BLACK
6
CONTINUOUS
10
4.10714
20
-6.14713
11
4.10339
21
-6.13963
0
LINE
8
BLACK
6
CONTINUOUS
10
4.10339
20
-6.13963
11
4.09589
21
-6.13588
0
LINE
8
BLACK
6
CONTINUOUS
10
4.09589
20
-6.13588
11
4.08465
21
-6.13588
0
LINE
8
BLACK
6
CONTINUOUS
10
4.08465
20
-6.13588
11
4.07715
21
-6.13963
0
LINE
8
BLACK
6
CONTINUOUS
10
4.07715
20
-6.13963
11
4.0734
21
-6.14338
0
LINE
8
BLACK
6
CONTINUOUS
10
4.15589
20
-6.18838
11
4.14839
21
-6.18463
0
LINE
8
BLACK
6
CONTINUOUS
10
4.14839
20
-6.18463
11
4.14464
21
-6.18088
0
LINE
8
BLACK
6
CONTINUOUS
10
4.14464
20
-6.18088
11
4.14089
21
-6.17338
0
LINE
8
BLACK
6
CONTINUOUS
10
4.14089
20
-6.17338
11
4.14089
21
-6.15088
0
LINE
8
BLACK
6
CONTINUOUS
10
4.14089
20
-6.15088
11
4.14464
21
-6.14338
0
LINE
8
BLACK
6
CONTINUOUS
10
4.14464
20
-6.14338
11
4.14839
21
-6.13963
0
LINE
8
BLACK
6
CONTINUOUS
10
4.14839
20
-6.13963
11
4.15589
21
-6.13588
0
LINE
8
BLACK
6
CONTINUOUS
10
4.15589
20
-6.13588
11
4.16714
21
-6.13588
0
LINE
8
BLACK
6
CONTINUOUS
10
4.16714
20
-6.13588
11
4.17463
21
-6.13963
0
LINE
8
BLACK
6
CONTINUOUS
10
4.17463
20
-6.13963
11
4.17838
21
-6.14338
0
LINE
8
BLACK
6
CONTINUOUS
10
4.17838
20
-6.14338
11
4.18213
21
-6.15088
0
LINE
8
BLACK
6
CONTINUOUS
10
4.18213
20
-6.15088
11
4.18213
21
-6.17338
0
LINE
8
BLACK
6
CONTINUOUS
10
4.18213
20
-6.17338
11
4.17838
21
-6.18088
0
LINE
8
BLACK
6
CONTINUOUS
10
4.17838
20
-6.18088
11
4.17463
21
-6.18463
0
LINE
8
BLACK
6
CONTINUOUS
10
4.17463
20
-6.18463
11
4.16714
21
-6.18838
0
LINE
8
BLACK
6
CONTINUOUS
10
4.16714
20
-6.18838
11
4.15589
21
-6.18838
0
LINE
8
BLACK
6
CONTINUOUS
10
4.22713
20
-6.18838
11
4.21963
21
-6.18463
0
LINE
8
BLACK
6
CONTINUOUS
10
4.21963
20
-6.18463
11
4.21588
21
-6.17713
0
LINE
8
BLACK
6
CONTINUOUS
10
4.21588
20
-6.17713
11
4.21588
21
-6.10964
0
LINE
8
BLACK
6
CONTINUOUS
10
4.28712
20
-6.18463
11
4.27962
21
-6.18838
0
LINE
8
BLACK
6
CONTINUOUS
10
4.27962
20
-6.18838
11
4.26462
21
-6.18838
0
LINE
8
BLACK
6
CONTINUOUS
10
4.26462
20
-6.18838
11
4.25712
21
-6.18463
0
LINE
8
BLACK
6
CONTINUOUS
10
4.25712
20
-6.18463
11
4.25337
21
-6.17713
0
LINE
8
BLACK
6
CONTINUOUS
10
4.25337
20
-6.17713
11
4.25337
21
-6.14713
0
LINE
8
BLACK
6
CONTINUOUS
10
4.25337
20
-6.14713
11
4.25712
21
-6.13963
0
LINE
8
BLACK
6
CONTINUOUS
10
4.25712
20
-6.13963
11
4.26462
21
-6.13588
0
LINE
8
BLACK
6
CONTINUOUS
10
4.26462
20
-6.13588
11
4.27962
21
-6.13588
0
LINE
8
BLACK
6
CONTINUOUS
10
4.27962
20
-6.13588
11
4.28712
21
-6.13963
0
LINE
8
BLACK
6
CONTINUOUS
10
4.28712
20
-6.13963
11
4.29087
21
-6.14713
0
LINE
8
BLACK
6
CONTINUOUS
10
4.29087
20
-6.14713
11
4.29087
21
-6.15463
0
LINE
8
BLACK
6
CONTINUOUS
10
4.29087
20
-6.15463
11
4.25337
21
-6.16213
0
LINE
8
BLACK
6
CONTINUOUS
10
4.31712
20
-6.21837
11
4.32087
21
-6.21462
0
LINE
8
BLACK
6
CONTINUOUS
10
4.32087
20
-6.21462
11
4.32837
21
-6.20337
0
LINE
8
BLACK
6
CONTINUOUS
10
4.32837
20
-6.20337
11
4.33211
21
-6.19588
0
LINE
8
BLACK
6
CONTINUOUS
10
4.33211
20
-6.19588
11
4.33586
21
-6.18463
0
LINE
8
BLACK
6
CONTINUOUS
10
4.33586
20
-6.18463
11
4.33961
21
-6.16588
0
LINE
8
BLACK
6
CONTINUOUS
10
4.33961
20
-6.16588
11
4.33961
21
-6.15088
0
LINE
8
BLACK
6
CONTINUOUS
10
4.33961
20
-6.15088
11
4.33586
21
-6.13213
0
LINE
8
BLACK
6
CONTINUOUS
10
4.33586
20
-6.13213
11
4.33211
21
-6.12088
0
LINE
8
BLACK
6
CONTINUOUS
10
4.33211
20
-6.12088
11
4.32837
21
-6.11339
0
LINE
8
BLACK
6
CONTINUOUS
10
4.32837
20
-6.11339
11
4.32087
21
-6.10214
0
LINE
8
BLACK
6
CONTINUOUS
10
4.32087
20
-6.10214
11
4.31712
21
-6.09839
0
LINE
8
BLACK
6
CONTINUOUS
10
4.44685
20
-6.21837
11
4.4431
21
-6.21462
0
LINE
8
BLACK
6
CONTINUOUS
10
4.4431
20
-6.21462
11
4.4356
21
-6.20337
0
LINE
8
BLACK
6
CONTINUOUS
10
4.4356
20
-6.20337
11
4.43185
21
-6.19588
0
LINE
8
BLACK
6
CONTINUOUS
10
4.43185
20
-6.19588
11
4.4281
21
-6.18463
0
LINE
8
BLACK
6
CONTINUOUS
10
4.4281
20
-6.18463
11
4.42435
21
-6.16588
0
LINE
8
BLACK
6
CONTINUOUS
10
4.42435
20
-6.16588
11
4.42435
21
-6.15088
0
LINE
8
BLACK
6
CONTINUOUS
10
4.42435
20
-6.15088
11
4.4281
21
-6.13213
0
LINE
8
BLACK
6
CONTINUOUS
10
4.4281
20
-6.13213
11
4.43185
21
-6.12088
0
LINE
8
BLACK
6
CONTINUOUS
10
4.43185
20
-6.12088
11
4.4356
21
-6.11339
0
LINE
8
BLACK
6
CONTINUOUS
10
4.4356
20
-6.11339
11
4.4431
21
-6.10214
0
LINE
8
BLACK
6
CONTINUOUS
10
4.4431
20
-6.10214
11
4.44685
21
-6.09839
0
LINE
8
BLACK
6
CONTINUOUS
10
4.47685
20
-6.13588
11
4.47685
21
-6.18838
0
LINE
8
BLACK
6
CONTINUOUS
10
4.47685
20
-6.14338
11
4.4806
21
-6.13963
0
LINE
8
BLACK
6
CONTINUOUS
10
4.4806
20
-6.13963
11
4.4881
21
-6.13588
0
LINE
8
BLACK
6
CONTINUOUS
10
4.4881
20
-6.13588
11
4.49934
21
-6.13588
0
LINE
8
BLACK
6
CONTINUOUS
10
4.49934
20
-6.13588
11
4.50684
21
-6.13963
0
LINE
8
BLACK
6
CONTINUOUS
10
4.50684
20
-6.13963
11
4.51059
21
-6.14713
0
LINE
8
BLACK
6
CONTINUOUS
10
4.51059
20
-6.14713
11
4.51059
21
-6.18838
0
LINE
8
BLACK
6
CONTINUOUS
10
4.55934
20
-6.18838
11
4.55184
21
-6.18463
0
LINE
8
BLACK
6
CONTINUOUS
10
4.55184
20
-6.18463
11
4.54809
21
-6.18088
0
LINE
8
BLACK
6
CONTINUOUS
10
4.54809
20
-6.18088
11
4.54434
21
-6.17338
0
LINE
8
BLACK
6
CONTINUOUS
10
4.54434
20
-6.17338
11
4.54434
21
-6.15088
0
LINE
8
BLACK
6
CONTINUOUS
10
4.54434
20
-6.15088
11
4.54809
21
-6.14338
0
LINE
8
BLACK
6
CONTINUOUS
10
4.54809
20
-6.14338
11
4.55184
21
-6.13963
0
LINE
8
BLACK
6
CONTINUOUS
10
4.55184
20
-6.13963
11
4.55934
21
-6.13588
0
LINE
8
BLACK
6
CONTINUOUS
10
4.55934
20
-6.13588
11
4.57058
21
-6.13588
0
LINE
8
BLACK
6
CONTINUOUS
10
4.57058
20
-6.13588
11
4.57808
21
-6.13963
0
LINE
8
BLACK
6
CONTINUOUS
10
4.57808
20
-6.13963
11
4.58183
21
-6.14338
0
LINE
8
BLACK
6
CONTINUOUS
10
4.58183
20
-6.14338
11
4.58558
21
-6.15088
0
LINE
8
BLACK
6
CONTINUOUS
10
4.58558
20
-6.15088
11
4.58558
21
-6.17338
0
LINE
8
BLACK
6
CONTINUOUS
10
4.58558
20
-6.17338
11
4.58183
21
-6.18088
0
LINE
8
BLACK
6
CONTINUOUS
10
4.58183
20
-6.18088
11
4.57808
21
-6.18463
0
LINE
8
BLACK
6
CONTINUOUS
10
4.57808
20
-6.18463
11
4.57058
21
-6.18838
0
LINE
8
BLACK
6
CONTINUOUS
10
4.57058
20
-6.18838
11
4.55934
21
-6.18838
0
LINE
8
BLACK
6
CONTINUOUS
10
4.60808
20
-6.13588
11
4.63808
21
-6.13588
0
LINE
8
BLACK
6
CONTINUOUS
10
4.61933
20
-6.10964
11
4.61933
21
-6.17713
0
LINE
8
BLACK
6
CONTINUOUS
10
4.61933
20
-6.17713
11
4.62308
21
-6.18463
0
LINE
8
BLACK
6
CONTINUOUS
10
4.62308
20
-6.18463
11
4.63058
21
-6.18838
0
LINE
8
BLACK
6
CONTINUOUS
10
4.63058
20
-6.18838
11
4.63808
21
-6.18838
0
LINE
8
BLACK
6
CONTINUOUS
10
4.71157
20
-6.13588
11
4.71157
21
-6.21462
0
LINE
8
BLACK
6
CONTINUOUS
10
4.71157
20
-6.13963
11
4.71907
21
-6.13588
0
LINE
8
BLACK
6
CONTINUOUS
10
4.71907
20
-6.13588
11
4.73406
21
-6.13588
0
LINE
8
BLACK
6
CONTINUOUS
10
4.73406
20
-6.13588
11
4.74156
21
-6.13963
0
LINE
8
BLACK
6
CONTINUOUS
10
4.74156
20
-6.13963
11
4.74531
21
-6.14338
0
LINE
8
BLACK
6
CONTINUOUS
10
4.74531
20
-6.14338
11
4.74906
21
-6.15088
0
LINE
8
BLACK
6
CONTINUOUS
10
4.74906
20
-6.15088
11
4.74906
21
-6.17338
0
LINE
8
BLACK
6
CONTINUOUS
10
4.74906
20
-6.17338
11
4.74531
21
-6.18088
0
LINE
8
BLACK
6
CONTINUOUS
10
4.74531
20
-6.18088
11
4.74156
21
-6.18463
0
LINE
8
BLACK
6
CONTINUOUS
10
4.74156
20
-6.18463
11
4.73406
21
-6.18838
0
LINE
8
BLACK
6
CONTINUOUS
10
4.73406
20
-6.18838
11
4.71907
21
-6.18838
0
LINE
8
BLACK
6
CONTINUOUS
10
4.71907
20
-6.18838
11
4.71157
21
-6.18463
0
LINE
8
BLACK
6
CONTINUOUS
10
4.79406
20
-6.18838
11
4.78656
21
-6.18463
0
LINE
8
BLACK
6
CONTINUOUS
10
4.78656
20
-6.18463
11
4.78281
21
-6.17713
0
LINE
8
BLACK
6
CONTINUOUS
10
4.78281
20
-6.17713
11
4.78281
21
-6.10964
0
LINE
8
BLACK
6
CONTINUOUS
10
4.8578
20
-6.18838
11
4.8578
21
-6.14713
0
LINE
8
BLACK
6
CONTINUOUS
10
4.8578
20
-6.14713
11
4.85405
21
-6.13963
0
LINE
8
BLACK
6
CONTINUOUS
10
4.85405
20
-6.13963
11
4.84655
21
-6.13588
0
LINE
8
BLACK
6
CONTINUOUS
10
4.84655
20
-6.13588
11
4.83155
21
-6.13588
0
LINE
8
BLACK
6
CONTINUOUS
10
4.83155
20
-6.13588
11
4.82405
21
-6.13963
0
LINE
8
BLACK
6
CONTINUOUS
10
4.8578
20
-6.18463
11
4.8503
21
-6.18838
0
LINE
8
BLACK
6
CONTINUOUS
10
4.8503
20
-6.18838
11
4.83155
21
-6.18838
0
LINE
8
BLACK
6
CONTINUOUS
10
4.83155
20
-6.18838
11
4.82405
21
-6.18463
0
LINE
8
BLACK
6
CONTINUOUS
10
4.82405
20
-6.18463
11
4.8203
21
-6.17713
0
LINE
8
BLACK
6
CONTINUOUS
10
4.8203
20
-6.17713
11
4.8203
21
-6.16963
0
LINE
8
BLACK
6
CONTINUOUS
10
4.8203
20
-6.16963
11
4.82405
21
-6.16213
0
LINE
8
BLACK
6
CONTINUOUS
10
4.82405
20
-6.16213
11
4.83155
21
-6.15838
0
LINE
8
BLACK
6
CONTINUOUS
10
4.83155
20
-6.15838
11
4.8503
21
-6.15838
0
LINE
8
BLACK
6
CONTINUOUS
10
4.8503
20
-6.15838
11
4.8578
21
-6.15463
0
LINE
8
BLACK
6
CONTINUOUS
10
4.88405
20
-6.13588
11
4.91404
21
-6.13588
0
LINE
8
BLACK
6
CONTINUOUS
10
4.89529
20
-6.10964
11
4.89529
21
-6.17713
0
LINE
8
BLACK
6
CONTINUOUS
10
4.89529
20
-6.17713
11
4.89904
21
-6.18463
0
LINE
8
BLACK
6
CONTINUOUS
10
4.89904
20
-6.18463
11
4.90654
21
-6.18838
0
LINE
8
BLACK
6
CONTINUOUS
10
4.90654
20
-6.18838
11
4.91404
21
-6.18838
0
LINE
8
BLACK
6
CONTINUOUS
10
4.97029
20
-6.18463
11
4.96279
21
-6.18838
0
LINE
8
BLACK
6
CONTINUOUS
10
4.96279
20
-6.18838
11
4.94779
21
-6.18838
0
LINE
8
BLACK
6
CONTINUOUS
10
4.94779
20
-6.18838
11
4.94029
21
-6.18463
0
LINE
8
BLACK
6
CONTINUOUS
10
4.94029
20
-6.18463
11
4.93654
21
-6.17713
0
LINE
8
BLACK
6
CONTINUOUS
10
4.93654
20
-6.17713
11
4.93654
21
-6.14713
0
LINE
8
BLACK
6
CONTINUOUS
10
4.93654
20
-6.14713
11
4.94029
21
-6.13963
0
LINE
8
BLACK
6
CONTINUOUS
10
4.94029
20
-6.13963
11
4.94779
21
-6.13588
0
LINE
8
BLACK
6
CONTINUOUS
10
4.94779
20
-6.13588
11
4.96279
21
-6.13588
0
LINE
8
BLACK
6
CONTINUOUS
10
4.96279
20
-6.13588
11
4.97029
21
-6.13963
0
LINE
8
BLACK
6
CONTINUOUS
10
4.97029
20
-6.13963
11
4.97403
21
-6.14713
0
LINE
8
BLACK
6
CONTINUOUS
10
4.97403
20
-6.14713
11
4.97403
21
-6.15463
0
LINE
8
BLACK
6
CONTINUOUS
10
4.97403
20
-6.15463
11
4.93654
21
-6.16213
0
LINE
8
BLACK
6
CONTINUOUS
10
5.04153
20
-6.18838
11
5.04153
21
-6.10964
0
LINE
8
BLACK
6
CONTINUOUS
10
5.04153
20
-6.18463
11
5.03403
21
-6.18838
0
LINE
8
BLACK
6
CONTINUOUS
10
5.03403
20
-6.18838
11
5.01903
21
-6.18838
0
LINE
8
BLACK
6
CONTINUOUS
10
5.01903
20
-6.18838
11
5.01153
21
-6.18463
0
LINE
8
BLACK
6
CONTINUOUS
10
5.01153
20
-6.18463
11
5.00778
21
-6.18088
0
LINE
8
BLACK
6
CONTINUOUS
10
5.00778
20
-6.18088
11
5.00403
21
-6.17338
0
LINE
8
BLACK
6
CONTINUOUS
10
5.00403
20
-6.17338
11
5.00403
21
-6.15088
0
LINE
8
BLACK
6
CONTINUOUS
10
5.00403
20
-6.15088
11
5.00778
21
-6.14338
0
LINE
8
BLACK
6
CONTINUOUS
10
5.00778
20
-6.14338
11
5.01153
21
-6.13963
0
LINE
8
BLACK
6
CONTINUOUS
10
5.01153
20
-6.13963
11
5.01903
21
-6.13588
0
LINE
8
BLACK
6
CONTINUOUS
10
5.01903
20
-6.13588
11
5.03403
21
-6.13588
0
LINE
8
BLACK
6
CONTINUOUS
10
5.03403
20
-6.13588
11
5.04153
21
-6.13963
0
LINE
8
BLACK
6
CONTINUOUS
10
5.07152
20
-6.21837
11
5.07527
21
-6.21462
0
LINE
8
BLACK
6
CONTINUOUS
10
5.07527
20
-6.21462
11
5.08277
21
-6.20337
0
LINE
8
BLACK
6
CONTINUOUS
10
5.08277
20
-6.20337
11
5.08652
21
-6.19588
0
LINE
8
BLACK
6
CONTINUOUS
10
5.08652
20
-6.19588
11
5.09027
21
-6.18463
0
LINE
8
BLACK
6
CONTINUOUS
10
5.09027
20
-6.18463
11
5.09402
21
-6.16588
0
LINE
8
BLACK
6
CONTINUOUS
10
5.09402
20
-6.16588
11
5.09402
21
-6.15088
0
LINE
8
BLACK
6
CONTINUOUS
10
5.09402
20
-6.15088
11
5.09027
21
-6.13213
0
LINE
8
BLACK
6
CONTINUOUS
10
5.09027
20
-6.13213
11
5.08652
21
-6.12088
0
LINE
8
BLACK
6
CONTINUOUS
10
5.08652
20
-6.12088
11
5.08277
21
-6.11339
0
LINE
8
BLACK
6
CONTINUOUS
10
5.08277
20
-6.11339
11
5.07527
21
-6.10214
0
LINE
8
BLACK
6
CONTINUOUS
10
5.07527
20
-6.10214
11
5.07152
21
-6.09839
0
CIRCLE
8
BLACK
10
2.52559
20
-6.26339
40
0.0314961
0
LINE
8
BLACK
6
CONTINUOUS
10
2.69582
20
-6.29231
11
2.65082
21
-6.29231
0
LINE
8
BLACK
6
CONTINUOUS
10
2.67332
20
-6.29231
11
2.67332
21
-6.21357
0
LINE
8
BLACK
6
CONTINUOUS
10
2.67332
20
-6.21357
11
2.66582
21
-6.22482
0
LINE
8
BLACK
6
CONTINUOUS
10
2.66582
20
-6.22482
11
2.65832
21
-6.23232
0
LINE
8
BLACK
6
CONTINUOUS
10
2.65832
20
-6.23232
11
2.65082
21
-6.23607
0
LINE
8
BLACK
6
CONTINUOUS
10
2.72957
20
-6.28481
11
2.73331
21
-6.28856
0
LINE
8
BLACK
6
CONTINUOUS
10
2.73331
20
-6.28856
11
2.72957
21
-6.29231
0
LINE
8
BLACK
6
CONTINUOUS
10
2.72957
20
-6.29231
11
2.72582
21
-6.28856
0
LINE
8
BLACK
6
CONTINUOUS
10
2.72582
20
-6.28856
11
2.72957
21
-6.28481
0
LINE
8
BLACK
6
CONTINUOUS
10
2.72957
20
-6.28481
11
2.72957
21
-6.29231
0
LINE
8
BLACK
6
CONTINUOUS
10
2.80081
20
-6.21357
11
2.78581
21
-6.21357
0
LINE
8
BLACK
6
CONTINUOUS
10
2.78581
20
-6.21357
11
2.77831
21
-6.21732
0
LINE
8
BLACK
6
CONTINUOUS
10
2.77831
20
-6.21732
11
2.77456
21
-6.22107
0
LINE
8
BLACK
6
CONTINUOUS
10
2.77456
20
-6.22107
11
2.76706
21
-6.23232
0
LINE
8
BLACK
6
CONTINUOUS
10
2.76706
20
-6.23232
11
2.76331
21
-6.24732
0
LINE
8
BLACK
6
CONTINUOUS
10
2.76331
20
-6.24732
11
2.76331
21
-6.27732
0
LINE
8
BLACK
6
CONTINUOUS
10
2.76331
20
-6.27732
11
2.76706
21
-6.28481
0
LINE
8
BLACK
6
CONTINUOUS
10
2.76706
20
-6.28481
11
2.77081
21
-6.28856
0
LINE
8
BLACK
6
CONTINUOUS
10
2.77081
20
-6.28856
11
2.77831
21
-6.29231
0
LINE
8
BLACK
6
CONTINUOUS
10
2.77831
20
-6.29231
11
2.79331
21
-6.29231
0
LINE
8
BLACK
6
CONTINUOUS
10
2.79331
20
-6.29231
11
2.80081
21
-6.28856
0
LINE
8
BLACK
6
CONTINUOUS
10
2.80081
20
-6.28856
11
2.80456
21
-6.28481
0
LINE
8
BLACK
6
CONTINUOUS
10
2.80456
20
-6.28481
11
2.80831
21
-6.27732
0
LINE
8
BLACK
6
CONTINUOUS
10
2.80831
20
-6.27732
11
2.80831
21
-6.25857
0
LINE
8
BLACK
6
CONTINUOUS
10
2.80831
20
-6.25857
11
2.80456
21
-6.25107
0
LINE
8
BLACK
6
CONTINUOUS
10
2.80456
20
-6.25107
11
2.80081
21
-6.24732
0
LINE
8
BLACK
6
CONTINUOUS
10
2.80081
20
-6.24732
11
2.79331
21
-6.24357
0
LINE
8
BLACK
6
CONTINUOUS
10
2.79331
20
-6.24357
11
2.77831
21
-6.24357
0
LINE
8
BLACK
6
CONTINUOUS
10
2.77831
20
-6.24357
11
2.77081
21
-6.24732
0
LINE
8
BLACK
6
CONTINUOUS
10
2.77081
20
-6.24732
11
2.76706
21
-6.25107
0
LINE
8
BLACK
6
CONTINUOUS
10
2.76706
20
-6.25107
11
2.76331
21
-6.25857
0
LINE
8
BLACK
6
CONTINUOUS
10
2.85705
20
-6.21357
11
2.86455
21
-6.21357
0
LINE
8
BLACK
6
CONTINUOUS
10
2.86455
20
-6.21357
11
2.87205
21
-6.21732
0
LINE
8
BLACK
6
CONTINUOUS
10
2.87205
20
-6.21732
11
2.8758
21
-6.22107
0
LINE
8
BLACK
6
CONTINUOUS
10
2.8758
20
-6.22107
11
2.87955
21
-6.22857
0
LINE
8
BLACK
6
CONTINUOUS
10
2.87955
20
-6.22857
11
2.8833
21
-6.24357
0
LINE
8
BLACK
6
CONTINUOUS
10
2.8833
20
-6.24357
11
2.8833
21
-6.26232
0
LINE
8
BLACK
6
CONTINUOUS
10
2.8833
20
-6.26232
11
2.87955
21
-6.27732
0
LINE
8
BLACK
6
CONTINUOUS
10
2.87955
20
-6.27732
11
2.8758
21
-6.28481
0
LINE
8
BLACK
6
CONTINUOUS
10
2.8758
20
-6.28481
11
2.87205
21
-6.28856
0
LINE
8
BLACK
6
CONTINUOUS
10
2.87205
20
-6.28856
11
2.86455
21
-6.29231
0
LINE
8
BLACK
6
CONTINUOUS
10
2.86455
20
-6.29231
11
2.85705
21
-6.29231
0
LINE
8
BLACK
6
CONTINUOUS
10
2.85705
20
-6.29231
11
2.84955
21
-6.28856
0
LINE
8
BLACK
6
CONTINUOUS
10
2.84955
20
-6.28856
11
2.8458
21
-6.28481
0
LINE
8
BLACK
6
CONTINUOUS
10
2.8458
20
-6.28481
11
2.84205
21
-6.27732
0
LINE
8
BLACK
6
CONTINUOUS
10
2.84205
20
-6.27732
11
2.8383
21
-6.26232
0
LINE
8
BLACK
6
CONTINUOUS
10
2.8383
20
-6.26232
11
2.8383
21
-6.24357
0
LINE
8
BLACK
6
CONTINUOUS
10
2.8383
20
-6.24357
11
2.84205
21
-6.22857
0
LINE
8
BLACK
6
CONTINUOUS
10
2.84205
20
-6.22857
11
2.8458
21
-6.22107
0
LINE
8
BLACK
6
CONTINUOUS
10
2.8458
20
-6.22107
11
2.84955
21
-6.21732
0
LINE
8
BLACK
6
CONTINUOUS
10
2.84955
20
-6.21732
11
2.85705
21
-6.21357
0
LINE
8
BLACK
6
CONTINUOUS
10
2.93204
20
-6.21357
11
2.93954
21
-6.21357
0
LINE
8
BLACK
6
CONTINUOUS
10
2.93954
20
-6.21357
11
2.94704
21
-6.21732
0
LINE
8
BLACK
6
CONTINUOUS
10
2.94704
20
-6.21732
11
2.95079
21
-6.22107
0
LINE
8
BLACK
6
CONTINUOUS
10
2.95079
20
-6.22107
11
2.95454
21
-6.22857
0
LINE
8
BLACK
6
CONTINUOUS
10
2.95454
20
-6.22857
11
2.95829
21
-6.24357
0
LINE
8
BLACK
6
CONTINUOUS
10
2.95829
20
-6.24357
11
2.95829
21
-6.26232
0
LINE
8
BLACK
6
CONTINUOUS
10
2.95829
20
-6.26232
11
2.95454
21
-6.27732
0
LINE
8
BLACK
6
CONTINUOUS
10
2.95454
20
-6.27732
11
2.95079
21
-6.28481
0
LINE
8
BLACK
6
CONTINUOUS
10
2.95079
20
-6.28481
11
2.94704
21
-6.28856
0
LINE
8
BLACK
6
CONTINUOUS
10
2.94704
20
-6.28856
11
2.93954
21
-6.29231
0
LINE
8
BLACK
6
CONTINUOUS
10
2.93954
20
-6.29231
11
2.93204
21
-6.29231
0
LINE
8
BLACK
6
CONTINUOUS
10
2.93204
20
-6.29231
11
2.92454
21
-6.28856
0
LINE
8
BLACK
6
CONTINUOUS
10
2.92454
20
-6.28856
11
2.92079
21
-6.28481
0
LINE
8
BLACK
6
CONTINUOUS
10
2.92079
20
-6.28481
11
2.91704
21
-6.27732
0
LINE
8
BLACK
6
CONTINUOUS
10
2.91704
20
-6.27732
11
2.91329
21
-6.26232
0
LINE
8
BLACK
6
CONTINUOUS
10
2.91329
20
-6.26232
11
2.91329
21
-6.24357
0
LINE
8
BLACK
6
CONTINUOUS
10
2.91329
20
-6.24357
11
2.91704
21
-6.22857
0
LINE
8
BLACK
6
CONTINUOUS
10
2.91704
20
-6.22857
11
2.92079
21
-6.22107
0
LINE
8
BLACK
6
CONTINUOUS
10
2.92079
20
-6.22107
11
2.92454
21
-6.21732
0
LINE
8
BLACK
6
CONTINUOUS
10
2.92454
20
-6.21732
11
2.93204
21
-6.21357
0
LINE
8
BLACK
6
CONTINUOUS
10
2.99203
20
-6.29231
11
2.99203
21
-6.23982
0
LINE
8
BLACK
6
CONTINUOUS
10
2.99203
20
-6.24732
11
2.99578
21
-6.24357
0
LINE
8
BLACK
6
CONTINUOUS
10
2.99578
20
-6.24357
11
3.00328
21
-6.23982
0
LINE
8
BLACK
6
CONTINUOUS
10
3.00328
20
-6.23982
11
3.01453
21
-6.23982
0
LINE
8
BLACK
6
CONTINUOUS
10
3.01453
20
-6.23982
11
3.02203
21
-6.24357
0
LINE
8
BLACK
6
CONTINUOUS
10
3.02203
20
-6.24357
11
3.02578
21
-6.25107
0
LINE
8
BLACK
6
CONTINUOUS
10
3.02578
20
-6.25107
11
3.02578
21
-6.29231
0
LINE
8
BLACK
6
CONTINUOUS
10
3.02578
20
-6.25107
11
3.02953
21
-6.24357
0
LINE
8
BLACK
6
CONTINUOUS
10
3.02953
20
-6.24357
11
3.03703
21
-6.23982
0
LINE
8
BLACK
6
CONTINUOUS
10
3.03703
20
-6.23982
11
3.04828
21
-6.23982
0
LINE
8
BLACK
6
CONTINUOUS
10
3.04828
20
-6.23982
11
3.05577
21
-6.24357
0
LINE
8
BLACK
6
CONTINUOUS
10
3.05577
20
-6.24357
11
3.05952
21
-6.25107
0
LINE
8
BLACK
6
CONTINUOUS
10
3.05952
20
-6.25107
11
3.05952
21
-6.29231
0
LINE
8
BLACK
6
CONTINUOUS
10
3.09702
20
-6.29231
11
3.09702
21
-6.23982
0
LINE
8
BLACK
6
CONTINUOUS
10
3.09702
20
-6.24732
11
3.10077
21
-6.24357
0
LINE
8
BLACK
6
CONTINUOUS
10
3.10077
20
-6.24357
11
3.10827
21
-6.23982
0
LINE
8
BLACK
6
CONTINUOUS
10
3.10827
20
-6.23982
11
3.11952
21
-6.23982
0
LINE
8
BLACK
6
CONTINUOUS
10
3.11952
20
-6.23982
11
3.12702
21
-6.24357
0
LINE
8
BLACK
6
CONTINUOUS
10
3.12702
20
-6.24357
11
3.13076
21
-6.25107
0
LINE
8
BLACK
6
CONTINUOUS
10
3.13076
20
-6.25107
11
3.13076
21
-6.29231
0
LINE
8
BLACK
6
CONTINUOUS
10
3.13076
20
-6.25107
11
3.13451
21
-6.24357
0
LINE
8
BLACK
6
CONTINUOUS
10
3.13451
20
-6.24357
11
3.14201
21
-6.23982
0
LINE
8
BLACK
6
CONTINUOUS
10
3.14201
20
-6.23982
11
3.15326
21
-6.23982
0
LINE
8
BLACK
6
CONTINUOUS
10
3.15326
20
-6.23982
11
3.16076
21
-6.24357
0
LINE
8
BLACK
6
CONTINUOUS
10
3.16076
20
-6.24357
11
3.16451
21
-6.25107
0
LINE
8
BLACK
6
CONTINUOUS
10
3.16451
20
-6.25107
11
3.16451
21
-6.29231
0
LINE
8
BLACK
6
CONTINUOUS
10
3.30549
20
-6.20982
11
3.238
21
-6.31106
0
LINE
8
BLACK
6
CONTINUOUS
10
3.39398
20
-6.21357
11
3.40148
21
-6.21357
0
LINE
8
BLACK
6
CONTINUOUS
10
3.40148
20
-6.21357
11
3.40898
21
-6.21732
0
LINE
8
BLACK
6
CONTINUOUS
10
3.40898
20
-6.21732
11
3.41273
21
-6.22107
0
LINE
8
BLACK
6
CONTINUOUS
10
3.41273
20
-6.22107
11
3.41648
21
-6.22857
0
LINE
8
BLACK
6
CONTINUOUS
10
3.41648
20
-6.22857
11
3.42023
21
-6.24357
0
LINE
8
BLACK
6
CONTINUOUS
10
3.42023
20
-6.24357
11
3.42023
21
-6.26232
0
LINE
8
BLACK
6
CONTINUOUS
10
3.42023
20
-6.26232
11
3.41648
21
-6.27732
0
LINE
8
BLACK
6
CONTINUOUS
10
3.41648
20
-6.27732
11
3.41273
21
-6.28481
0
LINE
8
BLACK
6
CONTINUOUS
10
3.41273
20
-6.28481
11
3.40898
21
-6.28856
0
LINE
8
BLACK
6
CONTINUOUS
10
3.40898
20
-6.28856
11
3.40148
21
-6.29231
0
LINE
8
BLACK
6
CONTINUOUS
10
3.40148
20
-6.29231
11
3.39398
21
-6.29231
0
LINE
8
BLACK
6
CONTINUOUS
10
3.39398
20
-6.29231
11
3.38648
21
-6.28856
0
LINE
8
BLACK
6
CONTINUOUS
10
3.38648
20
-6.28856
11
3.38273
21
-6.28481
0
LINE
8
BLACK
6
CONTINUOUS
10
3.38273
20
-6.28481
11
3.37898
21
-6.27732
0
LINE
8
BLACK
6
CONTINUOUS
10
3.37898
20
-6.27732
11
3.37523
21
-6.26232
0
LINE
8
BLACK
6
CONTINUOUS
10
3.37523
20
-6.26232
11
3.37523
21
-6.24357
0
LINE
8
BLACK
6
CONTINUOUS
10
3.37523
20
-6.24357
11
3.37898
21
-6.22857
0
LINE
8
BLACK
6
CONTINUOUS
10
3.37898
20
-6.22857
11
3.38273
21
-6.22107
0
LINE
8
BLACK
6
CONTINUOUS
10
3.38273
20
-6.22107
11
3.38648
21
-6.21732
0
LINE
8
BLACK
6
CONTINUOUS
10
3.38648
20
-6.21732
11
3.39398
21
-6.21357
0
LINE
8
BLACK
6
CONTINUOUS
10
3.45397
20
-6.28481
11
3.45772
21
-6.28856
0
LINE
8
BLACK
6
CONTINUOUS
10
3.45772
20
-6.28856
11
3.45397
21
-6.29231
0
LINE
8
BLACK
6
CONTINUOUS
10
3.45397
20
-6.29231
11
3.45023
21
-6.28856
0
LINE
8
BLACK
6
CONTINUOUS
10
3.45023
20
-6.28856
11
3.45397
21
-6.28481
0
LINE
8
BLACK
6
CONTINUOUS
10
3.45397
20
-6.28481
11
3.45397
21
-6.29231
0
LINE
8
BLACK
6
CONTINUOUS
10
3.50647
20
-6.21357
11
3.51397
21
-6.21357
0
LINE
8
BLACK
6
CONTINUOUS
10
3.51397
20
-6.21357
11
3.52147
21
-6.21732
0
LINE
8
BLACK
6
CONTINUOUS
10
3.52147
20
-6.21732
11
3.52522
21
-6.22107
0
LINE
8
BLACK
6
CONTINUOUS
10
3.52522
20
-6.22107
11
3.52897
21
-6.22857
0
LINE
8
BLACK
6
CONTINUOUS
10
3.52897
20
-6.22857
11
3.53271
21
-6.24357
0
LINE
8
BLACK
6
CONTINUOUS
10
3.53271
20
-6.24357
11
3.53271
21
-6.26232
0
LINE
8
BLACK
6
CONTINUOUS
10
3.53271
20
-6.26232
11
3.52897
21
-6.27732
0
LINE
8
BLACK
6
CONTINUOUS
10
3.52897
20
-6.27732
11
3.52522
21
-6.28481
0
LINE
8
BLACK
6
CONTINUOUS
10
3.52522
20
-6.28481
11
3.52147
21
-6.28856
0
LINE
8
BLACK
6
CONTINUOUS
10
3.52147
20
-6.28856
11
3.51397
21
-6.29231
0
LINE
8
BLACK
6
CONTINUOUS
10
3.51397
20
-6.29231
11
3.50647
21
-6.29231
0
LINE
8
BLACK
6
CONTINUOUS
10
3.50647
20
-6.29231
11
3.49897
21
-6.28856
0
LINE
8
BLACK
6
CONTINUOUS
10
3.49897
20
-6.28856
11
3.49522
21
-6.28481
0
LINE
8
BLACK
6
CONTINUOUS
10
3.49522
20
-6.28481
11
3.49147
21
-6.27732
0
LINE
8
BLACK
6
CONTINUOUS
10
3.49147
20
-6.27732
11
3.48772
21
-6.26232
0
LINE
8
BLACK
6
CONTINUOUS
10
3.48772
20
-6.26232
11
3.48772
21
-6.24357
0
LINE
8
BLACK
6
CONTINUOUS
10
3.48772
20
-6.24357
11
3.49147
21
-6.22857
0
LINE
8
BLACK
6
CONTINUOUS
10
3.49147
20
-6.22857
11
3.49522
21
-6.22107
0
LINE
8
BLACK
6
CONTINUOUS
10
3.49522
20
-6.22107
11
3.49897
21
-6.21732
0
LINE
8
BLACK
6
CONTINUOUS
10
3.49897
20
-6.21732
11
3.50647
21
-6.21357
0
LINE
8
BLACK
6
CONTINUOUS
10
3.60021
20
-6.21357
11
3.58521
21
-6.21357
0
LINE
8
BLACK
6
CONTINUOUS
10
3.58521
20
-6.21357
11
3.57771
21
-6.21732
0
LINE
8
BLACK
6
CONTINUOUS
10
3.57771
20
-6.21732
11
3.57396
21
-6.22107
0
LINE
8
BLACK
6
CONTINUOUS
10
3.57396
20
-6.22107
11
3.56646
21
-6.23232
0
LINE
8
BLACK
6
CONTINUOUS
10
3.56646
20
-6.23232
11
3.56271
21
-6.24732
0
LINE
8
BLACK
6
CONTINUOUS
10
3.56271
20
-6.24732
11
3.56271
21
-6.27732
0
LINE
8
BLACK
6
CONTINUOUS
10
3.56271
20
-6.27732
11
3.56646
21
-6.28481
0
LINE
8
BLACK
6
CONTINUOUS
10
3.56646
20
-6.28481
11
3.57021
21
-6.28856
0
LINE
8
BLACK
6
CONTINUOUS
10
3.57021
20
-6.28856
11
3.57771
21
-6.29231
0
LINE
8
BLACK
6
CONTINUOUS
10
3.57771
20
-6.29231
11
3.59271
21
-6.29231
0
LINE
8
BLACK
6
CONTINUOUS
10
3.59271
20
-6.29231
11
3.60021
21
-6.28856
0
LINE
8
BLACK
6
CONTINUOUS
10
3.60021
20
-6.28856
11
3.60396
21
-6.28481
0
LINE
8
BLACK
6
CONTINUOUS
10
3.60396
20
-6.28481
11
3.60771
21
-6.27732
0
LINE
8
BLACK
6
CONTINUOUS
10
3.60771
20
-6.27732
11
3.60771
21
-6.25857
0
LINE
8
BLACK
6
CONTINUOUS
10
3.60771
20
-6.25857
11
3.60396
21
-6.25107
0
LINE
8
BLACK
6
CONTINUOUS
10
3.60396
20
-6.25107
11
3.60021
21
-6.24732
0
LINE
8
BLACK
6
CONTINUOUS
10
3.60021
20
-6.24732
11
3.59271
21
-6.24357
0
LINE
8
BLACK
6
CONTINUOUS
10
3.59271
20
-6.24357
11
3.57771
21
-6.24357
0
LINE
8
BLACK
6
CONTINUOUS
10
3.57771
20
-6.24357
11
3.57021
21
-6.24732
0
LINE
8
BLACK
6
CONTINUOUS
10
3.57021
20
-6.24732
11
3.56646
21
-6.25107
0
LINE
8
BLACK
6
CONTINUOUS
10
3.56646
20
-6.25107
11
3.56271
21
-6.25857
0
LINE
8
BLACK
6
CONTINUOUS
10
3.63395
20
-6.21357
11
3.6827
21
-6.21357
0
LINE
8
BLACK
6
CONTINUOUS
10
3.6827
20
-6.21357
11
3.65645
21
-6.24357
0
LINE
8
BLACK
6
CONTINUOUS
10
3.65645
20
-6.24357
11
3.6677
21
-6.24357
0
LINE
8
BLACK
6
CONTINUOUS
10
3.6677
20
-6.24357
11
3.6752
21
-6.24732
0
LINE
8
BLACK
6
CONTINUOUS
10
3.6752
20
-6.24732
11
3.67895
21
-6.25107
0
LINE
8
BLACK
6
CONTINUOUS
10
3.67895
20
-6.25107
11
3.6827
21
-6.25857
0
LINE
8
BLACK
6
CONTINUOUS
10
3.6827
20
-6.25857
11
3.6827
21
-6.27732
0
LINE
8
BLACK
6
CONTINUOUS
10
3.6827
20
-6.27732
11
3.67895
21
-6.28481
0
LINE
8
BLACK
6
CONTINUOUS
10
3.67895
20
-6.28481
11
3.6752
21
-6.28856
0
LINE
8
BLACK
6
CONTINUOUS
10
3.6752
20
-6.28856
11
3.6677
21
-6.29231
0
LINE
8
BLACK
6
CONTINUOUS
10
3.6677
20
-6.29231
11
3.6452
21
-6.29231
0
LINE
8
BLACK
6
CONTINUOUS
10
3.6452
20
-6.29231
11
3.6377
21
-6.28856
0
LINE
8
BLACK
6
CONTINUOUS
10
3.6377
20
-6.28856
11
3.63395
21
-6.28481
0
LINE
8
BLACK
6
CONTINUOUS
10
3.73144
20
-6.21357
11
3.73894
21
-6.21357
0
LINE
8
BLACK
6
CONTINUOUS
10
3.73894
20
-6.21357
11
3.74644
21
-6.21732
0
LINE
8
BLACK
6
CONTINUOUS
10
3.74644
20
-6.21732
11
3.75019
21
-6.22107
0
LINE
8
BLACK
6
CONTINUOUS
10
3.75019
20
-6.22107
11
3.75394
21
-6.22857
0
LINE
8
BLACK
6
CONTINUOUS
10
3.75394
20
-6.22857
11
3.75769
21
-6.24357
0
LINE
8
BLACK
6
CONTINUOUS
10
3.75769
20
-6.24357
11
3.75769
21
-6.26232
0
LINE
8
BLACK
6
CONTINUOUS
10
3.75769
20
-6.26232
11
3.75394
21
-6.27732
0
LINE
8
BLACK
6
CONTINUOUS
10
3.75394
20
-6.27732
11
3.75019
21
-6.28481
0
LINE
8
BLACK
6
CONTINUOUS
10
3.75019
20
-6.28481
11
3.74644
21
-6.28856
0
LINE
8
BLACK
6
CONTINUOUS
10
3.74644
20
-6.28856
11
3.73894
21
-6.29231
0
LINE
8
BLACK
6
CONTINUOUS
10
3.73894
20
-6.29231
11
3.73144
21
-6.29231
0
LINE
8
BLACK
6
CONTINUOUS
10
3.73144
20
-6.29231
11
3.72394
21
-6.28856
0
LINE
8
BLACK
6
CONTINUOUS
10
3.72394
20
-6.28856
11
3.72019
21
-6.28481
0
LINE
8
BLACK
6
CONTINUOUS
10
3.72019
20
-6.28481
11
3.71644
21
-6.27732
0
LINE
8
BLACK
6
CONTINUOUS
10
3.71644
20
-6.27732
11
3.71269
21
-6.26232
0
LINE
8
BLACK
6
CONTINUOUS
10
3.71269
20
-6.26232
11
3.71269
21
-6.24357
0
LINE
8
BLACK
6
CONTINUOUS
10
3.71269
20
-6.24357
11
3.71644
21
-6.22857
0
LINE
8
BLACK
6
CONTINUOUS
10
3.71644
20
-6.22857
11
3.72019
21
-6.22107
0
LINE
8
BLACK
6
CONTINUOUS
10
3.72019
20
-6.22107
11
3.72394
21
-6.21732
0
LINE
8
BLACK
6
CONTINUOUS
10
3.72394
20
-6.21732
11
3.73144
21
-6.21357
0
LINE
8
BLACK
6
CONTINUOUS
10
3.78768
20
-6.21357
11
3.78768
21
-6.22857
0
LINE
8
BLACK
6
CONTINUOUS
10
3.81768
20
-6.21357
11
3.81768
21
-6.22857
0
LINE
8
BLACK
6
CONTINUOUS
10
3.92117
20
-6.32231
11
3.91742
21
-6.31856
0
LINE
8
BLACK
6
CONTINUOUS
10
3.91742
20
-6.31856
11
3.90992
21
-6.30731
0
LINE
8
BLACK
6
CONTINUOUS
10
3.90992
20
-6.30731
11
3.90617
21
-6.29981
0
LINE
8
BLACK
6
CONTINUOUS
10
3.90617
20
-6.29981
11
3.90242
21
-6.28856
0
LINE
8
BLACK
6
CONTINUOUS
10
3.90242
20
-6.28856
11
3.89867
21
-6.26982
0
LINE
8
BLACK
6
CONTINUOUS
10
3.89867
20
-6.26982
11
3.89867
21
-6.25482
0
LINE
8
BLACK
6
CONTINUOUS
10
3.89867
20
-6.25482
11
3.90242
21
-6.23607
0
LINE
8
BLACK
6
CONTINUOUS
10
3.90242
20
-6.23607
11
3.90617
21
-6.22482
0
LINE
8
BLACK
6
CONTINUOUS
10
3.90617
20
-6.22482
11
3.90992
21
-6.21732
0
LINE
8
BLACK
6
CONTINUOUS
10
3.90992
20
-6.21732
11
3.91742
21
-6.20607
0
LINE
8
BLACK
6
CONTINUOUS
10
3.91742
20
-6.20607
11
3.92117
21
-6.20232
0
LINE
8
BLACK
6
CONTINUOUS
10
3.99241
20
-6.29231
11
3.94741
21
-6.29231
0
LINE
8
BLACK
6
CONTINUOUS
10
3.96991
20
-6.29231
11
3.96991
21
-6.21357
0
LINE
8
BLACK
6
CONTINUOUS
10
3.96991
20
-6.21357
11
3.96241
21
-6.22482
0
LINE
8
BLACK
6
CONTINUOUS
10
3.96241
20
-6.22482
11
3.95491
21
-6.23232
0
LINE
8
BLACK
6
CONTINUOUS
10
3.95491
20
-6.23232
11
3.94741
21
-6.23607
0
LINE
8
BLACK
6
CONTINUOUS
10
4.0734
20
-6.29231
11
4.0734
21
-6.21357
0
LINE
8
BLACK
6
CONTINUOUS
10
4.10714
20
-6.29231
11
4.10714
21
-6.25107
0
LINE
8
BLACK
6
CONTINUOUS
10
4.10714
20
-6.25107
11
4.10339
21
-6.24357
0
LINE
8
BLACK
6
CONTINUOUS
10
4.10339
20
-6.24357
11
4.09589
21
-6.23982
0
LINE
8
BLACK
6
CONTINUOUS
10
4.09589
20
-6.23982
11
4.08465
21
-6.23982
0
LINE
8
BLACK
6
CONTINUOUS
10
4.08465
20
-6.23982
11
4.07715
21
-6.24357
0
LINE
8
BLACK
6
CONTINUOUS
10
4.07715
20
-6.24357
11
4.0734
21
-6.24732
0
LINE
8
BLACK
6
CONTINUOUS
10
4.15589
20
-6.29231
11
4.14839
21
-6.28856
0
LINE
8
BLACK
6
CONTINUOUS
10
4.14839
20
-6.28856
11
4.14464
21
-6.28481
0
LINE
8
BLACK
6
CONTINUOUS
10
4.14464
20
-6.28481
11
4.14089
21
-6.27732
0
LINE
8
BLACK
6
CONTINUOUS
10
4.14089
20
-6.27732
11
4.14089
21
-6.25482
0
LINE
8
BLACK
6
CONTINUOUS
10
4.14089
20
-6.25482
11
4.14464
21
-6.24732
0
LINE
8
BLACK
6
CONTINUOUS
10
4.14464
20
-6.24732
11
4.14839
21
-6.24357
0
LINE
8
BLACK
6
CONTINUOUS
10
4.14839
20
-6.24357
11
4.15589
21
-6.23982
0
LINE
8
BLACK
6
CONTINUOUS
10
4.15589
20
-6.23982
11
4.16714
21
-6.23982
0
LINE
8
BLACK
6
CONTINUOUS
10
4.16714
20
-6.23982
11
4.17463
21
-6.24357
0
LINE
8
BLACK
6
CONTINUOUS
10
4.17463
20
-6.24357
11
4.17838
21
-6.24732
0
LINE
8
BLACK
6
CONTINUOUS
10
4.17838
20
-6.24732
11
4.18213
21
-6.25482
0
LINE
8
BLACK
6
CONTINUOUS
10
4.18213
20
-6.25482
11
4.18213
21
-6.27732
0
LINE
8
BLACK
6
CONTINUOUS
10
4.18213
20
-6.27732
11
4.17838
21
-6.28481
0
LINE
8
BLACK
6
CONTINUOUS
10
4.17838
20
-6.28481
11
4.17463
21
-6.28856
0
LINE
8
BLACK
6
CONTINUOUS
10
4.17463
20
-6.28856
11
4.16714
21
-6.29231
0
LINE
8
BLACK
6
CONTINUOUS
10
4.16714
20
-6.29231
11
4.15589
21
-6.29231
0
LINE
8
BLACK
6
CONTINUOUS
10
4.22713
20
-6.29231
11
4.21963
21
-6.28856
0
LINE
8
BLACK
6
CONTINUOUS
10
4.21963
20
-6.28856
11
4.21588
21
-6.28106
0
LINE
8
BLACK
6
CONTINUOUS
10
4.21588
20
-6.28106
11
4.21588
21
-6.21357
0
LINE
8
BLACK
6
CONTINUOUS
10
4.28712
20
-6.28856
11
4.27962
21
-6.29231
0
LINE
8
BLACK
6
CONTINUOUS
10
4.27962
20
-6.29231
11
4.26462
21
-6.29231
0
LINE
8
BLACK
6
CONTINUOUS
10
4.26462
20
-6.29231
11
4.25712
21
-6.28856
0
LINE
8
BLACK
6
CONTINUOUS
10
4.25712
20
-6.28856
11
4.25337
21
-6.28106
0
LINE
8
BLACK
6
CONTINUOUS
10
4.25337
20
-6.28106
11
4.25337
21
-6.25107
0
LINE
8
BLACK
6
CONTINUOUS
10
4.25337
20
-6.25107
11
4.25712
21
-6.24357
0
LINE
8
BLACK
6
CONTINUOUS
10
4.25712
20
-6.24357
11
4.26462
21
-6.23982
0
LINE
8
BLACK
6
CONTINUOUS
10
4.26462
20
-6.23982
11
4.27962
21
-6.23982
0
LINE
8
BLACK
6
CONTINUOUS
10
4.27962
20
-6.23982
11
4.28712
21
-6.24357
0
LINE
8
BLACK
6
CONTINUOUS
10
4.28712
20
-6.24357
11
4.29087
21
-6.25107
0
LINE
8
BLACK
6
CONTINUOUS
10
4.29087
20
-6.25107
11
4.29087
21
-6.25857
0
LINE
8
BLACK
6
CONTINUOUS
10
4.29087
20
-6.25857
11
4.25337
21
-6.26607
0
LINE
8
BLACK
6
CONTINUOUS
10
4.31712
20
-6.32231
11
4.32087
21
-6.31856
0
LINE
8
BLACK
6
CONTINUOUS
10
4.32087
20
-6.31856
11
4.32837
21
-6.30731
0
LINE
8
BLACK
6
CONTINUOUS
10
4.32837
20
-6.30731
11
4.33211
21
-6.29981
0
LINE
8
BLACK
6
CONTINUOUS
10
4.33211
20
-6.29981
11
4.33586
21
-6.28856
0
LINE
8
BLACK
6
CONTINUOUS
10
4.33586
20
-6.28856
11
4.33961
21
-6.26982
0
LINE
8
BLACK
6
CONTINUOUS
10
4.33961
20
-6.26982
11
4.33961
21
-6.25482
0
LINE
8
BLACK
6
CONTINUOUS
10
4.33961
20
-6.25482
11
4.33586
21
-6.23607
0
LINE
8
BLACK
6
CONTINUOUS
10
4.33586
20
-6.23607
11
4.33211
21
-6.22482
0
LINE
8
BLACK
6
CONTINUOUS
10
4.33211
20
-6.22482
11
4.32837
21
-6.21732
0
LINE
8
BLACK
6
CONTINUOUS
10
4.32837
20
-6.21732
11
4.32087
21
-6.20607
0
LINE
8
BLACK
6
CONTINUOUS
10
4.32087
20
-6.20607
11
4.31712
21
-6.20232
0
LINE
8
BLACK
6
CONTINUOUS
10
4.44685
20
-6.32231
11
4.4431
21
-6.31856
0
LINE
8
BLACK
6
CONTINUOUS
10
4.4431
20
-6.31856
11
4.4356
21
-6.30731
0
LINE
8
BLACK
6
CONTINUOUS
10
4.4356
20
-6.30731
11
4.43185
21
-6.29981
0
LINE
8
BLACK
6
CONTINUOUS
10
4.43185
20
-6.29981
11
4.4281
21
-6.28856
0
LINE
8
BLACK
6
CONTINUOUS
10
4.4281
20
-6.28856
11
4.42435
21
-6.26982
0
LINE
8
BLACK
6
CONTINUOUS
10
4.42435
20
-6.26982
11
4.42435
21
-6.25482
0
LINE
8
BLACK
6
CONTINUOUS
10
4.42435
20
-6.25482
11
4.4281
21
-6.23607
0
LINE
8
BLACK
6
CONTINUOUS
10
4.4281
20
-6.23607
11
4.43185
21
-6.22482
0
LINE
8
BLACK
6
CONTINUOUS
10
4.43185
20
-6.22482
11
4.4356
21
-6.21732
0
LINE
8
BLACK
6
CONTINUOUS
10
4.4356
20
-6.21732
11
4.4431
21
-6.20607
0
LINE
8
BLACK
6
CONTINUOUS
10
4.4431
20
-6.20607
11
4.44685
21
-6.20232
0
LINE
8
BLACK
6
CONTINUOUS
10
4.47685
20
-6.23982
11
4.47685
21
-6.29231
0
LINE
8
BLACK
6
CONTINUOUS
10
4.47685
20
-6.24732
11
4.4806
21
-6.24357
0
LINE
8
BLACK
6
CONTINUOUS
10
4.4806
20
-6.24357
11
4.4881
21
-6.23982
0
LINE
8
BLACK
6
CONTINUOUS
10
4.4881
20
-6.23982
11
4.49934
21
-6.23982
0
LINE
8
BLACK
6
CONTINUOUS
10
4.49934
20
-6.23982
11
4.50684
21
-6.24357
0
LINE
8
BLACK
6
CONTINUOUS
10
4.50684
20
-6.24357
11
4.51059
21
-6.25107
0
LINE
8
BLACK
6
CONTINUOUS
10
4.51059
20
-6.25107
11
4.51059
21
-6.29231
0
LINE
8
BLACK
6
CONTINUOUS
10
4.55934
20
-6.29231
11
4.55184
21
-6.28856
0
LINE
8
BLACK
6
CONTINUOUS
10
4.55184
20
-6.28856
11
4.54809
21
-6.28481
0
LINE
8
BLACK
6
CONTINUOUS
10
4.54809
20
-6.28481
11
4.54434
21
-6.27732
0
LINE
8
BLACK
6
CONTINUOUS
10
4.54434
20
-6.27732
11
4.54434
21
-6.25482
0
LINE
8
BLACK
6
CONTINUOUS
10
4.54434
20
-6.25482
11
4.54809
21
-6.24732
0
LINE
8
BLACK
6
CONTINUOUS
10
4.54809
20
-6.24732
11
4.55184
21
-6.24357
0
LINE
8
BLACK
6
CONTINUOUS
10
4.55184
20
-6.24357
11
4.55934
21
-6.23982
0
LINE
8
BLACK
6
CONTINUOUS
10
4.55934
20
-6.23982
11
4.57058
21
-6.23982
0
LINE
8
BLACK
6
CONTINUOUS
10
4.57058
20
-6.23982
11
4.57808
21
-6.24357
0
LINE
8
BLACK
6
CONTINUOUS
10
4.57808
20
-6.24357
11
4.58183
21
-6.24732
0
LINE
8
BLACK
6
CONTINUOUS
10
4.58183
20
-6.24732
11
4.58558
21
-6.25482
0
LINE
8
BLACK
6
CONTINUOUS
10
4.58558
20
-6.25482
11
4.58558
21
-6.27732
0
LINE
8
BLACK
6
CONTINUOUS
10
4.58558
20
-6.27732
11
4.58183
21
-6.28481
0
LINE
8
BLACK
6
CONTINUOUS
10
4.58183
20
-6.28481
11
4.57808
21
-6.28856
0
LINE
8
BLACK
6
CONTINUOUS
10
4.57808
20
-6.28856
11
4.57058
21
-6.29231
0
LINE
8
BLACK
6
CONTINUOUS
10
4.57058
20
-6.29231
11
4.55934
21
-6.29231
0
LINE
8
BLACK
6
CONTINUOUS
10
4.60808
20
-6.23982
11
4.63808
21
-6.23982
0
LINE
8
BLACK
6
CONTINUOUS
10
4.61933
20
-6.21357
11
4.61933
21
-6.28106
0
LINE
8
BLACK
6
CONTINUOUS
10
4.61933
20
-6.28106
11
4.62308
21
-6.28856
0
LINE
8
BLACK
6
CONTINUOUS
10
4.62308
20
-6.28856
11
4.63058
21
-6.29231
0
LINE
8
BLACK
6
CONTINUOUS
10
4.63058
20
-6.29231
11
4.63808
21
-6.29231
0
LINE
8
BLACK
6
CONTINUOUS
10
4.71157
20
-6.23982
11
4.71157
21
-6.31856
0
LINE
8
BLACK
6
CONTINUOUS
10
4.71157
20
-6.24357
11
4.71907
21
-6.23982
0
LINE
8
BLACK
6
CONTINUOUS
10
4.71907
20
-6.23982
11
4.73406
21
-6.23982
0
LINE
8
BLACK
6
CONTINUOUS
10
4.73406
20
-6.23982
11
4.74156
21
-6.24357
0
LINE
8
BLACK
6
CONTINUOUS
10
4.74156
20
-6.24357
11
4.74531
21
-6.24732
0
LINE
8
BLACK
6
CONTINUOUS
10
4.74531
20
-6.24732
11
4.74906
21
-6.25482
0
LINE
8
BLACK
6
CONTINUOUS
10
4.74906
20
-6.25482
11
4.74906
21
-6.27732
0
LINE
8
BLACK
6
CONTINUOUS
10
4.74906
20
-6.27732
11
4.74531
21
-6.28481
0
LINE
8
BLACK
6
CONTINUOUS
10
4.74531
20
-6.28481
11
4.74156
21
-6.28856
0
LINE
8
BLACK
6
CONTINUOUS
10
4.74156
20
-6.28856
11
4.73406
21
-6.29231
0
LINE
8
BLACK
6
CONTINUOUS
10
4.73406
20
-6.29231
11
4.71907
21
-6.29231
0
LINE
8
BLACK
6
CONTINUOUS
10
4.71907
20
-6.29231
11
4.71157
21
-6.28856
0
LINE
8
BLACK
6
CONTINUOUS
10
4.79406
20
-6.29231
11
4.78656
21
-6.28856
0
LINE
8
BLACK
6
CONTINUOUS
10
4.78656
20
-6.28856
11
4.78281
21
-6.28106
0
LINE
8
BLACK
6
CONTINUOUS
10
4.78281
20
-6.28106
11
4.78281
21
-6.21357
0
LINE
8
BLACK
6
CONTINUOUS
10
4.8578
20
-6.29231
11
4.8578
21
-6.25107
0
LINE
8
BLACK
6
CONTINUOUS
10
4.8578
20
-6.25107
11
4.85405
21
-6.24357
0
LINE
8
BLACK
6
CONTINUOUS
10
4.85405
20
-6.24357
11
4.84655
21
-6.23982
0
LINE
8
BLACK
6
CONTINUOUS
10
4.84655
20
-6.23982
11
4.83155
21
-6.23982
0
LINE
8
BLACK
6
CONTINUOUS
10
4.83155
20
-6.23982
11
4.82405
21
-6.24357
0
LINE
8
BLACK
6
CONTINUOUS
10
4.8578
20
-6.28856
11
4.8503
21
-6.29231
0
LINE
8
BLACK
6
CONTINUOUS
10
4.8503
20
-6.29231
11
4.83155
21
-6.29231
0
LINE
8
BLACK
6
CONTINUOUS
10
4.83155
20
-6.29231
11
4.82405
21
-6.28856
0
LINE
8
BLACK
6
CONTINUOUS
10
4.82405
20
-6.28856
11
4.8203
21
-6.28106
0
LINE
8
BLACK
6
CONTINUOUS
10
4.8203
20
-6.28106
11
4.8203
21
-6.27357
0
LINE
8
BLACK
6
CONTINUOUS
10
4.8203
20
-6.27357
11
4.82405
21
-6.26607
0
LINE
8
BLACK
6
CONTINUOUS
10
4.82405
20
-6.26607
11
4.83155
21
-6.26232
0
LINE
8
BLACK
6
CONTINUOUS
10
4.83155
20
-6.26232
11
4.8503
21
-6.26232
0
LINE
8
BLACK
6
CONTINUOUS
10
4.8503
20
-6.26232
11
4.8578
21
-6.25857
0
LINE
8
BLACK
6
CONTINUOUS
10
4.88405
20
-6.23982
11
4.91404
21
-6.23982
0
LINE
8
BLACK
6
CONTINUOUS
10
4.89529
20
-6.21357
11
4.89529
21
-6.28106
0
LINE
8
BLACK
6
CONTINUOUS
10
4.89529
20
-6.28106
11
4.89904
21
-6.28856
0
LINE
8
BLACK
6
CONTINUOUS
10
4.89904
20
-6.28856
11
4.90654
21
-6.29231
0
LINE
8
BLACK
6
CONTINUOUS
10
4.90654
20
-6.29231
11
4.91404
21
-6.29231
0
LINE
8
BLACK
6
CONTINUOUS
10
4.97029
20
-6.28856
11
4.96279
21
-6.29231
0
LINE
8
BLACK
6
CONTINUOUS
10
4.96279
20
-6.29231
11
4.94779
21
-6.29231
0
LINE
8
BLACK
6
CONTINUOUS
10
4.94779
20
-6.29231
11
4.94029
21
-6.28856
0
LINE
8
BLACK
6
CONTINUOUS
10
4.94029
20
-6.28856
11
4.93654
21
-6.28106
0
LINE
8
BLACK
6
CONTINUOUS
10
4.93654
20
-6.28106
11
4.93654
21
-6.25107
0
LINE
8
BLACK
6
CONTINUOUS
10
4.93654
20
-6.25107
11
4.94029
21
-6.24357
0
LINE
8
BLACK
6
CONTINUOUS
10
4.94029
20
-6.24357
11
4.94779
21
-6.23982
0
LINE
8
BLACK
6
CONTINUOUS
10
4.94779
20
-6.23982
11
4.96279
21
-6.23982
0
LINE
8
BLACK
6
CONTINUOUS
10
4.96279
20
-6.23982
11
4.97029
21
-6.24357
0
LINE
8
BLACK
6
CONTINUOUS
10
4.97029
20
-6.24357
11
4.97403
21
-6.25107
0
LINE
8
BLACK
6
CONTINUOUS
10
4.97403
20
-6.25107
11
4.97403
21
-6.25857
0
LINE
8
BLACK
6
CONTINUOUS
10
4.97403
20
-6.25857
11
4.93654
21
-6.26607
0
LINE
8
BLACK
6
CONTINUOUS
10
5.04153
20
-6.29231
11
5.04153
21
-6.21357
0
LINE
8
BLACK
6
CONTINUOUS
10
5.04153
20
-6.28856
11
5.03403
21
-6.29231
0
LINE
8
BLACK
6
CONTINUOUS
10
5.03403
20
-6.29231
11
5.01903
21
-6.29231
0
LINE
8
BLACK
6
CONTINUOUS
10
5.01903
20
-6.29231
11
5.01153
21
-6.28856
0
LINE
8
BLACK
6
CONTINUOUS
10
5.01153
20
-6.28856
11
5.00778
21
-6.28481
0
LINE
8
BLACK
6
CONTINUOUS
10
5.00778
20
-6.28481
11
5.00403
21
-6.27732
0
LINE
8
BLACK
6
CONTINUOUS
10
5.00403
20
-6.27732
11
5.00403
21
-6.25482
0
LINE
8
BLACK
6
CONTINUOUS
10
5.00403
20
-6.25482
11
5.00778
21
-6.24732
0
LINE
8
BLACK
6
CONTINUOUS
10
5.00778
20
-6.24732
11
5.01153
21
-6.24357
0
LINE
8
BLACK
6
CONTINUOUS
10
5.01153
20
-6.24357
11
5.01903
21
-6.23982
0
LINE
8
BLACK
6
CONTINUOUS
10
5.01903
20
-6.23982
11
5.03403
21
-6.23982
0
LINE
8
BLACK
6
CONTINUOUS
10
5.03403
20
-6.23982
11
5.04153
21
-6.24357
0
LINE
8
BLACK
6
CONTINUOUS
10
5.07152
20
-6.32231
11
5.07527
21
-6.31856
0
LINE
8
BLACK
6
CONTINUOUS
10
5.07527
20
-6.31856
11
5.08277
21
-6.30731
0
LINE
8
BLACK
6
CONTINUOUS
10
5.08277
20
-6.30731
11
5.08652
21
-6.29981
0
LINE
8
BLACK
6
CONTINUOUS
10
5.08652
20
-6.29981
11
5.09027
21
-6.28856
0
LINE
8
BLACK
6
CONTINUOUS
10
5.09027
20
-6.28856
11
5.09402
21
-6.26982
0
LINE
8
BLACK
6
CONTINUOUS
10
5.09402
20
-6.26982
11
5.09402
21
-6.25482
0
LINE
8
BLACK
6
CONTINUOUS
10
5.09402
20
-6.25482
11
5.09027
21
-6.23607
0
LINE
8
BLACK
6
CONTINUOUS
10
5.09027
20
-6.23607
11
5.08652
21
-6.22482
0
LINE
8
BLACK
6
CONTINUOUS
10
5.08652
20
-6.22482
11
5.08277
21
-6.21732
0
LINE
8
BLACK
6
CONTINUOUS
10
5.08277
20
-6.21732
11
5.07527
21
-6.20607
0
LINE
8
BLACK
6
CONTINUOUS
10
5.07527
20
-6.20607
11
5.07152
21
-6.20232
0
LINE
8
BLACK
6
CONTINUOUS
10
2.52362
20
-6.34016
11
2.52362
21
-6.40709
0
LINE
8
BLACK
6
CONTINUOUS
10
2.49016
20
-6.37362
11
2.55709
21
-6.37362
0
LINE
8
BLACK
6
CONTINUOUS
10
2.69582
20
-6.40255
11
2.65082
21
-6.40255
0
LINE
8
BLACK
6
CONTINUOUS
10
2.67332
20
-6.40255
11
2.67332
21
-6.32381
0
LINE
8
BLACK
6
CONTINUOUS
10
2.67332
20
-6.32381
11
2.66582
21
-6.33506
0
LINE
8
BLACK
6
CONTINUOUS
10
2.66582
20
-6.33506
11
2.65832
21
-6.34256
0
LINE
8
BLACK
6
CONTINUOUS
10
2.65832
20
-6.34256
11
2.65082
21
-6.34631
0
LINE
8
BLACK
6
CONTINUOUS
10
2.72957
20
-6.39505
11
2.73331
21
-6.3988
0
LINE
8
BLACK
6
CONTINUOUS
10
2.73331
20
-6.3988
11
2.72957
21
-6.40255
0
LINE
8
BLACK
6
CONTINUOUS
10
2.72957
20
-6.40255
11
2.72582
21
-6.3988
0
LINE
8
BLACK
6
CONTINUOUS
10
2.72582
20
-6.3988
11
2.72957
21
-6.39505
0
LINE
8
BLACK
6
CONTINUOUS
10
2.72957
20
-6.39505
11
2.72957
21
-6.40255
0
LINE
8
BLACK
6
CONTINUOUS
10
2.75956
20
-6.32381
11
2.81205
21
-6.32381
0
LINE
8
BLACK
6
CONTINUOUS
10
2.81205
20
-6.32381
11
2.77831
21
-6.40255
0
LINE
8
BLACK
6
CONTINUOUS
10
2.85705
20
-6.32381
11
2.86455
21
-6.32381
0
LINE
8
BLACK
6
CONTINUOUS
10
2.86455
20
-6.32381
11
2.87205
21
-6.32756
0
LINE
8
BLACK
6
CONTINUOUS
10
2.87205
20
-6.32756
11
2.8758
21
-6.33131
0
LINE
8
BLACK
6
CONTINUOUS
10
2.8758
20
-6.33131
11
2.87955
21
-6.33881
0
LINE
8
BLACK
6
CONTINUOUS
10
2.87955
20
-6.33881
11
2.8833
21
-6.35381
0
LINE
8
BLACK
6
CONTINUOUS
10
2.8833
20
-6.35381
11
2.8833
21
-6.37255
0
LINE
8
BLACK
6
CONTINUOUS
10
2.8833
20
-6.37255
11
2.87955
21
-6.38755
0
LINE
8
BLACK
6
CONTINUOUS
10
2.87955
20
-6.38755
11
2.8758
21
-6.39505
0
LINE
8
BLACK
6
CONTINUOUS
10
2.8758
20
-6.39505
11
2.87205
21
-6.3988
0
LINE
8
BLACK
6
CONTINUOUS
10
2.87205
20
-6.3988
11
2.86455
21
-6.40255
0
LINE
8
BLACK
6
CONTINUOUS
10
2.86455
20
-6.40255
11
2.85705
21
-6.40255
0
LINE
8
BLACK
6
CONTINUOUS
10
2.85705
20
-6.40255
11
2.84955
21
-6.3988
0
LINE
8
BLACK
6
CONTINUOUS
10
2.84955
20
-6.3988
11
2.8458
21
-6.39505
0
LINE
8
BLACK
6
CONTINUOUS
10
2.8458
20
-6.39505
11
2.84205
21
-6.38755
0
LINE
8
BLACK
6
CONTINUOUS
10
2.84205
20
-6.38755
11
2.8383
21
-6.37255
0
LINE
8
BLACK
6
CONTINUOUS
10
2.8383
20
-6.37255
11
2.8383
21
-6.35381
0
LINE
8
BLACK
6
CONTINUOUS
10
2.8383
20
-6.35381
11
2.84205
21
-6.33881
0
LINE
8
BLACK
6
CONTINUOUS
10
2.84205
20
-6.33881
11
2.8458
21
-6.33131
0
LINE
8
BLACK
6
CONTINUOUS
10
2.8458
20
-6.33131
11
2.84955
21
-6.32756
0
LINE
8
BLACK
6
CONTINUOUS
10
2.84955
20
-6.32756
11
2.85705
21
-6.32381
0
LINE
8
BLACK
6
CONTINUOUS
10
2.93204
20
-6.32381
11
2.93954
21
-6.32381
0
LINE
8
BLACK
6
CONTINUOUS
10
2.93954
20
-6.32381
11
2.94704
21
-6.32756
0
LINE
8
BLACK
6
CONTINUOUS
10
2.94704
20
-6.32756
11
2.95079
21
-6.33131
0
LINE
8
BLACK
6
CONTINUOUS
10
2.95079
20
-6.33131
11
2.95454
21
-6.33881
0
LINE
8
BLACK
6
CONTINUOUS
10
2.95454
20
-6.33881
11
2.95829
21
-6.35381
0
LINE
8
BLACK
6
CONTINUOUS
10
2.95829
20
-6.35381
11
2.95829
21
-6.37255
0
LINE
8
BLACK
6
CONTINUOUS
10
2.95829
20
-6.37255
11
2.95454
21
-6.38755
0
LINE
8
BLACK
6
CONTINUOUS
10
2.95454
20
-6.38755
11
2.95079
21
-6.39505
0
LINE
8
BLACK
6
CONTINUOUS
10
2.95079
20
-6.39505
11
2.94704
21
-6.3988
0
LINE
8
BLACK
6
CONTINUOUS
10
2.94704
20
-6.3988
11
2.93954
21
-6.40255
0
LINE
8
BLACK
6
CONTINUOUS
10
2.93954
20
-6.40255
11
2.93204
21
-6.40255
0
LINE
8
BLACK
6
CONTINUOUS
10
2.93204
20
-6.40255
11
2.92454
21
-6.3988
0
LINE
8
BLACK
6
CONTINUOUS
10
2.92454
20
-6.3988
11
2.92079
21
-6.39505
0
LINE
8
BLACK
6
CONTINUOUS
10
2.92079
20
-6.39505
11
2.91704
21
-6.38755
0
LINE
8
BLACK
6
CONTINUOUS
10
2.91704
20
-6.38755
11
2.91329
21
-6.37255
0
LINE
8
BLACK
6
CONTINUOUS
10
2.91329
20
-6.37255
11
2.91329
21
-6.35381
0
LINE
8
BLACK
6
CONTINUOUS
10
2.91329
20
-6.35381
11
2.91704
21
-6.33881
0
LINE
8
BLACK
6
CONTINUOUS
10
2.91704
20
-6.33881
11
2.92079
21
-6.33131
0
LINE
8
BLACK
6
CONTINUOUS
10
2.92079
20
-6.33131
11
2.92454
21
-6.32756
0
LINE
8
BLACK
6
CONTINUOUS
10
2.92454
20
-6.32756
11
2.93204
21
-6.32381
0
LINE
8
BLACK
6
CONTINUOUS
10
2.99203
20
-6.40255
11
2.99203
21
-6.35006
0
LINE
8
BLACK
6
CONTINUOUS
10
2.99203
20
-6.35756
11
2.99578
21
-6.35381
0
LINE
8
BLACK
6
CONTINUOUS
10
2.99578
20
-6.35381
11
3.00328
21
-6.35006
0
LINE
8
BLACK
6
CONTINUOUS
10
3.00328
20
-6.35006
11
3.01453
21
-6.35006
0
LINE
8
BLACK
6
CONTINUOUS
10
3.01453
20
-6.35006
11
3.02203
21
-6.35381
0
LINE
8
BLACK
6
CONTINUOUS
10
3.02203
20
-6.35381
11
3.02578
21
-6.3613
0
LINE
8
BLACK
6
CONTINUOUS
10
3.02578
20
-6.3613
11
3.02578
21
-6.40255
0
LINE
8
BLACK
6
CONTINUOUS
10
3.02578
20
-6.3613
11
3.02953
21
-6.35381
0
LINE
8
BLACK
6
CONTINUOUS
10
3.02953
20
-6.35381
11
3.03703
21
-6.35006
0
LINE
8
BLACK
6
CONTINUOUS
10
3.03703
20
-6.35006
11
3.04828
21
-6.35006
0
LINE
8
BLACK
6
CONTINUOUS
10
3.04828
20
-6.35006
11
3.05577
21
-6.35381
0
LINE
8
BLACK
6
CONTINUOUS
10
3.05577
20
-6.35381
11
3.05952
21
-6.3613
0
LINE
8
BLACK
6
CONTINUOUS
10
3.05952
20
-6.3613
11
3.05952
21
-6.40255
0
LINE
8
BLACK
6
CONTINUOUS
10
3.09702
20
-6.40255
11
3.09702
21
-6.35006
0
LINE
8
BLACK
6
CONTINUOUS
10
3.09702
20
-6.35756
11
3.10077
21
-6.35381
0
LINE
8
BLACK
6
CONTINUOUS
10
3.10077
20
-6.35381
11
3.10827
21
-6.35006
0
LINE
8
BLACK
6
CONTINUOUS
10
3.10827
20
-6.35006
11
3.11952
21
-6.35006
0
LINE
8
BLACK
6
CONTINUOUS
10
3.11952
20
-6.35006
11
3.12702
21
-6.35381
0
LINE
8
BLACK
6
CONTINUOUS
10
3.12702
20
-6.35381
11
3.13076
21
-6.3613
0
LINE
8
BLACK
6
CONTINUOUS
10
3.13076
20
-6.3613
11
3.13076
21
-6.40255
0
LINE
8
BLACK
6
CONTINUOUS
10
3.13076
20
-6.3613
11
3.13451
21
-6.35381
0
LINE
8
BLACK
6
CONTINUOUS
10
3.13451
20
-6.35381
11
3.14201
21
-6.35006
0
LINE
8
BLACK
6
CONTINUOUS
10
3.14201
20
-6.35006
11
3.15326
21
-6.35006
0
LINE
8
BLACK
6
CONTINUOUS
10
3.15326
20
-6.35006
11
3.16076
21
-6.35381
0
LINE
8
BLACK
6
CONTINUOUS
10
3.16076
20
-6.35381
11
3.16451
21
-6.3613
0
LINE
8
BLACK
6
CONTINUOUS
10
3.16451
20
-6.3613
11
3.16451
21
-6.40255
0
LINE
8
BLACK
6
CONTINUOUS
10
3.30549
20
-6.32006
11
3.238
21
-6.4213
0
LINE
8
BLACK
6
CONTINUOUS
10
3.39398
20
-6.32381
11
3.40148
21
-6.32381
0
LINE
8
BLACK
6
CONTINUOUS
10
3.40148
20
-6.32381
11
3.40898
21
-6.32756
0
LINE
8
BLACK
6
CONTINUOUS
10
3.40898
20
-6.32756
11
3.41273
21
-6.33131
0
LINE
8
BLACK
6
CONTINUOUS
10
3.41273
20
-6.33131
11
3.41648
21
-6.33881
0
LINE
8
BLACK
6
CONTINUOUS
10
3.41648
20
-6.33881
11
3.42023
21
-6.35381
0
LINE
8
BLACK
6
CONTINUOUS
10
3.42023
20
-6.35381
11
3.42023
21
-6.37255
0
LINE
8
BLACK
6
CONTINUOUS
10
3.42023
20
-6.37255
11
3.41648
21
-6.38755
0
LINE
8
BLACK
6
CONTINUOUS
10
3.41648
20
-6.38755
11
3.41273
21
-6.39505
0
LINE
8
BLACK
6
CONTINUOUS
10
3.41273
20
-6.39505
11
3.40898
21
-6.3988
0
LINE
8
BLACK
6
CONTINUOUS
10
3.40898
20
-6.3988
11
3.40148
21
-6.40255
0
LINE
8
BLACK
6
CONTINUOUS
10
3.40148
20
-6.40255
11
3.39398
21
-6.40255
0
LINE
8
BLACK
6
CONTINUOUS
10
3.39398
20
-6.40255
11
3.38648
21
-6.3988
0
LINE
8
BLACK
6
CONTINUOUS
10
3.38648
20
-6.3988
11
3.38273
21
-6.39505
0
LINE
8
BLACK
6
CONTINUOUS
10
3.38273
20
-6.39505
11
3.37898
21
-6.38755
0
LINE
8
BLACK
6
CONTINUOUS
10
3.37898
20
-6.38755
11
3.37523
21
-6.37255
0
LINE
8
BLACK
6
CONTINUOUS
10
3.37523
20
-6.37255
11
3.37523
21
-6.35381
0
LINE
8
BLACK
6
CONTINUOUS
10
3.37523
20
-6.35381
11
3.37898
21
-6.33881
0
LINE
8
BLACK
6
CONTINUOUS
10
3.37898
20
-6.33881
11
3.38273
21
-6.33131
0
LINE
8
BLACK
6
CONTINUOUS
10
3.38273
20
-6.33131
11
3.38648
21
-6.32756
0
LINE
8
BLACK
6
CONTINUOUS
10
3.38648
20
-6.32756
11
3.39398
21
-6.32381
0
LINE
8
BLACK
6
CONTINUOUS
10
3.45397
20
-6.39505
11
3.45772
21
-6.3988
0
LINE
8
BLACK
6
CONTINUOUS
10
3.45772
20
-6.3988
11
3.45397
21
-6.40255
0
LINE
8
BLACK
6
CONTINUOUS
10
3.45397
20
-6.40255
11
3.45023
21
-6.3988
0
LINE
8
BLACK
6
CONTINUOUS
10
3.45023
20
-6.3988
11
3.45397
21
-6.39505
0
LINE
8
BLACK
6
CONTINUOUS
10
3.45397
20
-6.39505
11
3.45397
21
-6.40255
0
LINE
8
BLACK
6
CONTINUOUS
10
3.50647
20
-6.32381
11
3.51397
21
-6.32381
0
LINE
8
BLACK
6
CONTINUOUS
10
3.51397
20
-6.32381
11
3.52147
21
-6.32756
0
LINE
8
BLACK
6
CONTINUOUS
10
3.52147
20
-6.32756
11
3.52522
21
-6.33131
0
LINE
8
BLACK
6
CONTINUOUS
10
3.52522
20
-6.33131
11
3.52897
21
-6.33881
0
LINE
8
BLACK
6
CONTINUOUS
10
3.52897
20
-6.33881
11
3.53271
21
-6.35381
0
LINE
8
BLACK
6
CONTINUOUS
10
3.53271
20
-6.35381
11
3.53271
21
-6.37255
0
LINE
8
BLACK
6
CONTINUOUS
10
3.53271
20
-6.37255
11
3.52897
21
-6.38755
0
LINE
8
BLACK
6
CONTINUOUS
10
3.52897
20
-6.38755
11
3.52522
21
-6.39505
0
LINE
8
BLACK
6
CONTINUOUS
10
3.52522
20
-6.39505
11
3.52147
21
-6.3988
0
LINE
8
BLACK
6
CONTINUOUS
10
3.52147
20
-6.3988
11
3.51397
21
-6.40255
0
LINE
8
BLACK
6
CONTINUOUS
10
3.51397
20
-6.40255
11
3.50647
21
-6.40255
0
LINE
8
BLACK
6
CONTINUOUS
10
3.50647
20
-6.40255
11
3.49897
21
-6.3988
0
LINE
8
BLACK
6
CONTINUOUS
10
3.49897
20
-6.3988
11
3.49522
21
-6.39505
0
LINE
8
BLACK
6
CONTINUOUS
10
3.49522
20
-6.39505
11
3.49147
21
-6.38755
0
LINE
8
BLACK
6
CONTINUOUS
10
3.49147
20
-6.38755
11
3.48772
21
-6.37255
0
LINE
8
BLACK
6
CONTINUOUS
10
3.48772
20
-6.37255
11
3.48772
21
-6.35381
0
LINE
8
BLACK
6
CONTINUOUS
10
3.48772
20
-6.35381
11
3.49147
21
-6.33881
0
LINE
8
BLACK
6
CONTINUOUS
10
3.49147
20
-6.33881
11
3.49522
21
-6.33131
0
LINE
8
BLACK
6
CONTINUOUS
10
3.49522
20
-6.33131
11
3.49897
21
-6.32756
0
LINE
8
BLACK
6
CONTINUOUS
10
3.49897
20
-6.32756
11
3.50647
21
-6.32381
0
LINE
8
BLACK
6
CONTINUOUS
10
3.60021
20
-6.32381
11
3.58521
21
-6.32381
0
LINE
8
BLACK
6
CONTINUOUS
10
3.58521
20
-6.32381
11
3.57771
21
-6.32756
0
LINE
8
BLACK
6
CONTINUOUS
10
3.57771
20
-6.32756
11
3.57396
21
-6.33131
0
LINE
8
BLACK
6
CONTINUOUS
10
3.57396
20
-6.33131
11
3.56646
21
-6.34256
0
LINE
8
BLACK
6
CONTINUOUS
10
3.56646
20
-6.34256
11
3.56271
21
-6.35756
0
LINE
8
BLACK
6
CONTINUOUS
10
3.56271
20
-6.35756
11
3.56271
21
-6.38755
0
LINE
8
BLACK
6
CONTINUOUS
10
3.56271
20
-6.38755
11
3.56646
21
-6.39505
0
LINE
8
BLACK
6
CONTINUOUS
10
3.56646
20
-6.39505
11
3.57021
21
-6.3988
0
LINE
8
BLACK
6
CONTINUOUS
10
3.57021
20
-6.3988
11
3.57771
21
-6.40255
0
LINE
8
BLACK
6
CONTINUOUS
10
3.57771
20
-6.40255
11
3.59271
21
-6.40255
0
LINE
8
BLACK
6
CONTINUOUS
10
3.59271
20
-6.40255
11
3.60021
21
-6.3988
0
LINE
8
BLACK
6
CONTINUOUS
10
3.60021
20
-6.3988
11
3.60396
21
-6.39505
0
LINE
8
BLACK
6
CONTINUOUS
10
3.60396
20
-6.39505
11
3.60771
21
-6.38755
0
LINE
8
BLACK
6
CONTINUOUS
10
3.60771
20
-6.38755
11
3.60771
21
-6.3688
0
LINE
8
BLACK
6
CONTINUOUS
10
3.60771
20
-6.3688
11
3.60396
21
-6.3613
0
LINE
8
BLACK
6
CONTINUOUS
10
3.60396
20
-6.3613
11
3.60021
21
-6.35756
0
LINE
8
BLACK
6
CONTINUOUS
10
3.60021
20
-6.35756
11
3.59271
21
-6.35381
0
LINE
8
BLACK
6
CONTINUOUS
10
3.59271
20
-6.35381
11
3.57771
21
-6.35381
0
LINE
8
BLACK
6
CONTINUOUS
10
3.57771
20
-6.35381
11
3.57021
21
-6.35756
0
LINE
8
BLACK
6
CONTINUOUS
10
3.57021
20
-6.35756
11
3.56646
21
-6.3613
0
LINE
8
BLACK
6
CONTINUOUS
10
3.56646
20
-6.3613
11
3.56271
21
-6.3688
0
LINE
8
BLACK
6
CONTINUOUS
10
3.6752
20
-6.32381
11
3.6602
21
-6.32381
0
LINE
8
BLACK
6
CONTINUOUS
10
3.6602
20
-6.32381
11
3.6527
21
-6.32756
0
LINE
8
BLACK
6
CONTINUOUS
10
3.6527
20
-6.32756
11
3.64895
21
-6.33131
0
LINE
8
BLACK
6
CONTINUOUS
10
3.64895
20
-6.33131
11
3.64145
21
-6.34256
0
LINE
8
BLACK
6
CONTINUOUS
10
3.64145
20
-6.34256
11
3.6377
21
-6.35756
0
LINE
8
BLACK
6
CONTINUOUS
10
3.6377
20
-6.35756
11
3.6377
21
-6.38755
0
LINE
8
BLACK
6
CONTINUOUS
10
3.6377
20
-6.38755
11
3.64145
21
-6.39505
0
LINE
8
BLACK
6
CONTINUOUS
10
3.64145
20
-6.39505
11
3.6452
21
-6.3988
0
LINE
8
BLACK
6
CONTINUOUS
10
3.6452
20
-6.3988
11
3.6527
21
-6.40255
0
LINE
8
BLACK
6
CONTINUOUS
10
3.6527
20
-6.40255
11
3.6677
21
-6.40255
0
LINE
8
BLACK
6
CONTINUOUS
10
3.6677
20
-6.40255
11
3.6752
21
-6.3988
0
LINE
8
BLACK
6
CONTINUOUS
10
3.6752
20
-6.3988
11
3.67895
21
-6.39505
0
LINE
8
BLACK
6
CONTINUOUS
10
3.67895
20
-6.39505
11
3.6827
21
-6.38755
0
LINE
8
BLACK
6
CONTINUOUS
10
3.6827
20
-6.38755
11
3.6827
21
-6.3688
0
LINE
8
BLACK
6
CONTINUOUS
10
3.6827
20
-6.3688
11
3.67895
21
-6.3613
0
LINE
8
BLACK
6
CONTINUOUS
10
3.67895
20
-6.3613
11
3.6752
21
-6.35756
0
LINE
8
BLACK
6
CONTINUOUS
10
3.6752
20
-6.35756
11
3.6677
21
-6.35381
0
LINE
8
BLACK
6
CONTINUOUS
10
3.6677
20
-6.35381
11
3.6527
21
-6.35381
0
LINE
8
BLACK
6
CONTINUOUS
10
3.6527
20
-6.35381
11
3.6452
21
-6.35756
0
LINE
8
BLACK
6
CONTINUOUS
10
3.6452
20
-6.35756
11
3.64145
21
-6.3613
0
LINE
8
BLACK
6
CONTINUOUS
10
3.64145
20
-6.3613
11
3.6377
21
-6.3688
0
LINE
8
BLACK
6
CONTINUOUS
10
3.72019
20
-6.40255
11
3.73519
21
-6.40255
0
LINE
8
BLACK
6
CONTINUOUS
10
3.73519
20
-6.40255
11
3.74269
21
-6.3988
0
LINE
8
BLACK
6
CONTINUOUS
10
3.74269
20
-6.3988
11
3.74644
21
-6.39505
0
LINE
8
BLACK
6
CONTINUOUS
10
3.74644
20
-6.39505
11
3.75394
21
-6.3838
0
LINE
8
BLACK
6
CONTINUOUS
10
3.75394
20
-6.3838
11
3.75769
21
-6.3688
0
LINE
8
BLACK
6
CONTINUOUS
10
3.75769
20
-6.3688
11
3.75769
21
-6.33881
0
LINE
8
BLACK
6
CONTINUOUS
10
3.75769
20
-6.33881
11
3.75394
21
-6.33131
0
LINE
8
BLACK
6
CONTINUOUS
10
3.75394
20
-6.33131
11
3.75019
21
-6.32756
0
LINE
8
BLACK
6
CONTINUOUS
10
3.75019
20
-6.32756
11
3.74269
21
-6.32381
0
LINE
8
BLACK
6
CONTINUOUS
10
3.74269
20
-6.32381
11
3.72769
21
-6.32381
0
LINE
8
BLACK
6
CONTINUOUS
10
3.72769
20
-6.32381
11
3.72019
21
-6.32756
0
LINE
8
BLACK
6
CONTINUOUS
10
3.72019
20
-6.32756
11
3.71644
21
-6.33131
0
LINE
8
BLACK
6
CONTINUOUS
10
3.71644
20
-6.33131
11
3.71269
21
-6.33881
0
LINE
8
BLACK
6
CONTINUOUS
10
3.71269
20
-6.33881
11
3.71269
21
-6.35756
0
LINE
8
BLACK
6
CONTINUOUS
10
3.71269
20
-6.35756
11
3.71644
21
-6.36505
0
LINE
8
BLACK
6
CONTINUOUS
10
3.71644
20
-6.36505
11
3.72019
21
-6.3688
0
LINE
8
BLACK
6
CONTINUOUS
10
3.72019
20
-6.3688
11
3.72769
21
-6.37255
0
LINE
8
BLACK
6
CONTINUOUS
10
3.72769
20
-6.37255
11
3.74269
21
-6.37255
0
LINE
8
BLACK
6
CONTINUOUS
10
3.74269
20
-6.37255
11
3.75019
21
-6.3688
0
LINE
8
BLACK
6
CONTINUOUS
10
3.75019
20
-6.3688
11
3.75394
21
-6.36505
0
LINE
8
BLACK
6
CONTINUOUS
10
3.75394
20
-6.36505
11
3.75769
21
-6.35756
0
LINE
8
BLACK
6
CONTINUOUS
10
3.78768
20
-6.32381
11
3.78768
21
-6.33881
0
LINE
8
BLACK
6
CONTINUOUS
10
3.81768
20
-6.32381
11
3.81768
21
-6.33881
0
LINE
8
BLACK
6
CONTINUOUS
10
3.92117
20
-6.43255
11
3.91742
21
-6.4288
0
LINE
8
BLACK
6
CONTINUOUS
10
3.91742
20
-6.4288
11
3.90992
21
-6.41755
0
LINE
8
BLACK
6
CONTINUOUS
10
3.90992
20
-6.41755
11
3.90617
21
-6.41005
0
LINE
8
BLACK
6
CONTINUOUS
10
3.90617
20
-6.41005
11
3.90242
21
-6.3988
0
LINE
8
BLACK
6
CONTINUOUS
10
3.90242
20
-6.3988
11
3.89867
21
-6.38005
0
LINE
8
BLACK
6
CONTINUOUS
10
3.89867
20
-6.38005
11
3.89867
21
-6.36505
0
LINE
8
BLACK
6
CONTINUOUS
10
3.89867
20
-6.36505
11
3.90242
21
-6.34631
0
LINE
8
BLACK
6
CONTINUOUS
10
3.90242
20
-6.34631
11
3.90617
21
-6.33506
0
LINE
8
BLACK
6
CONTINUOUS
10
3.90617
20
-6.33506
11
3.90992
21
-6.32756
0
LINE
8
BLACK
6
CONTINUOUS
10
3.90992
20
-6.32756
11
3.91742
21
-6.31631
0
LINE
8
BLACK
6
CONTINUOUS
10
3.91742
20
-6.31631
11
3.92117
21
-6.31256
0
LINE
8
BLACK
6
CONTINUOUS
10
3.96241
20
-6.35756
11
3.95491
21
-6.35381
0
LINE
8
BLACK
6
CONTINUOUS
10
3.95491
20
-6.35381
11
3.95116
21
-6.35006
0
LINE
8
BLACK
6
CONTINUOUS
10
3.95116
20
-6.35006
11
3.94741
21
-6.34256
0
LINE
8
BLACK
6
CONTINUOUS
10
3.94741
20
-6.34256
11
3.94741
21
-6.33881
0
LINE
8
BLACK
6
CONTINUOUS
10
3.94741
20
-6.33881
11
3.95116
21
-6.33131
0
LINE
8
BLACK
6
CONTINUOUS
10
3.95116
20
-6.33131
11
3.95491
21
-6.32756
0
LINE
8
BLACK
6
CONTINUOUS
10
3.95491
20
-6.32756
11
3.96241
21
-6.32381
0
LINE
8
BLACK
6
CONTINUOUS
10
3.96241
20
-6.32381
11
3.97741
21
-6.32381
0
LINE
8
BLACK
6
CONTINUOUS
10
3.97741
20
-6.32381
11
3.98491
21
-6.32756
0
LINE
8
BLACK
6
CONTINUOUS
10
3.98491
20
-6.32756
11
3.98866
21
-6.33131
0
LINE
8
BLACK
6
CONTINUOUS
10
3.98866
20
-6.33131
11
3.99241
21
-6.33881
0
LINE
8
BLACK
6
CONTINUOUS
10
3.99241
20
-6.33881
11
3.99241
21
-6.34256
0
LINE
8
BLACK
6
CONTINUOUS
10
3.99241
20
-6.34256
11
3.98866
21
-6.35006
0
LINE
8
BLACK
6
CONTINUOUS
10
3.98866
20
-6.35006
11
3.98491
21
-6.35381
0
LINE
8
BLACK
6
CONTINUOUS
10
3.98491
20
-6.35381
11
3.97741
21
-6.35756
0
LINE
8
BLACK
6
CONTINUOUS
10
3.97741
20
-6.35756
11
3.96241
21
-6.35756
0
LINE
8
BLACK
6
CONTINUOUS
10
3.96241
20
-6.35756
11
3.95491
21
-6.3613
0
LINE
8
BLACK
6
CONTINUOUS
10
3.95491
20
-6.3613
11
3.95116
21
-6.36505
0
LINE
8
BLACK
6
CONTINUOUS
10
3.95116
20
-6.36505
11
3.94741
21
-6.37255
0
LINE
8
BLACK
6
CONTINUOUS
10
3.94741
20
-6.37255
11
3.94741
21
-6.38755
0
LINE
8
BLACK
6
CONTINUOUS
10
3.94741
20
-6.38755
11
3.95116
21
-6.39505
0
LINE
8
BLACK
6
CONTINUOUS
10
3.95116
20
-6.39505
11
3.95491
21
-6.3988
0
LINE
8
BLACK
6
CONTINUOUS
10
3.95491
20
-6.3988
11
3.96241
21
-6.40255
0
LINE
8
BLACK
6
CONTINUOUS
10
3.96241
20
-6.40255
11
3.97741
21
-6.40255
0
LINE
8
BLACK
6
CONTINUOUS
10
3.97741
20
-6.40255
11
3.98491
21
-6.3988
0
LINE
8
BLACK
6
CONTINUOUS
10
3.98491
20
-6.3988
11
3.98866
21
-6.39505
0
LINE
8
BLACK
6
CONTINUOUS
10
3.98866
20
-6.39505
11
3.99241
21
-6.38755
0
LINE
8
BLACK
6
CONTINUOUS
10
3.99241
20
-6.38755
11
3.99241
21
-6.37255
0
LINE
8
BLACK
6
CONTINUOUS
10
3.99241
20
-6.37255
11
3.98866
21
-6.36505
0
LINE
8
BLACK
6
CONTINUOUS
10
3.98866
20
-6.36505
11
3.98491
21
-6.3613
0
LINE
8
BLACK
6
CONTINUOUS
10
3.98491
20
-6.3613
11
3.97741
21
-6.35756
0
LINE
8
BLACK
6
CONTINUOUS
10
4.0734
20
-6.40255
11
4.0734
21
-6.32381
0
LINE
8
BLACK
6
CONTINUOUS
10
4.10714
20
-6.40255
11
4.10714
21
-6.3613
0
LINE
8
BLACK
6
CONTINUOUS
10
4.10714
20
-6.3613
11
4.10339
21
-6.35381
0
LINE
8
BLACK
6
CONTINUOUS
10
4.10339
20
-6.35381
11
4.09589
21
-6.35006
0
LINE
8
BLACK
6
CONTINUOUS
10
4.09589
20
-6.35006
11
4.08465
21
-6.35006
0
LINE
8
BLACK
6
CONTINUOUS
10
4.08465
20
-6.35006
11
4.07715
21
-6.35381
0
LINE
8
BLACK
6
CONTINUOUS
10
4.07715
20
-6.35381
11
4.0734
21
-6.35756
0
LINE
8
BLACK
6
CONTINUOUS
10
4.15589
20
-6.40255
11
4.14839
21
-6.3988
0
LINE
8
BLACK
6
CONTINUOUS
10
4.14839
20
-6.3988
11
4.14464
21
-6.39505
0
LINE
8
BLACK
6
CONTINUOUS
10
4.14464
20
-6.39505
11
4.14089
21
-6.38755
0
LINE
8
BLACK
6
CONTINUOUS
10
4.14089
20
-6.38755
11
4.14089
21
-6.36505
0
LINE
8
BLACK
6
CONTINUOUS
10
4.14089
20
-6.36505
11
4.14464
21
-6.35756
0
LINE
8
BLACK
6
CONTINUOUS
10
4.14464
20
-6.35756
11
4.14839
21
-6.35381
0
LINE
8
BLACK
6
CONTINUOUS
10
4.14839
20
-6.35381
11
4.15589
21
-6.35006
0
LINE
8
BLACK
6
CONTINUOUS
10
4.15589
20
-6.35006
11
4.16714
21
-6.35006
0
LINE
8
BLACK
6
CONTINUOUS
10
4.16714
20
-6.35006
11
4.17463
21
-6.35381
0
LINE
8
BLACK
6
CONTINUOUS
10
4.17463
20
-6.35381
11
4.17838
21
-6.35756
0
LINE
8
BLACK
6
CONTINUOUS
10
4.17838
20
-6.35756
11
4.18213
21
-6.36505
0
LINE
8
BLACK
6
CONTINUOUS
10
4.18213
20
-6.36505
11
4.18213
21
-6.38755
0
LINE
8
BLACK
6
CONTINUOUS
10
4.18213
20
-6.38755
11
4.17838
21
-6.39505
0
LINE
8
BLACK
6
CONTINUOUS
10
4.17838
20
-6.39505
11
4.17463
21
-6.3988
0
LINE
8
BLACK
6
CONTINUOUS
10
4.17463
20
-6.3988
11
4.16714
21
-6.40255
0
LINE
8
BLACK
6
CONTINUOUS
10
4.16714
20
-6.40255
11
4.15589
21
-6.40255
0
LINE
8
BLACK
6
CONTINUOUS
10
4.22713
20
-6.40255
11
4.21963
21
-6.3988
0
LINE
8
BLACK
6
CONTINUOUS
10
4.21963
20
-6.3988
11
4.21588
21
-6.3913
0
LINE
8
BLACK
6
CONTINUOUS
10
4.21588
20
-6.3913
11
4.21588
21
-6.32381
0
LINE
8
BLACK
6
CONTINUOUS
10
4.28712
20
-6.3988
11
4.27962
21
-6.40255
0
LINE
8
BLACK
6
CONTINUOUS
10
4.27962
20
-6.40255
11
4.26462
21
-6.40255
0
LINE
8
BLACK
6
CONTINUOUS
10
4.26462
20
-6.40255
11
4.25712
21
-6.3988
0
LINE
8
BLACK
6
CONTINUOUS
10
4.25712
20
-6.3988
11
4.25337
21
-6.3913
0
LINE
8
BLACK
6
CONTINUOUS
10
4.25337
20
-6.3913
11
4.25337
21
-6.3613
0
LINE
8
BLACK
6
CONTINUOUS
10
4.25337
20
-6.3613
11
4.25712
21
-6.35381
0
LINE
8
BLACK
6
CONTINUOUS
10
4.25712
20
-6.35381
11
4.26462
21
-6.35006
0
LINE
8
BLACK
6
CONTINUOUS
10
4.26462
20
-6.35006
11
4.27962
21
-6.35006
0
LINE
8
BLACK
6
CONTINUOUS
10
4.27962
20
-6.35006
11
4.28712
21
-6.35381
0
LINE
8
BLACK
6
CONTINUOUS
10
4.28712
20
-6.35381
11
4.29087
21
-6.3613
0
LINE
8
BLACK
6
CONTINUOUS
10
4.29087
20
-6.3613
11
4.29087
21
-6.3688
0
LINE
8
BLACK
6
CONTINUOUS
10
4.29087
20
-6.3688
11
4.25337
21
-6.3763
0
LINE
8
BLACK
6
CONTINUOUS
10
4.32087
20
-6.3988
11
4.32837
21
-6.40255
0
LINE
8
BLACK
6
CONTINUOUS
10
4.32837
20
-6.40255
11
4.34336
21
-6.40255
0
LINE
8
BLACK
6
CONTINUOUS
10
4.34336
20
-6.40255
11
4.35086
21
-6.3988
0
LINE
8
BLACK
6
CONTINUOUS
10
4.35086
20
-6.3988
11
4.35461
21
-6.3913
0
LINE
8
BLACK
6
CONTINUOUS
10
4.35461
20
-6.3913
11
4.35461
21
-6.38755
0
LINE
8
BLACK
6
CONTINUOUS
10
4.35461
20
-6.38755
11
4.35086
21
-6.38005
0
LINE
8
BLACK
6
CONTINUOUS
10
4.35086
20
-6.38005
11
4.34336
21
-6.3763
0
LINE
8
BLACK
6
CONTINUOUS
10
4.34336
20
-6.3763
11
4.33211
21
-6.3763
0
LINE
8
BLACK
6
CONTINUOUS
10
4.33211
20
-6.3763
11
4.32462
21
-6.37255
0
LINE
8
BLACK
6
CONTINUOUS
10
4.32462
20
-6.37255
11
4.32087
21
-6.36505
0
LINE
8
BLACK
6
CONTINUOUS
10
4.32087
20
-6.36505
11
4.32087
21
-6.3613
0
LINE
8
BLACK
6
CONTINUOUS
10
4.32087
20
-6.3613
11
4.32462
21
-6.35381
0
LINE
8
BLACK
6
CONTINUOUS
10
4.32462
20
-6.35381
11
4.33211
21
-6.35006
0
LINE
8
BLACK
6
CONTINUOUS
10
4.33211
20
-6.35006
11
4.34336
21
-6.35006
0
LINE
8
BLACK
6
CONTINUOUS
10
4.34336
20
-6.35006
11
4.35086
21
-6.35381
0
LINE
8
BLACK
6
CONTINUOUS
10
4.38086
20
-6.43255
11
4.38461
21
-6.4288
0
LINE
8
BLACK
6
CONTINUOUS
10
4.38461
20
-6.4288
11
4.39211
21
-6.41755
0
LINE
8
BLACK
6
CONTINUOUS
10
4.39211
20
-6.41755
11
4.39586
21
-6.41005
0
LINE
8
BLACK
6
CONTINUOUS
10
4.39586
20
-6.41005
11
4.39961
21
-6.3988
0
LINE
8
BLACK
6
CONTINUOUS
10
4.39961
20
-6.3988
11
4.40336
21
-6.38005
0
LINE
8
BLACK
6
CONTINUOUS
10
4.40336
20
-6.38005
11
4.40336
21
-6.36505
0
LINE
8
BLACK
6
CONTINUOUS
10
4.40336
20
-6.36505
11
4.39961
21
-6.34631
0
LINE
8
BLACK
6
CONTINUOUS
10
4.39961
20
-6.34631
11
4.39586
21
-6.33506
0
LINE
8
BLACK
6
CONTINUOUS
10
4.39586
20
-6.33506
11
4.39211
21
-6.32756
0
LINE
8
BLACK
6
CONTINUOUS
10
4.39211
20
-6.32756
11
4.38461
21
-6.31631
0
LINE
8
BLACK
6
CONTINUOUS
10
4.38461
20
-6.31631
11
4.38086
21
-6.31256
0
LINE
8
BLACK
6
CONTINUOUS
10
4.51059
20
-6.43255
11
4.50684
21
-6.4288
0
LINE
8
BLACK
6
CONTINUOUS
10
4.50684
20
-6.4288
11
4.49934
21
-6.41755
0
LINE
8
BLACK
6
CONTINUOUS
10
4.49934
20
-6.41755
11
4.49559
21
-6.41005
0
LINE
8
BLACK
6
CONTINUOUS
10
4.49559
20
-6.41005
11
4.49184
21
-6.3988
0
LINE
8
BLACK
6
CONTINUOUS
10
4.49184
20
-6.3988
11
4.4881
21
-6.38005
0
LINE
8
BLACK
6
CONTINUOUS
10
4.4881
20
-6.38005
11
4.4881
21
-6.36505
0
LINE
8
BLACK
6
CONTINUOUS
10
4.4881
20
-6.36505
11
4.49184
21
-6.34631
0
LINE
8
BLACK
6
CONTINUOUS
10
4.49184
20
-6.34631
11
4.49559
21
-6.33506
0
LINE
8
BLACK
6
CONTINUOUS
10
4.49559
20
-6.33506
11
4.49934
21
-6.32756
0
LINE
8
BLACK
6
CONTINUOUS
10
4.49934
20
-6.32756
11
4.50684
21
-6.31631
0
LINE
8
BLACK
6
CONTINUOUS
10
4.50684
20
-6.31631
11
4.51059
21
-6.31256
0
LINE
8
BLACK
6
CONTINUOUS
10
4.54059
20
-6.35006
11
4.54059
21
-6.40255
0
LINE
8
BLACK
6
CONTINUOUS
10
4.54059
20
-6.35756
11
4.54434
21
-6.35381
0
LINE
8
BLACK
6
CONTINUOUS
10
4.54434
20
-6.35381
11
4.55184
21
-6.35006
0
LINE
8
BLACK
6
CONTINUOUS
10
4.55184
20
-6.35006
11
4.56309
21
-6.35006
0
LINE
8
BLACK
6
CONTINUOUS
10
4.56309
20
-6.35006
11
4.57058
21
-6.35381
0
LINE
8
BLACK
6
CONTINUOUS
10
4.57058
20
-6.35381
11
4.57433
21
-6.3613
0
LINE
8
BLACK
6
CONTINUOUS
10
4.57433
20
-6.3613
11
4.57433
21
-6.40255
0
LINE
8
BLACK
6
CONTINUOUS
10
4.62308
20
-6.40255
11
4.61558
21
-6.3988
0
LINE
8
BLACK
6
CONTINUOUS
10
4.61558
20
-6.3988
11
4.61183
21
-6.39505
0
LINE
8
BLACK
6
CONTINUOUS
10
4.61183
20
-6.39505
11
4.60808
21
-6.38755
0
LINE
8
BLACK
6
CONTINUOUS
10
4.60808
20
-6.38755
11
4.60808
21
-6.36505
0
LINE
8
BLACK
6
CONTINUOUS
10
4.60808
20
-6.36505
11
4.61183
21
-6.35756
0
LINE
8
BLACK
6
CONTINUOUS
10
4.61183
20
-6.35756
11
4.61558
21
-6.35381
0
LINE
8
BLACK
6
CONTINUOUS
10
4.61558
20
-6.35381
11
4.62308
21
-6.35006
0
LINE
8
BLACK
6
CONTINUOUS
10
4.62308
20
-6.35006
11
4.63433
21
-6.35006
0
LINE
8
BLACK
6
CONTINUOUS
10
4.63433
20
-6.35006
11
4.64183
21
-6.35381
0
LINE
8
BLACK
6
CONTINUOUS
10
4.64183
20
-6.35381
11
4.64558
21
-6.35756
0
LINE
8
BLACK
6
CONTINUOUS
10
4.64558
20
-6.35756
11
4.64933
21
-6.36505
0
LINE
8
BLACK
6
CONTINUOUS
10
4.64933
20
-6.36505
11
4.64933
21
-6.38755
0
LINE
8
BLACK
6
CONTINUOUS
10
4.64933
20
-6.38755
11
4.64558
21
-6.39505
0
LINE
8
BLACK
6
CONTINUOUS
10
4.64558
20
-6.39505
11
4.64183
21
-6.3988
0
LINE
8
BLACK
6
CONTINUOUS
10
4.64183
20
-6.3988
11
4.63433
21
-6.40255
0
LINE
8
BLACK
6
CONTINUOUS
10
4.63433
20
-6.40255
11
4.62308
21
-6.40255
0
LINE
8
BLACK
6
CONTINUOUS
10
4.67182
20
-6.35006
11
4.70182
21
-6.35006
0
LINE
8
BLACK
6
CONTINUOUS
10
4.68307
20
-6.32381
11
4.68307
21
-6.3913
0
LINE
8
BLACK
6
CONTINUOUS
10
4.68307
20
-6.3913
11
4.68682
21
-6.3988
0
LINE
8
BLACK
6
CONTINUOUS
10
4.68682
20
-6.3988
11
4.69432
21
-6.40255
0
LINE
8
BLACK
6
CONTINUOUS
10
4.69432
20
-6.40255
11
4.70182
21
-6.40255
0
LINE
8
BLACK
6
CONTINUOUS
10
4.77531
20
-6.35006
11
4.77531
21
-6.4288
0
LINE
8
BLACK
6
CONTINUOUS
10
4.77531
20
-6.35381
11
4.78281
21
-6.35006
0
LINE
8
BLACK
6
CONTINUOUS
10
4.78281
20
-6.35006
11
4.79781
21
-6.35006
0
LINE
8
BLACK
6
CONTINUOUS
10
4.79781
20
-6.35006
11
4.80531
21
-6.35381
0
LINE
8
BLACK
6
CONTINUOUS
10
4.80531
20
-6.35381
11
4.80906
21
-6.35756
0
LINE
8
BLACK
6
CONTINUOUS
10
4.80906
20
-6.35756
11
4.8128
21
-6.36505
0
LINE
8
BLACK
6
CONTINUOUS
10
4.8128
20
-6.36505
11
4.8128
21
-6.38755
0
LINE
8
BLACK
6
CONTINUOUS
10
4.8128
20
-6.38755
11
4.80906
21
-6.39505
0
LINE
8
BLACK
6
CONTINUOUS
10
4.80906
20
-6.39505
11
4.80531
21
-6.3988
0
LINE
8
BLACK
6
CONTINUOUS
10
4.80531
20
-6.3988
11
4.79781
21
-6.40255
0
LINE
8
BLACK
6
CONTINUOUS
10
4.79781
20
-6.40255
11
4.78281
21
-6.40255
0
LINE
8
BLACK
6
CONTINUOUS
10
4.78281
20
-6.40255
11
4.77531
21
-6.3988
0
LINE
8
BLACK
6
CONTINUOUS
10
4.8578
20
-6.40255
11
4.8503
21
-6.3988
0
LINE
8
BLACK
6
CONTINUOUS
10
4.8503
20
-6.3988
11
4.84655
21
-6.3913
0
LINE
8
BLACK
6
CONTINUOUS
10
4.84655
20
-6.3913
11
4.84655
21
-6.32381
0
LINE
8
BLACK
6
CONTINUOUS
10
4.92154
20
-6.40255
11
4.92154
21
-6.3613
0
LINE
8
BLACK
6
CONTINUOUS
10
4.92154
20
-6.3613
11
4.91779
21
-6.35381
0
LINE
8
BLACK
6
CONTINUOUS
10
4.91779
20
-6.35381
11
4.91029
21
-6.35006
0
LINE
8
BLACK
6
CONTINUOUS
10
4.91029
20
-6.35006
11
4.89529
21
-6.35006
0
LINE
8
BLACK
6
CONTINUOUS
10
4.89529
20
-6.35006
11
4.8878
21
-6.35381
0
LINE
8
BLACK
6
CONTINUOUS
10
4.92154
20
-6.3988
11
4.91404
21
-6.40255
0
LINE
8
BLACK
6
CONTINUOUS
10
4.91404
20
-6.40255
11
4.89529
21
-6.40255
0
LINE
8
BLACK
6
CONTINUOUS
10
4.89529
20
-6.40255
11
4.8878
21
-6.3988
0
LINE
8
BLACK
6
CONTINUOUS
10
4.8878
20
-6.3988
11
4.88405
21
-6.3913
0
LINE
8
BLACK
6
CONTINUOUS
10
4.88405
20
-6.3913
11
4.88405
21
-6.3838
0
LINE
8
BLACK
6
CONTINUOUS
10
4.88405
20
-6.3838
11
4.8878
21
-6.3763
0
LINE
8
BLACK
6
CONTINUOUS
10
4.8878
20
-6.3763
11
4.89529
21
-6.37255
0
LINE
8
BLACK
6
CONTINUOUS
10
4.89529
20
-6.37255
11
4.91404
21
-6.37255
0
LINE
8
BLACK
6
CONTINUOUS
10
4.91404
20
-6.37255
11
4.92154
21
-6.3688
0
LINE
8
BLACK
6
CONTINUOUS
10
4.94779
20
-6.35006
11
4.97778
21
-6.35006
0
LINE
8
BLACK
6
CONTINUOUS
10
4.95904
20
-6.32381
11
4.95904
21
-6.3913
0
LINE
8
BLACK
6
CONTINUOUS
10
4.95904
20
-6.3913
11
4.96279
21
-6.3988
0
LINE
8
BLACK
6
CONTINUOUS
10
4.96279
20
-6.3988
11
4.97029
21
-6.40255
0
LINE
8
BLACK
6
CONTINUOUS
10
4.97029
20
-6.40255
11
4.97778
21
-6.40255
0
LINE
8
BLACK
6
CONTINUOUS
10
5.03403
20
-6.3988
11
5.02653
21
-6.40255
0
LINE
8
BLACK
6
CONTINUOUS
10
5.02653
20
-6.40255
11
5.01153
21
-6.40255
0
LINE
8
BLACK
6
CONTINUOUS
10
5.01153
20
-6.40255
11
5.00403
21
-6.3988
0
LINE
8
BLACK
6
CONTINUOUS
10
5.00403
20
-6.3988
11
5.00028
21
-6.3913
0
LINE
8
BLACK
6
CONTINUOUS
10
5.00028
20
-6.3913
11
5.00028
21
-6.3613
0
LINE
8
BLACK
6
CONTINUOUS
10
5.00028
20
-6.3613
11
5.00403
21
-6.35381
0
LINE
8
BLACK
6
CONTINUOUS
10
5.00403
20
-6.35381
11
5.01153
21
-6.35006
0
LINE
8
BLACK
6
CONTINUOUS
10
5.01153
20
-6.35006
11
5.02653
21
-6.35006
0
LINE
8
BLACK
6
CONTINUOUS
10
5.02653
20
-6.35006
11
5.03403
21
-6.35381
0
LINE
8
BLACK
6
CONTINUOUS
10
5.03403
20
-6.35381
11
5.03778
21
-6.3613
0
LINE
8
BLACK
6
CONTINUOUS
10
5.03778
20
-6.3613
11
5.03778
21
-6.3688
0
LINE
8
BLACK
6
CONTINUOUS
10
5.03778
20
-6.3688
11
5.00028
21
-6.3763
0
LINE
8
BLACK
6
CONTINUOUS
10
5.10527
20
-6.40255
11
5.10527
21
-6.32381
0
LINE
8
BLACK
6
CONTINUOUS
10
5.10527
20
-6.3988
11
5.09777
21
-6.40255
0
LINE
8
BLACK
6
CONTINUOUS
10
5.09777
20
-6.40255
11
5.08277
21
-6.40255
0
LINE
8
BLACK
6
CONTINUOUS
10
5.08277
20
-6.40255
11
5.07527
21
-6.3988
0
LINE
8
BLACK
6
CONTINUOUS
10
5.07527
20
-6.3988
11
5.07152
21
-6.39505
0
LINE
8
BLACK
6
CONTINUOUS
10
5.07152
20
-6.39505
11
5.06777
21
-6.38755
0
LINE
8
BLACK
6
CONTINUOUS
10
5.06777
20
-6.38755
11
5.06777
21
-6.36505
0
LINE
8
BLACK
6
CONTINUOUS
10
5.06777
20
-6.36505
11
5.07152
21
-6.35756
0
LINE
8
BLACK
6
CONTINUOUS
10
5.07152
20
-6.35756
11
5.07527
21
-6.35381
0
LINE
8
BLACK
6
CONTINUOUS
10
5.07527
20
-6.35381
11
5.08277
21
-6.35006
0
LINE
8
BLACK
6
CONTINUOUS
10
5.08277
20
-6.35006
11
5.09777
21
-6.35006
0
LINE
8
BLACK
6
CONTINUOUS
10
5.09777
20
-6.35006
11
5.10527
21
-6.35381
0
LINE
8
BLACK
6
CONTINUOUS
10
5.13526
20
-6.43255
11
5.13901
21
-6.4288
0
LINE
8
BLACK
6
CONTINUOUS
10
5.13901
20
-6.4288
11
5.14651
21
-6.41755
0
LINE
8
BLACK
6
CONTINUOUS
10
5.14651
20
-6.41755
11
5.15026
21
-6.41005
0
LINE
8
BLACK
6
CONTINUOUS
10
5.15026
20
-6.41005
11
5.15401
21
-6.3988
0
LINE
8
BLACK
6
CONTINUOUS
10
5.15401
20
-6.3988
11
5.15776
21
-6.38005
0
LINE
8
BLACK
6
CONTINUOUS
10
5.15776
20
-6.38005
11
5.15776
21
-6.36505
0
LINE
8
BLACK
6
CONTINUOUS
10
5.15776
20
-6.36505
11
5.15401
21
-6.34631
0
LINE
8
BLACK
6
CONTINUOUS
10
5.15401
20
-6.34631
11
5.15026
21
-6.33506
0
LINE
8
BLACK
6
CONTINUOUS
10
5.15026
20
-6.33506
11
5.14651
21
-6.32756
0
LINE
8
BLACK
6
CONTINUOUS
10
5.14651
20
-6.32756
11
5.13901
21
-6.31631
0
LINE
8
BLACK
6
CONTINUOUS
10
5.13901
20
-6.31631
11
5.13526
21
-6.31256
0
LINE
8
BLACK
6
CONTINUOUS
10
2.54556
20
-6.51563
11
2.54556
21
-6.45996
0
LINE
8
BLACK
6
CONTINUOUS
10
2.54556
20
-6.45996
11
2.48988
21
-6.45996
0
LINE
8
BLACK
6
CONTINUOUS
10
2.48988
20
-6.45996
11
2.48988
21
-6.51563
0
LINE
8
BLACK
6
CONTINUOUS
10
2.48988
20
-6.51563
11
2.54556
21
-6.51563
0
LINE
8
BLACK
6
CONTINUOUS
10
2.64708
20
-6.43798
11
2.69582
21
-6.43798
0
LINE
8
BLACK
6
CONTINUOUS
10
2.69582
20
-6.43798
11
2.66957
21
-6.46798
0
LINE
8
BLACK
6
CONTINUOUS
10
2.66957
20
-6.46798
11
2.68082
21
-6.46798
0
LINE
8
BLACK
6
CONTINUOUS
10
2.68082
20
-6.46798
11
2.68832
21
-6.47173
0
LINE
8
BLACK
6
CONTINUOUS
10
2.68832
20
-6.47173
11
2.69207
21
-6.47548
0
LINE
8
BLACK
6
CONTINUOUS
10
2.69207
20
-6.47548
11
2.69582
21
-6.48298
0
LINE
8
BLACK
6
CONTINUOUS
10
2.69582
20
-6.48298
11
2.69582
21
-6.50172
0
LINE
8
BLACK
6
CONTINUOUS
10
2.69582
20
-6.50172
11
2.69207
21
-6.50922
0
LINE
8
BLACK
6
CONTINUOUS
10
2.69207
20
-6.50922
11
2.68832
21
-6.51297
0
LINE
8
BLACK
6
CONTINUOUS
10
2.68832
20
-6.51297
11
2.68082
21
-6.51672
0
LINE
8
BLACK
6
CONTINUOUS
10
2.68082
20
-6.51672
11
2.65832
21
-6.51672
0
LINE
8
BLACK
6
CONTINUOUS
10
2.65832
20
-6.51672
11
2.65082
21
-6.51297
0
LINE
8
BLACK
6
CONTINUOUS
10
2.65082
20
-6.51297
11
2.64708
21
-6.50922
0
LINE
8
BLACK
6
CONTINUOUS
10
2.72957
20
-6.50922
11
2.73331
21
-6.51297
0
LINE
8
BLACK
6
CONTINUOUS
10
2.73331
20
-6.51297
11
2.72957
21
-6.51672
0
LINE
8
BLACK
6
CONTINUOUS
10
2.72957
20
-6.51672
11
2.72582
21
-6.51297
0
LINE
8
BLACK
6
CONTINUOUS
10
2.72582
20
-6.51297
11
2.72957
21
-6.50922
0
LINE
8
BLACK
6
CONTINUOUS
10
2.72957
20
-6.50922
11
2.72957
21
-6.51672
0
LINE
8
BLACK
6
CONTINUOUS
10
2.76331
20
-6.44548
11
2.76706
21
-6.44173
0
LINE
8
BLACK
6
CONTINUOUS
10
2.76706
20
-6.44173
11
2.77456
21
-6.43798
0
LINE
8
BLACK
6
CONTINUOUS
10
2.77456
20
-6.43798
11
2.79331
21
-6.43798
0
LINE
8
BLACK
6
CONTINUOUS
10
2.79331
20
-6.43798
11
2.80081
21
-6.44173
0
LINE
8
BLACK
6
CONTINUOUS
10
2.80081
20
-6.44173
11
2.80456
21
-6.44548
0
LINE
8
BLACK
6
CONTINUOUS
10
2.80456
20
-6.44548
11
2.80831
21
-6.45298
0
LINE
8
BLACK
6
CONTINUOUS
10
2.80831
20
-6.45298
11
2.80831
21
-6.46048
0
LINE
8
BLACK
6
CONTINUOUS
10
2.80831
20
-6.46048
11
2.80456
21
-6.47173
0
LINE
8
BLACK
6
CONTINUOUS
10
2.80456
20
-6.47173
11
2.75956
21
-6.51672
0
LINE
8
BLACK
6
CONTINUOUS
10
2.75956
20
-6.51672
11
2.80831
21
-6.51672
0
LINE
8
BLACK
6
CONTINUOUS
10
2.85705
20
-6.43798
11
2.86455
21
-6.43798
0
LINE
8
BLACK
6
CONTINUOUS
10
2.86455
20
-6.43798
11
2.87205
21
-6.44173
0
LINE
8
BLACK
6
CONTINUOUS
10
2.87205
20
-6.44173
11
2.8758
21
-6.44548
0
LINE
8
BLACK
6
CONTINUOUS
10
2.8758
20
-6.44548
11
2.87955
21
-6.45298
0
LINE
8
BLACK
6
CONTINUOUS
10
2.87955
20
-6.45298
11
2.8833
21
-6.46798
0
LINE
8
BLACK
6
CONTINUOUS
10
2.8833
20
-6.46798
11
2.8833
21
-6.48673
0
LINE
8
BLACK
6
CONTINUOUS
10
2.8833
20
-6.48673
11
2.87955
21
-6.50172
0
LINE
8
BLACK
6
CONTINUOUS
10
2.87955
20
-6.50172
11
2.8758
21
-6.50922
0
LINE
8
BLACK
6
CONTINUOUS
10
2.8758
20
-6.50922
11
2.87205
21
-6.51297
0
LINE
8
BLACK
6
CONTINUOUS
10
2.87205
20
-6.51297
11
2.86455
21
-6.51672
0
LINE
8
BLACK
6
CONTINUOUS
10
2.86455
20
-6.51672
11
2.85705
21
-6.51672
0
LINE
8
BLACK
6
CONTINUOUS
10
2.85705
20
-6.51672
11
2.84955
21
-6.51297
0
LINE
8
BLACK
6
CONTINUOUS
10
2.84955
20
-6.51297
11
2.8458
21
-6.50922
0
LINE
8
BLACK
6
CONTINUOUS
10
2.8458
20
-6.50922
11
2.84205
21
-6.50172
0
LINE
8
BLACK
6
CONTINUOUS
10
2.84205
20
-6.50172
11
2.8383
21
-6.48673
0
LINE
8
BLACK
6
CONTINUOUS
10
2.8383
20
-6.48673
11
2.8383
21
-6.46798
0
LINE
8
BLACK
6
CONTINUOUS
10
2.8383
20
-6.46798
11
2.84205
21
-6.45298
0
LINE
8
BLACK
6
CONTINUOUS
10
2.84205
20
-6.45298
11
2.8458
21
-6.44548
0
LINE
8
BLACK
6
CONTINUOUS
10
2.8458
20
-6.44548
11
2.84955
21
-6.44173
0
LINE
8
BLACK
6
CONTINUOUS
10
2.84955
20
-6.44173
11
2.85705
21
-6.43798
0
LINE
8
BLACK
6
CONTINUOUS
10
2.93204
20
-6.43798
11
2.93954
21
-6.43798
0
LINE
8
BLACK
6
CONTINUOUS
10
2.93954
20
-6.43798
11
2.94704
21
-6.44173
0
LINE
8
BLACK
6
CONTINUOUS
10
2.94704
20
-6.44173
11
2.95079
21
-6.44548
0
LINE
8
BLACK
6
CONTINUOUS
10
2.95079
20
-6.44548
11
2.95454
21
-6.45298
0
LINE
8
BLACK
6
CONTINUOUS
10
2.95454
20
-6.45298
11
2.95829
21
-6.46798
0
LINE
8
BLACK
6
CONTINUOUS
10
2.95829
20
-6.46798
11
2.95829
21
-6.48673
0
LINE
8
BLACK
6
CONTINUOUS
10
2.95829
20
-6.48673
11
2.95454
21
-6.50172
0
LINE
8
BLACK
6
CONTINUOUS
10
2.95454
20
-6.50172
11
2.95079
21
-6.50922
0
LINE
8
BLACK
6
CONTINUOUS
10
2.95079
20
-6.50922
11
2.94704
21
-6.51297
0
LINE
8
BLACK
6
CONTINUOUS
10
2.94704
20
-6.51297
11
2.93954
21
-6.51672
0
LINE
8
BLACK
6
CONTINUOUS
10
2.93954
20
-6.51672
11
2.93204
21
-6.51672
0
LINE
8
BLACK
6
CONTINUOUS
10
2.93204
20
-6.51672
11
2.92454
21
-6.51297
0
LINE
8
BLACK
6
CONTINUOUS
10
2.92454
20
-6.51297
11
2.92079
21
-6.50922
0
LINE
8
BLACK
6
CONTINUOUS
10
2.92079
20
-6.50922
11
2.91704
21
-6.50172
0
LINE
8
BLACK
6
CONTINUOUS
10
2.91704
20
-6.50172
11
2.91329
21
-6.48673
0
LINE
8
BLACK
6
CONTINUOUS
10
2.91329
20
-6.48673
11
2.91329
21
-6.46798
0
LINE
8
BLACK
6
CONTINUOUS
10
2.91329
20
-6.46798
11
2.91704
21
-6.45298
0
LINE
8
BLACK
6
CONTINUOUS
10
2.91704
20
-6.45298
11
2.92079
21
-6.44548
0
LINE
8
BLACK
6
CONTINUOUS
10
2.92079
20
-6.44548
11
2.92454
21
-6.44173
0
LINE
8
BLACK
6
CONTINUOUS
10
2.92454
20
-6.44173
11
2.93204
21
-6.43798
0
LINE
8
BLACK
6
CONTINUOUS
10
2.99203
20
-6.51672
11
2.99203
21
-6.46423
0
LINE
8
BLACK
6
CONTINUOUS
10
2.99203
20
-6.47173
11
2.99578
21
-6.46798
0
LINE
8
BLACK
6
CONTINUOUS
10
2.99578
20
-6.46798
11
3.00328
21
-6.46423
0
LINE
8
BLACK
6
CONTINUOUS
10
3.00328
20
-6.46423
11
3.01453
21
-6.46423
0
LINE
8
BLACK
6
CONTINUOUS
10
3.01453
20
-6.46423
11
3.02203
21
-6.46798
0
LINE
8
BLACK
6
CONTINUOUS
10
3.02203
20
-6.46798
11
3.02578
21
-6.47548
0
LINE
8
BLACK
6
CONTINUOUS
10
3.02578
20
-6.47548
11
3.02578
21
-6.51672
0
LINE
8
BLACK
6
CONTINUOUS
10
3.02578
20
-6.47548
11
3.02953
21
-6.46798
0
LINE
8
BLACK
6
CONTINUOUS
10
3.02953
20
-6.46798
11
3.03703
21
-6.46423
0
LINE
8
BLACK
6
CONTINUOUS
10
3.03703
20
-6.46423
11
3.04828
21
-6.46423
0
LINE
8
BLACK
6
CONTINUOUS
10
3.04828
20
-6.46423
11
3.05577
21
-6.46798
0
LINE
8
BLACK
6
CONTINUOUS
10
3.05577
20
-6.46798
11
3.05952
21
-6.47548
0
LINE
8
BLACK
6
CONTINUOUS
10
3.05952
20
-6.47548
11
3.05952
21
-6.51672
0
LINE
8
BLACK
6
CONTINUOUS
10
3.09702
20
-6.51672
11
3.09702
21
-6.46423
0
LINE
8
BLACK
6
CONTINUOUS
10
3.09702
20
-6.47173
11
3.10077
21
-6.46798
0
LINE
8
BLACK
6
CONTINUOUS
10
3.10077
20
-6.46798
11
3.10827
21
-6.46423
0
LINE
8
BLACK
6
CONTINUOUS
10
3.10827
20
-6.46423
11
3.11952
21
-6.46423
0
LINE
8
BLACK
6
CONTINUOUS
10
3.11952
20
-6.46423
11
3.12702
21
-6.46798
0
LINE
8
BLACK
6
CONTINUOUS
10
3.12702
20
-6.46798
11
3.13076
21
-6.47548
0
LINE
8
BLACK
6
CONTINUOUS
10
3.13076
20
-6.47548
11
3.13076
21
-6.51672
0
LINE
8
BLACK
6
CONTINUOUS
10
3.13076
20
-6.47548
11
3.13451
21
-6.46798
0
LINE
8
BLACK
6
CONTINUOUS
10
3.13451
20
-6.46798
11
3.14201
21
-6.46423
0
LINE
8
BLACK
6
CONTINUOUS
10
3.14201
20
-6.46423
11
3.15326
21
-6.46423
0
LINE
8
BLACK
6
CONTINUOUS
10
3.15326
20
-6.46423
11
3.16076
21
-6.46798
0
LINE
8
BLACK
6
CONTINUOUS
10
3.16076
20
-6.46798
11
3.16451
21
-6.47548
0
LINE
8
BLACK
6
CONTINUOUS
10
3.16451
20
-6.47548
11
3.16451
21
-6.51672
0
LINE
8
BLACK
6
CONTINUOUS
10
3.30549
20
-6.43423
11
3.238
21
-6.53547
0
LINE
8
BLACK
6
CONTINUOUS
10
3.39398
20
-6.43798
11
3.40148
21
-6.43798
0
LINE
8
BLACK
6
CONTINUOUS
10
3.40148
20
-6.43798
11
3.40898
21
-6.44173
0
LINE
8
BLACK
6
CONTINUOUS
10
3.40898
20
-6.44173
11
3.41273
21
-6.44548
0
LINE
8
BLACK
6
CONTINUOUS
10
3.41273
20
-6.44548
11
3.41648
21
-6.45298
0
LINE
8
BLACK
6
CONTINUOUS
10
3.41648
20
-6.45298
11
3.42023
21
-6.46798
0
LINE
8
BLACK
6
CONTINUOUS
10
3.42023
20
-6.46798
11
3.42023
21
-6.48673
0
LINE
8
BLACK
6
CONTINUOUS
10
3.42023
20
-6.48673
11
3.41648
21
-6.50172
0
LINE
8
BLACK
6
CONTINUOUS
10
3.41648
20
-6.50172
11
3.41273
21
-6.50922
0
LINE
8
BLACK
6
CONTINUOUS
10
3.41273
20
-6.50922
11
3.40898
21
-6.51297
0
LINE
8
BLACK
6
CONTINUOUS
10
3.40898
20
-6.51297
11
3.40148
21
-6.51672
0
LINE
8
BLACK
6
CONTINUOUS
10
3.40148
20
-6.51672
11
3.39398
21
-6.51672
0
LINE
8
BLACK
6
CONTINUOUS
10
3.39398
20
-6.51672
11
3.38648
21
-6.51297
0
LINE
8
BLACK
6
CONTINUOUS
10
3.38648
20
-6.51297
11
3.38273
21
-6.50922
0
LINE
8
BLACK
6
CONTINUOUS
10
3.38273
20
-6.50922
11
3.37898
21
-6.50172
0
LINE
8
BLACK
6
CONTINUOUS
10
3.37898
20
-6.50172
11
3.37523
21
-6.48673
0
LINE
8
BLACK
6
CONTINUOUS
10
3.37523
20
-6.48673
11
3.37523
21
-6.46798
0
LINE
8
BLACK
6
CONTINUOUS
10
3.37523
20
-6.46798
11
3.37898
21
-6.45298
0
LINE
8
BLACK
6
CONTINUOUS
10
3.37898
20
-6.45298
11
3.38273
21
-6.44548
0
LINE
8
BLACK
6
CONTINUOUS
10
3.38273
20
-6.44548
11
3.38648
21
-6.44173
0
LINE
8
BLACK
6
CONTINUOUS
10
3.38648
20
-6.44173
11
3.39398
21
-6.43798
0
LINE
8
BLACK
6
CONTINUOUS
10
3.45397
20
-6.50922
11
3.45772
21
-6.51297
0
LINE
8
BLACK
6
CONTINUOUS
10
3.45772
20
-6.51297
11
3.45397
21
-6.51672
0
LINE
8
BLACK
6
CONTINUOUS
10
3.45397
20
-6.51672
11
3.45023
21
-6.51297
0
LINE
8
BLACK
6
CONTINUOUS
10
3.45023
20
-6.51297
11
3.45397
21
-6.50922
0
LINE
8
BLACK
6
CONTINUOUS
10
3.45397
20
-6.50922
11
3.45397
21
-6.51672
0
LINE
8
BLACK
6
CONTINUOUS
10
3.53271
20
-6.51672
11
3.48772
21
-6.51672
0
LINE
8
BLACK
6
CONTINUOUS
10
3.51022
20
-6.51672
11
3.51022
21
-6.43798
0
LINE
8
BLACK
6
CONTINUOUS
10
3.51022
20
-6.43798
11
3.50272
21
-6.44923
0
LINE
8
BLACK
6
CONTINUOUS
10
3.50272
20
-6.44923
11
3.49522
21
-6.45673
0
LINE
8
BLACK
6
CONTINUOUS
10
3.49522
20
-6.45673
11
3.48772
21
-6.46048
0
LINE
8
BLACK
6
CONTINUOUS
10
3.56271
20
-6.44548
11
3.56646
21
-6.44173
0
LINE
8
BLACK
6
CONTINUOUS
10
3.56646
20
-6.44173
11
3.57396
21
-6.43798
0
LINE
8
BLACK
6
CONTINUOUS
10
3.57396
20
-6.43798
11
3.59271
21
-6.43798
0
LINE
8
BLACK
6
CONTINUOUS
10
3.59271
20
-6.43798
11
3.60021
21
-6.44173
0
LINE
8
BLACK
6
CONTINUOUS
10
3.60021
20
-6.44173
11
3.60396
21
-6.44548
0
LINE
8
BLACK
6
CONTINUOUS
10
3.60396
20
-6.44548
11
3.60771
21
-6.45298
0
LINE
8
BLACK
6
CONTINUOUS
10
3.60771
20
-6.45298
11
3.60771
21
-6.46048
0
LINE
8
BLACK
6
CONTINUOUS
10
3.60771
20
-6.46048
11
3.60396
21
-6.47173
0
LINE
8
BLACK
6
CONTINUOUS
10
3.60396
20
-6.47173
11
3.55896
21
-6.51672
0
LINE
8
BLACK
6
CONTINUOUS
10
3.55896
20
-6.51672
11
3.60771
21
-6.51672
0
LINE
8
BLACK
6
CONTINUOUS
10
3.6752
20
-6.43798
11
3.6602
21
-6.43798
0
LINE
8
BLACK
6
CONTINUOUS
10
3.6602
20
-6.43798
11
3.6527
21
-6.44173
0
LINE
8
BLACK
6
CONTINUOUS
10
3.6527
20
-6.44173
11
3.64895
21
-6.44548
0
LINE
8
BLACK
6
CONTINUOUS
10
3.64895
20
-6.44548
11
3.64145
21
-6.45673
0
LINE
8
BLACK
6
CONTINUOUS
10
3.64145
20
-6.45673
11
3.6377
21
-6.47173
0
LINE
8
BLACK
6
CONTINUOUS
10
3.6377
20
-6.47173
11
3.6377
21
-6.50172
0
LINE
8
BLACK
6
CONTINUOUS
10
3.6377
20
-6.50172
11
3.64145
21
-6.50922
0
LINE
8
BLACK
6
CONTINUOUS
10
3.64145
20
-6.50922
11
3.6452
21
-6.51297
0
LINE
8
BLACK
6
CONTINUOUS
10
3.6452
20
-6.51297
11
3.6527
21
-6.51672
0
LINE
8
BLACK
6
CONTINUOUS
10
3.6527
20
-6.51672
11
3.6677
21
-6.51672
0
LINE
8
BLACK
6
CONTINUOUS
10
3.6677
20
-6.51672
11
3.6752
21
-6.51297
0
LINE
8
BLACK
6
CONTINUOUS
10
3.6752
20
-6.51297
11
3.67895
21
-6.50922
0
LINE
8
BLACK
6
CONTINUOUS
10
3.67895
20
-6.50922
11
3.6827
21
-6.50172
0
LINE
8
BLACK
6
CONTINUOUS
10
3.6827
20
-6.50172
11
3.6827
21
-6.48298
0
LINE
8
BLACK
6
CONTINUOUS
10
3.6827
20
-6.48298
11
3.67895
21
-6.47548
0
LINE
8
BLACK
6
CONTINUOUS
10
3.67895
20
-6.47548
11
3.6752
21
-6.47173
0
LINE
8
BLACK
6
CONTINUOUS
10
3.6752
20
-6.47173
11
3.6677
21
-6.46798
0
LINE
8
BLACK
6
CONTINUOUS
10
3.6677
20
-6.46798
11
3.6527
21
-6.46798
0
LINE
8
BLACK
6
CONTINUOUS
10
3.6527
20
-6.46798
11
3.6452
21
-6.47173
0
LINE
8
BLACK
6
CONTINUOUS
10
3.6452
20
-6.47173
11
3.64145
21
-6.47548
0
LINE
8
BLACK
6
CONTINUOUS
10
3.64145
20
-6.47548
11
3.6377
21
-6.48298
0
LINE
8
BLACK
6
CONTINUOUS
10
3.73144
20
-6.43798
11
3.73894
21
-6.43798
0
LINE
8
BLACK
6
CONTINUOUS
10
3.73894
20
-6.43798
11
3.74644
21
-6.44173
0
LINE
8
BLACK
6
CONTINUOUS
10
3.74644
20
-6.44173
11
3.75019
21
-6.44548
0
LINE
8
BLACK
6
CONTINUOUS
10
3.75019
20
-6.44548
11
3.75394
21
-6.45298
0
LINE
8
BLACK
6
CONTINUOUS
10
3.75394
20
-6.45298
11
3.75769
21
-6.46798
0
LINE
8
BLACK
6
CONTINUOUS
10
3.75769
20
-6.46798
11
3.75769
21
-6.48673
0
LINE
8
BLACK
6
CONTINUOUS
10
3.75769
20
-6.48673
11
3.75394
21
-6.50172
0
LINE
8
BLACK
6
CONTINUOUS
10
3.75394
20
-6.50172
11
3.75019
21
-6.50922
0
LINE
8
BLACK
6
CONTINUOUS
10
3.75019
20
-6.50922
11
3.74644
21
-6.51297
0
LINE
8
BLACK
6
CONTINUOUS
10
3.74644
20
-6.51297
11
3.73894
21
-6.51672
0
LINE
8
BLACK
6
CONTINUOUS
10
3.73894
20
-6.51672
11
3.73144
21
-6.51672
0
LINE
8
BLACK
6
CONTINUOUS
10
3.73144
20
-6.51672
11
3.72394
21
-6.51297
0
LINE
8
BLACK
6
CONTINUOUS
10
3.72394
20
-6.51297
11
3.72019
21
-6.50922
0
LINE
8
BLACK
6
CONTINUOUS
10
3.72019
20
-6.50922
11
3.71644
21
-6.50172
0
LINE
8
BLACK
6
CONTINUOUS
10
3.71644
20
-6.50172
11
3.71269
21
-6.48673
0
LINE
8
BLACK
6
CONTINUOUS
10
3.71269
20
-6.48673
11
3.71269
21
-6.46798
0
LINE
8
BLACK
6
CONTINUOUS
10
3.71269
20
-6.46798
11
3.71644
21
-6.45298
0
LINE
8
BLACK
6
CONTINUOUS
10
3.71644
20
-6.45298
11
3.72019
21
-6.44548
0
LINE
8
BLACK
6
CONTINUOUS
10
3.72019
20
-6.44548
11
3.72394
21
-6.44173
0
LINE
8
BLACK
6
CONTINUOUS
10
3.72394
20
-6.44173
11
3.73144
21
-6.43798
0
LINE
8
BLACK
6
CONTINUOUS
10
3.78768
20
-6.43798
11
3.78768
21
-6.45298
0
LINE
8
BLACK
6
CONTINUOUS
10
3.81768
20
-6.43798
11
3.81768
21
-6.45298
0
LINE
8
BLACK
6
CONTINUOUS
10
3.92117
20
-6.54672
11
3.91742
21
-6.54297
0
LINE
8
BLACK
6
CONTINUOUS
10
3.91742
20
-6.54297
11
3.90992
21
-6.53172
0
LINE
8
BLACK
6
CONTINUOUS
10
3.90992
20
-6.53172
11
3.90617
21
-6.52422
0
LINE
8
BLACK
6
CONTINUOUS
10
3.90617
20
-6.52422
11
3.90242
21
-6.51297
0
LINE
8
BLACK
6
CONTINUOUS
10
3.90242
20
-6.51297
11
3.89867
21
-6.49423
0
LINE
8
BLACK
6
CONTINUOUS
10
3.89867
20
-6.49423
11
3.89867
21
-6.47923
0
LINE
8
BLACK
6
CONTINUOUS
10
3.89867
20
-6.47923
11
3.90242
21
-6.46048
0
LINE
8
BLACK
6
CONTINUOUS
10
3.90242
20
-6.46048
11
3.90617
21
-6.44923
0
LINE
8
BLACK
6
CONTINUOUS
10
3.90617
20
-6.44923
11
3.90992
21
-6.44173
0
LINE
8
BLACK
6
CONTINUOUS
10
3.90992
20
-6.44173
11
3.91742
21
-6.43048
0
LINE
8
BLACK
6
CONTINUOUS
10
3.91742
20
-6.43048
11
3.92117
21
-6.42673
0
LINE
8
BLACK
6
CONTINUOUS
10
3.98491
20
-6.46423
11
3.98491
21
-6.51672
0
LINE
8
BLACK
6
CONTINUOUS
10
3.96616
20
-6.43423
11
3.94741
21
-6.49048
0
LINE
8
BLACK
6
CONTINUOUS
10
3.94741
20
-6.49048
11
3.99616
21
-6.49048
0
LINE
8
BLACK
6
CONTINUOUS
10
4.0734
20
-6.51672
11
4.0734
21
-6.43798
0
LINE
8
BLACK
6
CONTINUOUS
10
4.10714
20
-6.51672
11
4.10714
21
-6.47548
0
LINE
8
BLACK
6
CONTINUOUS
10
4.10714
20
-6.47548
11
4.10339
21
-6.46798
0
LINE
8
BLACK
6
CONTINUOUS
10
4.10339
20
-6.46798
11
4.09589
21
-6.46423
0
LINE
8
BLACK
6
CONTINUOUS
10
4.09589
20
-6.46423
11
4.08465
21
-6.46423
0
LINE
8
BLACK
6
CONTINUOUS
10
4.08465
20
-6.46423
11
4.07715
21
-6.46798
0
LINE
8
BLACK
6
CONTINUOUS
10
4.07715
20
-6.46798
11
4.0734
21
-6.47173
0
LINE
8
BLACK
6
CONTINUOUS
10
4.15589
20
-6.51672
11
4.14839
21
-6.51297
0
LINE
8
BLACK
6
CONTINUOUS
10
4.14839
20
-6.51297
11
4.14464
21
-6.50922
0
LINE
8
BLACK
6
CONTINUOUS
10
4.14464
20
-6.50922
11
4.14089
21
-6.50172
0
LINE
8
BLACK
6
CONTINUOUS
10
4.14089
20
-6.50172
11
4.14089
21
-6.47923
0
LINE
8
BLACK
6
CONTINUOUS
10
4.14089
20
-6.47923
11
4.14464
21
-6.47173
0
LINE
8
BLACK
6
CONTINUOUS
10
4.14464
20
-6.47173
11
4.14839
21
-6.46798
0
LINE
8
BLACK
6
CONTINUOUS
10
4.14839
20
-6.46798
11
4.15589
21
-6.46423
0
LINE
8
BLACK
6
CONTINUOUS
10
4.15589
20
-6.46423
11
4.16714
21
-6.46423
0
LINE
8
BLACK
6
CONTINUOUS
10
4.16714
20
-6.46423
11
4.17463
21
-6.46798
0
LINE
8
BLACK
6
CONTINUOUS
10
4.17463
20
-6.46798
11
4.17838
21
-6.47173
0
LINE
8
BLACK
6
CONTINUOUS
10
4.17838
20
-6.47173
11
4.18213
21
-6.47923
0
LINE
8
BLACK
6
CONTINUOUS
10
4.18213
20
-6.47923
11
4.18213
21
-6.50172
0
LINE
8
BLACK
6
CONTINUOUS
10
4.18213
20
-6.50172
11
4.17838
21
-6.50922
0
LINE
8
BLACK
6
CONTINUOUS
10
4.17838
20
-6.50922
11
4.17463
21
-6.51297
0
LINE
8
BLACK
6
CONTINUOUS
10
4.17463
20
-6.51297
11
4.16714
21
-6.51672
0
LINE
8
BLACK
6
CONTINUOUS
10
4.16714
20
-6.51672
11
4.15589
21
-6.51672
0
LINE
8
BLACK
6
CONTINUOUS
10
4.22713
20
-6.51672
11
4.21963
21
-6.51297
0
LINE
8
BLACK
6
CONTINUOUS
10
4.21963
20
-6.51297
11
4.21588
21
-6.50547
0
LINE
8
BLACK
6
CONTINUOUS
10
4.21588
20
-6.50547
11
4.21588
21
-6.43798
0
LINE
8
BLACK
6
CONTINUOUS
10
4.28712
20
-6.51297
11
4.27962
21
-6.51672
0
LINE
8
BLACK
6
CONTINUOUS
10
4.27962
20
-6.51672
11
4.26462
21
-6.51672
0
LINE
8
BLACK
6
CONTINUOUS
10
4.26462
20
-6.51672
11
4.25712
21
-6.51297
0
LINE
8
BLACK
6
CONTINUOUS
10
4.25712
20
-6.51297
11
4.25337
21
-6.50547
0
LINE
8
BLACK
6
CONTINUOUS
10
4.25337
20
-6.50547
11
4.25337
21
-6.47548
0
LINE
8
BLACK
6
CONTINUOUS
10
4.25337
20
-6.47548
11
4.25712
21
-6.46798
0
LINE
8
BLACK
6
CONTINUOUS
10
4.25712
20
-6.46798
11
4.26462
21
-6.46423
0
LINE
8
BLACK
6
CONTINUOUS
10
4.26462
20
-6.46423
11
4.27962
21
-6.46423
0
LINE
8
BLACK
6
CONTINUOUS
10
4.27962
20
-6.46423
11
4.28712
21
-6.46798
0
LINE
8
BLACK
6
CONTINUOUS
10
4.28712
20
-6.46798
11
4.29087
21
-6.47548
0
LINE
8
BLACK
6
CONTINUOUS
10
4.29087
20
-6.47548
11
4.29087
21
-6.48298
0
LINE
8
BLACK
6
CONTINUOUS
10
4.29087
20
-6.48298
11
4.25337
21
-6.49048
0
LINE
8
BLACK
6
CONTINUOUS
10
4.32087
20
-6.51297
11
4.32837
21
-6.51672
0
LINE
8
BLACK
6
CONTINUOUS
10
4.32837
20
-6.51672
11
4.34336
21
-6.51672
0
LINE
8
BLACK
6
CONTINUOUS
10
4.34336
20
-6.51672
11
4.35086
21
-6.51297
0
LINE
8
BLACK
6
CONTINUOUS
10
4.35086
20
-6.51297
11
4.35461
21
-6.50547
0
LINE
8
BLACK
6
CONTINUOUS
10
4.35461
20
-6.50547
11
4.35461
21
-6.50172
0
LINE
8
BLACK
6
CONTINUOUS
10
4.35461
20
-6.50172
11
4.35086
21
-6.49423
0
LINE
8
BLACK
6
CONTINUOUS
10
4.35086
20
-6.49423
11
4.34336
21
-6.49048
0
LINE
8
BLACK
6
CONTINUOUS
10
4.34336
20
-6.49048
11
4.33211
21
-6.49048
0
LINE
8
BLACK
6
CONTINUOUS
10
4.33211
20
-6.49048
11
4.32462
21
-6.48673
0
LINE
8
BLACK
6
CONTINUOUS
10
4.32462
20
-6.48673
11
4.32087
21
-6.47923
0
LINE
8
BLACK
6
CONTINUOUS
10
4.32087
20
-6.47923
11
4.32087
21
-6.47548
0
LINE
8
BLACK
6
CONTINUOUS
10
4.32087
20
-6.47548
11
4.32462
21
-6.46798
0
LINE
8
BLACK
6
CONTINUOUS
10
4.32462
20
-6.46798
11
4.33211
21
-6.46423
0
LINE
8
BLACK
6
CONTINUOUS
10
4.33211
20
-6.46423
11
4.34336
21
-6.46423
0
LINE
8
BLACK
6
CONTINUOUS
10
4.34336
20
-6.46423
11
4.35086
21
-6.46798
0
LINE
8
BLACK
6
CONTINUOUS
10
4.38086
20
-6.54672
11
4.38461
21
-6.54297
0
LINE
8
BLACK
6
CONTINUOUS
10
4.38461
20
-6.54297
11
4.39211
21
-6.53172
0
LINE
8
BLACK
6
CONTINUOUS
10
4.39211
20
-6.53172
11
4.39586
21
-6.52422
0
LINE
8
BLACK
6
CONTINUOUS
10
4.39586
20
-6.52422
11
4.39961
21
-6.51297
0
LINE
8
BLACK
6
CONTINUOUS
10
4.39961
20
-6.51297
11
4.40336
21
-6.49423
0
LINE
8
BLACK
6
CONTINUOUS
10
4.40336
20
-6.49423
11
4.40336
21
-6.47923
0
LINE
8
BLACK
6
CONTINUOUS
10
4.40336
20
-6.47923
11
4.39961
21
-6.46048
0
LINE
8
BLACK
6
CONTINUOUS
10
4.39961
20
-6.46048
11
4.39586
21
-6.44923
0
LINE
8
BLACK
6
CONTINUOUS
10
4.39586
20
-6.44923
11
4.39211
21
-6.44173
0
LINE
8
BLACK
6
CONTINUOUS
10
4.39211
20
-6.44173
11
4.38461
21
-6.43048
0
LINE
8
BLACK
6
CONTINUOUS
10
4.38461
20
-6.43048
11
4.38086
21
-6.42673
0
LINE
8
BLACK
6
CONTINUOUS
10
4.51059
20
-6.54672
11
4.50684
21
-6.54297
0
LINE
8
BLACK
6
CONTINUOUS
10
4.50684
20
-6.54297
11
4.49934
21
-6.53172
0
LINE
8
BLACK
6
CONTINUOUS
10
4.49934
20
-6.53172
11
4.49559
21
-6.52422
0
LINE
8
BLACK
6
CONTINUOUS
10
4.49559
20
-6.52422
11
4.49184
21
-6.51297
0
LINE
8
BLACK
6
CONTINUOUS
10
4.49184
20
-6.51297
11
4.4881
21
-6.49423
0
LINE
8
BLACK
6
CONTINUOUS
10
4.4881
20
-6.49423
11
4.4881
21
-6.47923
0
LINE
8
BLACK
6
CONTINUOUS
10
4.4881
20
-6.47923
11
4.49184
21
-6.46048
0
LINE
8
BLACK
6
CONTINUOUS
10
4.49184
20
-6.46048
11
4.49559
21
-6.44923
0
LINE
8
BLACK
6
CONTINUOUS
10
4.49559
20
-6.44923
11
4.49934
21
-6.44173
0
LINE
8
BLACK
6
CONTINUOUS
10
4.49934
20
-6.44173
11
4.50684
21
-6.43048
0
LINE
8
BLACK
6
CONTINUOUS
10
4.50684
20
-6.43048
11
4.51059
21
-6.42673
0
LINE
8
BLACK
6
CONTINUOUS
10
4.54059
20
-6.46423
11
4.54059
21
-6.51672
0
LINE
8
BLACK
6
CONTINUOUS
10
4.54059
20
-6.47173
11
4.54434
21
-6.46798
0
LINE
8
BLACK
6
CONTINUOUS
10
4.54434
20
-6.46798
11
4.55184
21
-6.46423
0
LINE
8
BLACK
6
CONTINUOUS
10
4.55184
20
-6.46423
11
4.56309
21
-6.46423
0
LINE
8
BLACK
6
CONTINUOUS
10
4.56309
20
-6.46423
11
4.57058
21
-6.46798
0
LINE
8
BLACK
6
CONTINUOUS
10
4.57058
20
-6.46798
11
4.57433
21
-6.47548
0
LINE
8
BLACK
6
CONTINUOUS
10
4.57433
20
-6.47548
11
4.57433
21
-6.51672
0
LINE
8
BLACK
6
CONTINUOUS
10
4.62308
20
-6.51672
11
4.61558
21
-6.51297
0
LINE
8
BLACK
6
CONTINUOUS
10
4.61558
20
-6.51297
11
4.61183
21
-6.50922
0
LINE
8
BLACK
6
CONTINUOUS
10
4.61183
20
-6.50922
11
4.60808
21
-6.50172
0
LINE
8
BLACK
6
CONTINUOUS
10
4.60808
20
-6.50172
11
4.60808
21
-6.47923
0
LINE
8
BLACK
6
CONTINUOUS
10
4.60808
20
-6.47923
11
4.61183
21
-6.47173
0
LINE
8
BLACK
6
CONTINUOUS
10
4.61183
20
-6.47173
11
4.61558
21
-6.46798
0
LINE
8
BLACK
6
CONTINUOUS
10
4.61558
20
-6.46798
11
4.62308
21
-6.46423
0
LINE
8
BLACK
6
CONTINUOUS
10
4.62308
20
-6.46423
11
4.63433
21
-6.46423
0
LINE
8
BLACK
6
CONTINUOUS
10
4.63433
20
-6.46423
11
4.64183
21
-6.46798
0
LINE
8
BLACK
6
CONTINUOUS
10
4.64183
20
-6.46798
11
4.64558
21
-6.47173
0
LINE
8
BLACK
6
CONTINUOUS
10
4.64558
20
-6.47173
11
4.64933
21
-6.47923
0
LINE
8
BLACK
6
CONTINUOUS
10
4.64933
20
-6.47923
11
4.64933
21
-6.50172
0
LINE
8
BLACK
6
CONTINUOUS
10
4.64933
20
-6.50172
11
4.64558
21
-6.50922
0
LINE
8
BLACK
6
CONTINUOUS
10
4.64558
20
-6.50922
11
4.64183
21
-6.51297
0
LINE
8
BLACK
6
CONTINUOUS
10
4.64183
20
-6.51297
11
4.63433
21
-6.51672
0
LINE
8
BLACK
6
CONTINUOUS
10
4.63433
20
-6.51672
11
4.62308
21
-6.51672
0
LINE
8
BLACK
6
CONTINUOUS
10
4.67182
20
-6.46423
11
4.70182
21
-6.46423
0
LINE
8
BLACK
6
CONTINUOUS
10
4.68307
20
-6.43798
11
4.68307
21
-6.50547
0
LINE
8
BLACK
6
CONTINUOUS
10
4.68307
20
-6.50547
11
4.68682
21
-6.51297
0
LINE
8
BLACK
6
CONTINUOUS
10
4.68682
20
-6.51297
11
4.69432
21
-6.51672
0
LINE
8
BLACK
6
CONTINUOUS
10
4.69432
20
-6.51672
11
4.70182
21
-6.51672
0
LINE
8
BLACK
6
CONTINUOUS
10
4.77531
20
-6.46423
11
4.77531
21
-6.54297
0
LINE
8
BLACK
6
CONTINUOUS
10
4.77531
20
-6.46798
11
4.78281
21
-6.46423
0
LINE
8
BLACK
6
CONTINUOUS
10
4.78281
20
-6.46423
11
4.79781
21
-6.46423
0
LINE
8
BLACK
6
CONTINUOUS
10
4.79781
20
-6.46423
11
4.80531
21
-6.46798
0
LINE
8
BLACK
6
CONTINUOUS
10
4.80531
20
-6.46798
11
4.80906
21
-6.47173
0
LINE
8
BLACK
6
CONTINUOUS
10
4.80906
20
-6.47173
11
4.8128
21
-6.47923
0
LINE
8
BLACK
6
CONTINUOUS
10
4.8128
20
-6.47923
11
4.8128
21
-6.50172
0
LINE
8
BLACK
6
CONTINUOUS
10
4.8128
20
-6.50172
11
4.80906
21
-6.50922
0
LINE
8
BLACK
6
CONTINUOUS
10
4.80906
20
-6.50922
11
4.80531
21
-6.51297
0
LINE
8
BLACK
6
CONTINUOUS
10
4.80531
20
-6.51297
11
4.79781
21
-6.51672
0
LINE
8
BLACK
6
CONTINUOUS
10
4.79781
20
-6.51672
11
4.78281
21
-6.51672
0
LINE
8
BLACK
6
CONTINUOUS
10
4.78281
20
-6.51672
11
4.77531
21
-6.51297
0
LINE
8
BLACK
6
CONTINUOUS
10
4.8578
20
-6.51672
11
4.8503
21
-6.51297
0
LINE
8
BLACK
6
CONTINUOUS
10
4.8503
20
-6.51297
11
4.84655
21
-6.50547
0
LINE
8
BLACK
6
CONTINUOUS
10
4.84655
20
-6.50547
11
4.84655
21
-6.43798
0
LINE
8
BLACK
6
CONTINUOUS
10
4.92154
20
-6.51672
11
4.92154
21
-6.47548
0
LINE
8
BLACK
6
CONTINUOUS
10
4.92154
20
-6.47548
11
4.91779
21
-6.46798
0
LINE
8
BLACK
6
CONTINUOUS
10
4.91779
20
-6.46798
11
4.91029
21
-6.46423
0
LINE
8
BLACK
6
CONTINUOUS
10
4.91029
20
-6.46423
11
4.89529
21
-6.46423
0
LINE
8
BLACK
6
CONTINUOUS
10
4.89529
20
-6.46423
11
4.8878
21
-6.46798
0
LINE
8
BLACK
6
CONTINUOUS
10
4.92154
20
-6.51297
11
4.91404
21
-6.51672
0
LINE
8
BLACK
6
CONTINUOUS
10
4.91404
20
-6.51672
11
4.89529
21
-6.51672
0
LINE
8
BLACK
6
CONTINUOUS
10
4.89529
20
-6.51672
11
4.8878
21
-6.51297
0
LINE
8
BLACK
6
CONTINUOUS
10
4.8878
20
-6.51297
11
4.88405
21
-6.50547
0
LINE
8
BLACK
6
CONTINUOUS
10
4.88405
20
-6.50547
11
4.88405
21
-6.49798
0
LINE
8
BLACK
6
CONTINUOUS
10
4.88405
20
-6.49798
11
4.8878
21
-6.49048
0
LINE
8
BLACK
6
CONTINUOUS
10
4.8878
20
-6.49048
11
4.89529
21
-6.48673
0
LINE
8
BLACK
6
CONTINUOUS
10
4.89529
20
-6.48673
11
4.91404
21
-6.48673
0
LINE
8
BLACK
6
CONTINUOUS
10
4.91404
20
-6.48673
11
4.92154
21
-6.48298
0
LINE
8
BLACK
6
CONTINUOUS
10
4.94779
20
-6.46423
11
4.97778
21
-6.46423
0
LINE
8
BLACK
6
CONTINUOUS
10
4.95904
20
-6.43798
11
4.95904
21
-6.50547
0
LINE
8
BLACK
6
CONTINUOUS
10
4.95904
20
-6.50547
11
4.96279
21
-6.51297
0
LINE
8
BLACK
6
CONTINUOUS
10
4.96279
20
-6.51297
11
4.97029
21
-6.51672
0
LINE
8
BLACK
6
CONTINUOUS
10
4.97029
20
-6.51672
11
4.97778
21
-6.51672
0
LINE
8
BLACK
6
CONTINUOUS
10
5.03403
20
-6.51297
11
5.02653
21
-6.51672
0
LINE
8
BLACK
6
CONTINUOUS
10
5.02653
20
-6.51672
11
5.01153
21
-6.51672
0
LINE
8
BLACK
6
CONTINUOUS
10
5.01153
20
-6.51672
11
5.00403
21
-6.51297
0
LINE
8
BLACK
6
CONTINUOUS
10
5.00403
20
-6.51297
11
5.00028
21
-6.50547
0
LINE
8
BLACK
6
CONTINUOUS
10
5.00028
20
-6.50547
11
5.00028
21
-6.47548
0
LINE
8
BLACK
6
CONTINUOUS
10
5.00028
20
-6.47548
11
5.00403
21
-6.46798
0
LINE
8
BLACK
6
CONTINUOUS
10
5.00403
20
-6.46798
11
5.01153
21
-6.46423
0
LINE
8
BLACK
6
CONTINUOUS
10
5.01153
20
-6.46423
11
5.02653
21
-6.46423
0
LINE
8
BLACK
6
CONTINUOUS
10
5.02653
20
-6.46423
11
5.03403
21
-6.46798
0
LINE
8
BLACK
6
CONTINUOUS
10
5.03403
20
-6.46798
11
5.03778
21
-6.47548
0
LINE
8
BLACK
6
CONTINUOUS
10
5.03778
20
-6.47548
11
5.03778
21
-6.48298
0
LINE
8
BLACK
6
CONTINUOUS
10
5.03778
20
-6.48298
11
5.00028
21
-6.49048
0
LINE
8
BLACK
6
CONTINUOUS
10
5.10527
20
-6.51672
11
5.10527
21
-6.43798
0
LINE
8
BLACK
6
CONTINUOUS
10
5.10527
20
-6.51297
11
5.09777
21
-6.51672
0
LINE
8
BLACK
6
CONTINUOUS
10
5.09777
20
-6.51672
11
5.08277
21
-6.51672
0
LINE
8
BLACK
6
CONTINUOUS
10
5.08277
20
-6.51672
11
5.07527
21
-6.51297
0
LINE
8
BLACK
6
CONTINUOUS
10
5.07527
20
-6.51297
11
5.07152
21
-6.50922
0
LINE
8
BLACK
6
CONTINUOUS
10
5.07152
20
-6.50922
11
5.06777
21
-6.50172
0
LINE
8
BLACK
6
CONTINUOUS
10
5.06777
20
-6.50172
11
5.06777
21
-6.47923
0
LINE
8
BLACK
6
CONTINUOUS
10
5.06777
20
-6.47923
11
5.07152
21
-6.47173
0
LINE
8
BLACK
6
CONTINUOUS
10
5.07152
20
-6.47173
11
5.07527
21
-6.46798
0
LINE
8
BLACK
6
CONTINUOUS
10
5.07527
20
-6.46798
11
5.08277
21
-6.46423
0
LINE
8
BLACK
6
CONTINUOUS
10
5.08277
20
-6.46423
11
5.09777
21
-6.46423
0
LINE
8
BLACK
6
CONTINUOUS
10
5.09777
20
-6.46423
11
5.10527
21
-6.46798
0
LINE
8
BLACK
6
CONTINUOUS
10
5.13526
20
-6.54672
11
5.13901
21
-6.54297
0
LINE
8
BLACK
6
CONTINUOUS
10
5.13901
20
-6.54297
11
5.14651
21
-6.53172
0
LINE
8
BLACK
6
CONTINUOUS
10
5.14651
20
-6.53172
11
5.15026
21
-6.52422
0
LINE
8
BLACK
6
CONTINUOUS
10
5.15026
20
-6.52422
11
5.15401
21
-6.51297
0
LINE
8
BLACK
6
CONTINUOUS
10
5.15401
20
-6.51297
11
5.15776
21
-6.49423
0
LINE
8
BLACK
6
CONTINUOUS
10
5.15776
20
-6.49423
11
5.15776
21
-6.47923
0
LINE
8
BLACK
6
CONTINUOUS
10
5.15776
20
-6.47923
11
5.15401
21
-6.46048
0
LINE
8
BLACK
6
CONTINUOUS
10
5.15401
20
-6.46048
11
5.15026
21
-6.44923
0
LINE
8
BLACK
6
CONTINUOUS
10
5.15026
20
-6.44923
11
5.14651
21
-6.44173
0
LINE
8
BLACK
6
CONTINUOUS
10
5.14651
20
-6.44173
11
5.13901
21
-6.43048
0
LINE
8
BLACK
6
CONTINUOUS
10
5.13901
20
-6.43048
11
5.13526
21
-6.42673
  0
ENDSEC
  0
EOF
