M48
; DRILL file {KiCad 8.0.4} date 2024-09-02T07:12:30-0700
; FORMAT={-:-/ absolute / metric / decimal}
; #@! TF.CreationDate,2024-09-02T07:12:30-07:00
; #@! TF.GenerationSoftware,Kicad,Pcbnew,8.0.4
; #@! TF.FileFunction,Plated,1,2,PTH
FMAT,2
METRIC
; #@! TA.AperFunction,Plated,PTH,ViaDrill
T1C0.300
; #@! TA.AperFunction,Plated,PTH,ComponentDrill
T2C0.500
; #@! TA.AperFunction,Plated,PTH,ComponentDrill
T3C0.550
; #@! TA.AperFunction,Plated,PTH,ComponentDrill
T4C0.600
; #@! TA.AperFunction,Plated,PTH,ComponentDrill
T5C0.900
; #@! TA.AperFunction,Plated,PTH,ComponentDrill
T6C0.950
; #@! TA.AperFunction,Plated,PTH,ComponentDrill
T7C1.000
; #@! TA.AperFunction,Plated,PTH,ComponentDrill
T8C1.200
; #@! TA.AperFunction,Plated,PTH,ComponentDrill
T9C2.300
; #@! TA.AperFunction,Plated,PTH,ComponentDrill
T10C3.200
%
G90
G05
T1
X83.242Y-43.115
X83.685Y-99.975
X85.02Y-59.202
X85.028Y-78.565
X85.788Y-83.88
X86.586Y-74.707
X87.451Y-38.182
X87.717Y-49.559
X88.511Y-63.992
X88.708Y-36.047
X88.921Y-59.02
X89.014Y-57.42
X89.203Y-82.79
X89.543Y-84.571
X90.093Y-59.021
X90.243Y-89.971
X91.343Y-33.921
X92.193Y-84.571
X92.631Y-108.166
X92.993Y-82.171
X95.493Y-84.071
X96.695Y-36.818
X96.815Y-49.0
X97.031Y-64.196
X97.244Y-39.911
X97.613Y-74.784
X98.0Y-43.77
X99.294Y-49.45
X99.493Y-76.171
X100.293Y-76.396
X100.299Y-44.876
X100.431Y-36.795
X100.493Y-61.521
X102.494Y-84.567
X102.642Y-43.35
X102.713Y-105.919
X103.511Y-88.887
X103.573Y-78.065
X103.908Y-61.809
X104.073Y-74.697
X104.5Y-45.0
X106.265Y-54.056
X107.122Y-75.86
X107.18Y-34.278
X107.265Y-54.055
X107.471Y-81.412
X108.293Y-43.293
X108.474Y-65.327
X108.857Y-93.014
X109.193Y-84.621
X110.843Y-87.671
X111.386Y-59.822
X111.394Y-58.521
X111.5Y-49.796
X113.611Y-34.012
X116.293Y-73.871
X116.293Y-79.671
X118.293Y-78.369
X118.315Y-80.663
X119.213Y-100.818
X120.264Y-67.499
X120.593Y-84.171
X122.363Y-52.43
X122.793Y-73.771
X123.901Y-33.834
X124.143Y-78.421
X124.143Y-84.171
X124.143Y-87.871
X124.434Y-59.915
X124.599Y-44.5
X124.636Y-106.979
X124.693Y-73.171
X124.693Y-74.371
X125.143Y-82.021
X125.293Y-97.371
X125.443Y-77.671
X125.875Y-64.571
X126.009Y-66.577
X126.027Y-68.06
X126.693Y-87.418
X127.475Y-47.432
X127.815Y-100.821
X127.893Y-70.721
X128.128Y-111.153
X128.793Y-77.721
X128.995Y-47.45
X129.193Y-87.621
X129.29Y-66.595
X130.143Y-76.121
X130.143Y-77.871
X130.143Y-88.921
X130.193Y-77.021
X130.493Y-50.721
X130.793Y-89.521
X130.943Y-70.271
X130.993Y-74.971
X131.343Y-75.821
X131.752Y-36.141
X132.119Y-74.722
X132.135Y-76.42
X132.143Y-78.071
X132.177Y-79.321
X132.187Y-80.87
X132.193Y-85.321
X132.443Y-88.771
X132.906Y-89.433
X133.774Y-94.816
X133.793Y-88.221
X133.893Y-90.121
X134.374Y-95.403
X134.546Y-55.834
X134.747Y-47.437
X134.973Y-94.821
X135.515Y-74.832
X135.573Y-95.403
X135.643Y-78.821
X135.643Y-79.671
X135.643Y-80.721
X135.643Y-88.171
X135.693Y-76.804
X135.693Y-77.621
X135.72Y-75.605
X135.843Y-84.171
X135.943Y-83.321
X136.0Y-90.471
X136.099Y-102.39
X136.193Y-94.821
X136.24Y-47.446
X136.393Y-100.821
X136.792Y-95.421
X137.143Y-100.271
X137.392Y-94.821
X137.543Y-65.521
X137.75Y-50.759
X137.991Y-95.426
X138.143Y-101.471
X138.225Y-86.833
X138.232Y-80.92
X138.273Y-78.234
X138.304Y-85.958
X138.343Y-76.321
X138.426Y-107.739
X138.462Y-84.552
X138.493Y-83.121
X138.593Y-94.821
X138.793Y-102.071
X138.943Y-89.934
X138.993Y-68.921
X139.013Y-65.525
X139.043Y-81.221
X139.384Y-71.593
X139.443Y-78.771
X139.543Y-83.821
X140.243Y-71.771
X140.493Y-93.321
X140.513Y-96.613
X140.542Y-86.424
X140.994Y-65.533
X141.043Y-89.864
X141.093Y-100.871
X141.243Y-82.721
X141.308Y-84.645
X141.493Y-68.921
X141.516Y-75.68
X141.693Y-100.271
X141.743Y-101.471
X141.863Y-96.716
X141.993Y-71.671
X142.193Y-63.871
X142.343Y-69.021
X142.443Y-102.071
X142.642Y-65.458
X142.792Y-63.26
X143.386Y-89.882
X144.393Y-96.771
X144.611Y-71.78
X144.823Y-93.321
X144.918Y-46.294
X145.573Y-80.387
X145.721Y-77.016
X145.743Y-71.721
X145.893Y-96.771
X146.019Y-65.5
X146.343Y-68.871
X146.743Y-64.621
X147.393Y-96.771
X147.513Y-65.528
X148.013Y-90.421
X148.043Y-93.371
X148.233Y-101.51
X148.293Y-80.298
X148.359Y-64.637
X148.443Y-68.821
X148.743Y-71.871
X148.893Y-96.771
X149.02Y-65.553
X149.21Y-77.016
X149.605Y-71.856
X149.688Y-64.028
X150.493Y-71.671
X150.513Y-90.543
X150.893Y-54.021
X152.243Y-108.721
X152.513Y-90.521
X153.097Y-93.102
X153.403Y-38.879
X153.543Y-65.471
X153.692Y-90.313
X154.003Y-93.16
X154.013Y-96.664
X155.021Y-65.515
X155.243Y-68.871
X155.493Y-96.621
X155.513Y-71.571
X156.03Y-89.804
X156.993Y-94.021
X157.043Y-81.021
X157.043Y-81.921
X157.181Y-85.561
X157.181Y-84.671
X157.215Y-79.333
X157.243Y-87.821
X157.296Y-75.335
X157.306Y-76.333
X157.545Y-102.221
X157.943Y-93.936
X159.303Y-94.116
X159.679Y-75.6
X159.88Y-81.971
X160.143Y-79.321
X160.352Y-91.55
X160.352Y-33.852
X160.416Y-75.961
X160.567Y-89.593
X162.339Y-87.604
X162.934Y-111.801
X163.247Y-81.971
X163.28Y-78.92
X163.318Y-80.382
X163.349Y-75.922
X163.369Y-83.57
X163.386Y-84.889
X163.651Y-86.761
X164.325Y-82.013
X164.414Y-86.161
X164.431Y-68.19
X165.055Y-82.613
X165.113Y-75.989
X165.118Y-88.225
X165.73Y-77.849
X165.743Y-78.664
X166.064Y-89.704
X166.782Y-86.761
X167.018Y-87.525
X167.147Y-85.279
X167.726Y-85.831
X168.051Y-41.5
X168.671Y-92.299
X168.733Y-95.192
X169.317Y-76.424
X169.717Y-87.244
X169.965Y-95.191
X170.169Y-37.932
X170.631Y-87.592
X170.766Y-89.733
X171.393Y-88.039
X172.098Y-80.121
X172.201Y-72.805
X172.308Y-88.105
X172.33Y-88.905
X172.512Y-82.472
X172.527Y-79.314
X172.527Y-83.287
X172.546Y-78.515
X172.554Y-84.159
X175.075Y-81.622
X175.233Y-88.105
X175.29Y-88.904
X175.508Y-54.917
X175.898Y-87.505
X175.935Y-86.139
X176.118Y-76.986
X176.349Y-86.824
X176.626Y-91.087
X177.922Y-80.026
X177.998Y-91.334
X178.377Y-35.532
X179.001Y-104.117
X179.113Y-89.5
X179.348Y-79.271
X179.472Y-82.431
X179.529Y-92.877
X180.099Y-73.579
X180.778Y-39.308
X181.185Y-93.995
X182.479Y-88.705
X182.515Y-91.667
X182.785Y-50.742
X183.838Y-80.856
X186.299Y-75.271
X186.337Y-83.269
X186.338Y-76.07
X186.362Y-77.669
X186.362Y-84.071
X186.364Y-76.869
X189.5Y-104.0
X193.829Y-48.479
X199.0Y-100.5
X201.124Y-41.983
X202.543Y-87.551
X203.152Y-73.479
X203.252Y-55.915
X204.247Y-47.443
T5
X88.043Y-110.046
X90.583Y-110.046
X186.0Y-37.703
X186.0Y-40.203
X190.0Y-37.703
X190.0Y-40.203
X194.0Y-37.703
X194.0Y-40.203
T6
X106.543Y-41.731
X109.043Y-41.731
X111.043Y-41.731
X113.543Y-41.731
T7
X86.543Y-53.871
X88.218Y-42.0
X88.218Y-44.54
X89.083Y-53.871
X91.623Y-53.871
X92.5Y-42.0
X92.5Y-44.54
X97.347Y-53.878
X99.887Y-53.878
X115.003Y-56.631
X115.003Y-59.171
X115.003Y-61.711
X115.003Y-64.251
X115.003Y-66.791
X115.003Y-69.331
X115.003Y-71.871
X117.543Y-56.631
X117.543Y-59.171
X117.543Y-61.711
X117.543Y-64.251
X117.543Y-66.791
X117.543Y-69.331
X117.543Y-71.871
X137.003Y-103.951
X137.003Y-106.491
X139.543Y-103.951
X139.543Y-106.491
X142.083Y-103.951
X142.083Y-106.491
X144.623Y-103.951
X144.623Y-106.491
X147.163Y-103.951
X147.163Y-106.491
X149.703Y-103.951
X149.703Y-106.491
X156.088Y-42.301
X157.228Y-39.761
X157.228Y-44.841
X158.378Y-42.301
X159.518Y-39.761
X159.518Y-44.841
X160.668Y-42.301
X161.808Y-39.761
X161.808Y-44.841
X162.958Y-42.301
X164.098Y-39.761
X164.098Y-44.841
X165.248Y-42.301
X166.388Y-39.761
X166.388Y-44.841
T8
X184.0Y-35.953
X184.0Y-41.953
X196.0Y-35.953
X196.0Y-41.953
T9
X103.473Y-39.021
X116.613Y-39.021
T10
X149.048Y-42.301
X174.038Y-42.301
T2
G00X86.51Y-32.655
M15
G01X86.51Y-32.005
M16
G05
G00X93.51Y-32.655
M15
G01X93.51Y-32.005
M16
G05
T3
G00X87.66Y-35.03
M15
G01X87.36Y-35.03
M16
G05
G00X92.66Y-35.03
M15
G01X92.36Y-35.03
M16
G05
T4
G00X129.143Y-32.671
M15
G01X129.143Y-33.271
M16
G05
G00X129.143Y-39.671
M15
G01X129.143Y-40.271
M16
G05
G00X133.943Y-34.671
M15
G01X133.943Y-35.271
M16
G05
M30
