%TF.GenerationSoftware,KiCad,Pcbnew,8.0.4*%
%TF.CreationDate,2024-09-02T07:12:37-07:00*%
%TF.ProjectId,aquarius-plus,61717561-7269-4757-932d-706c75732e6b,1*%
%TF.SameCoordinates,Original*%
%TF.FileFunction,Soldermask,Top*%
%TF.FilePolarity,Negative*%
%FSLAX46Y46*%
G04 Gerber Fmt 4.6, Leading zero omitted, Abs format (unit mm)*
G04 Created by KiCad (PCBNEW 8.0.4) date 2024-09-02 07:12:37*
%MOMM*%
%LPD*%
G01*
G04 APERTURE LIST*
G04 Aperture macros list*
%AMRoundRect*
0 Rectangle with rounded corners*
0 $1 Rounding radius*
0 $2 $3 $4 $5 $6 $7 $8 $9 X,Y pos of 4 corners*
0 Add a 4 corners polygon primitive as box body*
4,1,4,$2,$3,$4,$5,$6,$7,$8,$9,$2,$3,0*
0 Add four circle primitives for the rounded corners*
1,1,$1+$1,$2,$3*
1,1,$1+$1,$4,$5*
1,1,$1+$1,$6,$7*
1,1,$1+$1,$8,$9*
0 Add four rect primitives between the rounded corners*
20,1,$1+$1,$2,$3,$4,$5,0*
20,1,$1+$1,$4,$5,$6,$7,0*
20,1,$1+$1,$6,$7,$8,$9,0*
20,1,$1+$1,$8,$9,$2,$3,0*%
%AMHorizOval*
0 Thick line with rounded ends*
0 $1 width*
0 $2 $3 position (X,Y) of the first rounded end (center of the circle)*
0 $4 $5 position (X,Y) of the second rounded end (center of the circle)*
0 Add line between two ends*
20,1,$1,$2,$3,$4,$5,0*
0 Add two circle primitives to create the rounded ends*
1,1,$1,$2,$3*
1,1,$1,$4,$5*%
%AMFreePoly0*
4,1,134,1.200354,0.780354,1.200500,0.780000,1.200500,-0.775000,1.200354,-0.775354,1.200000,-0.775500,0.002000,-0.775500,0.001646,-0.775354,0.001500,-0.775000,0.001500,-0.774762,0.000000,-0.775000,-0.001500,-0.774762,-0.001500,-0.775000,-0.001646,-0.775354,-0.002000,-0.775500,-0.002020,-0.775500,-0.027020,-0.774500,-0.027038,-0.774499,-0.053038,-0.772499,-0.053057,-0.772497,-0.079057,-0.769497,
-0.079094,-0.769491,-0.105094,-0.764491,-0.105117,-0.764486,-0.130117,-0.758486,-0.130135,-0.758481,-0.155135,-0.751481,-0.155169,-0.751470,-0.180169,-0.742470,-0.180192,-0.742462,-0.204192,-0.732462,-0.204208,-0.732455,-0.228208,-0.721455,-0.228246,-0.721435,-0.251246,-0.708435,-0.251254,-0.708430,-0.273254,-0.695430,-0.273291,-0.695407,-0.294291,-0.680407,-0.294303,-0.680398,-0.315303,-0.664398,
-0.315324,-0.664381,-0.335324,-0.647381,-0.335344,-0.647363,-0.354344,-0.629363,-0.354363,-0.629344,-0.372363,-0.610344,-0.372381,-0.610324,-0.389381,-0.590324,-0.389398,-0.590303,-0.405398,-0.569303,-0.405407,-0.569291,-0.420407,-0.548291,-0.420430,-0.548254,-0.433430,-0.526254,-0.433435,-0.526246,-0.446435,-0.503246,-0.446455,-0.503208,-0.457455,-0.479208,-0.457462,-0.479192,-0.467462,-0.455192,
-0.467470,-0.455169,-0.476470,-0.430169,-0.476481,-0.430135,-0.483481,-0.405135,-0.483486,-0.405117,-0.489486,-0.380117,-0.489491,-0.380094,-0.494491,-0.354094,-0.494497,-0.354057,-0.497497,-0.328057,-0.497499,-0.328038,-0.499499,-0.302038,-0.499500,-0.302019,-0.500500,-0.275019,-0.500500,0.275019,-0.499500,0.301019,-0.499499,0.301038,-0.497499,0.327038,-0.497497,0.327057,-0.494497,0.353057,
-0.494491,0.353094,-0.489491,0.379094,-0.489486,0.379117,-0.483486,0.404117,-0.483483,0.404130,-0.476483,0.430130,-0.476468,0.430176,-0.467462,0.454192,-0.457462,0.478192,-0.457455,0.478208,-0.446455,0.502208,-0.446435,0.502246,-0.433435,0.525246,-0.433422,0.525268,-0.405422,0.569268,-0.405398,0.569303,-0.389398,0.590303,-0.389381,0.590324,-0.372381,0.610324,-0.372363,0.610344,
-0.354363,0.629344,-0.354344,0.629363,-0.335344,0.647363,-0.335324,0.647381,-0.315324,0.664381,-0.315303,0.664398,-0.294303,0.680398,-0.294268,0.680422,-0.250268,0.708422,-0.250246,0.708435,-0.227246,0.721435,-0.227208,0.721455,-0.203208,0.732455,-0.203192,0.732462,-0.179192,0.742462,-0.155176,0.751468,-0.155130,0.751483,-0.129130,0.758483,-0.129117,0.758486,-0.104117,0.764486,
-0.104094,0.764491,-0.078094,0.769491,-0.078057,0.769497,-0.052057,0.772497,-0.052038,0.772499,-0.026038,0.774499,-0.026019,0.774500,-0.000019,0.775500,1.194500,0.775500,1.194500,0.780000,1.194646,0.780354,1.195000,0.780500,1.200000,0.780500,1.200354,0.780354,1.200354,0.780354,$1*%
%AMFreePoly1*
4,1,134,-0.001646,0.775354,-0.001500,0.775000,-0.001500,0.774762,0.000000,0.775000,0.001500,0.774762,0.001500,0.775000,0.001646,0.775354,0.002000,0.775500,0.002020,0.775500,0.027020,0.774500,0.027038,0.774499,0.053038,0.772499,0.053057,0.772497,0.079057,0.769497,0.079094,0.769491,0.105094,0.764491,0.105117,0.764486,0.130117,0.758486,0.130135,0.758481,0.155135,0.751481,
0.155169,0.751470,0.180169,0.742470,0.180192,0.742462,0.204192,0.732462,0.204208,0.732455,0.228208,0.721455,0.228246,0.721435,0.251246,0.708435,0.251254,0.708430,0.273254,0.695430,0.273291,0.695407,0.294291,0.680407,0.294303,0.680398,0.315303,0.664398,0.315324,0.664381,0.335324,0.647381,0.335344,0.647363,0.354344,0.629363,0.354363,0.629344,0.372363,0.610344,
0.372381,0.610324,0.389381,0.590324,0.389398,0.590303,0.405398,0.569303,0.405407,0.569291,0.420407,0.548291,0.420430,0.548254,0.433430,0.526254,0.433435,0.526246,0.446435,0.503246,0.446455,0.503208,0.457455,0.479208,0.457462,0.479192,0.467462,0.455192,0.467470,0.455169,0.476470,0.430169,0.476481,0.430135,0.483481,0.405135,0.483486,0.405117,0.489486,0.380117,
0.489491,0.380094,0.494491,0.354094,0.494497,0.354057,0.497497,0.328057,0.497499,0.328038,0.499499,0.302038,0.499500,0.302019,0.500500,0.275019,0.500500,-0.275019,0.499500,-0.301019,0.499499,-0.301038,0.497499,-0.327038,0.497497,-0.327057,0.494497,-0.353057,0.494491,-0.353094,0.489491,-0.379094,0.489486,-0.379117,0.483486,-0.404117,0.483483,-0.404130,0.476483,-0.430130,
0.476468,-0.430176,0.467462,-0.454192,0.457462,-0.478192,0.457455,-0.478208,0.446455,-0.502208,0.446435,-0.502246,0.433435,-0.525246,0.433422,-0.525268,0.405422,-0.569268,0.405398,-0.569303,0.389398,-0.590303,0.389381,-0.590324,0.372381,-0.610324,0.372363,-0.610344,0.354363,-0.629344,0.354344,-0.629363,0.335344,-0.647363,0.335324,-0.647381,0.315324,-0.664381,0.315303,-0.664398,
0.294303,-0.680398,0.294268,-0.680422,0.250268,-0.708422,0.250246,-0.708435,0.227246,-0.721435,0.227208,-0.721455,0.203208,-0.732455,0.203192,-0.732462,0.179192,-0.742462,0.155176,-0.751468,0.155130,-0.751483,0.129130,-0.758483,0.129117,-0.758486,0.104117,-0.764486,0.104094,-0.764491,0.078094,-0.769491,0.078057,-0.769497,0.052057,-0.772497,0.052038,-0.772499,0.026038,-0.774499,
0.026019,-0.774500,0.000019,-0.775500,-1.194500,-0.775500,-1.194500,-0.780000,-1.194646,-0.780354,-1.195000,-0.780500,-1.200000,-0.780500,-1.200354,-0.780354,-1.200500,-0.780000,-1.200500,0.775000,-1.200354,0.775354,-1.200000,0.775500,-0.002000,0.775500,-0.001646,0.775354,-0.001646,0.775354,$1*%
G04 Aperture macros list end*
%ADD10C,0.000100*%
%ADD11RoundRect,0.225000X0.250000X-0.225000X0.250000X0.225000X-0.250000X0.225000X-0.250000X-0.225000X0*%
%ADD12RoundRect,0.200000X-0.275000X0.200000X-0.275000X-0.200000X0.275000X-0.200000X0.275000X0.200000X0*%
%ADD13RoundRect,0.200000X0.275000X-0.200000X0.275000X0.200000X-0.275000X0.200000X-0.275000X-0.200000X0*%
%ADD14RoundRect,0.225000X-0.250000X0.225000X-0.250000X-0.225000X0.250000X-0.225000X0.250000X0.225000X0*%
%ADD15R,1.700000X1.700000*%
%ADD16O,1.700000X1.700000*%
%ADD17RoundRect,0.200000X-0.200000X-0.275000X0.200000X-0.275000X0.200000X0.275000X-0.200000X0.275000X0*%
%ADD18RoundRect,0.150000X0.150000X-0.512500X0.150000X0.512500X-0.150000X0.512500X-0.150000X-0.512500X0*%
%ADD19RoundRect,0.375000X0.375000X-0.625000X0.375000X0.625000X-0.375000X0.625000X-0.375000X-0.625000X0*%
%ADD20RoundRect,0.500000X1.400000X-0.500000X1.400000X0.500000X-1.400000X0.500000X-1.400000X-0.500000X0*%
%ADD21RoundRect,0.075000X-0.075000X0.662500X-0.075000X-0.662500X0.075000X-0.662500X0.075000X0.662500X0*%
%ADD22RoundRect,0.075000X-0.662500X0.075000X-0.662500X-0.075000X0.662500X-0.075000X0.662500X0.075000X0*%
%ADD23C,3.700000*%
%ADD24RoundRect,0.225000X0.225000X0.250000X-0.225000X0.250000X-0.225000X-0.250000X0.225000X-0.250000X0*%
%ADD25RoundRect,0.250000X0.475000X-0.250000X0.475000X0.250000X-0.475000X0.250000X-0.475000X-0.250000X0*%
%ADD26HorizOval,1.700000X0.000000X0.000000X0.000000X0.000000X0*%
%ADD27C,2.000000*%
%ADD28RoundRect,0.218750X-0.218750X-0.256250X0.218750X-0.256250X0.218750X0.256250X-0.218750X0.256250X0*%
%ADD29C,1.700000*%
%ADD30RoundRect,0.137500X-0.625000X-0.137500X0.625000X-0.137500X0.625000X0.137500X-0.625000X0.137500X0*%
%ADD31RoundRect,0.225000X-0.225000X-0.250000X0.225000X-0.250000X0.225000X0.250000X-0.225000X0.250000X0*%
%ADD32R,0.400000X1.350000*%
%ADD33FreePoly0,180.000000*%
%ADD34O,1.300000X0.650000*%
%ADD35R,1.500000X1.550000*%
%ADD36FreePoly1,180.000000*%
%ADD37C,1.500000*%
%ADD38R,1.000000X2.000000*%
%ADD39RoundRect,0.000000X-0.500000X-1.000000X0.500000X-1.000000X0.500000X1.000000X-0.500000X1.000000X0*%
%ADD40R,2.000000X2.000000*%
%ADD41C,4.000000*%
%ADD42R,1.600000X1.600000*%
%ADD43C,1.600000*%
%ADD44R,1.600000X1.500000*%
%ADD45C,3.000000*%
%ADD46R,1.800000X1.800000*%
%ADD47C,1.800000*%
%ADD48RoundRect,0.250000X1.500000X0.550000X-1.500000X0.550000X-1.500000X-0.550000X1.500000X-0.550000X0*%
%ADD49R,1.200000X1.400000*%
%ADD50RoundRect,0.250000X-0.650000X0.325000X-0.650000X-0.325000X0.650000X-0.325000X0.650000X0.325000X0*%
%ADD51C,1.200000*%
%ADD52O,1.000000X1.600000*%
%ADD53RoundRect,0.225000X0.225000X0.525000X-0.225000X0.525000X-0.225000X-0.525000X0.225000X-0.525000X0*%
%ADD54RoundRect,0.225000X-0.525000X0.225000X-0.525000X-0.225000X0.525000X-0.225000X0.525000X0.225000X0*%
%ADD55RoundRect,0.225000X-0.225000X-0.525000X0.225000X-0.525000X0.225000X0.525000X-0.225000X0.525000X0*%
%ADD56RoundRect,0.225000X-0.225000X-0.225000X0.225000X-0.225000X0.225000X0.225000X-0.225000X0.225000X0*%
%ADD57R,0.400000X0.900000*%
%ADD58RoundRect,0.150000X-0.150000X0.587500X-0.150000X-0.587500X0.150000X-0.587500X0.150000X0.587500X0*%
%ADD59RoundRect,0.250000X-1.500000X-0.550000X1.500000X-0.550000X1.500000X0.550000X-1.500000X0.550000X0*%
G04 APERTURE END LIST*
D10*
%TO.C,J1*%
X87810099Y-33204978D02*
X86410099Y-33204978D01*
X86384099Y-33203978D01*
X86358099Y-33201978D01*
X86332099Y-33198978D01*
X86306099Y-33193978D01*
X86281099Y-33187978D01*
X86255099Y-33180978D01*
X86231099Y-33171978D01*
X86207099Y-33161978D01*
X86183099Y-33150978D01*
X86160099Y-33137978D01*
X86138099Y-33123978D01*
X86116099Y-33109978D01*
X86095099Y-33093978D01*
X86075099Y-33076978D01*
X86056099Y-33058978D01*
X86038099Y-33039978D01*
X86021099Y-33019978D01*
X86005099Y-32998978D01*
X85991099Y-32976978D01*
X85977099Y-32954978D01*
X85964099Y-32931978D01*
X85953099Y-32907978D01*
X85943099Y-32883978D01*
X85934099Y-32859978D01*
X85927099Y-32833978D01*
X85921099Y-32808978D01*
X85916099Y-32782978D01*
X85913099Y-32756978D01*
X85911099Y-32730978D01*
X85910099Y-32704978D01*
X85910099Y-31954978D01*
X85911099Y-31928978D01*
X85913099Y-31902978D01*
X85916099Y-31876978D01*
X85921099Y-31850978D01*
X85927099Y-31825978D01*
X85934099Y-31799978D01*
X85943099Y-31775978D01*
X85953099Y-31751978D01*
X85964099Y-31727978D01*
X85977099Y-31704978D01*
X85991099Y-31682978D01*
X86005099Y-31660978D01*
X86021099Y-31639978D01*
X86038099Y-31619978D01*
X86056099Y-31600978D01*
X86075099Y-31582978D01*
X86095099Y-31565978D01*
X86116099Y-31549978D01*
X86138099Y-31535978D01*
X86160099Y-31521978D01*
X86183099Y-31508978D01*
X86207099Y-31497978D01*
X86231099Y-31487978D01*
X86255099Y-31478978D01*
X86281099Y-31471978D01*
X86306099Y-31465978D01*
X86332099Y-31460978D01*
X86358099Y-31457978D01*
X86384099Y-31455978D01*
X86410099Y-31454978D01*
X87810099Y-31454978D01*
X87810099Y-33204978D01*
G36*
X87810099Y-33204978D02*
G01*
X86410099Y-33204978D01*
X86384099Y-33203978D01*
X86358099Y-33201978D01*
X86332099Y-33198978D01*
X86306099Y-33193978D01*
X86281099Y-33187978D01*
X86255099Y-33180978D01*
X86231099Y-33171978D01*
X86207099Y-33161978D01*
X86183099Y-33150978D01*
X86160099Y-33137978D01*
X86138099Y-33123978D01*
X86116099Y-33109978D01*
X86095099Y-33093978D01*
X86075099Y-33076978D01*
X86056099Y-33058978D01*
X86038099Y-33039978D01*
X86021099Y-33019978D01*
X86005099Y-32998978D01*
X85991099Y-32976978D01*
X85977099Y-32954978D01*
X85964099Y-32931978D01*
X85953099Y-32907978D01*
X85943099Y-32883978D01*
X85934099Y-32859978D01*
X85927099Y-32833978D01*
X85921099Y-32808978D01*
X85916099Y-32782978D01*
X85913099Y-32756978D01*
X85911099Y-32730978D01*
X85910099Y-32704978D01*
X85910099Y-31954978D01*
X85911099Y-31928978D01*
X85913099Y-31902978D01*
X85916099Y-31876978D01*
X85921099Y-31850978D01*
X85927099Y-31825978D01*
X85934099Y-31799978D01*
X85943099Y-31775978D01*
X85953099Y-31751978D01*
X85964099Y-31727978D01*
X85977099Y-31704978D01*
X85991099Y-31682978D01*
X86005099Y-31660978D01*
X86021099Y-31639978D01*
X86038099Y-31619978D01*
X86056099Y-31600978D01*
X86075099Y-31582978D01*
X86095099Y-31565978D01*
X86116099Y-31549978D01*
X86138099Y-31535978D01*
X86160099Y-31521978D01*
X86183099Y-31508978D01*
X86207099Y-31497978D01*
X86231099Y-31487978D01*
X86255099Y-31478978D01*
X86281099Y-31471978D01*
X86306099Y-31465978D01*
X86332099Y-31460978D01*
X86358099Y-31457978D01*
X86384099Y-31455978D01*
X86410099Y-31454978D01*
X87810099Y-31454978D01*
X87810099Y-33204978D01*
G37*
X93636099Y-31455978D02*
X93662099Y-31457978D01*
X93688099Y-31460978D01*
X93714099Y-31465978D01*
X93739099Y-31471978D01*
X93765099Y-31478978D01*
X93789099Y-31487978D01*
X93813099Y-31497978D01*
X93837099Y-31508978D01*
X93860099Y-31521978D01*
X93882099Y-31535978D01*
X93904099Y-31549978D01*
X93925099Y-31565978D01*
X93945099Y-31582978D01*
X93964099Y-31600978D01*
X93982099Y-31619978D01*
X93999099Y-31639978D01*
X94015099Y-31660978D01*
X94029099Y-31682978D01*
X94043099Y-31704978D01*
X94056099Y-31727978D01*
X94067099Y-31751978D01*
X94077099Y-31775978D01*
X94086099Y-31799978D01*
X94093099Y-31825978D01*
X94099099Y-31850978D01*
X94104099Y-31876978D01*
X94107099Y-31902978D01*
X94109099Y-31928978D01*
X94110099Y-31954978D01*
X94110099Y-32704978D01*
X94109099Y-32730978D01*
X94107099Y-32756978D01*
X94104099Y-32782978D01*
X94099099Y-32808978D01*
X94093099Y-32833978D01*
X94086099Y-32859978D01*
X94077099Y-32883978D01*
X94067099Y-32907978D01*
X94056099Y-32931978D01*
X94043099Y-32954978D01*
X94029099Y-32976978D01*
X94015099Y-32998978D01*
X93999099Y-33019978D01*
X93982099Y-33039978D01*
X93964099Y-33058978D01*
X93945099Y-33076978D01*
X93925099Y-33093978D01*
X93904099Y-33109978D01*
X93882099Y-33123978D01*
X93860099Y-33137978D01*
X93837099Y-33150978D01*
X93813099Y-33161978D01*
X93789099Y-33171978D01*
X93765099Y-33180978D01*
X93739099Y-33187978D01*
X93714099Y-33193978D01*
X93688099Y-33198978D01*
X93662099Y-33201978D01*
X93636099Y-33203978D01*
X93610099Y-33204978D01*
X92210099Y-33204978D01*
X92210099Y-31454978D01*
X93610099Y-31454978D01*
X93636099Y-31455978D01*
G36*
X93636099Y-31455978D02*
G01*
X93662099Y-31457978D01*
X93688099Y-31460978D01*
X93714099Y-31465978D01*
X93739099Y-31471978D01*
X93765099Y-31478978D01*
X93789099Y-31487978D01*
X93813099Y-31497978D01*
X93837099Y-31508978D01*
X93860099Y-31521978D01*
X93882099Y-31535978D01*
X93904099Y-31549978D01*
X93925099Y-31565978D01*
X93945099Y-31582978D01*
X93964099Y-31600978D01*
X93982099Y-31619978D01*
X93999099Y-31639978D01*
X94015099Y-31660978D01*
X94029099Y-31682978D01*
X94043099Y-31704978D01*
X94056099Y-31727978D01*
X94067099Y-31751978D01*
X94077099Y-31775978D01*
X94086099Y-31799978D01*
X94093099Y-31825978D01*
X94099099Y-31850978D01*
X94104099Y-31876978D01*
X94107099Y-31902978D01*
X94109099Y-31928978D01*
X94110099Y-31954978D01*
X94110099Y-32704978D01*
X94109099Y-32730978D01*
X94107099Y-32756978D01*
X94104099Y-32782978D01*
X94099099Y-32808978D01*
X94093099Y-32833978D01*
X94086099Y-32859978D01*
X94077099Y-32883978D01*
X94067099Y-32907978D01*
X94056099Y-32931978D01*
X94043099Y-32954978D01*
X94029099Y-32976978D01*
X94015099Y-32998978D01*
X93999099Y-33019978D01*
X93982099Y-33039978D01*
X93964099Y-33058978D01*
X93945099Y-33076978D01*
X93925099Y-33093978D01*
X93904099Y-33109978D01*
X93882099Y-33123978D01*
X93860099Y-33137978D01*
X93837099Y-33150978D01*
X93813099Y-33161978D01*
X93789099Y-33171978D01*
X93765099Y-33180978D01*
X93739099Y-33187978D01*
X93714099Y-33193978D01*
X93688099Y-33198978D01*
X93662099Y-33201978D01*
X93636099Y-33203978D01*
X93610099Y-33204978D01*
X92210099Y-33204978D01*
X92210099Y-31454978D01*
X93610099Y-31454978D01*
X93636099Y-31455978D01*
G37*
%TD*%
D11*
%TO.C,C18*%
X153539947Y-67851709D03*
X153539947Y-66301709D03*
%TD*%
D12*
%TO.C,R1*%
X106000000Y-51350000D03*
X106000000Y-53000000D03*
%TD*%
D13*
%TO.C,R24*%
X87742947Y-82045509D03*
X87742947Y-80395509D03*
%TD*%
D14*
%TO.C,C36*%
X170831446Y-80453390D03*
X170831446Y-82003390D03*
%TD*%
D15*
%TO.C,JP4*%
X97347147Y-53877509D03*
D16*
X99887147Y-53877509D03*
%TD*%
D12*
%TO.C,R33*%
X116154647Y-82143709D03*
X116154647Y-83793709D03*
%TD*%
D17*
%TO.C,R14*%
X154152447Y-54990609D03*
X155802447Y-54990609D03*
%TD*%
%TO.C,R16*%
X161037247Y-52152509D03*
X162687247Y-52152509D03*
%TD*%
D14*
%TO.C,C45*%
X148892947Y-94433009D03*
X148892947Y-95983009D03*
%TD*%
D18*
%TO.C,U1*%
X99349264Y-48287500D03*
X100299264Y-48287500D03*
X101249264Y-48287500D03*
X101249264Y-46012500D03*
X100299264Y-46012500D03*
X99349264Y-46012500D03*
%TD*%
D11*
%TO.C,C7*%
X136242347Y-49769309D03*
X136242347Y-48219309D03*
%TD*%
D19*
%TO.C,U3*%
X126936274Y-64571209D03*
X129236274Y-64571209D03*
D20*
X129236274Y-58271209D03*
D19*
X131536274Y-64571209D03*
%TD*%
D14*
%TO.C,C44*%
X147392947Y-94433009D03*
X147392947Y-95983009D03*
%TD*%
D12*
%TO.C,R32*%
X114693247Y-82143009D03*
X114693247Y-83793009D03*
%TD*%
D21*
%TO.C,U4*%
X156512947Y-70420509D03*
X156012947Y-70420509D03*
X155512947Y-70420509D03*
X155012947Y-70420509D03*
X154512947Y-70420509D03*
X154012947Y-70420509D03*
X153512947Y-70420509D03*
X153012947Y-70420509D03*
X152512947Y-70420509D03*
X152012947Y-70420509D03*
X151512947Y-70420509D03*
X151012947Y-70420509D03*
X150512947Y-70420509D03*
X150012947Y-70420509D03*
X149512947Y-70420509D03*
X149012947Y-70420509D03*
X148512947Y-70420509D03*
X148012947Y-70420509D03*
X147512947Y-70420509D03*
X147012947Y-70420509D03*
X146512947Y-70420509D03*
X146012947Y-70420509D03*
X145512947Y-70420509D03*
X145012947Y-70420509D03*
X144512947Y-70420509D03*
X144012947Y-70420509D03*
X143512947Y-70420509D03*
X143012947Y-70420509D03*
X142512947Y-70420509D03*
X142012947Y-70420509D03*
X141512947Y-70420509D03*
X141012947Y-70420509D03*
X140512947Y-70420509D03*
X140012947Y-70420509D03*
X139512947Y-70420509D03*
X139012947Y-70420509D03*
D22*
X137100447Y-72333009D03*
X137100447Y-72833009D03*
X137100447Y-73333009D03*
X137100447Y-73833009D03*
X137100447Y-74333009D03*
X137100447Y-74833009D03*
X137100447Y-75333009D03*
X137100447Y-75833009D03*
X137100447Y-76333009D03*
X137100447Y-76833009D03*
X137100447Y-77333009D03*
X137100447Y-77833009D03*
X137100447Y-78333009D03*
X137100447Y-78833009D03*
X137100447Y-79333009D03*
X137100447Y-79833009D03*
X137100447Y-80333009D03*
X137100447Y-80833009D03*
X137100447Y-81333009D03*
X137100447Y-81833009D03*
X137100447Y-82333009D03*
X137100447Y-82833009D03*
X137100447Y-83333009D03*
X137100447Y-83833009D03*
X137100447Y-84333009D03*
X137100447Y-84833009D03*
X137100447Y-85333009D03*
X137100447Y-85833009D03*
X137100447Y-86333009D03*
X137100447Y-86833009D03*
X137100447Y-87333009D03*
X137100447Y-87833009D03*
X137100447Y-88333009D03*
X137100447Y-88833009D03*
X137100447Y-89333009D03*
X137100447Y-89833009D03*
D21*
X139012947Y-91745509D03*
X139512947Y-91745509D03*
X140012947Y-91745509D03*
X140512947Y-91745509D03*
X141012947Y-91745509D03*
X141512947Y-91745509D03*
X142012947Y-91745509D03*
X142512947Y-91745509D03*
X143012947Y-91745509D03*
X143512947Y-91745509D03*
X144012947Y-91745509D03*
X144512947Y-91745509D03*
X145012947Y-91745509D03*
X145512947Y-91745509D03*
X146012947Y-91745509D03*
X146512947Y-91745509D03*
X147012947Y-91745509D03*
X147512947Y-91745509D03*
X148012947Y-91745509D03*
X148512947Y-91745509D03*
X149012947Y-91745509D03*
X149512947Y-91745509D03*
X150012947Y-91745509D03*
X150512947Y-91745509D03*
X151012947Y-91745509D03*
X151512947Y-91745509D03*
X152012947Y-91745509D03*
X152512947Y-91745509D03*
X153012947Y-91745509D03*
X153512947Y-91745509D03*
X154012947Y-91745509D03*
X154512947Y-91745509D03*
X155012947Y-91745509D03*
X155512947Y-91745509D03*
X156012947Y-91745509D03*
X156512947Y-91745509D03*
D22*
X158425447Y-89833009D03*
X158425447Y-89333009D03*
X158425447Y-88833009D03*
X158425447Y-88333009D03*
X158425447Y-87833009D03*
X158425447Y-87333009D03*
X158425447Y-86833009D03*
X158425447Y-86333009D03*
X158425447Y-85833009D03*
X158425447Y-85333009D03*
X158425447Y-84833009D03*
X158425447Y-84333009D03*
X158425447Y-83833009D03*
X158425447Y-83333009D03*
X158425447Y-82833009D03*
X158425447Y-82333009D03*
X158425447Y-81833009D03*
X158425447Y-81333009D03*
X158425447Y-80833009D03*
X158425447Y-80333009D03*
X158425447Y-79833009D03*
X158425447Y-79333009D03*
X158425447Y-78833009D03*
X158425447Y-78333009D03*
X158425447Y-77833009D03*
X158425447Y-77333009D03*
X158425447Y-76833009D03*
X158425447Y-76333009D03*
X158425447Y-75833009D03*
X158425447Y-75333009D03*
X158425447Y-74833009D03*
X158425447Y-74333009D03*
X158425447Y-73833009D03*
X158425447Y-73333009D03*
X158425447Y-72833009D03*
X158425447Y-72333009D03*
%TD*%
D23*
%TO.C,H4*%
X201542947Y-109870509D03*
%TD*%
D17*
%TO.C,R9*%
X147281547Y-53587209D03*
X148931547Y-53587209D03*
%TD*%
D23*
%TO.C,H3*%
X81542947Y-109870509D03*
%TD*%
D15*
%TO.C,JP1*%
X88217547Y-42000000D03*
D16*
X88217547Y-44540000D03*
%TD*%
D24*
%TO.C,C38*%
X126642947Y-100796109D03*
X125092947Y-100796109D03*
%TD*%
D14*
%TO.C,C43*%
X145892947Y-94445509D03*
X145892947Y-95995509D03*
%TD*%
D11*
%TO.C,C37*%
X188099060Y-82168142D03*
X188099060Y-80618142D03*
%TD*%
%TO.C,C11*%
X137542947Y-67854309D03*
X137542947Y-66304309D03*
%TD*%
D25*
%TO.C,C6*%
X132992347Y-49944309D03*
X132992347Y-48044309D03*
%TD*%
D11*
%TO.C,C17*%
X149012947Y-67858009D03*
X149012947Y-66308009D03*
%TD*%
D13*
%TO.C,R4*%
X130488647Y-49827809D03*
X130488647Y-48177809D03*
%TD*%
D15*
%TO.C,J7*%
X149702947Y-103950509D03*
D16*
X149702947Y-106490509D03*
X147162947Y-103950509D03*
X147162947Y-106490509D03*
X144622947Y-103950509D03*
X144622947Y-106490509D03*
X142082947Y-103950509D03*
X142082947Y-106490509D03*
X139542947Y-103950509D03*
X139542947Y-106490509D03*
D26*
X137002947Y-103950509D03*
X137002947Y-106490509D03*
%TD*%
D11*
%TO.C,C22*%
X107497847Y-83741909D03*
X107497847Y-82191909D03*
%TD*%
D24*
%TO.C,C39*%
X130167947Y-100796109D03*
X128617947Y-100796109D03*
%TD*%
D27*
%TO.C,FID1*%
X79542947Y-39870509D03*
%TD*%
D28*
%TO.C,FB1*%
X97824636Y-36863428D03*
X99399636Y-36863428D03*
%TD*%
D27*
%TO.C,SW1*%
X196000447Y-41953009D03*
X196000447Y-35953009D03*
X184000447Y-41953009D03*
X184000447Y-35953009D03*
D29*
X194000447Y-40203009D03*
X190000447Y-40203009D03*
X186000447Y-40203009D03*
X194000447Y-37703009D03*
X190000447Y-37703009D03*
X186000447Y-37703009D03*
%TD*%
D17*
%TO.C,R20*%
X168124247Y-52149609D03*
X169774247Y-52149609D03*
%TD*%
%TO.C,R36*%
X128567947Y-102296109D03*
X130217947Y-102296109D03*
%TD*%
D30*
%TO.C,U5*%
X173867947Y-72870509D03*
X173867947Y-73670509D03*
X173867947Y-74470509D03*
X173867947Y-75270509D03*
X173867947Y-76070509D03*
X173867947Y-76870509D03*
X173867947Y-77670509D03*
X173867947Y-78470509D03*
X173867947Y-79270509D03*
X173867947Y-80070509D03*
X173867947Y-80870509D03*
X173867947Y-81670509D03*
X173867947Y-82470509D03*
X173867947Y-83270509D03*
X173867947Y-84070509D03*
X173867947Y-84870509D03*
X173867947Y-85670509D03*
X173867947Y-86470509D03*
X173867947Y-87270509D03*
X173867947Y-88070509D03*
X173867947Y-88870509D03*
X173867947Y-89670509D03*
X185042947Y-89670509D03*
X185042947Y-88870509D03*
X185042947Y-88070509D03*
X185042947Y-87270509D03*
X185042947Y-86470509D03*
X185042947Y-85670509D03*
X185042947Y-84870509D03*
X185042947Y-84070509D03*
X185042947Y-83270509D03*
X185042947Y-82470509D03*
X185042947Y-81670509D03*
X185042947Y-80870509D03*
X185042947Y-80070509D03*
X185042947Y-79270509D03*
X185042947Y-78470509D03*
X185042947Y-77670509D03*
X185042947Y-76870509D03*
X185042947Y-76070509D03*
X185042947Y-75270509D03*
X185042947Y-74470509D03*
X185042947Y-73670509D03*
X185042947Y-72870509D03*
%TD*%
D17*
%TO.C,R15*%
X161037247Y-50735409D03*
X162687247Y-50735409D03*
%TD*%
D12*
%TO.C,R30*%
X110825847Y-82124509D03*
X110825847Y-83774509D03*
%TD*%
D24*
%TO.C,C24*%
X134537947Y-74833009D03*
X132987947Y-74833009D03*
%TD*%
D12*
%TO.C,R3*%
X127492347Y-48169309D03*
X127492347Y-49819309D03*
%TD*%
D11*
%TO.C,C13*%
X141092947Y-67858009D03*
X141092947Y-66308009D03*
%TD*%
D17*
%TO.C,R8*%
X147281547Y-52168809D03*
X148931547Y-52168809D03*
%TD*%
D15*
%TO.C,JP3*%
X86542947Y-53870509D03*
D16*
X89082947Y-53870509D03*
X91622947Y-53870509D03*
%TD*%
D13*
%TO.C,R2*%
X107500000Y-53000000D03*
X107500000Y-51350000D03*
%TD*%
D31*
%TO.C,C33*%
X160987947Y-81970511D03*
X162537947Y-81970511D03*
%TD*%
D32*
%TO.C,J1*%
X91310099Y-35029978D03*
X90660099Y-35029978D03*
X90010099Y-35029978D03*
X89360099Y-35029978D03*
X88710099Y-35029978D03*
D33*
X93510099Y-32329978D03*
D34*
X92510099Y-35029978D03*
D35*
X91010099Y-32329978D03*
X89010099Y-32329978D03*
D34*
X87510099Y-35029978D03*
D36*
X86510099Y-32329978D03*
%TD*%
D13*
%TO.C,R26*%
X98378747Y-83792109D03*
X98378747Y-82142109D03*
%TD*%
D19*
%TO.C,U6*%
X125320447Y-98796109D03*
X127620447Y-98796109D03*
D20*
X127620447Y-92496109D03*
D19*
X129920447Y-98796109D03*
%TD*%
D24*
%TO.C,C25*%
X134525947Y-76346909D03*
X132975947Y-76346909D03*
%TD*%
D17*
%TO.C,R13*%
X154151347Y-53567509D03*
X155801347Y-53567509D03*
%TD*%
D15*
%TO.C,J5*%
X115002947Y-56630509D03*
D16*
X117542947Y-56630509D03*
X115002947Y-59170509D03*
X117542947Y-59170509D03*
X115002947Y-61710509D03*
X117542947Y-61710509D03*
X115002947Y-64250509D03*
X117542947Y-64250509D03*
X115002947Y-66790509D03*
X117542947Y-66790509D03*
X115002947Y-69330509D03*
X117542947Y-69330509D03*
X115002947Y-71870509D03*
X117542947Y-71870509D03*
%TD*%
D15*
%TO.C,JP2*%
X92500000Y-42000000D03*
D16*
X92500000Y-44540000D03*
%TD*%
D31*
%TO.C,C34*%
X160992947Y-83470509D03*
X162542947Y-83470509D03*
%TD*%
D17*
%TO.C,R17*%
X161033447Y-53563509D03*
X162683447Y-53563509D03*
%TD*%
D14*
%TO.C,C40*%
X140512947Y-94308009D03*
X140512947Y-95858009D03*
%TD*%
D17*
%TO.C,R18*%
X161037247Y-54998609D03*
X162687247Y-54998609D03*
%TD*%
D14*
%TO.C,C2*%
X109000000Y-48000000D03*
X109000000Y-49550000D03*
%TD*%
D27*
%TO.C,FID3*%
X79542947Y-104870509D03*
%TD*%
D17*
%TO.C,R22*%
X126724574Y-68070509D03*
X128374574Y-68070509D03*
%TD*%
D14*
%TO.C,C21*%
X89202647Y-80445909D03*
X89202647Y-81995909D03*
%TD*%
D13*
%TO.C,R25*%
X92192947Y-87145509D03*
X92192947Y-85495509D03*
%TD*%
D12*
%TO.C,R35*%
X90542947Y-106095509D03*
X90542947Y-107745509D03*
%TD*%
D37*
%TO.C,J6*%
X96042947Y-110190509D03*
X120242947Y-110190509D03*
D38*
X115002947Y-85940509D03*
X112502947Y-85940509D03*
X109192947Y-85940509D03*
X107482947Y-85940509D03*
X104982947Y-85940509D03*
X102482947Y-85940509D03*
X100062947Y-85940509D03*
X98362947Y-85940509D03*
X117502947Y-85940509D03*
D39*
X110822947Y-85940509D03*
D38*
X95082947Y-85940509D03*
D40*
X123077947Y-106990509D03*
X94007947Y-108190509D03*
%TD*%
D12*
%TO.C,R29*%
X104953947Y-82128109D03*
X104953947Y-83778109D03*
%TD*%
D41*
%TO.C,J4*%
X174037947Y-42300509D03*
X149047947Y-42300509D03*
D42*
X157227947Y-44840509D03*
D43*
X159517947Y-44840509D03*
X161807947Y-44840509D03*
X164097947Y-44840509D03*
X166387947Y-44840509D03*
X156087947Y-42300509D03*
X158377947Y-42300509D03*
X160667947Y-42300509D03*
X162957947Y-42300509D03*
X165247947Y-42300509D03*
X157227947Y-39760509D03*
X159517947Y-39760509D03*
X161807947Y-39760509D03*
X164097947Y-39760509D03*
X166387947Y-39760509D03*
%TD*%
D31*
%TO.C,C31*%
X160987947Y-78883009D03*
X162537947Y-78883009D03*
%TD*%
%TO.C,C32*%
X160987947Y-80383009D03*
X162537947Y-80383009D03*
%TD*%
D13*
%TO.C,R6*%
X137749547Y-49813909D03*
X137749547Y-48163909D03*
%TD*%
D44*
%TO.C,J2*%
X113542947Y-41730509D03*
D43*
X111042947Y-41730509D03*
X109042947Y-41730509D03*
X106542947Y-41730509D03*
D45*
X116612947Y-39020509D03*
X103472947Y-39020509D03*
%TD*%
D23*
%TO.C,H1*%
X81542947Y-34870509D03*
%TD*%
D14*
%TO.C,C1*%
X104539060Y-48044606D03*
X104539060Y-49594606D03*
%TD*%
D12*
%TO.C,R31*%
X112524047Y-82138109D03*
X112524047Y-83788109D03*
%TD*%
D11*
%TO.C,C12*%
X139012947Y-67858009D03*
X139012947Y-66308009D03*
%TD*%
D24*
%TO.C,C29*%
X134537947Y-85333009D03*
X132987947Y-85333009D03*
%TD*%
D14*
%TO.C,C42*%
X144392947Y-94433009D03*
X144392947Y-95983009D03*
%TD*%
D46*
%TO.C,D1*%
X88042947Y-110045509D03*
D47*
X90582947Y-110045509D03*
%TD*%
D17*
%TO.C,R12*%
X154152447Y-52144409D03*
X155802447Y-52144409D03*
%TD*%
%TO.C,R10*%
X147281547Y-55005509D03*
X148931547Y-55005509D03*
%TD*%
D12*
%TO.C,R5*%
X134742347Y-48169309D03*
X134742347Y-49819309D03*
%TD*%
D23*
%TO.C,H2*%
X201542947Y-34870509D03*
%TD*%
D24*
%TO.C,C27*%
X134537947Y-79333009D03*
X132987947Y-79333009D03*
%TD*%
D48*
%TO.C,C3*%
X119200000Y-49750509D03*
X113800000Y-49750509D03*
%TD*%
D11*
%TO.C,C5*%
X128992347Y-49769309D03*
X128992347Y-48219309D03*
%TD*%
D49*
%TO.C,X1*%
X126042947Y-79620509D03*
X126042947Y-82020509D03*
X127942947Y-82020509D03*
X127942947Y-79620509D03*
%TD*%
D31*
%TO.C,C30*%
X160989147Y-75961109D03*
X162539147Y-75961109D03*
%TD*%
D14*
%TO.C,C47*%
X155492947Y-94313509D03*
X155492947Y-95863509D03*
%TD*%
D11*
%TO.C,C14*%
X142592947Y-67858009D03*
X142592947Y-66308009D03*
%TD*%
D24*
%TO.C,C28*%
X134538047Y-80861709D03*
X132988047Y-80861709D03*
%TD*%
D50*
%TO.C,C20*%
X85792947Y-79995509D03*
X85792947Y-82945509D03*
%TD*%
D51*
%TO.C,J3*%
X131542947Y-32970509D03*
X131542947Y-38970509D03*
D52*
X133942947Y-34970509D03*
X129142947Y-32970509D03*
X129142947Y-39970509D03*
%TD*%
D28*
%TO.C,FB2*%
X121574261Y-44500000D03*
X123149261Y-44500000D03*
%TD*%
D12*
%TO.C,R28*%
X101673647Y-82137209D03*
X101673647Y-83787209D03*
%TD*%
D24*
%TO.C,C23*%
X127867947Y-77690509D03*
X126317947Y-77690509D03*
%TD*%
%TO.C,C10*%
X131624574Y-66570509D03*
X130074574Y-66570509D03*
%TD*%
D14*
%TO.C,C41*%
X141969047Y-94305809D03*
X141969047Y-95855809D03*
%TD*%
D17*
%TO.C,R23*%
X130024574Y-68070509D03*
X131674574Y-68070509D03*
%TD*%
%TO.C,R7*%
X147281547Y-50750509D03*
X148931547Y-50750509D03*
%TD*%
%TO.C,R19*%
X168122447Y-50736509D03*
X169772447Y-50736509D03*
%TD*%
D53*
%TO.C,U2*%
X85057908Y-77710458D03*
X86327908Y-77710458D03*
X87597908Y-77710458D03*
X88867908Y-77710458D03*
X90137908Y-77710458D03*
X91407908Y-77710458D03*
X92677908Y-77710458D03*
X93947908Y-77710458D03*
X95217908Y-77710458D03*
X96487908Y-77710458D03*
X97757908Y-77710458D03*
X99027908Y-77710458D03*
X100297908Y-77710458D03*
X101567908Y-77710458D03*
D54*
X102817908Y-75945458D03*
X102817908Y-74675458D03*
X102817908Y-73405458D03*
X102817908Y-72135458D03*
X102817908Y-70865458D03*
X102817908Y-69595458D03*
X102817908Y-68325458D03*
X102817908Y-67055458D03*
X102817908Y-65785458D03*
X102817908Y-64515458D03*
X102817908Y-63245458D03*
X102817908Y-61975458D03*
D55*
X101567908Y-60210458D03*
X100297908Y-60210458D03*
X99027908Y-60210458D03*
X97757908Y-60210458D03*
X96487908Y-60210458D03*
X95217908Y-60210458D03*
X93947908Y-60210458D03*
X92677908Y-60210458D03*
X91407908Y-60210458D03*
X90137908Y-60210458D03*
X88867908Y-60210458D03*
X87597908Y-60210458D03*
X86327908Y-60210458D03*
X85057908Y-60210458D03*
D56*
X91377908Y-71860458D03*
X92777908Y-71860458D03*
X94177908Y-71860458D03*
X91377908Y-70460458D03*
X92777908Y-70460458D03*
X94177908Y-70460458D03*
X91377908Y-69060458D03*
X92777908Y-69060458D03*
X94177908Y-69060458D03*
%TD*%
D57*
%TO.C,L1*%
X106365159Y-49200000D03*
X106365159Y-47500000D03*
X107165159Y-47500000D03*
X107165159Y-49200000D03*
%TD*%
D24*
%TO.C,C9*%
X128324574Y-66570509D03*
X126774574Y-66570509D03*
%TD*%
D14*
%TO.C,C46*%
X154012947Y-94308009D03*
X154012947Y-95858009D03*
%TD*%
D11*
%TO.C,C19*%
X155012947Y-67858009D03*
X155012947Y-66308009D03*
%TD*%
D58*
%TO.C,Q1*%
X92142947Y-88883009D03*
X90242947Y-88883009D03*
X91192947Y-90758009D03*
%TD*%
D25*
%TO.C,C4*%
X125742347Y-49944309D03*
X125742347Y-48044309D03*
%TD*%
D13*
%TO.C,R34*%
X117611247Y-83793009D03*
X117611247Y-82143009D03*
%TD*%
D31*
%TO.C,C35*%
X160991747Y-84928809D03*
X162541747Y-84928809D03*
%TD*%
D24*
%TO.C,C26*%
X134522047Y-77853709D03*
X132972047Y-77853709D03*
%TD*%
D12*
%TO.C,R27*%
X100048247Y-82139609D03*
X100048247Y-83789609D03*
%TD*%
D59*
%TO.C,C8*%
X196792947Y-47470509D03*
X202192947Y-47470509D03*
%TD*%
D17*
%TO.C,R11*%
X154152447Y-50733409D03*
X155802447Y-50733409D03*
%TD*%
D27*
%TO.C,FID2*%
X203542947Y-39870509D03*
%TD*%
D11*
%TO.C,C15*%
X146012947Y-67858009D03*
X146012947Y-66308009D03*
%TD*%
D17*
%TO.C,R21*%
X104567947Y-72020509D03*
X106217947Y-72020509D03*
%TD*%
D11*
%TO.C,C16*%
X147512947Y-67858009D03*
X147512947Y-66308009D03*
%TD*%
M02*
