%TF.GenerationSoftware,KiCad,Pcbnew,(6.0.4-0)*%
%TF.CreationDate,2022-04-09T07:25:14+02:00*%
%TF.ProjectId,aquarius-plus,61717561-7269-4757-932d-706c75732e6b,rev?*%
%TF.SameCoordinates,Original*%
%TF.FileFunction,Soldermask,Bot*%
%TF.FilePolarity,Negative*%
%FSLAX46Y46*%
G04 Gerber Fmt 4.6, Leading zero omitted, Abs format (unit mm)*
G04 Created by KiCad (PCBNEW (6.0.4-0)) date 2022-04-09 07:25:14*
%MOMM*%
%LPD*%
G01*
G04 APERTURE LIST*
%ADD10C,1.800000*%
%ADD11R,1.700000X1.700000*%
%ADD12O,1.700000X1.700000*%
%ADD13C,4.000000*%
%ADD14R,1.600000X1.600000*%
%ADD15C,1.600000*%
%ADD16C,3.200000*%
%ADD17C,1.700000*%
%ADD18C,2.000000*%
%ADD19O,0.900000X1.600000*%
%ADD20C,1.100000*%
%ADD21R,1.600000X1.500000*%
%ADD22C,3.000000*%
%ADD23R,1.800000X1.800000*%
G04 APERTURE END LIST*
D10*
%TO.C,J15*%
X214825000Y-65830000D03*
X212285000Y-65830000D03*
X217365000Y-65830000D03*
X214825000Y-68370000D03*
X212285000Y-68370000D03*
X217365000Y-68370000D03*
X214825000Y-70910000D03*
X212285000Y-70910000D03*
X217365000Y-70910000D03*
X214825000Y-73450000D03*
X212285000Y-73450000D03*
X217365000Y-73450000D03*
X212285000Y-75990000D03*
X214825000Y-75990000D03*
X217365000Y-75990000D03*
X212285000Y-78530000D03*
X214825000Y-78530000D03*
X217365000Y-78530000D03*
X214825000Y-81070000D03*
X212285000Y-81070000D03*
X217365000Y-81070000D03*
X214825000Y-83610000D03*
X212285000Y-83610000D03*
X217365000Y-83610000D03*
X212285000Y-86150000D03*
X214825000Y-86150000D03*
X217365000Y-86150000D03*
X212285000Y-88690000D03*
X214825000Y-88690000D03*
X217365000Y-88690000D03*
X214825000Y-91230000D03*
X212285000Y-91230000D03*
X217365000Y-91230000D03*
X214825000Y-93770000D03*
X212285000Y-93770000D03*
X217365000Y-93770000D03*
X214825000Y-96310000D03*
X212285000Y-96310000D03*
X217365000Y-96310000D03*
X212285000Y-98850000D03*
X214825000Y-98850000D03*
X217365000Y-98850000D03*
X212285000Y-101390000D03*
X214825000Y-101390000D03*
X217365000Y-101390000D03*
X212285000Y-103930000D03*
X214825000Y-103930000D03*
X217365000Y-103930000D03*
X214825000Y-106470000D03*
X212285000Y-106470000D03*
X217365000Y-106470000D03*
X214825000Y-109010000D03*
X212285000Y-109010000D03*
X217365000Y-109010000D03*
X212285000Y-111550000D03*
X214825000Y-111550000D03*
X217365000Y-111550000D03*
X212285000Y-114090000D03*
X214825000Y-114090000D03*
X217365000Y-114090000D03*
X212285000Y-116630000D03*
X214825000Y-116630000D03*
X217365000Y-116630000D03*
X214825000Y-119170000D03*
X212285000Y-119170000D03*
X217365000Y-119170000D03*
%TD*%
D11*
%TO.C,JP1*%
X93700000Y-97250000D03*
D12*
X96240000Y-97250000D03*
%TD*%
D13*
%TO.C,J11*%
X212990000Y-138489669D03*
X187990000Y-138489669D03*
D14*
X194950000Y-137069669D03*
D15*
X197720000Y-137069669D03*
X200490000Y-137069669D03*
X203260000Y-137069669D03*
X206030000Y-137069669D03*
X196335000Y-139909669D03*
X199105000Y-139909669D03*
X201875000Y-139909669D03*
X204645000Y-139909669D03*
%TD*%
D16*
%TO.C,H4*%
X221000000Y-146000000D03*
%TD*%
%TO.C,H3*%
X69000000Y-146000000D03*
%TD*%
D17*
%TO.C,J1*%
X68500000Y-64000000D03*
X75500000Y-64000000D03*
%TD*%
D11*
%TO.C,J14*%
X132000000Y-112000000D03*
D12*
X132000000Y-114540000D03*
X129460000Y-112000000D03*
X129460000Y-114540000D03*
X126920000Y-112000000D03*
X126920000Y-114540000D03*
X124380000Y-112000000D03*
X124380000Y-114540000D03*
X121840000Y-112000000D03*
X121840000Y-114540000D03*
%TD*%
D18*
%TO.C,SW1*%
X198957500Y-46082500D03*
X210957500Y-46082500D03*
X198957500Y-40082500D03*
X210957500Y-40082500D03*
D17*
X208957500Y-44332500D03*
X204957500Y-44332500D03*
X200957500Y-44332500D03*
X208957500Y-41832500D03*
X204957500Y-41832500D03*
X200957500Y-41832500D03*
%TD*%
D11*
%TO.C,J7*%
X74000000Y-91000000D03*
D12*
X76540000Y-91000000D03*
X79080000Y-91000000D03*
%TD*%
D19*
%TO.C,J13*%
X80200000Y-36450000D03*
X86800000Y-36450000D03*
%TD*%
D17*
%TO.C,J4*%
X68500000Y-79000000D03*
X75500000Y-79000000D03*
%TD*%
D15*
%TO.C,J3*%
X105500000Y-127325000D03*
D20*
X84500000Y-127325000D03*
%TD*%
D21*
%TO.C,J8*%
X136500000Y-139140000D03*
D15*
X139000000Y-139140000D03*
X141000000Y-139140000D03*
X143500000Y-139140000D03*
D22*
X133430000Y-141850000D03*
X146570000Y-141850000D03*
%TD*%
D13*
%TO.C,J6*%
X142505000Y-46430000D03*
X167495000Y-46430000D03*
D14*
X150685000Y-48970000D03*
D15*
X152975000Y-48970000D03*
X155265000Y-48970000D03*
X157555000Y-48970000D03*
X159845000Y-48970000D03*
X149545000Y-46430000D03*
X151835000Y-46430000D03*
X154125000Y-46430000D03*
X156415000Y-46430000D03*
X158705000Y-46430000D03*
X150685000Y-43890000D03*
X152975000Y-43890000D03*
X155265000Y-43890000D03*
X157555000Y-43890000D03*
X159845000Y-43890000D03*
%TD*%
D21*
%TO.C,J12*%
X107000000Y-45860000D03*
D15*
X104500000Y-45860000D03*
X102500000Y-45860000D03*
X100000000Y-45860000D03*
D22*
X110070000Y-43150000D03*
X96930000Y-43150000D03*
%TD*%
D16*
%TO.C,H1*%
X69000000Y-39000000D03*
%TD*%
D21*
%TO.C,J9*%
X118300000Y-139140000D03*
D15*
X120800000Y-139140000D03*
X122800000Y-139140000D03*
X125300000Y-139140000D03*
D22*
X128370000Y-141850000D03*
X115230000Y-141850000D03*
%TD*%
D23*
%TO.C,D4*%
X75500000Y-147175000D03*
D10*
X78040000Y-147175000D03*
%TD*%
D16*
%TO.C,H2*%
X221000000Y-39000000D03*
%TD*%
D11*
%TO.C,J16*%
X86000000Y-92000000D03*
D12*
X86000000Y-89460000D03*
X88540000Y-92000000D03*
X88540000Y-89460000D03*
X91080000Y-92000000D03*
X91080000Y-89460000D03*
X93620000Y-92000000D03*
X93620000Y-89460000D03*
X96160000Y-92000000D03*
X96160000Y-89460000D03*
%TD*%
D11*
%TO.C,JP2*%
X88225000Y-46150000D03*
D12*
X90765000Y-46150000D03*
%TD*%
D17*
%TO.C,J10*%
X125000000Y-45500000D03*
X125000000Y-38500000D03*
%TD*%
D13*
%TO.C,J5*%
X153990000Y-138489669D03*
X178990000Y-138489669D03*
D14*
X160950000Y-137069669D03*
D15*
X163720000Y-137069669D03*
X166490000Y-137069669D03*
X169260000Y-137069669D03*
X172030000Y-137069669D03*
X162335000Y-139909669D03*
X165105000Y-139909669D03*
X167875000Y-139909669D03*
X170645000Y-139909669D03*
%TD*%
D11*
%TO.C,JP3*%
X88225000Y-42500000D03*
D12*
X90765000Y-42500000D03*
%TD*%
D17*
%TO.C,J2*%
X68500000Y-49000000D03*
X75500000Y-49000000D03*
%TD*%
M02*
