%TF.GenerationSoftware,KiCad,Pcbnew,(6.0.4-0)*%
%TF.CreationDate,2022-04-09T07:25:14+02:00*%
%TF.ProjectId,aquarius-plus,61717561-7269-4757-932d-706c75732e6b,rev?*%
%TF.SameCoordinates,Original*%
%TF.FileFunction,Profile,NP*%
%FSLAX46Y46*%
G04 Gerber Fmt 4.6, Leading zero omitted, Abs format (unit mm)*
G04 Created by KiCad (PCBNEW (6.0.4-0)) date 2022-04-09 07:25:14*
%MOMM*%
%LPD*%
G01*
G04 APERTURE LIST*
%TA.AperFunction,Profile*%
%ADD10C,0.100000*%
%TD*%
G04 APERTURE END LIST*
D10*
X69000000Y-150000000D02*
X221000000Y-150000000D01*
X220200000Y-60250000D02*
X232000000Y-60250000D01*
X218200000Y-134500000D02*
G75*
G03*
X220200000Y-136500000I2000000J0D01*
G01*
X69000000Y-35000000D02*
G75*
G03*
X65000000Y-39000000I0J-4000000D01*
G01*
X232000000Y-124750000D02*
X220200000Y-124750000D01*
X65000000Y-146000000D02*
G75*
G03*
X69000000Y-150000000I4000000J0D01*
G01*
X225000000Y-138500000D02*
G75*
G03*
X223000000Y-136500000I-2000000J0D01*
G01*
X218200000Y-50500000D02*
X218200000Y-58250000D01*
X69000000Y-35000000D02*
X221000000Y-35000000D01*
X223000000Y-48500000D02*
G75*
G03*
X225000000Y-46500000I0J2000000D01*
G01*
X225000000Y-138500000D02*
X225000000Y-146000000D01*
X225000000Y-39000000D02*
G75*
G03*
X221000000Y-35000000I-4000000J0D01*
G01*
X220200000Y-136500000D02*
X223000000Y-136500000D01*
X65000000Y-39000000D02*
X65000000Y-146000000D01*
X220200000Y-124750000D02*
G75*
G03*
X218200000Y-126750000I0J-2000000D01*
G01*
X221000000Y-150000000D02*
G75*
G03*
X225000000Y-146000000I0J4000000D01*
G01*
X218200000Y-58250000D02*
G75*
G03*
X220200000Y-60250000I2000000J0D01*
G01*
X220200000Y-48500000D02*
G75*
G03*
X218200000Y-50500000I0J-2000000D01*
G01*
X218200000Y-126750000D02*
X218200000Y-134500000D01*
X225000000Y-39000000D02*
X225000000Y-46500000D01*
X232000000Y-60250000D02*
X232000000Y-124750000D01*
X223000000Y-48500000D02*
X220200000Y-48500000D01*
M02*
